<?xml version="1.0" encoding="UTF-8"?>
<svg id="Layer_1" data-name="Layer 1" xmlns="http://www.w3.org/2000/svg" viewBox="0 0 32 32">
  <defs>
    <style>
      .cls-1 {
        fill: #f1f4f3;
      }

      .cls-2 {
        fill: #82c21c;
      }

      .cls-3 {
        fill: #072220;
      }
    </style>
  </defs>
  <circle class="cls-3" cx="16" cy="16" r="16"/>
  <g>
    <path class="cls-2" d="M19.18,11.95c0-1.76-1.42-3.18-3.18-3.18s-3.18,1.42-3.18,3.18c0,1.19.66,2.23,1.63,2.77l.07-2.11c0-.86.7-1.56,1.56-1.56h.09c.68,0,1.23.55,1.23,1.23v2.52c1.05-.52,1.78-1.6,1.78-2.85h0Z"/>
    <path class="cls-1" d="M17.4,12.29c0-.68-.55-1.23-1.23-1.23h-.09c-.86,0-1.56.7-1.56,1.56l-.07,2.11-.15,4.65c-.03.14-.05,3.37-.05,3.37-.27-.28-.58-.6-.85-.9-.64-.71-1.81-1.19-2.59-1.28-.41-.05-.72,0-.93.17-.07.05-.13.11-.19.17-.4.4-.71,1.03-.42,1.5.12.2.33.34.55.48.29.19.79.4,1.16.87.62.8,2.06,2.58,2.95,3.53.18.11.57.5.76.6.56.36,1.02.69,1.17.87.12.14.86.52.86.52.59.37,1.67.72,2.91.72s2.37.07,3.2-.66h.04l.02-.06c.85-.78,1.37-1.85,1.37-3.04v-5.69c0-.28-.06-1.21-.85-1.49-.38-.13-.73-.08-1.04.05h-.07s-.02,0-.02,0c-.14-.51-.48-.84-.98-.93-.61-.11-1.03.08-1.29.26-.25-.54-.76-.83-1.44-.77-.51.04-.9.3-1.17.63v-6.02h0Z"/>
    <path class="cls-2" d="M23.09,17.23l.63.7c.12.14.34.13.45-.02,1.22-1.69,1.89-3.72,1.89-5.86,0-5.55-4.51-10.06-10.06-10.06-.38,0-.77.02-1.15.06-4.63.52-8.35,4.25-8.85,8.88-.27,2.52.39,4.98,1.83,6.97.11.15.33.16.45.02l.63-.7c.09-.1.1-.25.02-.36-1.01-1.48-1.54-3.24-1.49-5.07.13-4.45,3.71-8.09,8.15-8.3,4.91-.24,8.97,3.7,8.97,8.55,0,1.74-.53,3.41-1.49,4.82-.08.11-.07.26.02.36h0Z"/>
    <path class="cls-1" d="M20.26,14.08l.67.74c.14.15.38.12.48-.06.42-.83.64-1.75.64-2.71,0-2.85-2.02-5.34-4.81-5.92-.81-.17-1.67-.17-2.48,0-2.79.58-4.81,3.07-4.81,5.92,0,.96.22,1.87.64,2.71.09.18.34.22.48.06l.67-.74c.08-.08.09-.2.05-.3-.22-.55-.34-1.13-.34-1.72,0-1.91,1.2-3.63,3-4.28,1-.37,2.12-.37,3.12,0,1.79.66,3,2.38,3,4.28,0,.59-.12,1.18-.34,1.72-.04.1-.03.22.05.3h0Z"/>
  </g>
</svg>