<?xml version="1.0" encoding="UTF-8"?>
<svg id="Layer_1" data-name="Layer 1" xmlns="http://www.w3.org/2000/svg" xmlns:xlink="http://www.w3.org/1999/xlink" viewBox="0 0 500 500">
  <defs>
    <style>
      .cls-1 {
        fill: #873650;
      }

      .cls-2 {
        fill: #e0f1ed;
      }

      .cls-3 {
        clip-path: url(#clippath-4);
      }

      .cls-4 {
        fill: #805b67;
      }

      .cls-5 {
        fill: #55293c;
      }

      .cls-6 {
        fill: #b77537;
      }

      .cls-7 {
        fill: #e29b50;
      }

      .cls-8 {
        stroke: #94d3bf;
      }

      .cls-8, .cls-9, .cls-10, .cls-11, .cls-12, .cls-13, .cls-14, .cls-15, .cls-16, .cls-17, .cls-18, .cls-19, .cls-20, .cls-21, .cls-22, .cls-23 {
        fill: none;
      }

      .cls-8, .cls-9, .cls-12, .cls-14, .cls-22 {
        stroke-miterlimit: 10;
      }

      .cls-8, .cls-15 {
        stroke-width: .25px;
      }

      .cls-24 {
        fill: #fff;
      }

      .cls-9 {
        stroke: #fff;
      }

      .cls-9, .cls-13, .cls-15, .cls-16, .cls-17, .cls-18, .cls-19, .cls-20, .cls-21, .cls-22, .cls-23 {
        stroke-linecap: round;
      }

      .cls-9, .cls-13, .cls-16, .cls-17, .cls-19, .cls-20, .cls-23 {
        stroke-width: .5px;
      }

      .cls-10, .cls-13, .cls-15, .cls-16, .cls-17, .cls-18, .cls-19, .cls-20, .cls-21, .cls-23 {
        stroke-linejoin: round;
      }

      .cls-10, .cls-21 {
        stroke: #e985b6;
      }

      .cls-25 {
        fill: #facebc;
      }

      .cls-26 {
        opacity: .86;
      }

      .cls-12 {
        stroke: #81c341;
        stroke-width: 5px;
      }

      .cls-27 {
        fill: #732d43;
      }

      .cls-28 {
        fill: #ef5d9d;
      }

      .cls-13, .cls-15 {
        stroke: #f5a8a4;
      }

      .cls-29 {
        clip-path: url(#clippath-1);
      }

      .cls-14 {
        stroke: #2b337b;
        stroke-dasharray: 3 7;
        stroke-width: 3px;
      }

      .cls-30 {
        clip-path: url(#clippath-5);
      }

      .cls-31 {
        fill: #fcbc6f;
      }

      .cls-32 {
        clip-path: url(#clippath-3);
      }

      .cls-16 {
        stroke: #fdeaf2;
      }

      .cls-33 {
        fill: #e985b6;
      }

      .cls-17 {
        stroke: #bf726b;
      }

      .cls-18 {
        stroke-width: 2px;
      }

      .cls-18, .cls-22 {
        stroke: #55293c;
      }

      .cls-19 {
        stroke: #a36d66;
      }

      .cls-34 {
        fill: #f5a8a4;
      }

      .cls-35 {
        clip-path: url(#clippath-2);
      }

      .cls-20 {
        stroke: #eff8fa;
      }

      .cls-36 {
        fill: #3b2027;
      }

      .cls-37 {
        fill: #eba254;
      }

      .cls-38 {
        fill: #81c341;
      }

      .cls-39 {
        clip-path: url(#clippath);
      }

      .cls-23 {
        stroke: #3b2027;
      }

      .cls-40 {
        fill: #b5e2ec;
      }
    </style>
    <clipPath id="clippath">
      <rect class="cls-11" x="130.35" y="188.33" width="11.85" height="9.88"/>
    </clipPath>
    <clipPath id="clippath-1">
      <rect class="cls-11" x="138.42" y="172.11" width="6.75" height="4.8"/>
    </clipPath>
    <clipPath id="clippath-2">
      <rect class="cls-11" x="112.63" y="168.66" width="6.78" height="4.75"/>
    </clipPath>
    <clipPath id="clippath-3">
      <rect class="cls-11" x="261.75" y="178.69" width="12.21" height="10.19"/>
    </clipPath>
    <clipPath id="clippath-4">
      <rect class="cls-11" x="258.68" y="161.97" width="6.96" height="4.94"/>
    </clipPath>
    <clipPath id="clippath-5">
      <rect class="cls-11" x="285.23" y="158.42" width="6.99" height="4.9"/>
    </clipPath>
  </defs>
  <path class="cls-12" d="M90.28,56.41h341.91c7.41,0,13.42,6.02,13.42,13.42v256.54c0,7.41-6.02,13.43-13.43,13.43H90.28c-7.41,0-13.43-6.02-13.43-13.43V69.83c0-7.41,6.02-13.43,13.43-13.43Z"/>
  <path class="cls-14" d="M90.28,56.41h341.91c7.41,0,13.42,6.02,13.42,13.42v256.54c0,7.41-6.02,13.43-13.43,13.43H90.28c-7.41,0-13.43-6.02-13.43-13.43V69.83c0-7.41,6.02-13.43,13.43-13.43Z"/>
  <polyline class="cls-18" points="450.93 454.96 405.97 199.88 369.63 454.76"/>
  <path class="cls-5" d="M410.48,197.73c0,2.49-2.02,4.51-4.51,4.51s-4.51-2.02-4.51-4.51,2.02-4.51,4.51-4.51,4.51,2.02,4.51,4.51"/>
  <polygon class="cls-38" points="399.33 192.31 400.84 199.88 411.72 199.28 412.62 190.59 399.33 192.31"/>
  <path class="cls-38" d="M410.9,174.68s3.74-5.93,7.35,0"/>
  <path class="cls-15" d="M407.8,190s.4-2.2-1.83-3.25c0,0,3.3-.35,5.01,1.22"/>
  <path class="cls-8" d="M383.24,177.17s-4.69,1.2-4.69,7.34,4.69,7.17,4.69,7.17"/>
  <path class="cls-2" d="M383.24,177.17s-4.69,1.2-4.69,7.34,4.69,7.17,4.69,7.17"/>
  <rect class="cls-5" x="384.62" y="176.59" width="8.23" height="15.83"/>
  <path class="cls-5" d="M389.67,184.5c0,4.37-2.26,7.92-5.06,7.92s-5.06-3.54-5.06-7.92,2.26-7.92,5.06-7.92,5.06,3.54,5.06,7.92"/>
  <path class="cls-38" d="M380.15,184.51c0-4.04,1.91-7.37,4.4-7.92-2.76.06-4.99,3.57-4.99,7.91s2.19,7.78,4.91,7.9c-2.44-.6-4.31-3.9-4.31-7.9"/>
  <polygon class="cls-5" points="394.63 174.22 396.17 194.79 419.77 191.89 420.29 174.22 394.63 174.22"/>
  <polygon class="cls-38" points="394.63 174.22 388.31 174.74 390.11 193.99 396.17 194.79 394.63 174.22"/>
  <polygon class="cls-38" points="397.16 177.92 398.19 191.84 410.14 190.38 410.4 177.92 397.16 177.92"/>
  <polygon class="cls-2" points="398.67 179.5 399.47 190.26 408.7 189.13 408.9 179.5 398.67 179.5"/>
  <path class="cls-38" d="M417.36,184.28c0,1.95-.85,3.52-1.89,3.52s-1.89-1.58-1.89-3.52.85-3.52,1.89-3.52,1.89,1.58,1.89,3.52"/>
  <path class="cls-38" d="M418.61,177.17c0,.44-.28.8-.62.8s-.62-.36-.62-.8.28-.79.62-.79.62.36.62.79"/>
  <polygon class="cls-38" points="396.99 175.45 410.4 176.37 410.4 175.47 396.99 175.45"/>
  <path class="cls-38" d="M391.81,170.63h-14.39c-2.27,0-4.11-1.84-4.11-4.11s1.84-4.11,4.11-4.11h14.39c2.27,0,4.11,1.84,4.11,4.11s-1.84,4.11-4.11,4.11"/>
  <path class="cls-22" d="M395.24,166.52h.81c.87,0,1.58.71,1.58,1.58v6.73"/>
  <path class="cls-5" d="M395.24,166.45c0,.74-.32,1.34-.71,1.34s-.71-.6-.71-1.34.32-1.34.71-1.34.71.6.71,1.34"/>
  <line class="cls-18" x1="405.97" y1="202.24" x2="408.98" y2="454.76"/>
  <path class="cls-23" d="M115.2,172.16s-9.48,27.33.83,36.9"/>
  <path class="cls-36" d="M154.83,157.67s-3.45-7.82-9.7-7.72c0,0-5.95-12.32-16.4-9.65-10.45,2.67-10.31,13.95-8.52,17.37,0,0-20.74,43.49,4.62,57.15,25.36,13.65,52.08.03,51.19-16.61-.89-16.64-19-21.07-16.55-32.36,2.45-11.29-4.63-8.18-4.63-8.18"/>
  <path class="cls-28" d="M45.8,158.46c.07.54-.1,1.01-.39,1.04-.28.04-.57-.37-.65-.91-.07-.54.1-1.01.39-1.04.28-.04.57.37.64.91"/>
  <path class="cls-28" d="M130.35,221.36s-43.51,6.2-53.49,2.48c-9.98-3.72-33.83-38.97-33.83-38.97l5.91-4.71s29.63,27.97,32.87,29.44c3.23,1.46,37.76-7.46,37.76-7.46"/>
  <path class="cls-25" d="M189.46,201.57s-3.45-6.23-2.71-7.64c.74-1.41,4.3,4.6,4.3,4.6,0,0,11.65-3.41,12.76-2.34,1.11,1.07-6.2,3-6.2,3,0,0,.41,2.6-3.34,3.71"/>
  <path class="cls-28" d="M161.3,203.1c4.84,2.56,16.4,25.75,16.4,25.75,0,0,7.46-18.78,10.57-28.02l7.06,1.97s-5.25,43.25-10.3,47.24c-5.06,3.99-25.1-15.21-25.1-15.21"/>
  <path class="cls-28" d="M136.49,198.34s-17.18,3.47-20.2,5.22c-3.01,1.75-3.6,13.91-7.2,18.48-3.6,4.57,3.4,12.35,3.4,12.35,0,0-.68,18.76-1.58,34.91h53.09s-2.07-34.09-2.2-40.19c-.13-6.09,2.35-24.45-.25-25.84-2.6-1.39-25.07-4.92-25.07-4.92"/>
  <path class="cls-16" d="M138.83,231.8s12.5,7.78,14.95-5.19"/>
  <path class="cls-25" d="M136.27,209.93h0c3.27,0,5.92-2.65,5.92-5.92v-15.68h-11.85v15.68c0,3.27,2.65,5.92,5.92,5.92"/>
  <g class="cls-26">
    <g class="cls-39">
      <path class="cls-34" d="M142.19,194.81c-3.62,2.38-7.75,3.63-11.85,3.37v-9.85h11.85v6.48Z"/>
    </g>
  </g>
  <path class="cls-25" d="M117.99,167.84c-3.33,11.41,1.67,23.68,11.62,26.58,9.95,2.91,21.08-4.65,24.41-16.06,3.33-11.41-4.09-22.82-14.04-25.73-9.95-2.91-18.67,3.8-22,15.2"/>
  <path class="cls-25" d="M152.05,178.25c-1.48,2.1-2.28,4.56-.5,5.81,1.78,1.25,5.47.83,6.95-1.27,1.48-2.1,1.24-4.82-.54-6.08-1.78-1.25-4.42-.57-5.9,1.53"/>
  <path class="cls-13" d="M156.69,182.44c.84-1.19.7-2.74-.31-3.45-1.01-.71-2.51-.32-3.36.87-.21.3-.4.61-.54.92"/>
  <path class="cls-13" d="M152.17,181.9c.21.22.5.36.83.36.62,0,1.12-.5,1.12-1.12s-.5-1.12-1.12-1.12"/>
  <path class="cls-17" d="M137.48,163.69s-.41-1.56-2.27-1.63"/>
  <path class="cls-17" d="M124.83,161.59s-1.22-.44-2.48.78"/>
  <g class="cls-26">
    <g class="cls-29">
      <path class="cls-34" d="M138.44,174.06c-.17,1.3,1.19,2.56,3.05,2.81,1.86.25,3.5-.61,3.68-1.91.17-1.3-1.19-2.56-3.05-2.8-1.86-.25-3.5.61-3.68,1.91"/>
    </g>
  </g>
  <g class="cls-26">
    <g class="cls-35">
      <path class="cls-34" d="M112.63,171.04c0,1.31,1.52,2.38,3.39,2.38s3.39-1.06,3.39-2.38-1.52-2.38-3.39-2.38-3.39,1.06-3.39,2.38"/>
    </g>
  </g>
  <path class="cls-17" d="M134.23,170.82s.7-3.7-.95-3.91-2.11,3.15-2.11,3.15"/>
  <path class="cls-17" d="M124.5,168.88s.9-3.41-.26-3.44c-1.16-.03-1.54,3.05-1.54,3.05"/>
  <path class="cls-17" d="M128.73,165.85s-1.09,3.26-1.9,5.51l-2.28-.13c-.21.64.54,1.87,2.09,2.58"/>
  <path class="cls-36" d="M155.24,176.15c.57-3.46,1.25-13.98-9.43-22.32-12.97-10.13-22.67-.04-22.67-.04,1.61,8.57,17.89,5.94,17.89,5.94,1.18,6.38,5.73,7.44,5.73,7.44-.04,7.22,3.72,9.95,5.49,10.83.81-1.02,1.89-1.66,2.99-1.85"/>
  <path class="cls-23" d="M141.46,158.5s-2.67,5.96,3.67,9.69"/>
  <path class="cls-17" d="M125.86,176.5s.52.7.41,1.5c-.11.8-.65.1-.2-.46"/>
  <path class="cls-36" d="M156.36,440.7s-.11,5.22-1.32,13.77c-.05.37.36.63.67.41l13.65-9.69-7.15-8.65-5.86,4.16Z"/>
  <path class="cls-38" d="M163.96,269h-53.18s-6.26,40.2-.69,84.69c.31,2.49.96,4.92,1.95,7.23,12.82,29.95,43.08,79.57,43.08,79.57l7.35-4.52s-19.62-40.03-31.93-82.48c0,0,.57-42.39,5.61-69.56l5.37,1.35s-7.78,60.34-8.45,158.73h7.62s31.54-135.63,23.33-175"/>
  <polyline class="cls-9" points="137.65 269.9 136.15 281.48 143.62 282.96"/>
  <path class="cls-9" d="M122.32,272.46s-1.55,6.29-9.25,6.36"/>
  <polygon class="cls-40" points="141.29 444.25 132.59 444.25 132.21 441.32 141.61 440.73 141.29 444.25"/>
  <polygon class="cls-40" points="163.52 436.41 154.81 442.98 152.3 439.3 161.92 434.09 163.52 436.41"/>
  <polygon class="cls-36" points="140.69 444.25 142.92 454.75 121.1 454.96 133.08 444.25 140.69 444.25"/>
  <line class="cls-9" x1="135.11" y1="368.44" x2="133.33" y2="403.16"/>
  <path class="cls-9" d="M154.59,273.62s.15,6.53,7.12,6.09"/>
  <polygon class="cls-36" points="41.44 158.45 49.07 188.33 61.87 190.81 62.65 156.08 41.44 158.45"/>
  <path class="cls-25" d="M43.67,184.36s-2.87-3.08-2.94-6.72c-.07-3.64,5.64-8.98,8.53-9.2,2.89-.22-5.57,6.68-5.57,6.68,0,0,8.83-2.23,10.76-.44,1.93,1.78-9.42,2.38-9.42,2.38,0,0,7.49,2.15,8.83,4.68,1.34,2.52-6.16-.57-6.16-.57l-4.03,3.21Z"/>
  <polygon class="cls-27" points="62.65 156.08 65.66 156.75 64.16 190.81 61.87 190.81 62.65 156.08"/>
  <path class="cls-28" d="M64.66,159.96c0,.54-.23.98-.52.98s-.52-.44-.52-.98.23-.98.52-.98.52.44.52.98"/>
  <path class="cls-28" d="M64.66,163.29c0,.54-.23.98-.52.98s-.52-.44-.52-.98.23-.98.52-.98.52.44.52.98"/>
  <path class="cls-23" d="M159.99,155.13c-4.99-1-5.19,3.73-5.19,3.73,0,0,.38-7.51-1.46-8.63"/>
  <path class="cls-16" d="M112.51,234.38s-4.21-4.19-4.43-9.35c-.22-5.17,3.3-6.17,5.55-12.07"/>
  <path class="cls-33" d="M34.03,144.45l25.04-3.48c2.77-.38,4.7-2.94,4.32-5.71l-2.7-19.48c-.38-2.77-2.94-4.7-5.71-4.32l-25.04,3.48c-2.77.38-4.7,2.94-4.32,5.71l2.7,19.48c.38,2.77,2.94,4.7,5.71,4.32"/>
  <polygon class="cls-33" points="44.95 141.18 43.85 151.96 39.78 141.89 44.95 141.18"/>
  <path class="cls-24" d="M44.42,127.4s-.28-9.71,5.95-9.1c6.23.61,5.06,14.62-4.42,20.12"/>
  <path class="cls-24" d="M44.42,127.4s-2.37-9.42-8.2-7.14c-5.83,2.29-.89,15.45,9.73,18.15"/>
  <path class="cls-25" d="M318.83,174.33s-6.57-3.34-9.8-2c-3.23,1.33,5.88,2,5.88,2,0,0-5.4,1.14-5.4,2.89s5.7-1.15,5.7-1.15c0,0-2.55,1.92-2.55,3.65s2.78-2.2,2.78-2.2l.33,2.44s2.52-1.77,3.05-5.63"/>
  <path class="cls-38" d="M315.06,180.16s3.09-1.96,3.77-6.86c0,0,16.25,12.07,20.35,36.32,4.1,24.25-15.03,1.52-24.12-29.46"/>
  <polygon class="cls-37" points="344.05 201.95 347.78 189.51 304.94 193.89 306.25 202.14 344.05 201.95"/>
  <path class="cls-31" d="M208.31,401.38s-3.53,4.38-8.37,12.24l-4.47-17.16,11.03-2.03,1.81,6.95Z"/>
  <path class="cls-24" d="M297.9,197.19c-1.92-1.53-22.98-5.71-29.26-6.82v-.28s-.28.05-.79.14c-.51-.09-.79-.14-.79-.14v.28c-6.28,1.12-29.31,5.29-31.23,6.82-2.22,1.78,2.61,72.38,2.61,72.38h56.84s4.83-70.61,2.61-72.38"/>
  <path class="cls-25" d="M267.85,200.96h0c-3.37,0-6.11-2.73-6.11-6.11v-16.16h12.21v16.16c0,3.37-2.73,6.11-6.11,6.11"/>
  <g class="cls-26">
    <g class="cls-32">
      <path class="cls-34" d="M261.75,185.37c3.73,2.45,7.98,3.74,12.21,3.47v-10.15h-12.21v6.68Z"/>
    </g>
  </g>
  <path class="cls-25" d="M286.7,157.57c3.43,11.76-1.72,24.4-11.98,27.4-10.26,3-21.73-4.79-25.17-16.55-3.43-11.76,4.21-23.52,14.47-26.52,10.26-3,19.24,3.91,22.68,15.67"/>
  <path class="cls-25" d="M251.59,168.3c1.53,2.17,2.35,4.7.52,5.99-1.84,1.29-5.64.86-7.17-1.31-1.52-2.17-1.27-4.97.56-6.26,1.84-1.29,4.56-.58,6.09,1.58"/>
  <path class="cls-13" d="M246.8,172.62c-.87-1.23-.73-2.82.32-3.56,1.04-.73,2.59-.33,3.46.9.22.31.41.63.56.95"/>
  <path class="cls-13" d="M251.46,172.07c-.21.23-.52.38-.85.38-.64,0-1.16-.52-1.16-1.16s.52-1.16,1.16-1.16"/>
  <path class="cls-19" d="M266.61,153.3s.42-1.61,2.34-1.68"/>
  <path class="cls-19" d="M279.65,151.13s1.26-.45,2.55.8"/>
  <path class="cls-19" d="M275.63,155.53s1.12,3.36,1.96,5.66c0,0,1.61-.42,2.34-.14.73.28-.56,1.92-2.15,2.66"/>
  <path class="cls-19" d="M279.12,166.08c-.43,1.01-1.43,1.72-2.6,1.72-1.56,0-2.82-1.26-2.82-2.82"/>
  <g class="cls-26">
    <g class="cls-3">
      <path class="cls-34" d="M265.62,163.98c.18,1.34-1.23,2.64-3.14,2.89-1.91.26-3.61-.62-3.79-1.97-.18-1.34,1.23-2.64,3.14-2.89,1.91-.26,3.61.62,3.79,1.97"/>
    </g>
  </g>
  <g class="cls-26">
    <g class="cls-30">
      <path class="cls-34" d="M292.22,160.87c0,1.35-1.57,2.45-3.5,2.45s-3.5-1.1-3.5-2.45,1.56-2.45,3.5-2.45,3.5,1.1,3.5,2.45"/>
    </g>
  </g>
  <path class="cls-19" d="M270.11,160.41s-.72-3.81.97-4.04c1.7-.22,2.17,3.25,2.17,3.25"/>
  <path class="cls-19" d="M280.14,158.42s-.93-3.51.27-3.54c1.2-.03,1.59,3.15,1.59,3.15"/>
  <path class="cls-36" d="M238.19,269.57h56.84s1.68,43.06-7.32,92.89c-5.68,15.47-76.54,40.19-76.54,40.19l-3.28-9.13s38.4-21.97,56.3-39.49c0,0,5.07-49.3,3.09-68.75l-3,.55s-.13,60.32.54,158.69h-7.62s-19.29-131.77-19.03-174.96"/>
  <path class="cls-20" d="M283.5,272.74s1.55,6.29,9.25,6.36"/>
  <polygon class="cls-1" points="256.63 444.53 265.32 444.53 265.7 441.61 256.3 441.01 256.63 444.53"/>
  <polygon class="cls-1" points="205.58 393.49 208.02 404.12 212.31 402.92 208.3 392.74 205.58 393.49"/>
  <path class="cls-31" d="M264.87,444.53s3.55,4.21,10.32,10.43h-18.8l.87-10.43h7.62Z"/>
  <path class="cls-38" d="M261.75,191.33l-13.03,2.52s3.64,57.72-13.47,89.4c0,0-11.32-2.16-21.12-11.73,0,0,12.69-19.68,16.92-41.69,4.23-22,.67-30.45,2.67-32.9,2-2.45,28.02-6.84,28.02-6.84v1.24Z"/>
  <path class="cls-38" d="M273.96,191.37l12.44,2.59s11.38,45.73,1.73,94.26c0,0,12.83-.22,22.19-10.24,0,0-7.27-35.85-9.05-42.08-1.78-6.23-.3-35.47-1.93-38.74-1.63-3.27-25.37-6.73-25.37-6.73v.95Z"/>
  <path class="cls-20" d="M247.2,209.62l-5.46.89s-1.56-8.36,0-15.14"/>
  <path class="cls-20" d="M290.39,208.84l6.01.78s-1.07-8.59-4.26-14.31"/>
  <path class="cls-20" d="M246.08,215.86c0,.55-.45,1-1,1s-1-.45-1-1,.45-1,1-1,1,.45,1,1Z"/>
  <path class="cls-20" d="M246.08,226.21c0,.55-.45,1-1,1s-1-.45-1-1,.45-1,1-1,1,.45,1,1Z"/>
  <path class="cls-20" d="M245.08,235.27c0,.55-.45,1-1,1s-1-.45-1-1,.45-1,1-1,1,.45,1,1Z"/>
  <path class="cls-20" d="M244.08,245.12c0,.55-.45,1-1,1s-1-.45-1-1,.45-1,1-1,1,.45,1,1Z"/>
  <path class="cls-20" d="M242.05,254.97c0,.55-.45,1-1,1s-1-.45-1-1,.45-1,1-1,1,.45,1,1Z"/>
  <path class="cls-20" d="M238.94,265.58c0,.55-.45,1-1,1s-1-.45-1-1,.45-1,1-1,1,.45,1,1Z"/>
  <path class="cls-20" d="M235.25,276.72c0,.55-.45,1-1,1s-1-.45-1-1,.45-1,1-1,1,.45,1,1Z"/>
  <path class="cls-38" d="M236.94,195.43s-5.2,1.85-9.65,5.53c-4.45,3.68-17.51,29.88-13.8,35.71,3.71,5.83,14.89.19,21.77-16.29"/>
  <polygon class="cls-7" points="270.85 204.53 277.03 248.19 313.59 247.8 310.83 201.12 270.85 204.53"/>
  <polygon class="cls-31" points="313.59 247.8 343.13 240.08 344.05 201.95 310.83 201.12 313.59 247.8"/>
  <polygon class="cls-24" points="316.93 230.82 339.28 204.97 341.74 210.77 320.6 239.34 316.93 230.82"/>
  <polygon class="cls-6" points="270.85 204.53 259.04 197.08 305.26 186.14 310.83 201.12 270.85 204.53"/>
  <path class="cls-38" d="M219.42,222.61s25.34-7.71,46.51-12.09l2.31,7.94s-45.52,27.49-53.33,19.68"/>
  <path class="cls-20" d="M253.92,212.96s-18.18,4.75-26.94,7.2"/>
  <polyline class="cls-20" points="267.22 270.99 268.55 283.25 261.75 284.94"/>
  <path class="cls-20" d="M242.05,280.12s5.87,1.71,5.87-6.46"/>
  <path class="cls-25" d="M266.21,211.48l4.99-4.55.38,2.7s5.06-4.79,6.99-4.79-5.51,6.65-5.51,6.65c0,0,5.58-2.72,7.32-2.57,1.74.15-6.83,3.98-6.83,3.98,0,0,7.04-1.68,8.09-.94,1.04.74-7.62,2.27-7.62,2.27,0,0,6.18.29,6.71,1.26.54.96-12.79,1.97-12.79,1.97l-1.73-5.97Z"/>
  <path class="cls-4" d="M249.06,166.34s3.51-2.76,5.13-14.41c0,0-6.35,2.16-7.62,4.05-1.28,1.89,2.5,10.35,2.5,10.35"/>
  <path class="cls-36" d="M246.56,155.99s5.42-4.33,12.76-4.94c7.35-.61,23.97-1.28,25.9-7.96,1.93-6.68-5.09,0-5.09,0,0,0,.41-10.17-2.7-10.17s-.15,8.28-.15,8.28c0,0-3.83-6.05-8.34-6.05s2.66,4.16,2.66,4.16c0,0-7.59-3.27-9.86-1.56-2.27,1.71,3.22,3.04,3.22,3.04,0,0-21.89,3.71-16.92,9.57,0,0-3.04-1.86-3.04-1.04s2.45,1.72,2.45,1.72c0,0-5.49,1.8-.89,4.94"/>
  <path class="cls-38" d="M301.14,147.18l23.95,8.1c2.65.9,5.52-.52,6.42-3.17l6.3-18.63c.9-2.65-.52-5.52-3.17-6.42l-23.95-8.1c-2.65-.9-5.53.52-6.42,3.17l-6.3,18.63c-.9,2.65.52,5.52,3.17,6.42"/>
  <polygon class="cls-38" points="312.37 149.15 306.57 158.3 307.43 147.47 312.37 149.15"/>
  <path class="cls-24" d="M318.07,136.59s4.1-8.81,9.4-5.48c5.3,3.34-2.02,15.34-12.96,16.01"/>
  <path class="cls-24" d="M318.07,136.59s2.1-9.49-4.14-10.06c-6.24-.57-7.71,13.42.57,20.59"/>
  <path class="cls-10" d="M231.72,104.57l-62.73-8.38c-2.19-.29-4.21,1.25-4.5,3.44l-5.26,39.38c-.29,2.19,1.25,4.21,3.44,4.5l11.02,1.47-4.08,13.85,11.14-12.91,44.65,5.96c2.19.29,4.21-1.25,4.5-3.44l5.26-39.38c.29-2.19-1.25-4.21-3.44-4.5Z"/>
  <line class="cls-21" x1="174.97" y1="111.32" x2="219.72" y2="117.33"/>
  <line class="cls-21" x1="173.97" y1="118.38" x2="218.72" y2="124.39"/>
  <line class="cls-21" x1="172.95" y1="125.65" x2="199.94" y2="129.32"/>
  <line class="cls-18" x1="70.43" y1="455.59" x2="468.52" y2="455.59"/>
</svg>