<?xml version="1.0" encoding="UTF-8"?>
<svg id="Layer_1" data-name="Layer 1" xmlns="http://www.w3.org/2000/svg" xmlns:xlink="http://www.w3.org/1999/xlink" viewBox="0 0 500 500">
  <defs>
    <style>
      .cls-1 {
        font-family: Montserrat-ExtraBoldItalic, Montserrat;
        font-size: 20.71px;
      }

      .cls-1, .cls-2, .cls-3 {
        fill: #81c341;
        font-style: italic;
        font-weight: 700;
      }

      .cls-4 {
        fill: #7d1d42;
      }

      .cls-5 {
        fill: #b2d7ea;
      }

      .cls-6 {
        fill: #fcc296;
      }

      .cls-7 {
        stroke: #18104e;
      }

      .cls-7, .cls-8, .cls-9, .cls-10, .cls-11, .cls-12, .cls-13, .cls-14 {
        fill: none;
      }

      .cls-7, .cls-8, .cls-10, .cls-11, .cls-12, .cls-13, .cls-14 {
        stroke-miterlimit: 10;
      }

      .cls-15 {
        fill: #114675;
      }

      .cls-16 {
        fill: #fff;
      }

      .cls-17 {
        fill: #07033e;
      }

      .cls-18 {
        fill: #7c8684;
      }

      .cls-19 {
        fill: #a7c2d2;
      }

      .cls-8 {
        stroke: #ac254d;
      }

      .cls-20 {
        fill: #712759;
      }

      .cls-21 {
        fill: #dfedf9;
      }

      .cls-22 {
        fill: #c1dbed;
      }

      .cls-23 {
        fill: #ac254d;
      }

      .cls-24 {
        fill: #18104e;
      }

      .cls-2 {
        font-size: 26.94px;
      }

      .cls-2, .cls-3 {
        font-family: Montserrat-BoldItalic, Montserrat;
      }

      .cls-25 {
        fill: #d27d73;
      }

      .cls-26 {
        fill: #d4e2eb;
      }

      .cls-27 {
        clip-path: url(#clippath-1);
      }

      .cls-28 {
        fill: #ced1d6;
      }

      .cls-29 {
        fill: #c02e4e;
      }

      .cls-30 {
        fill: #522d31;
      }

      .cls-31 {
        fill: #0a2220;
      }

      .cls-32 {
        fill: #1471b9;
      }

      .cls-33 {
        fill: #ee8568;
      }

      .cls-34 {
        fill: #e4eceb;
      }

      .cls-35 {
        fill: #8ba1ae;
      }

      .cls-10 {
        stroke: #709bc2;
      }

      .cls-36 {
        fill: #db3759;
      }

      .cls-37 {
        fill: #2b337b;
      }

      .cls-11 {
        stroke: #bf756a;
      }

      .cls-38 {
        fill: #683c37;
      }

      .cls-39 {
        fill: #a74924;
      }

      .cls-40 {
        fill: #623814;
      }

      .cls-12 {
        stroke: #fff;
        stroke-width: 2px;
      }

      .cls-41 {
        fill: #f2f4f3;
      }

      .cls-42 {
        fill: #321831;
      }

      .cls-43 {
        clip-path: url(#clippath-2);
      }

      .cls-13 {
        stroke: #d2b383;
      }

      .cls-44 {
        fill: #f6f7fc;
      }

      .cls-45 {
        fill: #fffef8;
      }

      .cls-3 {
        font-size: 18.52px;
        opacity: .35;
      }

      .cls-46 {
        clip-path: url(#clippath);
      }

      .cls-47 {
        fill: #db906f;
      }

      .cls-14 {
        stroke: #ee8568;
        stroke-width: 1.15px;
      }
    </style>
    <clipPath id="clippath">
      <rect class="cls-9" x="287.87" y="150.05" width="7.67" height="11.59"/>
    </clipPath>
    <clipPath id="clippath-1">
      <path class="cls-9" d="M319.61,116.72c-4.06.78-5.76,9.74-3.8,20.03,1.97,10.28,6.85,17.99,10.91,17.22,4.06-.78,5.76-9.74,3.8-20.03-1.87-9.8-6.4-17.27-10.34-17.27-.19,0-.38.02-.57.05"/>
    </clipPath>
    <clipPath id="clippath-2">
      <rect class="cls-9" width="500" height="500"/>
    </clipPath>
  </defs>
  <path class="cls-5" d="M320.72,445c-8.93-10.84-40-12.56-70.72-12.56s-61.79,1.72-70.72,12.56c-9.33,11.33,7.57,17.82,28.67,20.67,11.09,1.5,32.78-1.08,42.05-1.08s30.97,2.58,42.05,1.08c21.1-2.85,38-9.33,28.67-20.67"/>
  <path class="cls-5" d="M462,448.49c0,8.87-32.04,16.06-71.56,16.06-15.82,0-40.44,1.12-51.11.45-10.67-.67-21.58-8.35-20.45-16.51,1.12-8.16,31.12-17.49,47.79-16.82s47.9,1.47,58.09,2.73c22.19,2.73,37.24,8.02,37.24,14.09"/>
  <path class="cls-5" d="M125.88,434.47c19.22-1.38,68.78-3.81,70.8,12.81.72,5.95-8.09,11.12-19.22,12.14-11.13,1.01-38.94-1.96-51.58,2.05-12.64,4.02-66.25,9.24-65.24-10.14,1.01-19.38,46.02-15.47,65.24-16.85"/>
  <path class="cls-6" d="M339.33,206.67l6.67,7.67-11.67,29.33-12-2s9.33-29.33,17-35"/>
  <path class="cls-32" d="M352.69,422.47c-2.7,1.42-6.45,9.64-8.89,12.56-2.44,2.91-8.53,8.04-9.23,12.77-.7,4.73,8.33,6.87,12.73,5.54,6.74-2.05,9.3-7.33,10.53-9.08,1.23-1.75,3.09-2.32,3.09-2.32,0,0,4.92-2.98,5.75-4.92.83-1.94,1.24-5.35.83-7.47-.41-2.12-1.17-6.15-3.51-7.99-2.33-1.84-8.59-.5-11.3.92"/>
  <path class="cls-6" d="M332.39,304.23h29.34s-.59,13.06-1.66,22.98c-1.11,10.24-3.59,22.73-4.43,26.84,1.79,4.01,6.53,15.53,6.36,23.52-.19,9.38-.49,17.6-.66,22.7-.17,5.1,2.63,22.93,2.63,22.93,0,0-1.14,3.62-5.85,8.05-4.13,3.89-7.75,4.98-11.07,3.87-3.32-1.1-.55-4.43,3.87-12.17-.03-.35-4.17-16.44-8.78-31.72-4.95-16.4-10.73-32.87-10.45-36.89.01-.17.06-.33.1-.49-1.46-6.23-1.36-21.28-1.25-28.69.11-7.41,1.82-20.94,1.82-20.94"/>
  <path class="cls-32" d="M419.74,396.32c-1.58,2.62-.53,11.59-1.1,15.35-.58,3.75-3.13,11.3-1.28,15.71,1.85,4.41,10.68,1.57,13.76-1.86,4.7-5.24,4.16-11.09,4.3-13.23.14-2.13,1.44-3.58,1.44-3.58,0,0,2.66-5.1,2.37-7.19-.3-2.09-1.71-5.22-3.16-6.82-1.45-1.6-4.19-4.66-7.14-5.02-2.95-.36-7.61,4.03-9.18,6.64"/>
  <path class="cls-6" d="M429.46,391.26s-11.63-13.8-14.13-18.25c-2.5-4.45-6.5-11.63-11.2-19.76-3.18-5.51-15.8-14.1-15.8-14.1,0,0,1.12-14.3.8-20.92-.31-6.61-2.2-21.1-2.2-21.1l-30.54,7.56s11.13,45.26,14.38,49.55c3.25,4.29,15.96,14.21,23.46,20.97,11.86,10.68,23.73,22.3,23.95,22.58.23,8.92-.42,13.19,2.99,12.42,3.41-.77,5.94-3.58,7.46-9.05,1.73-6.23.83-9.92.83-9.92"/>
  <path class="cls-36" d="M333.4,271s14.17,3.65,24.25,3.32c10.08-.33,28.18-3.35,28.18-3.35,0,0,4.78,5.25,6.46,12.96,1.59,7.32.5,27.97.95,31.83,1.26,10.94,3.15,19.56,3.15,19.56,0,0-11.97,3.31-18.89,6.3-6.93,2.98-17,4.97-30.54,4.64-13.54-.33-22.04-3.98-22.04-3.98,0,0-.57-26.82,1.26-41.44,1.49-11.99,7.24-29.84,7.24-29.84"/>
  <path class="cls-37" d="M387.25,273.21s-2.68-18.08-2.52-22.36c.59-14.86,9.19-32.96,5.35-44.4-3.83-11.44-17-11.34-29.29-11.02-11.48.29-17.98.33-21.73,4.41-1.64,1.78-1.96,6.39-3.78,10.39-1.82,4-4.77,9.01-4.41,15.36.37,6.36,1.57,14.98,1.57,17.97s-2.83,28.5-2.83,28.5c0,0,15.74,6.82,28.65,6.82s28.97-5.67,28.97-5.67"/>
  <path class="cls-39" d="M365.37,142.29c-4.74-.17-17.48,1.89-21.73,8.5-4.25,6.61-4.25,11.81-3.78,15.82.47,4.01.14,5.26-.99,8.42-1.13,3.15-3.26,7.88-1.13,11.66,2.12,3.78,5.67,4.25,8.97,4.25s8.5.95,12.75-.23c4.25-1.18,8.56.98,13.93,1.42,5.37.44,8.03-.47,10.86-3.54,2.83-3.07.77-6.45.47-13.23-.23-5.27.39-8.92,0-14.64-.65-9.52-14.63-18.25-19.37-18.42"/>
  <path class="cls-6" d="M353.9,186.94l-1.47,8.47s-3.97.99-4.63,2.65c-.67,1.65-9,11.73,6.41,12.58,15.41.85,17.42-10.26,18.74-12.91,1.33-2.65-2.98-3.31-2.98-3.31l-1.83-10.8-14.24,3.32Z"/>
  <path class="cls-33" d="M368.83,187.72l-.69-4.1-14.24,3.32-.86,4.98c3.08.64,9.56,1.09,15.8-4.2"/>
  <path class="cls-6" d="M359.45,146.89c-11.31,1.1-15.26,8.33-16.29,12.88-1.03,4.55-2.8,21.22,6.97,26.19,9.15,4.66,16.33,1.57,21.36-4.2,2.26-2.59,3.79-6.26,5.14-10.38,4.67-14.17-6.21-25.55-17.19-24.49"/>
  <path class="cls-39" d="M384.47,156.25c-2.06-5.94-9.19-13.96-16.74-15.14-7.56-1.18-19.83,2.91-21.56,7.4-.12.11-.24.19-.37.32-2.02,1.88-1.87,5.47-.48,8.32,1.39,2.85,3.51,4.98,6.11,4.98s3.31-4.49,3.31-4.49c0,0,4.49,7.79,8.03,7.09,3.54-.71,3.31-3.54,3.31-3.54,0,0,1.65,6.14,3.78,7.56,2.12,1.42,3.78.47,3.78.47,0,0,.85,7.14,1.2,8.01.35.87,4-.03,7.23-3.71,3.23-3.68,4.47-11.33,2.41-17.27"/>
  <path class="cls-6" d="M372.17,170.67s3.41-3.79,5.61-2.73c2.19,1.05,2.73,3.47,1.69,5.91-1.16,2.73-3.35,4.93-5.66,5.19-4.26.48-3.1-3.98-1.64-8.37"/>
  <path class="cls-33" d="M353.35,167.91s.47.58.73,1.64c.05.27.14.55.14.88.03.32.02.67-.04,1.04-.06.29-.05.32-.13.55-.08.23-.17.42-.26.59-.19.34-.39.65-.58.91-.18.27-.35.49-.43.67-.09.18-.11.25-.12.35,0,.06,0,.12.04.2v.06s.03.05.03.07l.08.2c.06.17.16.39.26.57.39.74.99,1.25.99,1.25,0,0-.18.09-.52.09-.34.02-.84-.07-1.38-.38-.26-.16-.51-.35-.78-.65l-.14-.17s-.03-.02-.09-.12l-.08-.14c-.11-.18-.2-.42-.26-.66-.12-.51,0-1.1.18-1.51.19-.42.41-.73.62-1,.2-.27.39-.5.54-.72l.19-.27c.04-.05.16-.33.17-.34.09-.24.19-.47.26-.73.08-.24.14-.49.21-.72.1-.47.21-.88.27-1.18.07-.3.12-.48.12-.48"/>
  <path class="cls-39" d="M364.4,167.18c.06.04.12.07.19.11.59.35,1.13-.64.53-.9-1.02-.44-4.64-1.55-4.99.29-.03.17.04.34.22.38.58.15,1.17-.14,1.76-.16.89-.02,1.74.31,2.61.44.05-.34.09-.68.14-1.02-.07,0-.14,0-.22,0-.47,0-.62.63-.23.86"/>
  <path class="cls-39" d="M349.96,165.83l.19.11c.18-.3.35-.6.53-.9-1.02-.44-4.64-1.55-4.99.29-.03.17.04.34.22.38.58.16,1.17-.14,1.76-.16.89-.02,1.74.31,2.61.44.77.11.89-1.02.14-1.03-.07,0-.14,0-.22,0-.47,0-.62.63-.23.86"/>
  <path class="cls-30" d="M364.51,170.59c.25,1.05-.4,2.1-1.45,2.35-1.05.25-2.1-.4-2.35-1.45-.25-1.05.4-2.1,1.45-2.35,1.05-.25,2.1.4,2.35,1.45"/>
  <path class="cls-30" d="M350.77,169.63c.25,1.05-.4,2.1-1.45,2.35-1.05.25-2.1-.4-2.35-1.45-.25-1.05.4-2.1,1.45-2.35,1.05-.25,2.1.4,2.35,1.45"/>
  <path class="cls-16" d="M355.75,178.51s2.73-2.47,5.83-2.18c3.1.29,1.26,5.77-3.68,6.64-4.94.87-7.25-2-6.67-3.71.59-1.71,4.52-.76,4.52-.76"/>
  <path class="cls-37" d="M375.16,213.4c-.79-5.18.6-14.58,2.26-16.18,1.66-1.6,9.87-2.4,14.45-2.74,4.57-.33,7.11,9.35,7.34,14.6.24,5.25,0,10.26-2.37,13-2.37,2.74-11.84,4.79-11.84,4.79,0,0-9.05-8.29-9.84-13.47"/>
  <path class="cls-17" d="M399.21,209.08c-.24-5.25-2.77-14.93-7.34-14.6-.5.04-1.04.08-1.61.13-3.29,4.05-10.27,16.06,6.61,27.44,2.34-2.74,2.58-7.74,2.34-12.97"/>
  <path class="cls-6" d="M433.35,152.71l-9.98.16s-5.29,14.52-6.67,18.76c-1.12,3.48-3.4,14.35-3.4,14.35,0,0-8.08,3.44-11.15,5.48-3.72,2.47-12.92,2.41-14.46,5.1-1.54,2.69-2.47,8.83-1.55,12.56.91,3.73,4.49,8.74,6.14,9.45,1.65.71,16.39-6.91,20.55-9.45,4.25-2.6,11.86-10.49,13.68-13.26,1.81-2.77,3.73-13.11,4.98-19.57,1.24-6.46,1.86-23.58,1.86-23.58"/>
  <path class="cls-6" d="M423.38,127.27c-.71-.8-1.89-.19-2.24.89-.36,1.09.14,3.49.42,4.9.29,1.42.45,2.97.56,4.21.11,1.25.65,6.4.32,6.61-.32.21-2.18-2.71-3.08-3.54-.89-.83-2.14-1.65-4-1.3-1.85.35-.57,3.39.67,4.55,1.24,1.16,3.09,4.44,3.74,6.68.65,2.23,2.33,4.72,4.74,5.51,2.4.79,8.04,1.35,9.69-.45,1.64-1.8,3.53-7.45,3.94-9.75.42-2.31,1.46-4.49,2.04-6.86.62-2.51,1.16-5.58-.29-6.08-1.34-.47-2.21,2.88-2.69,4.4-.48,1.52-1.68,5.44-2.09,5.2-.41-.24.26-7.22.25-9.53,0-2.43.54-4.05-.1-5.69-.64-1.64-2.41-1.03-2.64.32-.23,1.35-.74,2.55-.88,3.71-.17,1.47-.22,8.71-.76,8.9-.53.2-.33-13.15-1.24-14.62-.91-1.47-2.55-1.22-2.85.95-.3,2.17.16,14.71-.57,14.46-.4-.14-1.08-7.55-1.54-9.23-.47-1.67-.71-3.45-1.42-4.26"/>
  <path class="cls-14" d="M422.44,143.77s3.38.69,4.57,4.59"/>
  <path class="cls-15" d="M90.17,443.69c.29-2.56,2.09-6.76,2.63-10.64.88-6.32,2.5-9.64,2.5-9.64,0,0,3.35,1.83,9.26,2.53,5.91.69,7.44-.85,7.44-.85,0,0,.56,4.17,1.56,8.11,1.14,4.5,3.38,8.71,4.48,12.05.71,2.15-.56,6.9-3.17,8.78-1.59,1.15-4,1.91-7.61,1.86-8.22-.09-13.86-1.84-16.2-5.29-1.26-1.86-1.14-4.79-.89-6.91"/>
  <path class="cls-10" d="M117.56,448.88s-1.14,3.91-8.81,3.96c-11.94.08-18.38-4.08-18.38-6.7"/>
  <path class="cls-10" d="M109.5,432.12s-6.52-1.61-11.4-.28"/>
  <path class="cls-10" d="M110.57,437.22s-7.84-2.24-12.73-.91"/>
  <path class="cls-15" d="M158.7,425.82l-17.24.25s-3.42,9.44-2.74,15.22c.34,2.9,2.38,3.44,6.47,5.92,2.57,1.56,6.06,4.91,10.07,6.9,4.27,2.1,15.33,2.2,19.77.32,9.31-3.93,6-8.41.62-12.08-1.9-1.3-5.22-4.06-6.88-5.95-4.89-5.57-10.08-10.58-10.08-10.58"/>
  <path class="cls-10" d="M152.1,432.02s4.62-2.23,9.58-1.79"/>
  <path class="cls-10" d="M155.41,436.5s4.62-2.23,9.58-1.78"/>
  <path class="cls-10" d="M139.17,438.41s5.37,2.69,8.98,5.93c3.61,3.24,6.58,7.27,11.43,8.57,4.86,1.29,15.73,1.22,20.76-2.58"/>
  <path class="cls-37" d="M96.31,315.72c.28-12.6,4.71-41.55,4.71-41.55,0,0,21.5.56,33.88,1.16,12.38.6,32.9-.14,32.9-.14,0,0,2.8,15.27,3.75,39.73.19,4.98.18,34.4-.26,39.04-.41,4.38-2.07,26.77-2.71,29.39-.64,2.61-4.77,29.56-5.27,33.33-.65,4.93-.28,7.68-1.01,8.65-.73.98-4.3,3.2-9.76,3.22-5.86.03-10.48-.66-11.8-2.09-2.78-3.01-.9-8.81-1.04-15.63-.08-3.74,1.05-59.62,1.05-59.62,0,0-3.84-30.9-4.06-34.84-.21-3.93-1.68-12.7-1.68-12.7,0,0-.89,6.16-2.38,16.28-.87,5.88-3.79,28.24-5.32,33.03-.61,1.93-10.38,57.65-11.38,62.17-1.62,7.33.48,9.97-2.26,11.97-2.75,1.99-18.71,1.99-20.93-1.03-2.21-3.03-1.26-5.86-.61-13.64.58-6.89-.39-38.8-.18-43.25.41-8.69,3.84-19.76,3.5-22.37-.46-3.57.74-26.79.85-31.11"/>
  <path class="cls-24" d="M134.9,275.33c12.38.6,32.9-.14,32.9-.14,0,0,1.22,6.88,2.31,17.23-5.17,2.55-14.82,4.98-32.84,5.05-15.84.07-29.16-1.6-38.81-5.1,1.25-8.81,2.56-18.2,2.56-18.2,0,0,21.5.56,33.88,1.16"/>
  <path class="cls-7" d="M102.62,289.99s-1.38,20.04-1.82,32.26c-.44,12.22.59,24.43-1.09,29.81-1.69,5.38-3.31,25.91-3.52,33.97-.21,8.06-.65,19.3-1.85,25.66-1.19,6.36-1.17,13.2-1.17,13.2"/>
  <path class="cls-7" d="M170.35,304.85s-6.37-4.61-7.87-12.91"/>
  <path class="cls-7" d="M135.12,294l.29,10.5c3.17-2.7,3.86-10.52,3.86-10.52"/>
  <path class="cls-7" d="M112.89,292.87s-2.64,10.52-11.19,12.75"/>
  <path class="cls-7" d="M136.15,304.26s5,27.1,5.77,34.91c.76,7.82,1.76,11.96,1.3,17.83-.47,5.87-.64,22.73-.86,28.83-.22,6.11-.66,17.35-.64,22.97.02,5.62-.66,16.13-.66,16.86"/>
  <path class="cls-36" d="M94.67,269.28c-1.01-9.15-1.41-82.58,3.41-89.11,4.82-6.53,26.47-11.39,26.47-11.39,0,0,1.6-1.06,4.96-1.16,5.37-.17,21.01,1.87,25.94,2.51,3.56.46,15.75,11.34,17.95,17.63,2.2,6.3.63,11.97.63,16.38s-2.09,33.38-2.32,42.74c-.23,9.36,1.3,16.43,1.47,24.3.12,5.56-1.86,9.08-1.86,9.08,0,0,1,2.91,1.17,5.79.18,2.89.26,3.68-1.85,5.24-2.11,1.56-19.06,3.62-34.15,2.92-15.09-.7-32-1.23-38.31-5.78-1.07-.77-2.26-2.31-2.19-5.19.07-2.88,1.46-6.21,1.46-6.21,0,0-2.16-2.24-2.77-7.75"/>
  <path class="cls-8" d="M171.3,280.9s-9.95,3.92-35.09,3.48c-25.13-.45-38.63-6.22-38.63-6.22"/>
  <path class="cls-8" d="M167.49,282.25s2.47,6.47.75,9.79"/>
  <path class="cls-8" d="M161.7,283.55s1.98,6.61-.56,9.76"/>
  <path class="cls-8" d="M155.6,284.36s.98,6.91-.4,9.76"/>
  <path class="cls-8" d="M148.53,284.51s1.3,7.4-.24,9.77"/>
  <path class="cls-8" d="M141.88,294.6s1.02-8.14.07-9.77"/>
  <path class="cls-8" d="M135.22,284.51s.48,7.38-1.05,9.59"/>
  <path class="cls-8" d="M128.33,284.34s-.5,7.04-.4,9.6"/>
  <path class="cls-8" d="M121.43,283.86s-1.31,6.53-.23,9.44"/>
  <path class="cls-8" d="M114.81,282.62s-2.47,5.98-1.07,10.36"/>
  <path class="cls-8" d="M108.27,281.34s-2.47,5.98-1.07,10.36"/>
  <path class="cls-8" d="M102.22,279.76s-2.47,5.98-1.07,10.36"/>
  <path class="cls-36" d="M188.51,137.37c-4.5-.62-12.1-1.39-13.23,1.26-1.13,2.65-1.01,5.03-1.01,5.03,0,0-4.66,8.2-8.28,12.29-1.98,2.23-6.24,6.54-9.61,9.45-2.8,2.43-7.4,2.61-7.87,3.78-1.47,3.61,2.12,14.29,5.98,21.1,3.39,5.99,11.07,11,15.43,10.71,4.36-.29,22.16-29.43,25.69-37.12,2.04-4.45,3.72-9.75,4.83-14.45.62-2.62,2.23-3.96,1.29-7.06-.94-3.09-9.47-4.46-13.22-4.98"/>
  <path class="cls-8" d="M175.29,145.25s3.46,5.67,11.97,6.93c8.5,1.26,12.6-2.2,12.6-2.2"/>
  <path class="cls-8" d="M178.44,185.24c-1.58,1.57-4.09,6.61-4.41,11.65"/>
  <path class="cls-6" d="M188.2,146.56c5.65,1.21,10.03-3.29,10.13-3.79.63-3.4-.48-9.55-2.75-18.15-2.27-8.6-10.68-26.52-10.68-26.52l-8.15,3.07s-.73,21.27-.05,25.38c.46,2.8,2.23,12.07,2.23,12.07,0,0,3.63,6.74,9.28,7.95"/>
  <path class="cls-6" d="M174.83,100.25c1.9,2.43,4.04,5.91,8.41,4.54,4.37-1.37,8.46-7.64,7.24-11.31-1.21-3.67-7.82-14.62-11.66-14.42-3.84.19-7.14,7.81-7.11,11.83.03,4.02,1.22,6.93,3.12,9.36"/>
  <path class="cls-41" d="M147.16,30.56s-13.96,4.82-23.65,10.8c-4.92,3.04-10.52,11.84-15.32,15.48-4.79,3.63-17.22,7.17-17.22,7.17l18.65,13.33,2.37,20.33s19.38-7.74,23.84-11.38,8.4-8.8,12.25-11.54c8.63-6.12,20.39-7.56,20.39-7.56l-21.32-36.63Z"/>
  <rect class="cls-9" width="500" height="500"/>
  <text class="cls-1" transform="translate(113.51 81.97) rotate(-31.09) scale(.98 1) skewX(-1.84)"><tspan x="0" y="0">JOIN</tspan></text>
  <path class="cls-18" d="M191.91,103.19c.45.78.19,1.78-.59,2.23-.78.45-1.78.19-2.23-.59l-43.73-75.22c-.45-.78-.19-1.77.59-2.23.78-.45,1.77-.19,2.23.59l43.73,75.22Z"/>
  <path class="cls-6" d="M171.66,83.46c.36,2.3.08,2.98-.21,5.87-.23,2.33-.14,4.89.96,6.54,2.46,3.69,5.63,8.36,8.99,7.47,3.36-.89,3.42-3.59,2.59-6.65-.83-3.06-6.05-6.21-6.05-6.21,0,0-.47-5.75-1.53-7.2-1.07-1.45-5.1-2.13-4.75.17"/>
  <path class="cls-6" d="M178.6,74.83c-1.03-.23-2.75.76-2.64,1.94,0,.1.05.2.07.3h0c.25,1.31,1.25,2.46,2.45,3.36.05.08.1.16.15.24-1.15.28-2.21.91-2.63,2.22-.47,1.44.96,2.3,2.8,2.82-.12.2-.24.42-.32.67-.53,1.63,1.36,2.51,3.53,3-.57.33-1.04.82-1.29,1.55-1.03,3.09,7.75,3.11,7.75,3.11,0,0,2.28-.89,2.06-2.71-.21-1.83-3.12-5.24-4.52-6.5-.17-1.25-1.67-2.76-2.56-3.55.57-1.42-.39-2.45-1.17-3.22-1.17-1.15-1.79-2.8-3.68-3.23"/>
  <path class="cls-14" d="M178.63,80.67s3.37-1.18,4.82.61"/>
  <path class="cls-14" d="M178.81,85.71s4.75-2.27,7.67-.45"/>
  <path class="cls-14" d="M181.77,89.49s4.58-2,7.5-.18"/>
  <path class="cls-14" d="M175.38,82.69s2.11,2.01,2.64,3.98c.54,1.97-.08,3.81-.08,3.81,0,0,3.87,1.5,5.55,5.75"/>
  <path class="cls-45" d="M126.6,167.26s-2.66,2.37-1.9,5.19c.75,2.81,10.39,14.3,13.16,14.48,2.76.18,6.66-8.22,6.66-8.22,0,0,5.15,7.95,7.26,6.88,3.15-1.6,2.06-13.04.38-15.79-2.07-3.4-19.95-6.54-25.56-2.53"/>
  <path class="cls-6" d="M151.62,163.46v6.33s-.13,2.69-.13,2.69c0,0-3.72,5.56-6.83,5.48-5.8-.16-14.39-8.97-14.39-8.97l2.71-11.31,18.64,5.79Z"/>
  <path class="cls-33" d="M132.98,157.68l-1.71,7.12c2.56,3.42,6.76,7.02,13,6.57,2.9-.21,5.32-1.09,7.34-2.28v-5.63s-18.63-5.79-18.63-5.79Z"/>
  <path class="cls-6" d="M156.78,124.67c-4.13-7.44-16.1-7.98-21.98-4.29-5.89,3.68-9.46,18.01-7.46,28.43.82,4.24,1.82,8.76,4.78,11.52,4.31,4.02,11.25,7.01,18.39,4.07,7.14-2.94,10.54-10.72,10.82-21.45.14-5.2-.42-10.83-4.55-18.27"/>
  <path class="cls-39" d="M159.45,124.5c-2.56-3.53-6.28-6.84-10.54-8.11-7.97-2.37-13.47,2.42-13.47,2.42,0,0-6.64-.27-9.86,4.69-3.21,4.96-3.71,10.27-3.08,13.56.63,3.29,1.86,6.49,1.86,6.49l5.58,3.55s4.47-4.44,5.67-6.97c1.2-2.52,2.83-7.95,2.83-7.95,0,0,7.57,4.98,10.19,4.73s3-3.25,3-3.25c0,0,3.75,2.75,5.5,4.5s2.88,3.88,4.5,3.5,1.75-2.88,1.25-6.25-1.22-7.86-3.43-10.92"/>
  <path class="cls-6" d="M125.89,142.48c3.23,1.46,4.2,5.27,5.11,8.14.27,4.73-6.41,5.49-8.61-.7-1.39-3.51-.09-8.78,3.49-7.44"/>
  <path class="cls-25" d="M148.59,143.47s.36.8.68,1.98c.16.59.32,1.28.47,2,.08.35.16.72.23.95-.02-.06.08.2.08.15,0,0,.05.07.09.13l.31.45c.24.35.53.86.64,1.44.12.59.05,1.14-.11,1.63-.23.68-.61,1.01-.96,1.29-.36.26-.7.42-1.02.54-.64.22-1.19.28-1.57.29-.38.01-.6-.02-.6-.02l.44-.39c.27-.24.66-.58,1.05-.99.19-.2.38-.42.52-.64.14-.2.23-.47.2-.52,0-.24-.02-.49-.09-.68-.07-.2-.18-.4-.38-.72-.1-.16-.22-.34-.34-.57-.06-.12-.12-.23-.19-.4-.09-.23-.06-.16-.12-.41-.1-.54-.09-.95-.09-1.35.02-.78.11-1.5.21-2.11.22-1.23.54-2.04.54-2.04"/>
  <path class="cls-39" d="M158.5,143.63c-.31-1.08-1.29-1.89-2.3-2.29-1.28-.49-3.64-.85-4.68.36-.29.34-.15,1.1.42,1.02,1.29-.17,2.19-.54,3.54-.2.77.19,1.67.78,2.04,1.52.27.55,1.14.16.98-.41"/>
  <path class="cls-39" d="M137.34,142.45c1.65-.76,3.28-1.05,5.05-.56.81.22,1.51.86,2.35.95.47.05.65-.51.49-.86-.42-.91-1.94-1.3-2.81-1.53-1.96-.52-3.97-.03-5.62,1.08-.58.39-.08,1.21.54.92"/>
  <path class="cls-38" d="M138.75,145.96c-.03,1.03.79,1.88,1.81,1.9,1.03.03,1.88-.79,1.9-1.81.02-1.03-.79-1.88-1.82-1.9-1.03-.03-1.88.79-1.9,1.81"/>
  <path class="cls-38" d="M152.22,146.24c-.02,1.03.79,1.88,1.81,1.91,1.03.03,1.88-.79,1.9-1.82.02-1.03-.79-1.88-1.82-1.9-1.02-.02-1.88.79-1.9,1.81"/>
  <path class="cls-16" d="M151.46,157.37c-.19-1.5-4.55-.94-5.96-1.21-1.41-.27-3.28-3.17-5.42-2.51-2.14.66-.46,6.41,3.26,7.54,5.35,1.62,8.31-2.32,8.12-3.82"/>
  <path class="cls-37" d="M284.08,235.17c.08-27.86,4.19-55.17-.49-65.08-1.75-3.71-23.39-8.88-39.79-8.77-16.4.11-37.96,5.57-39.67,9.3-4.55,9.97,1.8,39.34,2.26,67.2.27,16.16-3.63,37.72-1.34,41.6,2.29,3.88,24.01,7.88,39.59,7.78,15.58-.11,38.02-.55,40.26-4.46,2.24-3.91-.89-31.41-.84-47.57"/>
  <path class="cls-37" d="M207.8,168.97c-2.74-2.39-11.43,8.65-17.18,28.03-5.66,19.06-7.6,50.17-7.6,50.17l28.41,2.14s-.89-77.94-3.62-80.34"/>
  <path class="cls-7" d="M206.14,193.19s5.19,39.73.36,55.83"/>
  <path class="cls-45" d="M258.49,162.38c-.8-1.06-2.57-1.56-5.28-2.23-5.23-1.29-4.48-1.55-9.61-1.54-5.13,0-4.38.27-9.6,1.57-2.71.68-4.48,1.18-5.27,2.25-.74.99,2.73,8.42,6,12.05,2.55,2.83,5.88,4.46,8.9,4.46,3.02,0,6.34-1.65,8.89-4.49,3.26-3.64,6.71-11.08,5.97-12.07"/>
  <path class="cls-6" d="M231.58,162.59l3.03-12.68s5.18,1.54,8.99,1.54c3.83,0,9-1.56,9-1.56l3.07,12.67s-3.63,12.73-12.06,11.98c-8.43-.75-12.04-11.94-12.04-11.94"/>
  <path class="cls-33" d="M254.05,155.85l-1.45-5.97s-5.17,1.55-9,1.56c-3.82,0-9-1.54-9-1.54l-2.39,10.01c4,1.33,13.49,3.29,21.83-4.07"/>
  <path class="cls-6" d="M225.99,134.93c.02,11.73,6.6,21.24,17.61,21.22,11.01-.02,17.57-9.54,17.55-21.28-.02-11.74-4.62-21.24-17.61-21.22-13,.02-17.57,9.54-17.55,21.28"/>
  <path class="cls-40" d="M240.1,132.28c-.97-1.39-2.19-2-3.86-2.17-.87-.09-1.68.13-2.46.48-1.04.47-1.33,1.26-1.96,2.09-.24.31.21.63.49.49.87-.42,2.2-.46,3.14-.59,1.09-.15,2.29.15,3.14.87.78.67,2.18-.21,1.52-1.17"/>
  <path class="cls-40" d="M248.54,133.43c.75-.64,1.74-.92,2.71-.92,1,0,2.66.18,3.57.61.38.18.68-.24.43-.56-.54-.69-.78-1.3-1.56-1.82-.74-.49-1.58-.64-2.44-.67-1.76-.07-3.24.78-4.23,2.19-.66.95.73,1.84,1.52,1.17"/>
  <path class="cls-6" d="M265.76,134.34c.99,3.76-1.77,8.56-5.46,9.28-3.69.72-3.04-4.84-1.54-7.78,1.51-2.93,6.01-5.26,7-1.5"/>
  <path class="cls-6" d="M223.89,132.51c3.69.71,6.46,5.5,5.49,9.27-.98,3.76-5.49,1.45-7-1.48s-2.18-8.5,1.52-7.79"/>
  <path class="cls-33" d="M242.59,134.89s.34.68.51,1.74c.1.53.15,1.16.12,1.85-.05.38-.04.7-.22,1.17l-.12.33s-.06.14-.08.2l-.22.46c-.09.26-.18.42-.22.69-.07.22-.08.56-.13.84-.03-.08-.01.37-.02.26-.03,0,0,.1.01.17.04.16.16.35.3.52.28.34.61.62.85.82.24.2.38.32.38.32,0,0-.18.05-.51.05-.33,0-.81-.01-1.37-.26-.28-.12-.6-.29-.89-.61-.14-.17-.27-.33-.38-.64-.12-.4-.1-.27-.15-.67-.02-.36-.08-.68-.01-1.12,0-.4.19-.88.33-1.26l.23-.46.13-.26.06-.14c.1-.15.17-.49.28-.74.16-.57.32-1.14.49-1.63.3-.98.63-1.67.63-1.67"/>
  <path class="cls-42" d="M248.63,136.43c0,1.09.9,1.98,1.99,1.98,1.1,0,1.98-.9,1.98-1.99,0-1.1-.9-1.98-2-1.98-1.09,0-1.97.9-1.97,1.99"/>
  <path class="cls-42" d="M238.5,136.48c0,1.14-.88,2.07-1.97,2.07-1.1,0-1.99-.92-2-2.06,0-1.14.88-2.07,1.98-2.08,1.1,0,1.99.92,1.99,2.06"/>
  <path class="cls-40" d="M264,121.21c0-3.39-3.88-5.57-3.88-5.57,0,0-.25-5.08-9.46-7.74-4.12-1.19-17.85-2.88-19.13-.46-1.29,2.42.85,3.87,1.22,4.48-4.85.98-12.22,2.92-11.97,5.3.25,2.38,1.74,3.92,3.28,4.08-1.19,1.07-2.3,2.22-3.22,3.55-1.31,1.9-.54,3.55,1.73,3.72.37.03.73,0,1.08-.05.54,3.9,1.1,6.18,2.35,6.41,1.27.23,6.05-8.83,6.05-8.83,0,0-.51,3.67,1.7,3.39,2.21-.28,10.06-8.51,10.06-8.51,0,0-2.93,6.36-1.11,7.62,1.82,1.26,9.79-5.77,9.79-5.77l.11-.07s-2,4.39-.58,5.31c1.42.92,6.2-1.52,6.2-1.52,0,0,2.37,7.92,3.3,7.62.93-.3,1.3-1.93,1.61-4.72.15-1.35.9-4.85.9-8.24"/>
  <path class="cls-16" d="M236.81,145.25s4.05.33,6.97-.01c2.92-.35,7.21-1.03,7.21-1.03,0,0,.47,6.87-7.08,7.56-5.85.54-7.1-6.52-7.1-6.52"/>
  <path class="cls-37" d="M277.79,167.68s13.23.24,18.66,15.59c5.43,15.35,14.41,33.06,12.52,41.57-1.89,8.5-13.7,8.97-22.44-.71-8.74-9.68-12.99-27.4-13.46-38.02-.47-10.63.95-18.42,4.72-18.42"/>
  <path class="cls-7" d="M274.01,189.88s3.31,21.49,10.63,31.88"/>
  <path class="cls-7" d="M271.64,196.97s3.31,13.7,8.5,16.77"/>
  <path class="cls-7" d="M287.7,215.39s-2.83-12.52,4.49-18.66"/>
  <path class="cls-6" d="M303.16,227.94c4.28-.62,5.85-4.06,6.43-6.45.58-2.38.95-10.95-.25-19.28s-7.4-25.55-7.4-25.55l-8.84.61s-3.36,20.59-3.49,26.61c-.13,6.01.82,13.57,2.03,17.44,1.21,3.87,7.25,7.23,11.53,6.62"/>
  <path class="cls-6" d="M292.1,177.25c1.65,2.7,3.44,6.5,7.78,5.55,4.34-.96,8.82-6.98,7.94-10.89-.87-3.91-6.39-15.86-10.12-16.06-3.73-.2-7.56,7.3-7.86,11.44-.3,4.14.62,7.27,2.26,9.97"/>
  <path class="cls-6" d="M290.4,159.63c.16,2.4-.17,3.07-.69,6.02-.41,2.37-.53,5.02.4,6.83,2.09,4.06,4.78,9.19,8.1,8.63,3.32-.57,3.61-3.34,3.05-6.58-.55-3.24-5.36-7.03-5.36-7.03,0,0,.02-5.97-.89-7.57-.92-1.6-4.77-2.72-4.61-.32"/>
  <path class="cls-33" d="M300.93,173.59c.99,2.41,7.32,1.89,6.89-1.68-.15-1.25-1.01-3.26-2-5.46-1.53,3.68-5.88,4.74-4.89,7.14"/>
  <path class="cls-47" d="M293.24,158.56c.88.26,1.66.73,2.38,1.32.71.6,1.34,1.35,1.76,2.38.09.27.18.54.23.85.06.29.08.68.1.83.05.41.07.82.09,1.23,0,.45-.03.9-.05,1.35-.06.45-.08.85-.18,1.32l-1.01-2.13c.27.16.42.27.6.4.18.12.34.26.5.4.32.27.62.56.9.87.56.6,1.02,1.3,1.4,2.03.37.74.64,1.52.76,2.33.13.8.11,1.63-.08,2.43-.33-.28-.57-.56-.86-.81-.28-.25-.53-.51-.8-.74-.24-.24-.52-.45-.76-.68-.27-.2-.49-.43-.76-.62-.24-.21-.51-.39-.74-.58l-.75-.55-.74-.51-.36-.24c-.11-.07-.26-.16-.3-.18l-1.24-.64.24-1.5.17-1.1c.06-.36.12-.72.2-1.08.07-.4.14-.81.23-1.21.05-.25.07-.27.1-.39.04-.1.03-.23.05-.36.03-.55-.1-1.27-.31-2.01-.21-.75-.49-1.54-.78-2.4"/>
  <path class="cls-35" d="M307.09,169.98c.6-3.21-2.77-3.39-7.62-9.39-3.58-4.42-4.95-8.96-5.34-10.53l-6.25,1.19c.07,1.96.37,5.23,1.44,8.79,1.71,5.74,5.8,12.68,8.09,13.31,2.29.62,9.09-.15,9.69-3.37"/>
  <path class="cls-19" d="M298.87,161.82c4.84,5.98,8.2,6.18,7.63,9.36.3-.36.5-.75.59-1.2.6-3.21-2.77-3.39-7.62-9.39-3.58-4.42-4.95-8.96-5.34-10.54l-6.25,1.19c.01.33.03.71.06,1.11l5.6-1.07c.39,1.57,1.76,6.11,5.34,10.53"/>
  <g class="cls-46">
    <path class="cls-34" d="M295.54,154.12c-.8-1.82-1.23-3.3-1.42-4.07l-6.25,1.19c.07,1.96.37,5.23,1.44,8.79.16.53.33,1.06.53,1.6.41-4.81,3.68-6.77,5.7-7.52"/>
  </g>
  <path class="cls-44" d="M321.35,135.69l-3.63-18.98c-2.54,1.69-12.01,7.93-17.68,10.78-6.59,3.3-19.92,5.97-19.92,5.97,0,0-3.15,2.82-1.7,10.43,1.46,7.62,5.43,9.07,5.43,9.07,0,0,13.38-2.44,20.72-1.79,6.32.55,17.43,2.87,20.41,3.5l-3.63-18.98Z"/>
  <path class="cls-28" d="M302.31,147.14c-5.93-2.88-7.38-4.95-8.36-9.32-.58-2.55-.58-5.66-.48-7.79-6.36,2.03-13.35,3.43-13.35,3.43,0,0-3.15,2.82-1.7,10.44,1.46,7.62,5.43,9.07,5.43,9.07,0,0,13.38-2.44,20.72-1.79,6.32.55,17.43,2.86,20.41,3.5l-.09-.45c-6.43-1.71-18.34-5.01-22.58-7.08"/>
  <path class="cls-36" d="M331.37,133.77c2.1,10.99.03,20.62-4.62,21.51-4.65.89-10.13-7.3-12.23-18.29-2.1-10.99-.03-20.62,4.62-21.51,4.65-.89,10.13,7.3,12.23,18.29"/>
  <path class="cls-21" d="M330.52,133.93c1.96,10.29.26,19.25-3.8,20.03-4.06.78-8.95-6.93-10.91-17.21-1.96-10.28-.27-19.25,3.8-20.03,4.06-.78,8.95,6.93,10.91,17.21"/>
  <path class="cls-26" d="M329.37,151.84c-4.12.87-9.52-6.33-12.14-16.25-1.66-6.28-1.82-12.17-.69-15.97-1.7,3.59-2.08,10.04-.73,17.13,1.97,10.28,6.85,17.99,10.91,17.21,1.05-.2,1.94-.95,2.65-2.12"/>
  <rect class="cls-9" width="500" height="500"/>
  <g class="cls-27">
    <polygon class="cls-19" points="324.17 140.19 322.31 130.45 310.85 130.51 313.49 144.37 324.17 140.19"/>
    <path class="cls-22" d="M324.18,140.23c-.9.17-2.05-1.88-2.56-4.58-.52-2.7-.21-5.03.69-5.2.9-.17,2.05,1.88,2.56,4.58.52,2.7.21,5.03-.69,5.2"/>
    <path class="cls-35" d="M313.49,144.37l9.02-3.52c-7.6-1.39-10.14-7.11-10.97-10.34h-.69s2.65,13.86,2.65,13.86Z"/>
  </g>
  <path class="cls-36" d="M297.78,151.24s-2.32-1.23-4.05-10.26c-1.72-9.03-.03-11.06-.03-11.06,0,0-3.44.48-6.74,1.29-3.3.81-4.65,1.47-4.65,1.47,0,0-1.59,4.89-.51,10.56,1.08,5.67,4.37,9.63,4.37,9.63,0,0,1.5.11,4.87-.35,3.37-.46,6.74-1.29,6.74-1.29"/>
  <path class="cls-29" d="M297.78,151.24s-.62-.33-1.46-1.91c-7.84.64-12.11-2.45-14.41-5.62,1.17,5.42,4.27,9.16,4.27,9.16,0,0,1.5.11,4.87-.35,3.37-.46,6.74-1.29,6.74-1.29"/>
  <path class="cls-6" d="M297.24,153.35c-1.92.49-2.73,1.41-2.29,2.7.44,1.29,2.43,1.43,2.43,1.43,0,0-2.21.71-2.73,2.01-.58,1.44.74,2.47,2.49,3.2-.14.2-.26.41-.36.65-.65,1.63,1.11,2.73,3.17,3.46-.58.28-1.08.73-1.37,1.46-1.25,3.07,7.25,4.02,7.25,4.02,0,0,2.28-.68,2.22-2.58-.06-1.9-3.85-7.17-3.85-7.17,0,0,.04-1.26-.29-1.85-.65-1.16-1.9-2.08-1.9-2.08,0,0,1.27-.54-.33-2.61-.84-1.08-2.51-3.15-4.43-2.66"/>
  <path class="cls-33" d="M297.38,157.49s.26-.27.74-.46c.24-.1.52-.19.84-.23.32-.05.67-.04,1.02,0,.35.07.7.17,1,.35.3.17.55.4.71.62.33.46.3.86.32.84,0,0-.09-.04-.22-.1-.12-.07-.32-.14-.51-.23-.21-.07-.44-.14-.68-.2-.25-.05-.51-.12-.79-.15-.27-.05-.56-.08-.83-.13-.27-.04-.54-.08-.77-.13-.46-.08-.82-.19-.82-.19"/>
  <path class="cls-33" d="M297.14,162.69s.31-.39.93-.77c.31-.19.68-.38,1.11-.53.42-.16.9-.25,1.39-.31.49-.03.99-.02,1.46.1.23.06.45.11.65.21.2.09.38.17.54.29.64.42.84.91.85.88,0,0-.13-.03-.32-.08-.19-.07-.47-.12-.79-.19-.15-.04-.34-.03-.51-.07s-.37,0-.56-.04c-.19-.02-.4.02-.6,0-.2.01-.41.02-.62.04-.21.02-.42.02-.63.06-.21.03-.42.04-.62.08-.41.06-.8.12-1.12.17-.67.11-1.16.15-1.16.15"/>
  <path class="cls-33" d="M299.7,166.89s.39-.34,1.08-.62c.34-.14.76-.28,1.21-.37.46-.1.96-.13,1.46-.13.5.03,1.01.09,1.47.24.46.14.87.35,1.18.57.64.44.86.94.88.92,0,0-.13-.03-.33-.09-.2-.08-.49-.14-.82-.22-.16-.04-.35-.05-.53-.1-.18-.04-.39-.04-.59-.08-.2-.04-.42-.02-.63-.06-.22,0-.44-.02-.66-.03-.45-.02-.89-.01-1.32,0-.43,0-.84,0-1.19,0-.71,0-1.21-.02-1.21-.02"/>
  <line class="cls-12" x1="332.59" y1="123.87" x2="347.22" y2="114.07"/>
  <line class="cls-12" x1="335.28" y1="131.15" x2="354.3" y2="124.93"/>
  <line class="cls-12" x1="337.66" y1="138.53" x2="354.78" y2="137.22"/>
  <path class="cls-20" d="M264.87,444.15c-.18-2.66.76-7.19.57-11.24-.3-6.58.62-10.19.62-10.19,0,0,3.49,1.46,9.19,1.44,5.7-.02,6.86-1.79,6.86-1.79,0,0,1.28,4.21,2.93,8.12,1.89,4.47,4.76,8.51,6.4,11.79,1.05,2.12.7,7.14-1.42,9.4-1.29,1.38-3.43,2.45-6.84,2.85-7.77.92-13.41-.17-16.23-3.42-1.52-1.75-1.93-4.77-2.08-6.97"/>
  <path class="cls-11" d="M291.07,447.23s.19,3-7.04,4c-11.24,1.56-17.88-2.94-18.35-5.62"/>
  <path class="cls-11" d="M281.09,428.88s-6.66-1.27-11.03.7"/>
  <path class="cls-11" d="M281.8,434.94s-6.66-1.27-11.03.7"/>
  <path class="cls-23" d="M285.57,296.92c-.19-21.61-6.77-42-6.77-42l-36.59,5.29s1.06,17.04,2.52,29.56c1.21,10.31,10.76,56.1,12.11,63.31,1.35,7.21.96,23.34,1.58,30.86.77,9.62,3.35,39.85,3.35,39.85,0,0,8.02,2.5,13.08,2.3,6.9-.27,10.71-3,10.71-3,0,0,.15-20.45.89-33.48.57-10.15,1.58-26.78,1.89-34.34.32-7.87-2.62-41.71-2.77-58.36"/>
  <path class="cls-4" d="M285.62,301.09c-.03-1.38-.05-2.77-.06-4.17-.19-21.61-6.77-42-6.77-42l-36.59,5.29s1.06,17.04,2.52,29.56c.29,2.5.94,6.46,1.8,11.2.3,1.63.61,3.36.95,5.15,0,0,7.47,2.56,19.43,2.87,11.97.32,18.8-3.69,18.8-3.69,0,0,0,0,0-.02-.03-1.17-.06-2.35-.08-3.54,0-.22-.01-.43-.01-.66"/>
  <path class="cls-13" d="M268.19,275.93s5.95,14.65,16.87,13.42"/>
  <path class="cls-20" d="M229.99,444.36c.23-2.65-.65-7.2-.39-11.24.4-6.58-.46-10.2-.46-10.2,0,0-3.51,1.41-9.21,1.29-5.7-.11-6.83-1.9-6.83-1.9,0,0-1.35,4.19-3.06,8.08-1.95,4.44-4.89,8.44-6.58,11.69-1.09,2.1-.82,7.13,1.26,9.42,1.27,1.4,3.39,2.51,6.79,2.96,7.76,1.04,13.41.04,16.29-3.16,1.55-1.72,2.01-4.73,2.19-6.94"/>
  <path class="cls-11" d="M203.75,447.02s-.24,3,6.98,4.12c11.21,1.73,17.92-2.65,18.44-5.33"/>
  <path class="cls-11" d="M214.01,428.83s6.68-1.16,11.02.87"/>
  <path class="cls-11" d="M213.21,434.88s6.68-1.17,11.02.87"/>
  <path class="cls-23" d="M207.66,256.8s-4.85,20.87-3.23,42.42c1.62,21.55,1.37,40.44,2.34,50.69.86,9.03,1.99,26.55,2.51,39.59.53,13.03.36,33.49.36,33.49,0,0,3.76,2.78,10.66,3.17,5.05.28,13.11-2.1,13.11-2.1,0,0,3.43-33.21,4.36-42.82.93-9.61,0-30.1,0-30.1,0,0,7.64-48.44,8.05-61.04.41-12.6-1.26-31.09-1.26-31.09l-36.9-2.21Z"/>
  <path class="cls-4" d="M246.45,292.93c-.32-8.5-.95-33.69-.95-33.69l-2.2-.26v-.04l-35.65-2.14s-4.85,20.87-3.23,42.42c.09,1.18.17,2.35.25,3.51,0,0,10.03,2.98,19.73,4.06,14.17,1.57,19.52,0,19.52,0,0,0,2.83-5.35,2.52-13.86"/>
  <path class="cls-13" d="M239.68,273.36s-.94,10.4-.94,14.18.63,7.56,1.88,8.82c1.25,1.26,5.02,2.21,5.02,2.21"/>
  <path class="cls-13" d="M243.76,273.05s-.57,19.56,1.43,28.39"/>
  <path class="cls-13" d="M219.99,276.85s-4.71,15.1-15.69,14.79"/>
  <rect class="cls-31" x="215.58" y="139.72" width="71.15" height="253.36" transform="translate(-30.38 500.46) rotate(-86.43)"/>
  <rect class="cls-9" width="500" height="500"/>
  <text class="cls-3" transform="translate(127.48 271.7) rotate(3.48) scale(1.45 -1) skewX(-1.89)"><tspan x="0" y="0">CLICK AARAMBH</tspan></text>
  <text class="cls-2" transform="translate(127.02 266.53) rotate(3.57)"><tspan x="0" y="0">CLICK AARAMBH</tspan></text>
  <g class="cls-43">
    <path class="cls-6" d="M174.36,221.95c3.42-2.4,4.79-.7,4.79-.7,0,0,1.48-.6,2.93-.52,1.45.08,2.32,1.21,2.32,1.21,0,0,1.1-.76,2.67-.54,1.57.22,2.29,1.75,2.29,1.75,0,0,1.35-.61,2.54-.55,1.19.06,2.53,2.31,2.53,2.31,0,0,2.22-1.68,4.24-.32,2.03,1.37.48,3.7-.23,4.48-.7.78-2.18,1.38-3.75,1.02-1.57-.35-.82-3.42-.82-3.42,0,0-2.55,2.08-2.25,5.29.3,3.21-1.43,3.46-3.12,2.96-1.14-.34-1.99-2.42-1.99-2.42,0,0-.33,1.34-.37,2.02-.03.68-.11,2.17-1.84,2.49-2.43.44-3.42-2.9-3.42-2.9,0,0-.71,2.38-2.73,1.89-1.44-.35-1.98-1.6-1.98-1.6,0,0-1.11,1.46-2.56.1-.85-.79-2.17-3.78-2.26-6.76-.06-2.13.76-4.24,3.01-5.82"/>
    <path class="cls-14" d="M188.68,223.67s-2.85,4.2-2.19,9.27"/>
    <path class="cls-14" d="M183.8,223.14s-4.58,3.29-3.11,10.76"/>
    <path class="cls-14" d="M178.16,222.56s-1.99,1.72-2.76,5.02c-.49,2.07-.05,4.83.77,6.85"/>
    <path class="cls-6" d="M340.14,236.57c.07-.14.1-.29.09-.46-.1-1.52-1.71-2.12-2.85-3.73-1.14-1.61-3.01-.56-3.24,1.36-.12.97.24,1.58.8,2.39l5.2.44Z"/>
    <path class="cls-6" d="M332.96,233.61c-1.59-.37-3,.09-3,.09,0,0,0-1.05-1.09-1.76-1.09-.71-2.86-.15-2.86-.15,0,0-.67-.78-2.12-1.17-1.45-.39-3.88,1.27-3.88,1.27,0,0-1.82-.3-3.38.28-1.56.58-2.67,1.85-2.76,3.26-.1,1.41.53,4.39,1.78,5.06,1.25.67,1.56-.58,1.56-.58,0,0,1.38,2.92,2.27,3.35.89.44,2.3-.4,2.3-.4,0,0,.26,1.43,2.13,1.25,1.86-.18,2.87-3.16,2.87-3.16.25.99,2.48,2.08,3.51-.02.64-1.3,3.57-4.91,3.57-4.91l1.96-.16s-1.93-2.05-2.84-2.26"/>
    <path class="cls-14" d="M326.63,240.99c.01-.8.4-2.58.77-3.37.73-1.56,1.81-3.19,1.81-3.19"/>
    <path class="cls-14" d="M325.24,232.08s-2.72,1-3.71,4c-.33,1,.05,5.64.13,6.65"/>
    <path class="cls-14" d="M319.44,232.26s-1.73.94-2.44,2.19c-.71,1.26-.04,3.88.39,5.28"/>
    <path class="cls-6" d="M140.37,277.31c.42-1.5-.28-2.32-.28-2.32,0,0,1.91-1.32,1.41-3.32s-3.28-.98-5.89-1.86c-2.61-.89-4.38-5.32-4.38-5.32,0,0,7.02,1.72,6.76-1.72-.26-3.44-7.62-4.28-7.62-4.28,0,0-4.38-.56-5.9-.44-2.68.21-5.4-.58-9.73,3.32-4.33,3.9-3.65,7.51-2.79,9.99.86,2.48,2.44,4.68,6.24,7.07,3.46,2.17,9.18,4.91,11.81,5.24,2.63.32,4.48-1.78,4.48-1.78,0,0,1.47,0,2.45-.53.99-.54,1.74-1.73,1.74-1.73,0,0,1.02.11,1.7-2.32"/>
    <path class="cls-14" d="M128.12,269.85s4.56,7.21,11.78,4.84"/>
    <path class="cls-14" d="M125.93,274.77s7.82,5.88,12.42,5.14"/>
    <path class="cls-14" d="M124.78,278.85s6.35,3.54,9.03,3.68"/>
    <path class="cls-6" d="M86.04,248.47l27.68,24.35,6.66-12.3-17.17-26.91s-10.76,1.79-17.17,14.86"/>
    <path class="cls-36" d="M98.34,242.32c5.38-3.33,7.99-2.51,9.5-4.46,1.52-1.95-2.07-7.07-2.07-7.07,0,0,10-29.35,11.27-38.69,1.27-9.35-5.23-17.18-10.75-16.8-5.52.38-10.9,5.34-14.89,13.31-1.93,3.86-5.47,14.12-8.41,24.25-2.65,9.15-3.62,14.85-4.13,20.23-.51,5.38,2.82,13.07,2.82,13.07,0,0,1.59,3.74,4.67,6.05,3.08,2.3,3.02-.67,4.05-2.46,1.02-1.79,5.21-5.74,7.94-7.43"/>
    <path class="cls-8" d="M115.26,196.7c-1.54,16.4-10,33.83-10,33.83,0,0,3.59,3.59,2.31,8.2"/>
    <path class="cls-8" d="M118.07,201.31s-.77,4.1-5.64,8.97"/>
    <path class="cls-8" d="M86.55,236.17s8.71-8.71,19.22-4.87"/>
    <path class="cls-8" d="M82.45,246.67s4.87-10.51,18.45-11.79"/>
  </g>
  <rect class="cls-9" width="500" height="500"/>
  <rect class="cls-9" width="500" height="500"/>
</svg>