<?xml version="1.0" encoding="UTF-8"?>
<svg id="Layer_1" data-name="Layer 1" xmlns="http://www.w3.org/2000/svg" xmlns:xlink="http://www.w3.org/1999/xlink" viewBox="0 0 500 500">
  <defs>
    <style>
      .cls-1 {
        fill: #f3725f;
      }

      .cls-2 {
        fill: #263238;
      }

      .cls-3 {
        fill: #455b64;
      }

      .cls-4 {
        fill: #fff;
      }

      .cls-5 {
        fill: #e0e0e0;
      }

      .cls-6 {
        fill: none;
      }

      .cls-7 {
        clip-path: url(#clippath-1);
      }

      .cls-8 {
        fill: #6f453a;
      }

      .cls-9 {
        fill: #af7462;
      }

      .cls-10 {
        fill: #fbbf9e;
      }

      .cls-11 {
        opacity: .3;
      }

      .cls-12 {
        fill: #ebebeb;
      }

      .cls-13 {
        fill: #f5f5f5;
      }

      .cls-14 {
        fill: #f7996e;
      }

      .cls-15 {
        clip-path: url(#clippath-2);
      }

      .cls-16 {
        fill: #81c341;
      }

      .cls-17 {
        clip-path: url(#clippath);
      }
    </style>
    <clipPath id="clippath">
      <rect class="cls-6" x="299.58" y="341.34" width="15.52" height="41.57"/>
    </clipPath>
    <clipPath id="clippath-1">
      <rect class="cls-6" x="325.9" y="173.78" width="64.91" height="124.8"/>
    </clipPath>
    <clipPath id="clippath-2">
      <rect class="cls-6" x="158.25" y="169.61" width="10.43" height="79.42"/>
    </clipPath>
  </defs>
  <path class="cls-12" d="M392.36,194.06c-4.58-4.55-6.86-11.04-6.86-19.48v-32.23h13.32v31.73c0,10.3,4.28,15.46,12.83,15.46,4.16,0,7.34-1.25,9.54-3.74,2.19-2.49,3.29-6.4,3.29-11.71v-31.73h13.15v32.23c0,8.44-2.29,14.93-6.86,19.48-4.58,4.55-10.98,6.82-19.2,6.82s-14.62-2.27-19.2-6.82"/>
  <rect class="cls-12" x="450.77" y="142.35" width="13.32" height="57.55"/>
  <path class="cls-12" d="M33.44,387.38c-4.38-4.36-6.57-10.58-6.57-18.66v-30.87h12.76v30.39c0,9.87,4.09,14.8,12.28,14.8,3.99,0,7.03-1.19,9.13-3.58,2.1-2.39,3.15-6.13,3.15-11.22v-30.39h12.6v30.87c0,8.08-2.19,14.3-6.57,18.66-4.38,4.36-10.51,6.54-18.39,6.54s-14-2.18-18.39-6.54"/>
  <polygon class="cls-12" points="123.32 392.98 110.01 373.84 96.94 392.98 82.29 392.98 102.69 364.94 83.32 337.86 97.81 337.86 110.48 355.73 122.92 337.86 136.7 337.86 117.49 364.47 138.04 392.98 123.32 392.98"/>
  <path class="cls-13" d="M93.01,280.18c1.87-1.13,3.87-1.99,5.93-2.58l1.22-5.87,9.91-.17,1.43,5.82c2.08.51,4.1,1.3,6.02,2.37l5.01-3.29,7.13,6.89-3.11,5.12c1.13,1.88,1.99,3.87,2.58,5.93l5.87,1.22.17,9.91-5.82,1.43c-.51,2.08-1.3,4.1-2.37,6.02l3.28,5.01-6.89,7.13-5.12-3.11c-1.88,1.13-3.87,1.99-5.93,2.58l-1.22,5.87-9.91.17-1.43-5.82c-2.08-.51-4.1-1.3-6.02-2.37l-5.01,3.28-7.13-6.89,3.11-5.12c-1.13-1.87-1.99-3.87-2.58-5.93l-5.87-1.22-.17-9.91,5.82-1.43c.51-2.08,1.3-4.1,2.37-6.01l-3.28-5.01,6.89-7.13,5.12,3.11ZM98.3,293.39c-4.08,4.23-3.96,10.96.26,15.04,4.23,4.08,10.96,3.96,15.04-.26,4.08-4.23,3.96-10.96-.26-15.04-4.23-4.08-10.96-3.96-15.04.26"/>
  <path class="cls-12" d="M144.58,310.36c.89-.54,1.83-.94,2.81-1.22l.58-2.78,4.69-.08.68,2.76c.98.24,1.94.62,2.85,1.12l2.37-1.56,3.38,3.26-1.47,2.42c.54.89.94,1.83,1.22,2.81l2.78.58.08,4.69-2.76.68c-.24.98-.62,1.94-1.12,2.85l1.55,2.37-3.26,3.38-2.42-1.47c-.89.54-1.83.94-2.81,1.22l-.58,2.78-4.69.08-.68-2.76c-.98-.24-1.94-.62-2.85-1.12l-2.37,1.56-3.38-3.26,1.47-2.42c-.54-.89-.94-1.83-1.22-2.81l-2.78-.58-.08-4.69,2.76-.68c.24-.98.62-1.94,1.12-2.85l-1.55-2.37,3.26-3.38,2.43,1.47ZM147.08,316.61c-1.93,2-1.88,5.19.12,7.12,2,1.93,5.19,1.88,7.12-.12,1.93-2,1.88-5.19-.12-7.12-2-1.93-5.19-1.88-7.12.12"/>
  <path class="cls-5" d="M50.37,305.89c.71-.43,1.46-.75,2.24-.97l.46-2.22,3.75-.07.54,2.2c.79.19,1.55.49,2.28.9l1.9-1.24,2.7,2.6-1.17,1.94c.43.71.75,1.46.97,2.24l2.22.46.07,3.75-2.2.54c-.19.79-.49,1.55-.9,2.28l1.24,1.9-2.6,2.7-1.94-1.17c-.71.43-1.46.75-2.24.97l-.46,2.22-3.75.07-.54-2.2c-.79-.19-1.55-.49-2.28-.89l-1.89,1.24-2.7-2.6,1.17-1.94c-.43-.71-.75-1.46-.97-2.24l-2.22-.46-.07-3.75,2.2-.54c.19-.79.49-1.55.89-2.27l-1.24-1.9,2.6-2.7,1.94,1.18ZM52.37,310.89c-1.54,1.6-1.5,4.15.1,5.69,1.6,1.54,4.15,1.5,5.69-.1,1.54-1.6,1.5-4.15-.1-5.69-1.6-1.54-4.15-1.5-5.69.1"/>
  <path class="cls-13" d="M298.81,99.82c1.87-1.13,3.87-1.99,5.93-2.58l1.22-5.87,9.91-.17,1.43,5.82c2.08.51,4.1,1.3,6.02,2.37l5.01-3.28,7.13,6.89-3.11,5.12c1.13,1.88,1.99,3.87,2.58,5.93l5.87,1.22.17,9.91-5.82,1.43c-.51,2.08-1.3,4.1-2.37,6.02l3.28,5.01-6.89,7.13-5.12-3.11c-1.88,1.13-3.87,1.99-5.93,2.58l-1.22,5.87-9.91.17-1.43-5.82c-2.08-.51-4.1-1.3-6.02-2.37l-5.01,3.29-7.13-6.89,3.11-5.12c-1.13-1.87-1.99-3.87-2.58-5.93l-5.87-1.22-.17-9.91,5.82-1.43c.51-2.08,1.3-4.1,2.37-6.01l-3.28-5.01,6.89-7.13,5.12,3.11ZM304.1,113.03c-4.08,4.23-3.96,10.96.26,15.04,4.23,4.08,10.96,3.96,15.04-.26,4.08-4.23,3.96-10.96-.26-15.04-4.23-4.08-10.96-3.96-15.04.26"/>
  <path class="cls-13" d="M352.73,123.94c.91-.55,1.87-.96,2.87-1.25l.59-2.84,4.8-.08.69,2.82c1.01.25,1.99.63,2.91,1.15l2.43-1.59,3.45,3.33-1.5,2.48c.55.91.96,1.87,1.25,2.87l2.84.59.08,4.8-2.82.69c-.25,1.01-.63,1.99-1.15,2.91l1.59,2.43-3.33,3.45-2.48-1.5c-.91.55-1.87.96-2.87,1.25l-.59,2.84-4.8.08-.69-2.82c-1.01-.25-1.99-.63-2.91-1.15l-2.43,1.59-3.45-3.33,1.5-2.48c-.55-.91-.96-1.87-1.25-2.87l-2.84-.59-.08-4.8,2.82-.69c.25-1.01.63-1.99,1.15-2.91l-1.59-2.43,3.33-3.45,2.48,1.5ZM355.29,130.33c-1.98,2.05-1.92,5.3.13,7.28,2.05,1.97,5.3,1.92,7.28-.13,1.97-2.05,1.92-5.3-.13-7.28-2.05-1.97-5.3-1.92-7.28.13"/>
  <path class="cls-5" d="M285.4,408.68h-96.67c-16.4,0-29.7-13.3-29.7-29.7v-247.03c0-16.4,13.3-29.7,29.7-29.7h96.67c16.4,0,29.7,13.3,29.7,29.7v247.03c0,16.4-13.3,29.7-29.7,29.7"/>
  <path class="cls-2" d="M285.4,408.68s.76-.05,2.25-.13c.75,0,1.66-.19,2.75-.35.27-.04.56-.09.85-.13.29-.05.59-.15.9-.22.62-.16,1.28-.33,1.98-.51,2.76-.9,6.1-2.37,9.46-4.98.21-.16.43-.32.64-.48.2-.18.4-.37.61-.55.41-.37.82-.75,1.24-1.13.43-.38.79-.84,1.2-1.27.39-.45.83-.86,1.19-1.36.72-.99,1.53-1.96,2.16-3.1.32-.56.71-1.1.99-1.71.29-.6.59-1.22.88-1.84.31-.61.5-1.3.76-1.95.12-.33.24-.67.37-1.01.12-.34.19-.69.28-1.05.17-.71.38-1.41.53-2.15.11-.74.22-1.48.34-2.24.32-3.04.2-6.27.22-9.63,0-6.73-.01-14.04-.02-21.89,0-15.71-.02-33.59-.03-53.36-.01-39.54-.03-86.62-.04-138.89,0-6.53,0-13.15,0-19.84,0-1.67,0-3.35,0-5.03.03-1.69-.06-3.36-.17-5.04-.36-3.35-1.32-6.64-2.8-9.7-2.94-6.11-8.09-11.28-14.46-14.08-3.17-1.42-6.6-2.27-10.09-2.51-1.74-.12-3.51-.1-5.28-.1h-5.32c-28.44,0-57.89,0-88.05,0-3.75.01-7.48.73-10.94,2.11-3.46,1.38-6.64,3.42-9.32,5.96-2.69,2.54-4.89,5.58-6.45,8.91-1.56,3.32-2.48,6.93-2.72,10.57-.13,1.82-.1,3.66-.1,5.48v5.48c0,3.65,0,7.28,0,10.89,0,7.23,0,14.41,0,21.52,0,28.45,0,55.89-.01,82.03,0,26.14-.01,50.98-.02,74.23,0,11.62,0,22.85-.01,33.64,0,5.4,0,10.68,0,15.85.03.64.06,1.28.1,1.92l.05.96.14.95c.1.63.19,1.26.29,1.88.14.62.31,1.23.46,1.84.26,1.24.78,2.38,1.18,3.56.22.58.53,1.12.78,1.69.28.55.51,1.13.85,1.64,2.47,4.24,5.84,7.87,9.82,10.34,3.95,2.51,8.38,4.02,12.79,4.49,1.11.06,2.21.13,3.3.16,1.1,0,2.19,0,3.27,0,2.16,0,4.29,0,6.39,0,4.19,0,8.26,0,12.18,0,15.7.01,29.23.02,40.29.03,11.05.02,19.64.03,25.46.04,2.91,0,5.13.01,6.62.02,1.49,0,2.26.02,2.26.02,0,0-.76.01-2.26.02-1.49,0-3.71.01-6.62.02-5.82,0-14.41.02-25.46.03-11.06,0-24.58.02-40.29.03-3.93,0-7.99,0-12.18,0-2.1,0-4.23,0-6.39,0-1.08,0-2.17,0-3.27,0-1.1-.04-2.21-.1-3.32-.16-4.45-.47-8.91-1.99-12.9-4.52-4.02-2.48-7.42-6.14-9.92-10.42-.35-.52-.58-1.1-.86-1.65-.26-.57-.57-1.12-.79-1.7-.41-1.19-.94-2.34-1.2-3.59-.15-.62-.33-1.23-.47-1.85-.1-.63-.19-1.26-.29-1.9l-.15-.95-.05-.97c-.03-.65-.07-1.29-.1-1.94,0-5.17,0-10.46-.01-15.86,0-10.79,0-22.02-.01-33.64,0-23.25-.01-48.09-.02-74.23,0-26.14,0-53.58-.01-82.03,0-7.11,0-14.29,0-21.52,0-3.62,0-7.25,0-10.89v-5.48c0-1.83-.03-3.66.1-5.51.24-3.68,1.17-7.34,2.76-10.71,1.58-3.37,3.8-6.45,6.53-9.02,2.72-2.57,5.94-4.64,9.44-6.04,3.5-1.4,7.28-2.13,11.08-2.14,30.16,0,59.61,0,88.05,0,1.78,0,3.55,0,5.32,0,1.77,0,3.53-.02,5.31.1,3.53.24,7.01,1.11,10.21,2.54,6.44,2.83,11.66,8.06,14.63,14.25,1.49,3.09,2.46,6.43,2.83,9.82.11,1.7.2,3.4.17,5.07,0,1.68,0,3.36,0,5.03,0,6.69,0,13.31,0,19.84-.02,52.27-.03,99.35-.04,138.89-.01,19.77-.02,37.65-.03,53.36,0,7.85-.01,15.16-.02,21.89-.02,3.36.09,6.59-.24,9.65-.12.76-.23,1.51-.35,2.25-.15.73-.36,1.45-.54,2.16-.1.35-.17.71-.29,1.05-.12.34-.25.68-.37,1.01-.26.66-.45,1.34-.77,1.96-.3.62-.6,1.24-.89,1.85-.28.61-.68,1.15-1,1.72-.63,1.15-1.45,2.12-2.18,3.11-.36.5-.81.91-1.19,1.36-.41.43-.77.9-1.2,1.27-.42.39-.84.76-1.25,1.14-.21.19-.41.37-.61.55-.22.16-.43.32-.65.48-3.38,2.62-6.74,4.08-9.51,4.97-.71.18-1.37.35-1.99.51-.31.07-.61.17-.9.22-.3.04-.58.09-.85.13-1.09.15-2.01.34-2.76.33-1.49.07-2.25.09-2.25.09"/>
  <path class="cls-4" d="M282.91,399h-92.74c-13.25,0-24-10.74-24-24v-241.38c0-13.25,10.74-24,24-24h92.74c13.25,0,24,10.74,24,24v241.38c0,13.25-10.74,24-24,24"/>
  <g class="cls-11">
    <g class="cls-17">
      <path d="M315.1,382.9l-15.41-39.4c-.41-1.04.36-2.17,1.48-2.17h13.93v41.57Z"/>
    </g>
  </g>
  <path class="cls-16" d="M287.65,183.91c0-.06,1,.03,2.8-.47.89-.27,1.97-.69,3.09-1.47,1.11-.77,2.24-1.91,3.12-3.43.43-.76.8-1.62,1.03-2.57.14-.47.19-.96.27-1.47.03-.51.07-1.02.06-1.57,0-1.08-.01-2.21-.02-3.39-.02-1.17.03-2.41-.07-3.64-.25-2.46-1.47-5.02-3.63-6.83-1.07-.91-2.36-1.62-3.78-2.02-1.43-.43-2.95-.42-4.55-.4-25.47.03-60.64.07-99.48.11-2.35.01-4.66.83-6.45,2.3-1.79,1.48-3.04,3.55-3.51,5.78-.23,1.12-.22,2.26-.22,3.44,0,1.17,0,2.34,0,3.51.02,1.18-.06,2.31.17,3.4.21,1.09.59,2.15,1.12,3.12,1.08,1.93,2.79,3.47,4.78,4.35,1,.43,2.05.7,3.12.82,1.06.08,2.19.04,3.29.05,4.41,0,8.72,0,12.93.01,16.83.03,31.99.06,44.72.08,12.73.05,23.02.09,30.15.12,3.55.03,6.31.05,8.2.07.93.02,1.64.03,2.13.04.23,0,.41.01.54.02.12,0,.18.01.18.02s-.06.01-.18.02c-.13,0-.31.01-.54.02-.49,0-1.2.02-2.13.04-1.88.02-4.64.04-8.2.07-7.13.03-17.43.07-30.15.12-12.73.02-27.89.05-44.72.08-4.21,0-8.52,0-12.93.01-1.11-.01-2.19.03-3.35-.05-1.15-.12-2.28-.41-3.34-.87-2.13-.94-3.96-2.58-5.12-4.65-.57-1.04-.98-2.17-1.21-3.34l-.13-.89-.05-.9c-.02-.59,0-1.16-.01-1.75,0-1.16,0-2.33,0-3.51,0-1.16-.02-2.39.23-3.6.51-2.4,1.85-4.62,3.77-6.21,1.92-1.58,4.41-2.46,6.92-2.47,38.84.04,74.01.08,99.48.11.8.01,1.57-.02,2.37.04.79.04,1.57.2,2.31.41,1.49.43,2.84,1.18,3.95,2.14,2.24,1.91,3.5,4.59,3.74,7.15.09,1.3.03,2.5.04,3.68,0,1.18-.01,2.3-.02,3.39.05,2.19-.54,4.21-1.46,5.75-.92,1.56-2.1,2.7-3.24,3.47-1.15.78-2.27,1.19-3.17,1.43-.23.06-.45.11-.65.16-.2.04-.4.06-.57.08-.35.05-.65.09-.89.08-.23,0-.41,0-.54,0-.12,0-.18,0-.18-.01"/>
  <path class="cls-16" d="M273.84,132.71s-.24.04-.63.15c-.39.12-.95.39-1.37.97-.43.56-.66,1.48-.33,2.36.31.88,1.24,1.62,2.33,1.62,1.09.01,2.02-.74,2.33-1.62.34-.88.1-1.8-.33-2.36-.43-.58-.99-.86-1.37-.97-.39-.12-.63-.12-.63-.15,0-.02.24-.07.66.01.42.08,1.05.33,1.55.95.5.6.8,1.63.44,2.64-.33,1.01-1.4,1.88-2.65,1.87-1.25.01-2.32-.87-2.65-1.87-.36-1.01-.06-2.04.44-2.64.5-.62,1.13-.87,1.55-.95.43-.08.67-.03.66-.01"/>
  <path class="cls-16" d="M281.44,132.71s-.24.04-.63.15c-.39.12-.95.39-1.37.97-.43.56-.66,1.48-.33,2.36.31.88,1.24,1.62,2.33,1.62,1.09.01,2.02-.74,2.33-1.62.34-.88.1-1.8-.33-2.36-.43-.58-.99-.86-1.37-.97-.39-.12-.63-.12-.63-.15,0-.02.24-.07.66.01.42.08,1.05.33,1.55.95.5.6.8,1.63.44,2.64-.33,1.01-1.4,1.88-2.65,1.87-1.25.01-2.32-.87-2.65-1.87-.36-1.01-.06-2.04.44-2.64.5-.62,1.13-.87,1.55-.95.43-.08.67-.03.66-.01"/>
  <path class="cls-16" d="M289.03,132.71s-.24.04-.63.15c-.39.12-.95.39-1.37.97-.43.56-.66,1.48-.33,2.36.31.88,1.24,1.62,2.33,1.62,1.09.01,2.02-.74,2.33-1.62.34-.88.1-1.8-.33-2.36-.43-.58-.99-.86-1.37-.97-.39-.12-.63-.12-.63-.15,0-.02.24-.07.66.01.42.08,1.05.33,1.55.95.5.6.8,1.63.44,2.64-.33,1.01-1.4,1.88-2.65,1.87-1.25.01-2.32-.87-2.65-1.87-.36-1.01-.06-2.04.44-2.64.5-.62,1.13-.87,1.55-.95.43-.08.67-.03.66-.01"/>
  <path class="cls-16" d="M184.05,131.44c-1.07,1.1-2.13,2.19-3.2,3.29-.31.32-.38.96,0,1.27,1.07.88,2.13,1.76,3.2,2.64.37.31.9.37,1.27,0,.32-.32.38-.96,0-1.27-1.07-.88-2.13-1.76-3.2-2.64v1.27c1.07-1.1,2.13-2.19,3.2-3.29.34-.35.35-.92,0-1.27-.34-.34-.93-.35-1.27,0"/>
  <path class="cls-16" d="M192.43,169.86c-.01.98-.62,1.9-1.56,2.24-.96.35-2.04.05-2.69-.74-.62-.77-.69-1.88-.19-2.72.5-.84,1.5-1.3,2.47-1.12,1.13.21,1.94,1.2,1.96,2.35,0,.58.91.58.9,0-.02-1.37-.86-2.59-2.15-3.08-1.27-.48-2.79-.08-3.65.98-.87,1.06-1.01,2.59-.3,3.78.71,1.19,2.09,1.79,3.44,1.54,1.54-.28,2.64-1.68,2.66-3.22,0-.58-.89-.58-.9,0"/>
  <path class="cls-16" d="M191.66,172.25c.36.39.71.79,1.07,1.18.05.06.1.11.15.17.16.17.48.17.63,0,.17-.19.17-.45,0-.63-.36-.39-.71-.79-1.07-1.18-.05-.06-.1-.11-.15-.17-.16-.17-.48-.17-.63,0-.17.19-.17.45,0,.63"/>
  <path class="cls-16" d="M189.89,208.14c0-.08.68-.02,1.77-.47.54-.22,1.17-.58,1.75-1.16.58-.57,1.1-1.38,1.35-2.37.26-.98.21-2.15-.26-3.25-.47-1.09-1.39-2.08-2.61-2.61-.61-.26-1.28-.41-1.98-.41-.74,0-1.5,0-2.27,0-1.54,0-3.14,0-4.78,0-1.53,0-2.98.73-3.87,1.86-.91,1.12-1.24,2.59-1.02,3.9.21,1.32.95,2.45,1.89,3.17.47.36.99.63,1.51.81.53.17,1.06.23,1.57.25,2.14.03,3.88.07,5.08.12,1.2.04,1.86.09,1.86.15s-.66.1-1.86.15c-1.2.04-2.93.08-5.08.12-.55,0-1.15-.05-1.75-.23-.59-.18-1.18-.47-1.71-.86-1.07-.78-1.94-2.05-2.19-3.55-.27-1.48.1-3.17,1.13-4.47,1.01-1.31,2.69-2.16,4.44-2.16,1.64,0,3.23,0,4.78,0,.77,0,1.53,0,2.27.01.79,0,1.56.18,2.25.49,1.38.62,2.4,1.76,2.9,3,.5,1.24.51,2.55.2,3.63-.31,1.09-.92,1.95-1.57,2.54-.66.6-1.35.94-1.94,1.13-.59.2-1.07.23-1.39.24-.32,0-.49-.03-.49-.05"/>
  <path class="cls-16" d="M292.57,208.14c0-.08.68-.02,1.77-.47.54-.22,1.17-.58,1.75-1.16.58-.57,1.1-1.38,1.35-2.37.26-.98.21-2.15-.26-3.25-.47-1.09-1.39-2.08-2.61-2.61-.61-.26-1.28-.41-1.98-.41-.74,0-1.5,0-2.27,0-1.54,0-3.14,0-4.78,0-1.53,0-2.98.73-3.87,1.86-.91,1.12-1.24,2.59-1.02,3.9.21,1.32.95,2.45,1.89,3.17.47.36.99.63,1.51.81.53.17,1.06.23,1.57.25,2.14.03,3.88.07,5.08.12,1.2.04,1.86.09,1.86.15s-.66.1-1.86.15c-1.2.04-2.93.08-5.08.12-.55,0-1.15-.05-1.75-.23-.59-.18-1.18-.47-1.71-.86-1.07-.78-1.94-2.05-2.19-3.55-.27-1.48.1-3.17,1.13-4.47,1.01-1.31,2.69-2.16,4.44-2.16,1.64,0,3.23,0,4.78,0,.77,0,1.53,0,2.27.01.79,0,1.56.18,2.25.49,1.38.62,2.4,1.76,2.9,3,.5,1.24.51,2.55.2,3.63-.31,1.09-.92,1.95-1.57,2.54-.66.6-1.35.94-1.94,1.13-.59.2-1.07.23-1.39.24-.32,0-.49-.03-.49-.05"/>
  <path class="cls-16" d="M236.38,208.14s.32-.03.91-.16c.58-.13,1.45-.4,2.32-1.12.85-.71,1.7-1.92,1.85-3.51.07-.79-.05-1.64-.39-2.46-.35-.81-.94-1.59-1.75-2.15-.8-.57-1.81-.91-2.88-.92-1.13,0-2.3.01-3.51.02-2.43.01-5.03.02-7.76.03-5.47,0-11.47.02-17.77.03-1.47,0-2.89.69-3.81,1.79-.92,1.1-1.3,2.58-1.07,3.95.21,1.37,1.03,2.6,2.14,3.33.56.37,1.18.62,1.82.74.32.06.64.08.97.09.35,0,.69,0,1.03,0,5.46.03,10.38.06,14.51.08,4.11.05,7.45.09,9.79.12,1.14.03,2.03.05,2.66.07.61.02.93.05.93.08s-.32.05-.93.08c-.63.02-1.52.04-2.66.07-2.34.03-5.67.07-9.79.12-4.14.02-9.06.05-14.51.08-.34,0-.68,0-1.03,0-.36,0-.74-.03-1.1-.1-.73-.13-1.45-.42-2.09-.84-1.28-.83-2.22-2.24-2.47-3.81-.27-1.56.17-3.27,1.22-4.54,1.05-1.27,2.69-2.07,4.38-2.06,6.3.01,12.31.02,17.77.03,2.73.01,5.33.02,7.76.03,1.22,0,2.39.02,3.52.02,1.19.03,2.31.43,3.18,1.07.88.64,1.51,1.5,1.88,2.4.36.91.46,1.84.37,2.69-.2,1.71-1.15,2.98-2.08,3.69-.95.73-1.87.96-2.48,1.04-.31.04-.54.05-.7.04-.16,0-.24-.01-.24-.03"/>
  <path class="cls-16" d="M269.69,208.14s.24-.05.69-.13c.45-.08,1.11-.25,1.85-.69.73-.44,1.54-1.17,2.04-2.27.51-1.08.68-2.54.15-3.95-.51-1.4-1.79-2.7-3.5-3.11-.42-.12-.86-.15-1.32-.15-.48,0-.96,0-1.46,0-.99,0-2,.01-3.04.02-4.17,0-8.74.02-13.55.03-1.12.01-2.22.38-3.07,1.07-.85.68-1.47,1.62-1.72,2.65-.27,1.02-.18,2.11.19,3.05.37.95,1.04,1.75,1.84,2.3.41.27.84.47,1.3.63.46.13.92.21,1.38.22.98,0,1.94.02,2.87.02,1.85.02,3.57.03,5.15.05,3.15.03,5.7.07,7.46.12.88.02,1.56.05,2.03.07s.71.05.71.08-.24.05-.71.08-1.15.05-2.03.07c-1.76.04-4.31.08-7.46.12-1.58.01-3.3.03-5.15.05-.93,0-1.89,0-2.88.01-.52,0-1.05-.09-1.57-.24-.51-.17-1.02-.39-1.48-.7-.92-.62-1.69-1.52-2.12-2.6-.43-1.08-.54-2.32-.23-3.5.28-1.18.99-2.27,1.97-3.05.97-.79,2.25-1.22,3.53-1.23,4.81.01,9.38.02,13.55.03,1.04,0,2.06.01,3.04.02.49,0,.98,0,1.46,0,.5.01,1,.05,1.47.19,1.92.49,3.31,1.98,3.84,3.53.56,1.57.32,3.16-.27,4.31-.59,1.17-1.48,1.92-2.28,2.34-.8.43-1.51.56-1.97.59-.47.03-.72,0-.72-.02"/>
  <path class="cls-16" d="M190.36,227.89s-.08.01-.23.02c-.16,0-.38.01-.68.02-.59.04-1.48.08-2.58.45-1.09.37-2.39,1.05-3.55,2.28-1.15,1.21-2.12,3.02-2.3,5.19.02,8.85.05,21.65.08,37.47,0,1.98,0,4,.01,6.07,0,1.04,0,2.08,0,3.14.01,1.06-.05,2.13.13,3.15.32,2.07,1.39,4.06,3.05,5.48,1.64,1.43,3.83,2.27,6.09,2.26,9.3-.01,19.25-.02,29.71-.03,20.92,0,43.92-.02,68.07-.03,2.92.06,5.79-1.33,7.49-3.65.86-1.14,1.46-2.48,1.7-3.89.24-1.38.12-2.88.15-4.35,0-5.88,0-11.67,0-17.37,0-5.69,0-11.29,0-16.76,0-2.74,0-5.45,0-8.13,0-.67.01-1.34,0-2-.02-.64-.09-1.28-.24-1.9-.29-1.24-.84-2.41-1.6-3.42-1.51-2.02-3.85-3.35-6.3-3.61-.61-.05-1.22-.07-1.87-.06-.63,0-1.26,0-1.89,0-1.26,0-2.5,0-3.74,0-4.96,0-9.77-.01-14.42-.02-9.3-.02-17.97-.03-25.88-.05-15.82-.05-28.62-.09-37.48-.12-4.42-.03-7.85-.05-10.19-.07-1.16-.02-2.05-.03-2.65-.04-.29,0-.52-.01-.68-.02-.15,0-.23-.01-.23-.02s.08-.01.23-.02c.16,0,.38-.01.67-.02.6,0,1.49-.02,2.65-.04,2.34-.02,5.77-.04,10.19-.07,8.86-.03,21.66-.07,37.48-.12,7.91-.01,16.58-.03,25.88-.05,4.65,0,9.46-.01,14.42-.02,1.24,0,2.49,0,3.74,0,.63,0,1.26,0,1.89,0,.62,0,1.28,0,1.94.06,2.63.27,5.15,1.7,6.77,3.87.82,1.08,1.41,2.34,1.73,3.67.16.67.24,1.35.26,2.04.02.68,0,1.34.01,2.01,0,2.68,0,5.39,0,8.13,0,5.48,0,11.07,0,16.76,0,5.69,0,11.49,0,17.37v2.21c0,.72-.02,1.52-.16,2.27-.25,1.52-.9,2.97-1.83,4.2-1.83,2.51-4.96,4.02-8.09,3.95-24.14-.01-47.14-.02-68.07-.03-10.46-.01-20.4-.02-29.71-.03-2.4,0-4.74-.9-6.48-2.43-1.76-1.51-2.89-3.64-3.23-5.84-.1-.55-.11-1.11-.13-1.65,0-.53,0-1.07,0-1.6,0-1.06,0-2.1,0-3.14,0-2.07,0-4.1.01-6.07.05-15.83.04-28.62.16-37.49.2-2.25,1.23-4.1,2.43-5.32,1.21-1.24,2.55-1.91,3.67-2.27,1.13-.35,2.03-.36,2.63-.38.29,0,.52.01.68.02.15,0,.23.01.23.02"/>
  <path class="cls-16" d="M183.94,232.35c.1-.18,24.34,12.8,54.14,28.99,29.81,16.2,53.89,29.47,53.79,29.65-.1.18-24.34-12.8-54.15-29-29.8-16.19-53.89-29.47-53.79-29.65"/>
  <path class="cls-16" d="M292.91,234.32c.09.19-24.46,12.58-54.83,27.68-30.38,15.11-55.07,27.2-55.16,27.01-.09-.19,24.45-12.58,54.83-27.68,30.37-15.1,55.07-27.2,55.16-27.01"/>
  <path class="cls-16" d="M212.66,317.36s.26-.03.72-.15c.46-.11,1.14-.35,1.79-.96.64-.59,1.24-1.61,1.2-2.86-.01-1.23-.77-2.66-2.2-3.29-.35-.15-.73-.26-1.13-.3-.39-.03-.85,0-1.29,0-.9,0-1.83.01-2.8.02-1.94.01-4.01.02-6.18.03-4.36,0-9.14.02-14.16.03-1.14,0-2.24.57-2.89,1.48-.66.89-.83,2.09-.52,3.12.31,1.03,1.1,1.88,2.06,2.26.49.2.98.27,1.52.27.56,0,1.11,0,1.65,0,4.35.03,8.27.06,11.57.08,3.29.03,5.96.07,7.8.12.92.02,1.64.05,2.12.07.48.02.74.05.74.08s-.25.05-.74.08c-.48.02-1.2.05-2.12.07-1.84.04-4.51.08-7.8.12-3.3.02-7.22.05-11.57.08-.54,0-1.09,0-1.65,0-.57.01-1.22-.07-1.79-.31-1.16-.46-2.11-1.47-2.5-2.71-.38-1.24-.18-2.68.62-3.76.77-1.1,2.11-1.8,3.49-1.79,5.02.01,9.81.02,14.16.03,2.18.01,4.24.02,6.18.03.97,0,1.9.01,2.8.02.45,0,.87,0,1.35.03.46.06.9.18,1.29.37,1.62.75,2.43,2.4,2.4,3.76,0,1.39-.7,2.48-1.43,3.09-.73.62-1.48.83-1.96.89-.25.03-.43.04-.56.03-.13,0-.19-.02-.19-.03"/>
  <path class="cls-16" d="M229.48,377.57c0-.05.69,0,1.93-.32,1.21-.32,3.06-1.12,4.49-3.08.71-.97,1.27-2.22,1.45-3.67.09-.72.07-1.49.06-2.3,0-.81-.01-1.65-.02-2.52-.02-3.48-.04-7.44-.06-11.82-.01-4.38-.03-9.18-.05-14.32,0-.64,0-1.29,0-1.95,0-.65,0-1.32-.04-1.95-.1-1.28-.56-2.53-1.27-3.63-1.46-2.2-4.12-3.64-6.95-3.48-11.58,0-24.31.02-37.67.03-.8.01-1.59.13-2.35.36-.75.24-1.46.6-2.11,1.05-1.28.91-2.29,2.2-2.81,3.66-.61,1.45-.47,3.04-.49,4.65,0,1.6,0,3.19,0,4.77,0,6.3-.02,12.38-.02,18.17,0,2.89,0,5.71,0,8.45.05,2.65,1.53,5.1,3.64,6.39,1.05.66,2.23,1.07,3.42,1.17.59.04,1.21.04,1.82.04.61,0,1.21,0,1.81,0,2.39,0,4.68.02,6.87.02,8.75.05,15.83.09,20.74.12,2.44.03,4.34.05,5.64.07.64.02,1.12.03,1.47.04.33.01.5.03.5.04s-.17.03-.5.04c-.34,0-.83.02-1.47.04-1.3.02-3.2.04-5.64.07-4.91.03-11.99.07-20.74.12-2.19,0-4.48.02-6.87.02-.6,0-1.2,0-1.81,0-.61,0-1.22.01-1.87-.03-1.28-.11-2.56-.54-3.7-1.24-2.28-1.39-3.9-4.03-3.97-6.9,0-2.75-.02-5.57-.03-8.47,0-5.79-.01-11.87-.02-18.17,0-1.58,0-3.16,0-4.77,0-.81-.02-1.59.02-2.43.04-.84.2-1.68.51-2.48.57-1.6,1.68-3.02,3.08-4.01.71-.49,1.49-.89,2.32-1.15.83-.25,1.7-.38,2.57-.4,13.36.01,26.09.02,37.67.03.72-.01,1.49.05,2.22.19.72.17,1.43.4,2.08.75,1.31.66,2.41,1.68,3.2,2.86.77,1.2,1.26,2.56,1.36,3.94.05.7.03,1.35.03,2.01,0,.65,0,1.3,0,1.95-.02,5.15-.03,9.94-.05,14.32-.02,4.38-.04,8.34-.06,11.82,0,.87-.01,1.71-.02,2.52,0,.8.01,1.59-.1,2.35-.21,1.51-.81,2.81-1.57,3.8-1.53,2.01-3.45,2.78-4.69,3.06-.63.14-1.13.19-1.46.18-.33,0-.5,0-.5-.01"/>
  <path class="cls-16" d="M240.72,357.06s-.72-.64-1.94-1.86c-1.23-1.21-3-2.98-5.38-4.94-1.14-1-2.65-1.75-4.4-2.03-.86-.14-1.8-.18-2.7-.03-.91.16-1.8.53-2.64,1.05-1.69,1.04-3.06,2.68-4.29,4.51-.61.93-1.24,1.87-1.87,2.83-.66.95-1.34,1.94-2.27,2.77-.9.82-2.16,1.45-3.45,1.31-1.29-.1-2.35-.88-3.16-1.66-1.63-1.59-2.8-3.45-4.47-4.46-.41-.25-.85-.43-1.29-.55-.45-.11-.91-.14-1.36-.1-.91.07-1.77.39-2.52.83-1.51.89-2.57,2.23-3.46,3.46-1.75,2.52-3.18,4.56-4.19,6.01-.5.71-.89,1.25-1.17,1.62-.27.36-.43.55-.45.53-.02-.01.09-.23.32-.62.23-.39.59-.96,1.05-1.69.93-1.46,2.28-3.56,3.99-6.15.88-1.27,1.94-2.7,3.58-3.69.81-.48,1.75-.85,2.78-.95.51-.05,1.05-.02,1.57.1.52.13,1.03.34,1.49.62,1.88,1.12,3.07,3.04,4.63,4.52.78.73,1.68,1.37,2.72,1.44,1.04.11,2.06-.38,2.89-1.13.84-.74,1.5-1.69,2.15-2.63.64-.96,1.26-1.9,1.88-2.82,1.25-1.85,2.71-3.58,4.53-4.68.9-.55,1.89-.95,2.89-1.11,1.01-.16,1.99-.09,2.91.07,1.85.32,3.47,1.18,4.63,2.24,2.36,2.03,4.07,3.87,5.25,5.14.58.64,1.02,1.15,1.32,1.5.29.35.43.54.41.56"/>
  <path class="cls-16" d="M217.62,342.43c-.07,0-.07-.48-.31-1.27-.23-.78-.78-1.91-1.96-2.77-.58-.42-1.31-.77-2.14-.91-.83-.13-1.75-.09-2.63.25-.88.32-1.71.92-2.31,1.75-.61.82-.95,1.86-.96,2.94.01,1.08.35,2.12.96,2.94.59.83,1.43,1.43,2.31,1.75.88.34,1.8.38,2.63.25.83-.13,1.56-.49,2.14-.91,1.18-.86,1.73-1.99,1.96-2.77.24-.79.24-1.27.31-1.27.03,0,.13.48-.03,1.34-.16.84-.67,2.11-1.92,3.12-.62.49-1.42.92-2.35,1.1-.92.18-1.97.16-2.98-.21-1.01-.35-1.97-1.02-2.66-1.97-.71-.93-1.11-2.14-1.12-3.38.01-1.24.41-2.44,1.12-3.37.69-.94,1.65-1.62,2.66-1.97,1.01-.37,2.06-.39,2.98-.21.93.18,1.73.6,2.35,1.1,1.26,1.01,1.77,2.27,1.92,3.12.16.86.06,1.34.03,1.34"/>
  <path class="cls-16" d="M292.94,368.53c-.07,0-.07-.48-.31-1.27-.23-.78-.78-1.91-1.96-2.77-.58-.42-1.31-.77-2.14-.91-.83-.13-1.75-.09-2.63.25-.88.32-1.71.92-2.31,1.75-.61.82-.95,1.86-.96,2.94.01,1.08.35,2.12.96,2.94.59.83,1.43,1.43,2.31,1.75.88.34,1.8.38,2.63.25.83-.13,1.56-.49,2.14-.91,1.18-.86,1.73-1.99,1.96-2.77.24-.79.24-1.27.31-1.27.03,0,.13.48-.03,1.34-.16.84-.67,2.11-1.92,3.12-.62.49-1.42.92-2.35,1.1-.92.18-1.97.16-2.98-.21-1.01-.35-1.97-1.02-2.66-1.97-.71-.93-1.11-2.14-1.12-3.38.01-1.24.41-2.44,1.12-3.37.69-.94,1.65-1.62,2.66-1.97,1.01-.37,2.06-.39,2.98-.21.93.18,1.73.6,2.35,1.1,1.26,1.01,1.77,2.27,1.92,3.12.16.86.06,1.34.03,1.34"/>
  <path class="cls-16" d="M277.97,368.53c-.07,0-.07-.48-.31-1.27-.23-.78-.78-1.91-1.96-2.77-.58-.42-1.31-.77-2.14-.91-.83-.13-1.76-.09-2.63.25-.88.32-1.71.92-2.31,1.75-.61.82-.95,1.86-.96,2.94.01,1.08.35,2.12.96,2.94.59.83,1.43,1.43,2.31,1.75.88.34,1.8.38,2.63.25.83-.13,1.56-.49,2.14-.91,1.18-.86,1.73-1.99,1.96-2.77.24-.79.24-1.27.31-1.27.03,0,.13.48-.03,1.34-.16.84-.67,2.11-1.92,3.12-.62.49-1.42.92-2.35,1.1-.92.18-1.97.16-2.98-.21-1.01-.35-1.97-1.02-2.66-1.97-.71-.93-1.11-2.14-1.12-3.38.01-1.24.41-2.44,1.12-3.37.69-.94,1.65-1.62,2.66-1.97,1.01-.37,2.06-.39,2.98-.21.93.18,1.73.6,2.35,1.1,1.26,1.01,1.77,2.27,1.92,3.12.16.86.06,1.34.03,1.34"/>
  <path class="cls-16" d="M261.31,368.53c-.07,0-.07-.48-.31-1.27-.23-.78-.78-1.91-1.96-2.77-.58-.42-1.31-.77-2.14-.91-.83-.13-1.76-.09-2.63.25-.88.32-1.71.92-2.31,1.75-.61.82-.95,1.86-.96,2.94.01,1.08.35,2.12.96,2.94.59.83,1.43,1.43,2.31,1.75.88.34,1.8.38,2.63.25.83-.13,1.56-.49,2.14-.91,1.18-.86,1.73-1.99,1.96-2.77.24-.79.24-1.27.31-1.27.03,0,.13.48-.03,1.34-.16.84-.67,2.11-1.92,3.12-.62.49-1.42.92-2.35,1.1-.92.18-1.97.16-2.98-.21-1.01-.35-1.97-1.02-2.66-1.97-.71-.93-1.11-2.14-1.12-3.38.01-1.24.41-2.44,1.12-3.37.69-.94,1.65-1.62,2.66-1.97,1.01-.37,2.06-.39,2.98-.21.93.18,1.73.6,2.35,1.1,1.26,1.01,1.77,2.27,1.92,3.12.16.86.06,1.34.03,1.34"/>
  <path class="cls-16" d="M290.63,345.1s.36,0,.96-.27c.29-.14.63-.37.91-.74.28-.37.5-.89.49-1.48,0-.59-.26-1.26-.8-1.73-.27-.24-.6-.42-.98-.51-.19-.05-.38-.06-.58-.07-.22,0-.44,0-.66,0-1.8.02-3.84.04-6.1.06-9.04.07-21.52.11-35.3.11-.74,0-1.45.4-1.82,1.03-.38.62-.41,1.43-.08,2.06.32.64.98,1.09,1.68,1.16.75.02,1.63,0,2.42.02,3.25,0,6.39.01,9.37.02,5.97.03,11.35.06,15.87.08,4.5.05,8.15.09,10.7.12,1.25.03,2.22.05,2.91.07.67.02,1.01.05,1.01.08s-.35.05-1.01.08c-.69.02-1.66.04-2.91.07-2.55.03-6.2.07-10.7.12-4.53.02-9.9.05-15.87.08-2.99,0-6.12.01-9.37.02-.83,0-1.6.02-2.5-.01-.95-.09-1.84-.69-2.27-1.56-.44-.86-.41-1.95.11-2.79.5-.85,1.47-1.39,2.46-1.39,13.79,0,26.27.04,35.3.11,2.26.02,4.3.04,6.1.06.22,0,.44,0,.66,0,.23.01.46.03.68.1.44.11.82.34,1.12.62.61.56.87,1.33.85,2-.02.67-.28,1.24-.61,1.62-.33.39-.71.62-1.03.74-.32.12-.58.15-.76.16-.17,0-.26-.01-.26-.03"/>
  <path class="cls-16" d="M290.63,355.47s.36,0,.96-.27c.29-.14.63-.37.91-.74.28-.37.5-.89.49-1.48,0-.59-.26-1.26-.8-1.73-.27-.24-.6-.42-.98-.51-.19-.05-.38-.06-.58-.07-.22,0-.44,0-.66,0-1.8.02-3.84.04-6.1.06-9.04.07-21.52.11-35.3.11-.74,0-1.45.4-1.82,1.03-.38.62-.41,1.43-.08,2.06.32.64.98,1.09,1.68,1.16.75.02,1.63,0,2.42.02,3.25,0,6.39.01,9.37.02,5.97.03,11.35.06,15.87.08,4.5.05,8.15.09,10.7.12,1.25.03,2.22.05,2.91.07.67.02,1.01.05,1.01.08s-.35.05-1.01.08c-.69.02-1.66.04-2.91.07-2.55.03-6.2.07-10.7.12-4.53.02-9.9.05-15.87.08-2.99,0-6.12.01-9.37.02-.83,0-1.6.02-2.5-.01-.95-.09-1.84-.69-2.27-1.56-.44-.86-.41-1.95.11-2.79.5-.85,1.47-1.39,2.46-1.39,13.79,0,26.27.04,35.3.11,2.26.02,4.3.04,6.1.06.22,0,.44,0,.66,0,.23.01.46.03.68.1.44.11.82.34,1.12.62.61.56.87,1.33.85,2-.02.67-.28,1.24-.61,1.62-.33.39-.71.62-1.03.74-.32.12-.58.15-.76.16-.17,0-.26-.01-.26-.03"/>
  <path class="cls-16" d="M290.03,313.46c0,.21-12.86.37-28.72.37s-28.72-.17-28.72-.37,12.86-.37,28.72-.37,28.72.17,28.72.37"/>
  <path class="cls-13" d="M344.33,318.23c0,39.79,32.26,72.05,72.05,72.05s72.05-32.26,72.05-72.05-32.26-72.05-72.05-72.05-72.05,32.26-72.05,72.05"/>
  <path class="cls-2" d="M344.33,318.23s0-.4.01-1.17c0-.39.02-.87.03-1.44,0-.57.02-1.24.09-1.99.16-3.01.63-7.46,1.98-13.03.73-2.77,1.61-5.84,2.93-9.07,1.29-3.24,2.89-6.69,5-10.18,4.16-6.99,10.14-14.3,18.3-20.55,4.06-3.13,8.69-5.94,13.78-8.26,5.09-2.32,10.66-4.19,16.6-5.26,5.93-1.1,12.21-1.54,18.62-1.04,3.21.19,6.44.71,9.68,1.35,3.23.69,6.46,1.61,9.66,2.75,12.75,4.61,24.87,13.22,33.6,25.17,2.21,2.96,4.15,6.16,5.89,9.48.42.84.89,1.66,1.26,2.53.39.86.78,1.72,1.17,2.58.7,1.76,1.42,3.52,1.99,5.34,1.19,3.62,2.17,7.35,2.75,11.18.6,3.82.92,7.71.95,11.63-.03,3.92-.34,7.81-.94,11.63-.59,3.83-1.57,7.56-2.75,11.18-.58,1.82-1.3,3.58-1.99,5.34-.78,1.73-1.54,3.45-2.43,5.11-1.75,3.32-3.68,6.52-5.89,9.48-8.73,11.96-20.85,20.57-33.6,25.18-3.2,1.13-6.43,2.06-9.66,2.75-3.24.64-6.47,1.16-9.68,1.35-6.41.49-12.69.06-18.62-1.05-5.94-1.08-11.51-2.94-16.6-5.26-5.1-2.32-9.72-5.14-13.78-8.27-8.16-6.25-14.14-13.56-18.3-20.55-2.11-3.49-3.7-6.94-5-10.18-1.32-3.23-2.2-6.3-2.93-9.07-1.35-5.57-1.83-10.02-1.98-13.03-.07-.75-.08-1.42-.09-1.99-.01-.57-.02-1.05-.03-1.44-.01-.77-.01-1.17-.01-1.17,0,0,.02.4.05,1.17.01.39.03.87.05,1.44.01.57.03,1.24.1,1.99.18,3,.68,7.44,2.05,13,.73,2.76,1.63,5.82,2.95,9.04,1.3,3.22,2.9,6.66,5.01,10.14,4.17,6.96,10.14,14.24,18.28,20.45,4.05,3.11,8.66,5.91,13.74,8.21,5.08,2.3,10.62,4.16,16.54,5.22,5.91,1.09,12.16,1.52,18.54,1.02,3.2-.19,6.41-.71,9.64-1.35,3.22-.69,6.43-1.61,9.61-2.74,12.69-4.59,24.74-13.17,33.42-25.07,2.2-2.95,4.12-6.13,5.86-9.44.89-1.65,1.64-3.37,2.41-5.08.69-1.75,1.41-3.5,1.98-5.31,1.18-3.6,2.15-7.32,2.74-11.12.6-3.8.91-7.67.94-11.57-.03-3.9-.34-7.77-.94-11.57-.58-3.8-1.56-7.52-2.74-11.12-.57-1.81-1.29-3.56-1.98-5.31-.39-.86-.78-1.71-1.16-2.57-.37-.86-.84-1.68-1.25-2.51-1.74-3.31-3.66-6.49-5.86-9.43-8.68-11.9-20.74-20.47-33.42-25.06-3.18-1.13-6.39-2.05-9.61-2.74-3.23-.64-6.44-1.16-9.63-1.35-6.38-.5-12.64-.07-18.54,1.02-5.92,1.07-11.46,2.92-16.54,5.22-5.08,2.31-9.69,5.1-13.74,8.21-8.14,6.21-14.12,13.49-18.28,20.44-2.11,3.47-3.71,6.91-5.01,10.14-1.33,3.22-2.22,6.28-2.95,9.04-1.37,5.56-1.87,10-2.05,13-.07.75-.09,1.41-.1,1.99-.02.57-.03,1.05-.05,1.44-.03.77-.05,1.17-.05,1.17"/>
  <path class="cls-10" d="M386.53,329.99l-3.65.16-13.15,28.55-20.8,10.37.99,10.71s25.61-4.72,31.99-8.3c6.38-3.57,14.52-26.79,14.52-26.79.04.17-8.65-14.69-8.65-14.69"/>
  <path class="cls-10" d="M350.14,356.08l-2.67-2.8c-.51-.33-1.11-.5-1.73-.48l-8.45.26c-1.59.16-3.03,1.03-3.91,2.37l-3.07,5.23s-2.06,3.58-1.8,4.45c.4,1.31,1.78,1.05,1.78,1.05,0,0,.29,1.65.85,1.99.92.56,2.05.13,2.05.13.31.63.96,1.06,1.66,1.01.14-.01.29-.04.44-.08,1-.3,1.45-2.25,1.45-2.25l4.28-.79s6.15,4.11,8.32,6.81c2.17,2.69,7.85.64,7.85.64l2.13-10.16-9.19-7.35Z"/>
  <path class="cls-14" d="M343.91,357.3c0,.06-.68.19-1.85.31-1.16.13-2.81.18-4.67.42l.2-.15c-.3.66-.67,1.34-1.1,2.02-1.31,2.1-2.86,3.74-4.06,4.8-1.21,1.07-2.08,1.57-2.12,1.51-.05-.07.74-.67,1.86-1.79,1.12-1.12,2.59-2.77,3.87-4.81.41-.66.78-1.32,1.08-1.96l.06-.13.14-.02c1.91-.22,3.55-.19,4.71-.23,1.17-.03,1.86-.04,1.87.02"/>
  <path class="cls-14" d="M344.11,361.33c.01.05-.57.27-1.59.42-1.02.15-2.49.2-4.13-.14l.3-.17c-.17.5-.37,1.02-.62,1.53-.89,1.87-2.15,3.3-3.17,4.17-1.03.88-1.78,1.24-1.81,1.19-.05-.07.63-.54,1.56-1.47.93-.92,2.09-2.33,2.95-4.12.24-.49.43-.99.61-1.47l.08-.22.22.05c3.16.71,5.6.07,5.61.23"/>
  <path class="cls-10" d="M354.83,363.41c-2.51-1.17-5.02-2.33-7.53-3.5-1.04-.49-2.13-.98-3.28-.97-1.24,0-2.39.59-3.49,1.16-1.35.7-2.7,1.4-4.05,2.1-.22.11-.46.25-.54.48-.1.31.12.62.35.86,2.02,2.05,5.66,2.2,7.85.32.65,1.77,1.32,3.58,2.54,5.02,1.22,1.44,3.11,2.46,4.96,2.12"/>
  <path class="cls-14" d="M351.64,370.98s-.07.04-.2.07c-.14.04-.34.06-.61.07-.54.01-1.36-.09-2.27-.55-.91-.45-1.89-1.26-2.67-2.43-.8-1.16-1.39-2.63-1.97-4.2l.38.1c-1.11.98-2.73,1.5-4.39,1.37-.83-.06-1.67-.28-2.45-.68-.38-.21-.76-.45-1.09-.75-.16-.15-.34-.29-.49-.5-.14-.19-.3-.48-.21-.82.07-.28.28-.46.45-.56.18-.11.33-.18.49-.26.32-.16.63-.32.94-.49.62-.32,1.24-.64,1.84-.95,1.21-.6,2.35-1.3,3.63-1.58,1.3-.32,2.57.09,3.58.54,1.02.46,1.94.92,2.79,1.32,1.63.8,2.98,1.45,4.01,1.96.94.47,1.46.75,1.44.78-.02.03-.56-.18-1.53-.6-1.05-.46-2.42-1.07-4.08-1.8-.87-.39-1.8-.81-2.81-1.26-1-.43-2.13-.76-3.29-.47-1.16.27-2.29.96-3.5,1.57-.6.31-1.21.63-1.83.95-.31.16-.62.32-.94.49-.32.16-.65.32-.67.48-.06.2.23.54.54.79.3.27.64.49.98.68.71.37,1.48.58,2.24.64,1.53.13,3.02-.34,4.04-1.22l.26-.22.11.32c.56,1.58,1.12,3.02,1.86,4.15.72,1.14,1.63,1.93,2.47,2.4,1.74.95,2.97.57,2.95.66"/>
  <path class="cls-2" d="M456.27,267.14c.47-5.83,1.78-11.59,1.95-17.44.17-5.85-.95-12.03-4.74-16.49-3.79-4.46-10.75-6.54-15.74-3.48l-1.31,4.9c.35,22.64-1.46,45.49-1.11,68.13.05,2.97,2.26,5.81,3.43,8.55,1.17,2.74,3.72,5.1,6.69,5.12,3.89.03,6.7-3.73,8.16-7.34,5.28-13.08,1.55-27.89,2.68-41.95"/>
  <path class="cls-1" d="M444.28,235.92c-.75-1.5-1.52-3.02-2.69-4.22-1.17-1.2-2.83-2.05-4.49-1.85-.78.09-1.6.48-1.91,1.21-.31.73.18,1.76.97,1.75l.16.15c1.64,1.66,3.32,3.3,5.03,4.9.43.4.88.81,1.43,1.02.55.21,1.24.18,1.66-.24.69-.68.3-1.85-.14-2.72"/>
  <path class="cls-2" d="M447.19,241.88c-5.33-7.51-12.87-12.13-22.04-12.9-5.18-.44-7.39.49-11.19,1.25-3.8.75-7.3,2.53-9.74,5.54-2.9,3.57-5.41,7.63-6.22,12.16-.83,4.65-.78,9.26-.15,13.1.77,4.66,3.45,11.89,5.96,15.9l7.89,1.51c6.59.67,13.28,1.35,19.82.27,6.54-1.07,13.03-4.11,16.86-9.52,5.32-7.51,4.16-19.8-1.18-27.3"/>
  <path class="cls-10" d="M436.55,241.08l-15.52-7.42-4.2.2c-9.38-.6-16.55,9.3-17.13,16.89-.64,8.43-1.09,18.75-.17,25.06,1.85,12.69,12.45,14.45,12.45,14.45,0,0-.67,6.65-1.04,10.84l24.54-.11,4.99-55.35c.08-2.31-1.63-4.3-3.93-4.57"/>
  <path class="cls-14" d="M418.48,274.15c-.04-.66-.37-1.27-.81-1.71-.88-.86-2.24-1.03-3.29-.41-1.05.62-1.72,2-1.62,3.33.51.81,1.33,1.39,2.28,1.54.15.02.3.04.44.04.72.03,1.47-.16,2.06-.66.59-.49.98-1.31.93-2.13"/>
  <path class="cls-2" d="M402.34,262.27c-.04.86.65,1.6,1.54,1.66.89.06,1.65-.59,1.69-1.44.04-.86-.65-1.6-1.54-1.66-.89-.06-1.65.59-1.69,1.44"/>
  <path class="cls-2" d="M402.27,255.16c.2.21,1.44-.68,3.19-.65,1.75,0,3.02.92,3.21.71.09-.09-.11-.48-.66-.89-.54-.41-1.48-.82-2.57-.83-1.09,0-2.01.38-2.54.78-.54.41-.73.79-.63.88"/>
  <path class="cls-2" d="M412.53,269.57c0-.1-1.07-.3-2.83-.55-.45-.05-.87-.15-.94-.45-.1-.32.09-.8.32-1.32.43-1.07.89-2.2,1.36-3.38,1.89-4.81,3.27-8.77,3.08-8.85-.2-.07-1.89,3.77-3.78,8.58-.46,1.19-.89,2.32-1.31,3.4-.18.5-.47,1.08-.25,1.75.12.34.44.58.73.66.29.09.54.1.76.12,1.77.12,2.87.14,2.88.04"/>
  <path class="cls-14" d="M411.96,290.25s8.51.66,17.02-4.3c0,0-4.63,8.72-17.29,7.37l.27-3.07Z"/>
  <path class="cls-2" d="M417.66,270.85c-.28-.02-.31,1.88-1.95,3.2-1.64,1.33-3.66,1.09-3.68,1.36-.03.12.45.37,1.3.41.84.04,2.06-.21,3.07-1.02,1-.81,1.44-1.91,1.52-2.69.08-.79-.12-1.26-.25-1.26"/>
  <path class="cls-2" d="M403.28,249.1c.29.43,1.63.16,3.19.31,1.57.1,2.85.58,3.2.2.16-.19-.01-.6-.55-1.04-.53-.43-1.45-.84-2.52-.93-1.07-.08-2.04.17-2.63.52-.6.35-.82.73-.7.94"/>
  <path class="cls-2" d="M420.17,262.74c-.01.86-.75,1.56-1.65,1.56-.89,0-1.61-.69-1.6-1.55.01-.86.75-1.56,1.64-1.56.9,0,1.61.69,1.6,1.55"/>
  <path class="cls-2" d="M425.88,256.08c-.21.2-1.39-.77-3.14-.85-1.74-.11-3.07.73-3.25.5-.09-.1.14-.47.71-.85.57-.38,1.53-.72,2.61-.66,1.09.06,1.98.51,2.49.94.52.44.68.83.57.92"/>
  <path class="cls-2" d="M425.21,250.43c-.36.38-1.69-.1-3.31-.2-1.61-.15-3,.12-3.3-.32-.13-.21.11-.59.73-.94.61-.34,1.61-.6,2.72-.51,1.11.09,2.06.5,2.6.93.55.44.72.85.56,1.04"/>
  <path class="cls-10" d="M436.87,266.7c.01-.94,1.13-3.15,2.07-3.29,2.49-.36,6.97-.1,6.93,6.22-.06,8.63-8.71,6.8-8.73,6.55-.01-.19-.32-6.23-.27-9.48"/>
  <path class="cls-14" d="M439.54,273.04s.15.11.4.22c.25.11.67.2,1.12.03.91-.33,1.69-1.77,1.74-3.33.03-.79-.13-1.53-.41-2.16-.26-.63-.67-1.08-1.12-1.16-.46-.11-.78.16-.89.41-.12.24-.06.41-.11.43-.02.02-.18-.15-.11-.5.04-.17.14-.37.34-.54.21-.17.51-.25.83-.21.67.05,1.26.67,1.56,1.35.34.69.54,1.53.51,2.41-.07,1.74-.97,3.36-2.22,3.72-.61.15-1.11-.03-1.37-.24-.27-.21-.31-.41-.28-.42"/>
  <path class="cls-2" d="M439.28,263.46l-2.34,2.12c-8.82-9.67-25.72-33.53-24.79-32.11,0,0,6.64-2.22,13.58-.55,6.93,1.67,20,6.09,19.24,14.34-.77,8.26-5.69,16.2-5.69,16.2"/>
  <path class="cls-3" d="M451.91,262.41s-.02-.18-.1-.51c-.08-.33-.23-.81-.49-1.4-.52-1.17-1.56-2.78-3.32-4.29-1.73-1.54-4.18-2.87-7-3.97-2.81-1.13-6.01-2.08-9.1-3.66-3.11-1.53-5.86-3.42-8.17-5.33-2.31-1.93-4.19-3.9-5.64-5.65-1.45-1.75-2.49-3.28-3.19-4.35-.32-.51-.58-.92-.78-1.24-.18-.28-.28-.43-.3-.42-.01,0,.06.17.22.47.16.3.38.74.71,1.29.66,1.1,1.66,2.66,3.09,4.46,1.43,1.79,3.3,3.8,5.62,5.76,2.32,1.95,5.09,3.87,8.24,5.42,3.13,1.6,6.35,2.54,9.14,3.65,2.81,1.08,5.22,2.35,6.95,3.83,1.75,1.45,2.8,2.99,3.37,4.12.56,1.14.7,1.84.75,1.83"/>
  <path class="cls-3" d="M449.31,263.59s.13-.7-.21-1.9c-.32-1.19-1.23-2.85-2.96-4.27-1.7-1.46-4.21-2.46-6.98-3.3-2.79-.82-5.8-1.82-8.72-3.43-2.92-1.6-5.51-3.47-7.62-5.45-2.12-1.96-3.8-3.96-5.09-5.73-1.3-1.76-2.15-3.32-2.75-4.38-.26-.51-.48-.92-.65-1.25-.15-.28-.24-.43-.25-.43-.01,0,.05.17.17.46.15.34.34.77.58,1.29.56,1.09,1.37,2.69,2.65,4.48,1.26,1.81,2.93,3.85,5.06,5.84,2.12,2.01,4.73,3.92,7.68,5.54,2.95,1.63,6.04,2.64,8.82,3.44,2.77.81,5.23,1.76,6.9,3.15,1.7,1.35,2.63,2.93,2.99,4.08.38,1.16.31,1.86.37,1.85"/>
  <path class="cls-3" d="M438.01,278c0-.06.74-.1,2.03-.35,1.29-.27,3.13-.92,4.99-2.36,1.88-1.42,3.62-3.71,4.93-6.54,1.31-2.83,2.21-6.2,2.54-9.79.16-1.79.14-3.56-.06-5.24-.22-1.68-.61-3.28-1.11-4.76-1.04-2.95-2.51-5.39-3.98-7.24-2.96-3.72-5.53-5.31-5.43-5.42.01-.02.17.08.46.28.28.21.73.48,1.24.91,1.05.82,2.51,2.13,4.04,3.98,1.53,1.85,3.08,4.31,4.16,7.32.52,1.51.93,3.14,1.17,4.86.21,1.72.24,3.53.08,5.36-.34,3.66-1.27,7.08-2.63,9.96-1.37,2.88-3.19,5.21-5.16,6.63-1.95,1.45-3.87,2.06-5.2,2.26-.66.14-1.19.1-1.54.14-.35.02-.54.01-.54,0"/>
  <polygon class="cls-10" points="411.43 298.45 435.36 295.87 439.74 299.85 422.66 309.9 415.12 313.8 407.67 311.54 405.31 307.11 411.43 298.45"/>
  <path class="cls-16" d="M379.17,327.59s7.5-14.4,9.36-17.54c3.17-5.36,9.07-8.4,9.07-8.4l13.83-3.2s-1.44,6.93,7.17,7.41c10.94.61,17.74-9.88,17.74-9.88,0,0,12.49,1.28,15.93,2.73,3.45,1.45,13.2,5.53,14.63,18.5l3.34,21.17-26.38,2.01.36,28.19.13,16.08c-11.78,4.9-29.36,7.71-45.84,3.29-1-.27-.48-11.72-2.78-23.44l-4.34-10.55c-1.74-4.22-2.82-8.7-3.08-13.26-.17-3-.09-5.27-.09-5.27,0,0-6.77-2.33-9.07-7.83"/>
  <path class="cls-10" d="M399.95,378.48l44.23-13.28-.31-24.82,22.52-1.72s-1.8,12.86-2.06,19.46c-.38,9.48-4.94,22.74-7.99,25.55-3.05,2.81-57.56,5.87-57.56,5.87l1.17-11.07Z"/>
  <path class="cls-10" d="M374.87,386.29c.36.6,1.05.96,1.75.85.14-.02.28-.06.43-.12.97-.4.72-2.42.72-2.42l4.71-1.15s6.51,3.52,8.92,6c2.41,2.48,7.87-.1,7.87-.1l1.16-10.31-9.39-7.26s.58.43-.15-1.01c-.72-1.44-3.43-.66-3.43-.66-.49-.7-2.31-.82-2.31-.82l-7.63,1.48c-1.57.31-2.92,1.31-3.67,2.72l-2.86,5.4s-1.43,3.84-1.09,4.68c.52,1.27,1.87.87,1.87.87,0,0,.57,2.41,1.21,2.45.65.04,1.87-.6,1.87-.6"/>
  <path class="cls-14" d="M390.69,377.72c0,.08-1.03.07-2.67.26-1.63.21-3.88.67-6.19,1.66-1.15.49-2.21,1.06-3.13,1.64-.89.6-1.83,1.1-2.07,1.8-.12.34-.03.67.16.91.18.24.42.38.62.45.42.14.67,0,.68.05.02,0-.22.23-.73.14-.25-.05-.54-.19-.78-.46-.25-.25-.42-.73-.27-1.19.13-.46.49-.84.87-1.16.4-.31.81-.62,1.28-.92.93-.61,2-1.2,3.18-1.71,2.36-1.02,4.68-1.44,6.35-1.56,1.68-.11,2.71.03,2.71.08"/>
  <path class="cls-14" d="M391.6,382.59c0,.15-3.14.26-6.97.78-3.83.51-6.89,1.23-6.93,1.09-.02-.06.73-.32,1.97-.64,1.24-.32,2.96-.68,4.9-.94,1.93-.26,3.7-.37,4.97-.39,1.28-.02,2.06.03,2.07.1"/>
  <path class="cls-14" d="M374.9,386.09s-.08-.28-.16-.81c-.07-.53-.17-1.29-.18-2.25,0-.48,0-1.01.09-1.58.08-.57.3-1.18.63-1.74.61-1.1,1.49-2.27,2.66-3.18,1.16-.9,2.33-1.68,3.54-2.15,1.2-.47,2.34-.65,3.29-.76.95-.11,1.72-.15,2.25-.17.53-.02.83-.01.83.02,0,.08-1.16.21-3.03.49-.93.16-2.03.37-3.17.84-1.13.46-2.28,1.24-3.4,2.11-1.12.88-1.95,1.95-2.57,3.02-.67,1.03-.72,2.15-.76,3.09-.04,1.88.1,3.06,0,3.06"/>
  <path class="cls-14" d="M384.93,371.27c0,.07-1.14.19-2.97.55-1.75.41-4.57.76-6,3.32-1.58,2.36-2.9,4.57-3.42,6.34-.56,1.76-.4,2.94-.51,2.94-.03,0-.09-.28-.11-.81-.02-.53.03-1.3.28-2.22.45-1.86,1.76-4.15,3.34-6.52.4-.6.85-1.17,1.38-1.63.53-.47,1.16-.77,1.75-.99,1.19-.44,2.3-.62,3.22-.77,1.86-.27,3.02-.27,3.03-.2"/>
  <path class="cls-14" d="M389.58,387.94s-.18-.1-.48-.31c-.35-.24-.8-.55-1.37-.94-1.21-.79-2.99-1.91-5.33-3.09h.11c-1.4.37-2.99.76-4.7,1.19l.15-.21c.04.39.05.77,0,1.17-.05.39-.14.82-.45,1.19-.16.18-.41.3-.61.34-.21.07-.44.11-.67.09-.46-.03-.91-.24-1.24-.57-.08-.08-.16-.17-.23-.27l-.05-.07-.02-.04v-.02s-.01,0-.01,0c-.06-.02.55.15.29.08h0s-.01,0-.01,0l-.15.07c-.2.09-.39.18-.6.27-.21.08-.42.16-.64.21-.11.03-.23.05-.35.07-.12.01-.26.03-.45-.05-.28-.17-.4-.39-.52-.59-.11-.21-.21-.42-.29-.64-.17-.43-.3-.87-.41-1.33l.29.17c-.61.16-1.35.06-1.82-.47-.21-.25-.4-.56-.4-.93-.01-.33.04-.63.1-.93.24-1.2.63-2.35,1.05-3.53h0s0-.03,0-.03c.49-.92,1-1.9,1.52-2.88.32-.61.65-1.22.97-1.83.32-.59.6-1.24,1.08-1.78.46-.54,1.02-.97,1.64-1.28.61-.32,1.31-.45,1.93-.56,2.53-.48,4.94-.95,7.19-1.38h.03s.03,0,.03,0c.45.04.88.11,1.3.24.41.13.85.28,1.17.69l-.27-.06c.79-.4,1.73-.47,2.48-.05.75.42,1.14,1.15,1.37,1.85l-.07-.1c2.7,2.07,4.9,3.76,6.47,4.97.73.57,1.31,1.03,1.75,1.37.4.32.6.49.59.51-.01.01-.23-.13-.65-.42-.45-.33-1.05-.76-1.8-1.3-1.6-1.18-3.83-2.82-6.57-4.84l-.04-.03-.02-.06c-.21-.62-.59-1.29-1.21-1.61-.61-.34-1.43-.27-2.09.07l-.16.08-.11-.15c-.19-.24-.57-.41-.94-.51-.38-.11-.8-.18-1.21-.21h.06c-2.25.44-4.66.92-7.18,1.41-.64.12-1.25.23-1.81.52-.56.28-1.07.68-1.48,1.16-.42.47-.68,1.09-1.02,1.7-.32.6-.64,1.21-.96,1.83-.52.99-1.04,1.96-1.52,2.88v-.03c-.4,1.15-.79,2.31-1.02,3.45-.05.28-.1.57-.09.82,0,.22.12.45.28.64.31.37.87.45,1.34.34l.24-.06.06.23c.11.43.23.86.39,1.27.14.38.35.85.58.99.01,0,.09.02.2,0,.09,0,.19-.03.29-.05.2-.05.39-.12.59-.19.19-.08.38-.16.57-.25l.14-.07h0s0,0,0,0c-.26-.07.35.1.29.08h0s.01.02.01.02l.02.03.04.06c.05.07.11.15.18.21.26.26.61.42.96.45.18.02.35-.01.52-.07.19-.04.31-.1.42-.22.42-.51.42-1.36.37-2.03v-.18s.15-.04.15-.04c1.72-.41,3.31-.78,4.72-1.12h.06s.05.01.05.01c2.34,1.23,4.1,2.4,5.28,3.24.59.43,1.03.77,1.32,1.01.29.24.44.37.43.39"/>
  <path class="cls-3" d="M323.79,389.34l-14.83-38.96c-.56-1.47.52-3.04,2.09-3.04h47.64c.87,0,1.66.5,2.03,1.29l14.27,37.16,29.92.51c1.24,0,2.24,1,2.24,2.24s-1,2.24-2.24,2.24h-79.02c-.93,0-1.76-.57-2.09-1.44"/>
  <path class="cls-4" d="M343.95,369.06c0,1.73-1.4,3.13-3.13,3.13s-3.13-1.4-3.13-3.13,1.4-3.13,3.13-3.13,3.13,1.4,3.13,3.13"/>
  <path class="cls-2" d="M395.07,311.69c.08.04-.64,1.38-1.65,3.62-1.01,2.23-2.26,5.38-3.26,8.98-1,3.6-1.56,6.94-1.86,9.38-.3,2.43-.38,3.95-.46,3.95-.04,0-.05-.38-.05-1.07,0-.69.04-1.69.14-2.92.2-2.46.71-5.84,1.72-9.48,1.02-3.63,2.33-6.79,3.44-9,.55-1.1,1.03-1.98,1.39-2.57.36-.59.57-.91.6-.89"/>
  <path class="cls-2" d="M470.25,338.38s-.19.04-.55.08c-.41.04-.93.09-1.58.16-1.44.12-3.44.29-5.91.5-5.1.38-12.14.91-20.22,1.52l-.26.02-.02-.26c-.17-2.69-.35-5.52-.53-8.43-.29-5.08-.53-9.91-.61-14.32-.23-4.43.86-8.48,2.59-11.36,1.72-2.92,4-4.62,5.67-5.45.85-.4,1.53-.67,2.01-.78.47-.13.72-.2.73-.18.02.07-1,.28-2.64,1.14-1.61.87-3.8,2.57-5.44,5.45-1.66,2.85-2.68,6.78-2.43,11.16.1,4.4.36,9.23.65,14.3.18,2.91.35,5.75.52,8.43l-.28-.24c8.08-.53,15.13-1,20.23-1.34,2.48-.14,4.48-.26,5.92-.34.65-.03,1.18-.05,1.59-.07.36-.01.55,0,.55,0"/>
  <path class="cls-2" d="M420.65,355.62s-.33-.08-.88-.33c-.28-.12-.62-.27-.99-.49-.37-.22-.81-.44-1.25-.77-.91-.6-1.91-1.44-2.91-2.47-.98-1.05-1.96-2.31-2.79-3.76-.81-1.45-1.4-2.94-1.8-4.32-.37-1.39-.59-2.68-.63-3.77-.06-.54-.02-1.04-.02-1.47,0-.43.04-.8.08-1.1.08-.6.14-.93.17-.93.11,0-.07,1.34.14,3.46.09,1.06.34,2.31.73,3.66.42,1.34,1,2.78,1.79,4.19.81,1.4,1.75,2.64,2.69,3.69.96,1.02,1.91,1.87,2.77,2.5,1.72,1.27,2.95,1.8,2.9,1.89"/>
  <g class="cls-11">
    <g class="cls-7">
      <path d="M334.32,298.57h48.06c4.65,0,8.42-3.77,8.42-8.42v-107.95c0-4.65-3.77-8.42-8.42-8.42h-48.06c-4.65,0-8.42,3.77-8.42,8.42v107.95c0,4.65,3.77,8.42,8.42,8.42"/>
    </g>
  </g>
  <path class="cls-4" d="M333.86,295.44h44.19c5.72,0,10.36-4.64,10.36-10.36v-112.75c0-5.72-4.64-10.36-10.36-10.36h-44.19c-5.72,0-10.36,4.64-10.36,10.36v112.75c0,5.72,4.64,10.36,10.36,10.36"/>
  <path class="cls-13" d="M336.49,161.97h38.92c7.13,0,12.91,5.78,12.91,12.91v38.75c0,10.35-8.39,18.74-18.74,18.74h-27.26c-10.35,0-18.74-8.39-18.74-18.74v-38.75c0-7.13,5.78-12.91,12.91-12.91"/>
  <path class="cls-5" d="M377.33,196.23h-44.81c-2.76,0-5-2.24-5-5v-2.69c0-2.76,2.24-5,5-5h44.81c2.76,0,5,2.24,5,5v2.69c0,2.76-2.24,5-5,5"/>
  <path class="cls-2" d="M373.12,172.62c.68,0,1.22.55,1.22,1.22s-.55,1.22-1.22,1.22-1.22-.55-1.22-1.22.55-1.22,1.22-1.22"/>
  <path class="cls-2" d="M376.62,172.62c.68,0,1.22.55,1.22,1.22s-.55,1.22-1.22,1.22-1.22-.55-1.22-1.22.55-1.22,1.22-1.22"/>
  <path class="cls-2" d="M380.12,172.62c.68,0,1.22.55,1.22,1.22s-.55,1.22-1.22,1.22-1.22-.55-1.22-1.22.55-1.22,1.22-1.22"/>
  <path class="cls-2" d="M331.68,172.01c-.49.51-.98,1.01-1.47,1.52-.16.16-.19.48,0,.63.49.41.98.81,1.47,1.22.18.15.46.19.63,0,.15-.17.19-.48,0-.63-.49-.41-.98-.81-1.47-1.22v.63c.49-.51.98-1.01,1.47-1.52.16-.17.18-.47,0-.63-.18-.16-.46-.18-.63,0"/>
  <path class="cls-2" d="M333.48,189.75c0,.43-.27.83-.67.97-.42.15-.9.03-1.18-.33-.27-.33-.29-.81-.08-1.18.22-.36.65-.57,1.07-.49.5.09.85.52.86,1.02,0,.35.54.35.54,0,0-.66-.42-1.24-1.04-1.48-.61-.23-1.33-.03-1.74.47-.42.51-.49,1.24-.15,1.82.34.57,1.01.86,1.66.74.74-.13,1.26-.81,1.27-1.54,0-.35-.53-.35-.54,0"/>
  <path class="cls-2" d="M333.15,190.9c.16.18.33.36.49.55.02.03.05.05.07.08.05.05.12.08.19.08s.15-.03.19-.08c.1-.11.1-.27,0-.38-.16-.18-.33-.36-.49-.55-.02-.03-.05-.05-.07-.08-.04-.05-.12-.08-.19-.08s-.15.03-.19.08c-.1.11-.1.27,0,.38"/>
  <path class="cls-16" d="M333.35,207.41h-3.24c-1.35,0-2.45-1.1-2.45-2.45s1.1-2.45,2.45-2.45h3.24c1.35,0,2.45,1.1,2.45,2.45s-1.1,2.45-2.45,2.45"/>
  <path class="cls-5" d="M380.71,207.41h-3.24c-1.35,0-2.45-1.1-2.45-2.45s1.1-2.45,2.45-2.45h3.24c1.35,0,2.45,1.1,2.45,2.45s-1.1,2.45-2.45,2.45"/>
  <path class="cls-12" d="M354.79,207.41h-13.37c-1.35,0-2.45-1.1-2.45-2.45s1.1-2.45,2.45-2.45h13.37c1.35,0,2.45,1.1,2.45,2.45s-1.1,2.45-2.45,2.45"/>
  <path class="cls-3" d="M370.15,207.41h-8.36c-1.35,0-2.45-1.1-2.45-2.45s1.1-2.45,2.45-2.45h8.36c1.35,0,2.45,1.1,2.45,2.45s-1.1,2.45-2.45,2.45"/>
  <path class="cls-16" d="M344.62,257.9h-11.1c-1,0-1.81-.81-1.81-1.81s.81-1.81,1.81-1.81h11.1c1,0,1.81.81,1.81,1.81s-.81,1.81-1.81,1.81"/>
  <path class="cls-16" d="M380.42,281.38c0,1.36-1.1,2.46-2.46,2.46s-2.46-1.1-2.46-2.46,1.1-2.46,2.46-2.46,2.46,1.1,2.46,2.46"/>
  <path class="cls-16" d="M373.34,281.38c0,1.36-1.1,2.46-2.46,2.46s-2.46-1.1-2.46-2.46,1.1-2.46,2.46-2.46,2.46,1.1,2.46,2.46"/>
  <path class="cls-16" d="M365.74,281.38c0,1.36-1.1,2.46-2.46,2.46s-2.46-1.1-2.46-2.46,1.1-2.46,2.46-2.46,2.46,1.1,2.46,2.46"/>
  <path class="cls-2" d="M380.58,270.57h-19.4c-.64,0-1.16-.52-1.16-1.16s.52-1.15,1.16-1.15h19.4c.64,0,1.16.52,1.16,1.15s-.52,1.16-1.16,1.16"/>
  <path class="cls-2" d="M380.58,275.36h-19.4c-.64,0-1.16-.52-1.16-1.16s.52-1.15,1.16-1.15h19.4c.64,0,1.16.52,1.16,1.15s-.52,1.16-1.16,1.16"/>
  <path class="cls-4" d="M376.78,247.01h-42.14c-2.6,0-4.71-2.11-4.71-4.71v-23.13c0-2.6,2.11-4.71,4.71-4.71h42.14c2.6,0,4.71,2.11,4.71,4.71v23.13c0,2.6-2.11,4.71-4.71,4.71"/>
  <path class="cls-3" d="M356.51,224.38c0,1.9-1.54,3.44-3.44,3.44s-3.44-1.54-3.44-3.44,1.54-3.44,3.44-3.44,3.44,1.54,3.44,3.44"/>
  <path class="cls-3" d="M381.48,242.82v-11.55c-1.32-1.57-2.71-3.05-4.27-4.29-2.55-2.03-5.64-3.37-8.73-3.04-4,.43-7.42,3.6-9.76,7.32-1.15,1.83-2.34,4-4.28,4.38-1.49.29-2.96-.61-4.15-1.68-1.19-1.07-2.27-2.36-3.65-3.05-2.78-1.4-6-.09-8.7,1.48-2.81,1.64-5.49,3.57-8,5.76v4.68c0,2.31,1.64,4.19,3.66,4.19h44.22c2.02,0,3.66-1.88,3.66-4.19"/>
  <path class="cls-2" d="M376.78,247.01s.58.05,1.58-.32c.49-.18,1.08-.5,1.64-1.04.55-.53,1.06-1.3,1.29-2.28.12-.49.13-1.01.12-1.58,0-.56,0-1.15,0-1.77,0-1.23-.01-2.57-.02-4.01,0-2.88-.02-6.16-.03-9.77,0-1.81,0-3.71-.01-5.68-.02-.99.09-2.01-.28-2.94-.33-.94-1-1.77-1.88-2.31-.44-.27-.92-.48-1.43-.58-.51-.11-1.04-.11-1.6-.1-1.1,0-2.22,0-3.35,0-2.27,0-4.6,0-7,0-9.58,0-20.1,0-31.15.01-1.33,0-2.63.62-3.47,1.62-.42.5-.73,1.1-.89,1.73-.18.63-.16,1.28-.16,1.96,0,2.69,0,5.34,0,7.95,0,2.61,0,5.17,0,7.67,0,1.25,0,2.49,0,3.72,0,.61,0,1.22,0,1.83,0,.6-.03,1.22.04,1.78.15,1.15.76,2.2,1.63,2.91.87.73,1.99,1.06,3.1,1.02,2.27,0,4.47,0,6.6,0,4.26,0,8.22.02,11.85.02,7.23.03,13.09.05,17.15.06,2.01.02,3.58.03,4.66.03.52,0,.93.01,1.21.02.27,0,.41.02.41.02,0,0-.14.01-.41.02-.29,0-.69.01-1.21.02-1.08,0-2.65.02-4.66.04-4.06.01-9.92.03-17.15.06-3.62,0-7.59.01-11.85.02-2.13,0-4.33,0-6.6,0-1.15.04-2.38-.31-3.32-1.09-.94-.76-1.6-1.89-1.76-3.13-.08-.63-.04-1.22-.05-1.83,0-.61,0-1.22,0-1.83,0-1.23,0-2.47,0-3.72,0-2.51,0-5.07,0-7.67,0-2.61,0-5.26,0-7.95,0-.66-.02-1.38.17-2.06.18-.68.51-1.33.97-1.87.91-1.09,2.32-1.76,3.76-1.76,11.05,0,21.58.01,31.15.01,2.39,0,4.73,0,7,0,1.13,0,2.25,0,3.35,0,.54,0,1.11,0,1.66.12.55.11,1.07.34,1.53.63.93.58,1.65,1.47,2,2.47.18.5.29,1.02.29,1.54,0,.5,0,1.01,0,1.5,0,1.98,0,3.87-.01,5.68-.01,3.62-.02,6.89-.03,9.77,0,1.44-.01,2.78-.02,4.01,0,.62,0,1.21,0,1.77,0,.56-.02,1.11-.14,1.61-.24,1-.78,1.79-1.35,2.33-.58.54-1.18.85-1.69,1.03-.51.18-.92.22-1.19.24-.27,0-.41,0-.41,0"/>
  <path class="cls-4" d="M348.78,285.99h-12.78c-3.4,0-6.15-2.75-6.15-6.15v-10.48c0-3.4,2.75-6.15,6.15-6.15h12.78c3.4,0,6.15,2.75,6.15,6.15v10.48c0,3.4-2.75,6.15-6.15,6.15"/>
  <path class="cls-16" d="M345.71,269.79c0,1.36-1.1,2.46-2.46,2.46s-2.46-1.1-2.46-2.46,1.1-2.46,2.46-2.46,2.46,1.1,2.46,2.46"/>
  <path class="cls-16" d="M336.18,285.99h12.42c3.5,0,6.33-2.83,6.33-6.33v-7.65c-.87-.32-1.87-.48-2.83-.45-1.56.04-2.95.77-3.97,1.65-1.02.88-1.76,1.91-2.7,2.84-.62.61-1.43,1.21-2.46,1.28-2.42.16-3.43-2.51-5.76-3.03-1.1-.25-2.32.06-3.22.58-.91.52-1.56,1.24-2.2,1.95-.65.72-1.3,1.43-1.94,2.15v.69c0,3.5,2.83,6.33,6.33,6.33"/>
  <path class="cls-2" d="M348.84,285.99s.3-.02.86-.11c.55-.08,1.38-.29,2.29-.86.91-.55,1.87-1.53,2.43-2.93.61-1.4.35-3.19.39-5.11,0-1.93-.02-4.04-.02-6.31-.02-1.14.08-2.31-.38-3.41-.39-1.11-1.17-2.11-2.18-2.82-1.02-.71-2.28-1.09-3.59-1.06-1.33,0-2.7,0-4.08,0-2.77,0-5.65,0-8.59,0-1.43,0-2.82.54-3.87,1.45-1.06.9-1.75,2.18-1.96,3.51-.12.66-.08,1.34-.09,2.03,0,.68,0,1.36,0,2.02,0,1.33,0,2.64,0,3.92v3.72c.02,1.18.41,2.3,1.03,3.21.63.91,1.48,1.61,2.42,2.04.93.46,1.93.57,2.89.56,3.84.03,6.95.05,9.13.06,1.06.01,1.89.03,2.48.04.27,0,.48.01.65.02.15,0,.22.01.22.02s-.07.01-.22.02c-.17,0-.38.01-.65.02-.59,0-1.43.02-2.48.04-2.18.01-5.3.03-9.13.06-.96.02-2.03-.09-3.01-.56-.98-.44-1.88-1.17-2.55-2.13-.66-.96-1.07-2.14-1.1-3.38,0-1.21-.01-2.45-.02-3.73,0-1.28,0-2.58,0-3.92,0-.67,0-1.34,0-2.02,0-.67-.04-1.37.09-2.09.22-1.41.95-2.77,2.08-3.73,1.11-.97,2.6-1.54,4.12-1.54,2.94,0,5.81,0,8.59,0,1.39,0,2.75,0,4.08,0,1.36-.04,2.72.38,3.79,1.13,1.07.76,1.88,1.82,2.3,2.99.48,1.17.37,2.41.38,3.53,0,2.27-.02,4.38-.02,6.31,0,.96,0,1.88-.01,2.75,0,.88-.16,1.72-.45,2.44-.6,1.45-1.6,2.44-2.54,2.98-.94.56-1.79.75-2.35.81-.57.07-.87.03-.87.03"/>
  <path class="cls-2" d="M333.61,295.44s-.33,0-.98-.03c-.64-.08-1.61-.18-2.79-.66-1.17-.46-2.57-1.26-3.81-2.65-1.26-1.35-2.29-3.34-2.57-5.75-.09-1.21-.04-2.46-.06-3.79,0-1.33,0-2.72,0-4.18,0-2.91,0-6.07-.02-9.47,0-6.8-.02-14.53-.03-23.09-.01-17.11-.02-37.48-.04-60.1,0-2.83,0-5.69,0-8.59.02-1.45-.04-2.89.04-4.38.09-1.48.47-2.96,1.12-4.31,1.29-2.72,3.69-4.92,6.58-5.96,1.44-.53,3-.72,4.53-.71,1.52,0,3.06,0,4.59,0,6.15,0,12.42,0,18.77,0,3.18,0,6.38,0,9.6,0,1.61,0,3.23,0,4.85,0h2.44c.81,0,1.64,0,2.46.09,3.3.39,6.35,2.27,8.21,4.97.94,1.34,1.57,2.89,1.87,4.48.31,1.61.18,3.23.21,4.81,0,6.36,0,12.62,0,18.78,0,12.31,0,24.18-.01,35.49,0,11.31-.01,22.06-.02,32.12,0,5.03,0,9.89-.01,14.56,0,2.33,0,4.62,0,6.86,0,1.11.03,2.24-.19,3.33-.22,1.09-.61,2.13-1.14,3.07-.52.95-1.22,1.78-1.99,2.5-.77.72-1.65,1.31-2.59,1.74-.93.43-1.91.74-2.91.86-1,.15-1.98.11-2.94.11-3.85,0-7.49-.01-10.88-.01-6.79-.01-12.65-.02-17.43-.03-4.78-.02-8.49-.03-11.02-.03-1.25,0-2.21-.01-2.87-.02-.64,0-.98-.02-.98-.02,0,0,.33-.01.98-.02.65,0,1.61-.01,2.87-.02,2.52,0,6.24-.02,11.02-.04,4.79,0,10.64-.02,17.43-.03,3.4,0,7.03,0,10.88-.02.96,0,1.94.03,2.91-.11.97-.12,1.93-.42,2.84-.85.91-.42,1.77-.99,2.52-1.7.75-.7,1.43-1.51,1.94-2.44.51-.92.89-1.93,1.1-2.99.22-1.06.18-2.16.18-3.28,0-2.24,0-4.53,0-6.86,0-4.67,0-9.53-.01-14.56,0-10.06-.01-20.81-.02-32.12,0-11.31,0-23.19-.01-35.49,0-6.15,0-12.42,0-18.78-.03-1.59.1-3.2-.2-4.74-.29-1.55-.9-3.04-1.81-4.34-1.8-2.61-4.75-4.43-7.95-4.81-.79-.09-1.6-.1-2.42-.09h-7.28c-3.22,0-6.42,0-9.6,0-6.35,0-12.62,0-18.77,0-1.54,0-3.07,0-4.59,0-1.52-.02-3.01.17-4.41.68-2.8,1-5.13,3.14-6.38,5.77-.63,1.31-1,2.74-1.09,4.18-.07,1.44-.02,2.91-.04,4.36,0,2.9,0,5.76,0,8.59-.01,22.62-.03,42.99-.04,60.1-.01,8.55-.02,16.29-.03,23.09,0,3.4-.01,6.56-.02,9.47,0,1.46,0,2.85,0,4.18.01,1.33-.04,2.6.04,3.78.26,2.37,1.27,4.34,2.5,5.69,1.22,1.38,2.59,2.19,3.75,2.65,2.36.92,3.75.68,3.73.76"/>
  <path class="cls-2" d="M355.71,328.27c-.1,0-.19-7.35-.19-16.42s.08-16.42.19-16.42.19,7.35.19,16.42-.08,16.42-.19,16.42"/>
  <path class="cls-2" d="M358.41,160.84c0,1.93-1.56,3.49-3.49,3.49s-3.49-1.56-3.49-3.49,1.56-3.49,3.49-3.49,3.49,1.56,3.49,3.49"/>
  <path class="cls-2" d="M359.44,327.52c0,1.93-1.56,3.49-3.49,3.49s-3.49-1.56-3.49-3.49,1.56-3.49,3.49-3.49,3.49,1.56,3.49,3.49"/>
  <path class="cls-2" d="M315.1,146.51s.19-.03.54-.04c.39,0,.9-.02,1.54-.03,1.38-.02,3.31-.04,5.68-.06,4.83-.01,11.43-.03,18.72-.06,1.83,0,3.61,0,5.34,0,.86,0,1.71,0,2.54,0,.85-.01,1.69.18,2.43.53,1.49.7,2.54,2.02,2.94,3.41.22.69.24,1.42.23,2.06,0,.65,0,1.28-.01,1.88-.03,2.37-.05,4.29-.06,5.68-.02.64-.03,1.15-.04,1.54-.01.35-.03.54-.04.54s-.03-.19-.04-.54c0-.39-.02-.9-.04-1.54-.01-1.38-.03-3.31-.06-5.68,0-.6,0-1.23-.01-1.88.01-.66-.02-1.31-.23-1.97-.39-1.31-1.39-2.54-2.79-3.19-1.39-.72-3.1-.43-4.82-.48-1.72,0-3.51,0-5.34,0-7.29-.02-13.9-.04-18.72-.05-2.37-.03-4.29-.05-5.68-.06-.64-.01-1.15-.03-1.54-.04-.35-.01-.54-.02-.54-.04"/>
  <path class="cls-4" d="M462.29,279.96l1.92-5.79c-1.93-2.9-3.12-6.34-3.25-10.08-.39-10.74,7.99-19.77,18.74-20.16,10.74-.39,19.77,7.99,20.16,18.74.39,10.74-7.99,19.77-18.74,20.16-4.48.16-8.67-1.21-12.05-3.64h0s-6.79.77-6.79.77Z"/>
  <path class="cls-2" d="M462.29,279.96s.16-.02.45-.06c.3-.04.74-.09,1.3-.16,1.15-.14,2.83-.34,5.03-.61l-.04.1h0s-.02-.07,0-.09c.02-.02.05-.02.07,0,2.07,1.47,5.09,3,8.94,3.46.96.11,1.96.17,3,.13,1.03-.09,2.11-.14,3.18-.4,2.16-.44,4.39-1.27,6.46-2.59,2.08-1.31,4-3.09,5.53-5.28,1.53-2.18,2.67-4.78,3.19-7.58,1.09-5.6-.55-12.08-4.86-16.66-2.19-2.32-4.88-4.12-7.8-5.09-2.9-1-5.96-1.28-8.85-.92-2.89.35-5.59,1.41-7.87,2.86-2.29,1.46-4.18,3.34-5.58,5.4-1.41,2.05-2.34,4.27-2.86,6.44-.06.27-.12.54-.18.81-.06.27-.12.53-.14.8-.06.54-.12,1.06-.19,1.58,0,1.04-.07,2.05.04,3.02.34,3.88,1.77,6.93,3.14,9,.01.02.01.03,0,.05-.64,1.86-1.12,3.3-1.46,4.28-.17.48-.29.85-.38,1.11-.09.25-.14.38-.14.38,0,0,.03-.12.11-.37.08-.26.2-.62.35-1.1.32-.99.79-2.45,1.4-4.34v.05c-1.39-2.07-2.85-5.14-3.22-9.05-.11-.97-.05-1.99-.05-3.05.06-.52.12-1.06.18-1.6.02-.27.08-.54.14-.81.06-.27.12-.54.18-.82.52-2.19,1.45-4.44,2.87-6.52,1.42-2.08,3.32-3.99,5.64-5.48,2.31-1.48,5.04-2.55,7.97-2.91,2.92-.37,6.03-.09,8.97.92,2.96.98,5.68,2.81,7.91,5.16.29.27.53.59.78.89l.74.92.65.98c.22.32.43.65.6,1,.18.34.36.69.54,1.03.19.34.31.71.46,1.06.14.36.3.71.42,1.07.11.37.22.73.33,1.1.83,2.93.95,5.99.4,8.83-.53,2.85-1.69,5.47-3.24,7.68-1.56,2.21-3.51,4.01-5.61,5.33-2.1,1.32-4.36,2.16-6.54,2.6-1.09.25-2.18.3-3.22.39-1.05.04-2.06-.02-3.03-.14-3.89-.48-6.92-2.05-8.99-3.55l.08-.09h0s.02.07,0,.09c0,0-.02.01-.03.01-2.22.23-3.92.41-5.08.53-.56.06-.99.1-1.29.13-.29.03-.43.04-.43.04"/>
  <polygon class="cls-16" points="471.42 263.89 474.14 260.89 479.9 265.52 488.47 255.68 491.27 258.41 479.77 271.06 471.42 263.89"/>
  <g class="cls-11">
    <g class="cls-15">
      <path d="M158.25,169.61l.15,79.42c6.55-11.71,10.28-25.21,10.28-39.58s-3.79-28.07-10.43-39.84"/>
    </g>
  </g>
  <path class="cls-13" d="M0,209.51C0,254.37,36.36,290.73,81.21,290.73s81.22-36.36,81.22-81.22-36.36-81.21-81.22-81.21S0,164.66,0,209.51"/>
  <path class="cls-2" d="M0,209.51s0-.45.01-1.32c0-.44.02-.98.03-1.62,0-.65.02-1.39.1-2.24.06-.85.13-1.8.21-2.84.1-1.04.26-2.18.41-3.42.34-2.46.86-5.29,1.62-8.43.82-3.12,1.82-6.58,3.3-10.23,1.46-3.65,3.26-7.54,5.63-11.47,4.69-7.87,11.43-16.12,20.63-23.15,4.58-3.53,9.79-6.69,15.53-9.31,5.74-2.61,12.02-4.72,18.71-5.93,6.68-1.24,13.76-1.73,20.98-1.18,3.62.21,7.26.8,10.91,1.52,3.64.78,7.28,1.82,10.88,3.1,14.37,5.19,28.02,14.9,37.86,28.37,2.49,3.34,4.67,6.94,6.64,10.68.47.95,1,1.87,1.42,2.85.44.97.88,1.94,1.32,2.91.79,1.98,1.6,3.97,2.25,6.02,1.34,4.08,2.44,8.28,3.1,12.59.68,4.3,1.04,8.69,1.07,13.1-.03,4.42-.38,8.8-1.06,13.11-.66,4.31-1.77,8.52-3.1,12.6-.65,2.05-1.46,4.03-2.25,6.02-.44.97-.88,1.94-1.32,2.91-.42.98-.95,1.9-1.42,2.85-1.97,3.74-4.15,7.35-6.64,10.69-9.84,13.47-23.5,23.18-37.86,28.37-3.6,1.28-7.24,2.32-10.89,3.1-3.65.72-7.29,1.31-10.91,1.52-7.23.56-14.3.06-20.98-1.18-6.7-1.21-12.97-3.32-18.71-5.93-5.74-2.62-10.95-5.79-15.53-9.31-9.2-7.04-15.94-15.28-20.63-23.15-2.37-3.93-4.18-7.82-5.63-11.47-1.49-3.64-2.49-7.1-3.3-10.22-.76-3.14-1.29-5.96-1.62-8.43-.15-1.23-.31-2.37-.41-3.42-.08-1.05-.15-1.99-.21-2.84-.08-.85-.09-1.6-.1-2.24-.01-.64-.02-1.19-.03-1.62-.02-.87-.01-1.32-.01-1.32,0,0,.02.45.05,1.32.01.44.03.98.05,1.62.02.64.03,1.39.12,2.24.07.85.14,1.79.22,2.84.11,1.04.27,2.18.43,3.41.35,2.46.88,5.27,1.65,8.41.83,3.11,1.83,6.56,3.33,10.19,1.47,3.64,3.27,7.51,5.65,11.43,4.69,7.84,11.43,16.05,20.61,23.05,4.57,3.51,9.77,6.66,15.49,9.26,5.72,2.6,11.98,4.69,18.65,5.89,6.66,1.23,13.71,1.71,20.9,1.15,3.6-.21,7.23-.8,10.86-1.52,3.63-.78,7.25-1.82,10.84-3.09,14.3-5.18,27.89-14.85,37.68-28.27,2.48-3.32,4.65-6.91,6.61-10.64.47-.94.99-1.86,1.41-2.83.44-.96.87-1.93,1.31-2.9.78-1.97,1.59-3.95,2.23-5.99,1.33-4.06,2.43-8.25,3.08-12.54.67-4.29,1.03-8.65,1.06-13.05-.03-4.39-.38-8.76-1.06-13.04-.66-4.29-1.76-8.47-3.09-12.54-.64-2.04-1.45-4.01-2.24-5.99-.44-.97-.87-1.93-1.31-2.9-.42-.97-.95-1.89-1.41-2.83-1.96-3.73-4.13-7.31-6.61-10.64-9.79-13.41-23.38-23.08-37.68-28.26-3.59-1.27-7.21-2.31-10.84-3.09-3.64-.72-7.26-1.31-10.86-1.52-7.2-.56-14.25-.08-20.9,1.15-6.67,1.2-12.92,3.29-18.65,5.89-5.73,2.6-10.92,5.75-15.49,9.26-9.18,7-15.91,15.21-20.61,23.05-2.38,3.92-4.18,7.8-5.65,11.43-1.5,3.63-2.5,7.08-3.33,10.2-.77,3.13-1.31,5.95-1.65,8.41-.15,1.23-.32,2.37-.43,3.41-.08,1.04-.16,1.99-.22,2.84-.08.85-.1,1.59-.12,2.24-.02.64-.04,1.19-.05,1.62-.03.87-.05,1.32-.05,1.32"/>
  <path class="cls-2" d="M142.18,151.66c2.31,1.3,5.54.58,7.07-1.59,1.53-2.16,1.13-5.46-.87-7.19,2.16-.91,3.61-3.28,3.43-5.61-.18-2.34-1.97-4.46-4.25-5.02.81-2.17.41-4.74-1.03-6.55-1.44-1.81-3.86-2.78-6.15-2.48-1.5-3.01-5.26-4.7-8.5-3.8-1.91-1.26-4.63-1.11-6.39.34-1.76,1.45-2.42,4.1-1.54,6.21"/>
  <path class="cls-9" d="M128.73,123.87l1.09.46c10.99,4.67,16.56,17,12.79,28.34-3.51,10.54-7.52,22.14-9.91,27.58-4.95,11.26-17.02,8.21-17.02,8.21l-4.82,14.01-27.12-12.53,18.53-50.37c3.98-12.19,14.39-20.03,26.47-15.71"/>
  <path class="cls-8" d="M115.77,188.49s-7.42-2.64-12.99-10.65c0,0,.19,9.67,11.92,13.45l1.07-2.8Z"/>
  <path class="cls-2" d="M133.84,163.13c-.33.87-1.34,1.3-2.25.97-.91-.33-1.38-1.3-1.05-2.17.33-.87,1.34-1.3,2.25-.97.91.33,1.38,1.3,1.05,2.17"/>
  <path class="cls-2" d="M137.82,157.17c-.29.13-1.13-1.3-2.87-2.04-1.73-.76-3.39-.41-3.48-.7-.05-.13.31-.43,1.04-.6.72-.17,1.82-.17,2.9.3,1.08.47,1.82,1.25,2.17,1.88.36.64.38,1.1.24,1.15"/>
  <path class="cls-2" d="M118.4,156.06c-.33.87-1.34,1.3-2.25.97-.91-.33-1.38-1.3-1.05-2.17.33-.87,1.34-1.3,2.25-.97.91.33,1.38,1.3,1.05,2.17"/>
  <path class="cls-2" d="M120.58,150.23c-.29.13-1.13-1.3-2.87-2.04-1.73-.76-3.39-.41-3.48-.7-.05-.13.31-.43,1.04-.6.72-.17,1.82-.17,2.9.3,1.08.47,1.82,1.25,2.17,1.88.36.64.38,1.1.24,1.15"/>
  <path class="cls-2" d="M121.41,165.82c.03-.1,1.19.17,3.04.69.46.14.92.23,1.13-.04.24-.28.26-.83.26-1.44.04-1.25.08-2.57.12-3.94.22-5.59.58-10.11.81-10.1.23.01.23,4.55,0,10.14-.07,1.37-.13,2.69-.19,3.94-.05.58,0,1.27-.51,1.84-.26.28-.69.38-1.01.34-.32-.03-.57-.13-.8-.22-1.8-.65-2.9-1.11-2.87-1.21"/>
  <path class="cls-2" d="M124.93,144.18c-.42.34-1.71-.77-3.52-1.61-1.79-.88-3.49-1.19-3.46-1.72.02-.25.52-.51,1.33-.58.81-.07,1.92.08,3,.59,1.08.52,1.88,1.28,2.31,1.94.44.67.53,1.2.33,1.37"/>
  <path class="cls-2" d="M140.95,150.04c-.53.24-1.8-.78-3.51-1.53-1.7-.8-3.3-1.09-3.46-1.65-.06-.26.34-.56,1.13-.66.79-.11,1.97.04,3.14.57,1.17.54,2.05,1.33,2.48,1.99.44.67.47,1.16.22,1.28"/>
  <path class="cls-2" d="M143.73,147.01s.03-8.36-2.69-11.47c-3.29-3.76-7,.02-10.48-2.75-3.48-2.78-6.61-6.38-11.94-5.04-5.83,1.46-4.76,4.68-7.17,9.59-9.76,19.9-15.93,24.08-12.91,14.03.33-1.1-2.23-3.18-.78-7.8,1.89-6,4.64-13.08,7.66-16.62,2.55-2.98,5.52-4.53,10.16-5.66,7.32-1.78,14.99,1.38,19.96,4.1,4.96,2.73,12.43,12.94,8.18,21.62"/>
  <path class="cls-9" d="M99.4,151.37c.67-1.78-.25-3.8-2.06-4.37-2.2-.7-5.06-.5-6.77,3.93-3.04,7.85,5.46,9.28,5.56,9.06.07-.15,2.02-5.32,3.27-8.62"/>
  <path class="cls-8" d="M95.57,156.37s-.17.04-.45.06c-.26.02-.68-.06-1.03-.38-.71-.63-.9-2.21-.39-3.64.26-.72.67-1.34,1.14-1.81.46-.48.99-.74,1.43-.65.45.06.65.43.66.69.02.26-.09.4-.05.43.01.03.22-.07.28-.41.03-.17,0-.39-.12-.61-.13-.23-.38-.41-.68-.49-.62-.19-1.38.15-1.9.66-.55.5-1.03,1.19-1.32,2-.56,1.6-.33,3.39.68,4.16.5.36,1.02.37,1.33.28.32-.1.43-.26.41-.28"/>
  <path class="cls-2" d="M105.92,136.44c.71,1.11,1.48,2.27,2.64,2.91,1.16.63,2.84.53,3.56-.59.32-.5.45-1.18.99-1.45.63-.32,1.35.17,1.97.51,2.15,1.2,5.83-.17,7.34-2.12.21,1.1,1.36,1.9,2.46,1.71,1.11-.19,1.56-.38,2.57-.87,1.01-.49,2.26-.78,3.22-.2.54.32.93.89,1.53,1.09,1.06.34,2.06-.64,2.64-1.58.58-.94,1.2-2.07,2.3-2.25,1.01-.17,1.92.56,2.8,1.1s2.18.83,2.81.02c.33-.43.34-1.02.25-1.55-.4-2.41-2.67-4.37-5.11-4.41.33-2.88-1.22-5.89-3.75-7.29-2.53-1.41-5.9-1.13-8.17.67-1.01-2.18-3.12-3.81-5.48-4.24-2.36-.42-4.91.37-6.61,2.07-1.67-1.3-4.13-1.48-5.98-.45-1.85,1.03-2.98,3.22-2.75,5.32-1.73.2-3.51,1.08-4.22,2.67-.71,1.59.17,3.85,1.9,4.09-1.15.98-1.37,2.89-.45,4.1.91,1.21,2.81,1.53,4.07.69"/>
  <path class="cls-3" d="M137.48,131.27s-.02.05-.06.14c-.05.09-.12.23-.23.39-.22.33-.59.8-1.2,1.25-.6.45-1.44.91-2.49,1.1-1.04.21-2.33.16-3.55-.44l.2-.12c-.04.76-.44,1.53-1.06,2.07-.61.56-1.36.96-2.13,1.34-.39.17-.76.41-1.24.52-.47.1-.96.07-1.42-.07-.92-.26-1.79-.95-2.11-1.95l.32.04c-.85,1.45-2.38,2.62-4.17,2.97-.96.22-2.01.16-2.9-.25-.89-.39-1.61-1.01-2.27-1.61h.25c-.82.78-1.81,1.33-2.85,1.61-1.02.28-2.19.2-3.01-.41-1.66-1.16-2.23-3.2-1.87-4.73l.14.16c-1.12.11-2.11-.26-2.83-.74-.73-.48-1.2-1.09-1.5-1.62-.3-.53-.41-1-.46-1.31-.04-.32-.04-.48-.03-.48.05-.02,0,.7.61,1.73.31.5.78,1.07,1.49,1.52.7.45,1.65.77,2.69.65l.18-.02-.04.18c-.32,1.44.24,3.35,1.79,4.41.75.55,1.78.61,2.74.35.97-.26,1.91-.8,2.69-1.54l.12-.12.12.11c.65.6,1.35,1.18,2.17,1.54.82.37,1.76.43,2.68.22,1.69-.33,3.12-1.42,3.94-2.8l.2-.35.12.39c.27.86,1.04,1.49,1.87,1.72.41.12.85.15,1.25.07.39-.08.78-.31,1.17-.49.77-.37,1.5-.75,2.07-1.27.58-.5.94-1.18.99-1.86l.02-.21.19.1c1.15.58,2.38.65,3.39.47,1.02-.17,1.84-.59,2.44-1.01,1.2-.87,1.53-1.7,1.58-1.66"/>
  <path class="cls-2" d="M118.5,171.61c.08-.31-1.99-.72-3.12-2.78-1.13-2.06-.46-4.23-.75-4.3-.12-.05-.5.41-.71,1.34-.21.91-.18,2.3.51,3.57.69,1.26,1.8,1.96,2.64,2.2.85.25,1.41.12,1.43-.03"/>
  <path class="cls-16" d="M76.48,176.63l11.59,1.52c.96,8.38,14.42,19.57,26.1,14.15l19.39,16.82c-.52.5-11.57,24.6-23.23,46.74-3.16,6.01-6.84,11.49-9.38,16.56l-1.25,16.66c-19.76,4.54-41.85,1.34-57.3-7.76-7.09-4.27-13.7-9.21-19.26-15.31l21.4-72.42s-.52-12.52,11.51-15.78c6.36-1.72,10.31-1.59,13.47-1.58,1.21,0,5.09.2,6.97.39"/>
  <path class="cls-16" d="M119.45,202.77s14.55,1.12,17.86,12.88c3.32,11.77-.36,56.21-.36,56.21l20.82,8.92-3.3,15.49s-20.54,2.03-33.82-1.29c-13.27-3.32-5.43-69.89-5.43-69.89l4.22-22.33Z"/>
  <path class="cls-2" d="M130.65,223.32s-.09.19-.3.52c-.22.37-.51.86-.87,1.47-.78,1.31-1.88,3.15-3.22,5.42-2.75,4.6-6.51,10.9-10.67,17.85-4.19,6.95-7.97,13.23-10.74,17.82-1.37,2.25-2.49,4.08-3.29,5.38-.38.61-.68,1.09-.91,1.45-.21.33-.33.5-.34.49-.01,0,.08-.19.27-.53.21-.37.49-.87.85-1.49.77-1.32,1.85-3.17,3.19-5.44,2.74-4.6,6.49-10.91,10.64-17.88,4.18-6.97,7.98-13.26,10.77-17.8,1.39-2.27,2.53-4.1,3.33-5.36.4-.63.71-1.12.94-1.44.23-.32.35-.49.36-.48"/>
  <path class="cls-16" d="M41.07,188.11s-36.47,49.39-29.29,60.74c11.74,18.54,64.31,8.75,64.31,8.75l-1.18-24.63-29.33.33,16.38-29.94,10.01-26.99c-12.61-.78-22.31.12-30.92,11.74"/>
  <path class="cls-2" d="M55.15,215.54s-.08.27-.29.73c-.21.46-.51,1.12-.91,1.93-.79,1.62-1.92,3.83-3.24,6.24-1.31,2.41-2.55,4.57-3.47,6.12-.46.77-.85,1.39-1.12,1.81-.27.42-.44.65-.46.64-.02-.01.1-.26.33-.71.28-.51.62-1.14,1.02-1.87.91-1.66,2.08-3.8,3.37-6.16,1.28-2.37,2.43-4.52,3.33-6.19.4-.73.74-1.36,1.02-1.87.25-.44.39-.68.42-.66"/>
  <path class="cls-3" d="M53.56,213.93l100.2,102.25,24.64-22.34-102.31-102.24c-6.09-6.09-15.93-6.2-22.16-.25-6.39,6.1-6.56,16.26-.37,22.57"/>
  <path class="cls-13" d="M178.41,293.85l5.67,26.05c.53,2.42-1.72,4.53-4.1,3.84l-26.21-7.56,24.64-22.34Z"/>
  <path class="cls-16" d="M183.49,317.19l.71,3.31c.48,2.23-1.63,4.14-3.8,3.45l-2.98-.95,6.07-5.81Z"/>
  <path class="cls-2" d="M53.94,191.36h0c5.86-5.59,14.9-5.83,21.03-.77l-22.38,22.23s-.04-.04-.06-.07l-.08-.1c-5.01-6.34-4.48-15.58,1.49-21.29"/>
  <path class="cls-2" d="M53.99,191.31s-.23.26-.69.76c-.12.12-.25.26-.39.42-.13.16-.27.35-.42.55-.15.2-.32.42-.49.65-.18.23-.32.51-.49.79-.7,1.11-1.39,2.62-1.83,4.5-.44,1.87-.61,4.14-.18,6.61.44,2.46,1.53,5.12,3.46,7.48.98,1.16,2.15,2.27,3.3,3.46,1.16,1.18,2.37,2.42,3.63,3.69,5.01,5.1,10.71,10.91,17.02,17.33,12.61,12.85,27.61,28.14,44.28,45.12,8.33,8.5,17.07,17.41,26.14,26.66,1.13,1.16,2.27,2.32,3.41,3.48.57.58,1.14,1.16,1.72,1.75.58.56,1.23,1.03,1.94,1.41.71.39,1.47.64,2.27.85.79.23,1.59.46,2.39.69,1.59.46,3.19.92,4.8,1.38,3.21.93,6.45,1.86,9.7,2.8,1.63.47,3.26.94,4.9,1.41l1.23.35c.42.13.79.21,1.2.21.81,0,1.61-.34,2.17-.92.57-.57.92-1.37.9-2.18.01-.4-.1-.8-.19-1.23l-.27-1.25c-.36-1.67-.73-3.33-1.09-4.99-.72-3.31-1.44-6.6-2.15-9.87-.36-1.63-.71-3.26-1.06-4.88-.18-.81-.35-1.62-.53-2.43-.16-.8-.45-1.55-.88-2.23-.42-.68-1.02-1.22-1.6-1.81-.58-.58-1.16-1.16-1.74-1.74-1.16-1.15-2.3-2.3-3.45-3.45-9.16-9.16-17.99-17.99-26.4-26.4-16.82-16.83-31.97-31.99-44.69-44.72-6.36-6.37-12.11-12.13-17.16-17.19-2.53-2.52-4.86-4.9-7.05-7.03-.28-.26-.56-.51-.84-.76-.3-.22-.6-.44-.89-.66-.29-.23-.59-.41-.9-.59-.31-.18-.6-.38-.91-.53-.63-.29-1.23-.61-1.86-.81-.31-.11-.61-.24-.92-.32-.31-.08-.62-.16-.92-.24-2.44-.6-4.72-.49-6.61-.13-.47.11-.93.19-1.35.32-.42.14-.83.27-1.22.4-.75.33-1.44.59-2.01.93-.29.16-.56.31-.81.46-.24.17-.46.32-.67.46-.21.14-.4.27-.57.39-.16.13-.31.26-.44.37-.52.44-.79.65-.79.65,0,0,.26-.24.77-.68.13-.11.27-.24.43-.38.17-.12.36-.26.57-.4.21-.15.43-.3.67-.47.25-.15.52-.3.81-.47.56-.35,1.26-.62,2.01-.96.39-.13.8-.26,1.22-.41.43-.13.89-.21,1.36-.33,1.9-.37,4.2-.49,6.66.1.31.08.62.16.93.23.31.08.62.21.93.32.64.2,1.25.52,1.88.81.32.15.61.35.92.53.31.18.63.36.91.59.3.22.6.44.9.66.28.25.56.51.85.76,2.2,2.13,4.54,4.5,7.08,7.02,5.06,5.05,10.83,10.79,17.2,17.15,12.74,12.71,27.91,27.85,44.75,44.66,8.42,8.41,17.26,17.23,26.42,26.38,1.15,1.14,2.3,2.29,3.45,3.45.58.58,1.16,1.16,1.74,1.73.57.58,1.21,1.14,1.65,1.87.46.71.77,1.52.93,2.35.18.81.35,1.62.53,2.43.35,1.62.71,3.25,1.06,4.88.71,3.27,1.43,6.56,2.15,9.87.36,1.66.72,3.32,1.09,4.99l.27,1.25c.08.41.21.84.2,1.3.02.91-.37,1.81-1.01,2.45-.64.65-1.53,1.02-2.44,1.03-.45,0-.91-.1-1.31-.23l-1.23-.35c-1.64-.47-3.27-.94-4.9-1.41-3.26-.94-6.49-1.87-9.7-2.8-1.61-.46-3.21-.92-4.8-1.38-.8-.23-1.59-.46-2.39-.69-.79-.21-1.61-.48-2.35-.88-.74-.4-1.43-.89-2.03-1.47-.58-.59-1.15-1.17-1.72-1.75-1.14-1.17-2.28-2.33-3.41-3.48-9.06-9.25-17.8-18.17-26.12-26.67-16.64-17-31.63-32.32-44.22-45.18-6.29-6.43-11.98-12.25-16.98-17.37-1.25-1.28-2.45-2.51-3.62-3.7-1.15-1.2-2.31-2.3-3.3-3.48-1.94-2.4-3.03-5.09-3.46-7.57-.42-2.5-.24-4.78.21-6.66.46-1.89,1.16-3.4,1.88-4.52.18-.28.33-.56.5-.79.18-.23.35-.45.5-.65.16-.2.29-.39.43-.55.15-.15.28-.29.4-.41.47-.49.72-.73.72-.73"/>
  <path class="cls-9" d="M149.67,274.57c.33-.88.98-1.61,1.66-2.27.68-.66,1.94-1.9,2.52-2.65l4.42-4.11c2.96-.86,4.26,2.09,3.45,3.6.86-.3,1.19-.69,2.07-.49.88.2,1.71.79,2.05,1.63.34.84.11,1.92-.64,2.43,1.39-.14,2.82.69,3.41,1.96.35.76.37,1.66.12,2.45-.13.4-.33.77-.59,1.1-.09.12-.19.27-.32.35-.06.04-.13.05-.21.07-.34.06-.67.05-1.01.13-.13.03-.25.06-.37.1-.56.18-1.09.45-1.58.77-.23.15-.44.36-.68.47-.17.08-.35.07-.53.12-1.11.29-2.05,1.14-2.91,1.85-.98.8-2.05,1.6-3.31,1.73-1.26.13-2.7-.7-2.76-1.96-.53.61-1.55.61-2.19.11-.63-.49-.89-1.37-.8-2.17.1-.8.51-1.53,1.01-2.16-.72.62-1.92.37-2.51-.37-.59-.74-.61-1.81-.28-2.7"/>
  <path class="cls-9" d="M170.71,280.38c.5.6.88,1.37.74,2.14-.17.91-1.18,1.84-1.96,2.34-.82-.73-1.19-1.15-2.01-1.89-.17-.16-.24-.34-.46-.41-.58-.18-1.48.61-2.06.8-1.01.33-2.17-.39-2.49-1.4-.31-1.01.14-2.16.95-2.85.81-.68,1.92-.94,2.98-.89,1.65.08,3.26.88,4.32,2.16"/>
  <path class="cls-8" d="M165.43,272.51c-.13-.15-2.7,1.81-5.73,4.39-3.04,2.58-5.39,4.79-5.26,4.95.13.15,2.7-1.81,5.73-4.39,3.04-2.58,5.39-4.79,5.26-4.95"/>
  <path class="cls-8" d="M161.87,268.98c-.11-.16-2.61,1.42-5.29,3.87-2.69,2.44-4.49,4.78-4.34,4.91.16.14,2.19-1.96,4.84-4.37,2.64-2.42,4.92-4.24,4.8-4.41"/>
  <path class="cls-8" d="M158.4,265.53c-.13-.16-2.12,1.25-4.25,3.36-2.12,2.1-3.72,3.9-3.59,4.04.15.16,1.99-1.43,4.1-3.51,2.11-2.09,3.86-3.73,3.73-3.88"/>
  <path class="cls-8" d="M169.36,279.45c.07-.05-.15-.53-.88-.92-.7-.39-1.9-.54-3.05-.17-1.15.38-2.02.88-2.66,1.42-.66.61-.47,1.29-.37,1.23.1,0,.13-.47.69-.83.57-.32,1.55-.79,2.55-1.11,1.02-.33,1.99-.27,2.64-.06.66.21,1,.52,1.08.44"/>
  <path class="cls-9" d="M74.97,234.09l9.78-.11s4.51-5.49,7.53-7.5c3.01-2.01,3.51-6.02,5.52-5.77,2.01.25,3.51,3.75,2.01,5.76-1.5,2.01-2.51,3.27-2.51,3.27,0,0,9.81-5.28,13.36-5.15,3.07.12,2.19,1.88,2.19,1.88,0,0,2.88-.64,5.39,1.12,2.51,1.76.63,3.65.63,3.65,0,0,3.5-.07,4.25,2.43.75,2.51.01,3.08.01,3.08,0,0,4.01.75,2.51,4.26-1.51,3.51-14.29,7.53-21.82,8.28-7.53.75-27.72,3.83-27.72,3.83l-1.13-19.05Z"/>
  <path class="cls-16" d="M20.8,256.08c18.24,3.35,36.53,4.5,55.3,1.19l-1.13-23.18-29.38-1.12-11.81,2.59"/>
  <path class="cls-2" d="M33.78,235.56s.07-.03.2-.06c.15-.04.34-.08.59-.15.54-.13,1.32-.31,2.31-.54,2.04-.46,4.98-1.12,8.68-1.96h.01s.01,0,.01,0c7.31.26,17.53.63,29.38,1.05h.16s0,.17,0,.17c.29,5.78.59,12.09.92,18.63.08,1.56.15,3.1.22,4.54v.16s-.15.03-.15.03c-15.4,2.71-29.46,2.13-39.39,1.06-4.98-.53-8.97-1.15-11.71-1.63-1.37-.23-2.43-.44-3.15-.57-.34-.07-.61-.12-.81-.16-.18-.04-.28-.06-.27-.07,0,0,.1,0,.28.03.2.03.47.07.82.13.74.12,1.8.29,3.16.51,2.75.43,6.74,1.01,11.71,1.51,9.92,1.01,23.95,1.54,39.3-1.17l-.15.19c-.07-1.44-.15-2.98-.22-4.54-.32-6.55-.62-12.85-.9-18.64l.17.17c-11.85-.48-22.07-.89-29.38-1.18h.03c-3.71.79-6.66,1.42-8.7,1.85-1,.21-1.78.37-2.32.48-.25.05-.45.09-.6.12-.14.02-.2.03-.21.03"/>
</svg>