<?xml version="1.0" encoding="UTF-8"?>
<svg xmlns="http://www.w3.org/2000/svg" xmlns:xlink="http://www.w3.org/1999/xlink" viewBox="0 0 500 500">
  <defs>
    <style>
      .cls-1 {
        fill: #c9c9cd;
      }

      .cls-1, .cls-2, .cls-3, .cls-4, .cls-5, .cls-6, .cls-7, .cls-8, .cls-9, .cls-10, .cls-11, .cls-12, .cls-13, .cls-14, .cls-15, .cls-16, .cls-17, .cls-18, .cls-19, .cls-20, .cls-21, .cls-22, .cls-23, .cls-24, .cls-25, .cls-26, .cls-27, .cls-28, .cls-29, .cls-30, .cls-31, .cls-32, .cls-33, .cls-34, .cls-35, .cls-36, .cls-37, .cls-38, .cls-39, .cls-40, .cls-41 {
        fill-rule: evenodd;
      }

      .cls-42 {
        fill: #fab57d;
      }

      .cls-43, .cls-15 {
        fill: #54565c;
      }

      .cls-44 {
        fill: #c86c37;
      }

      .cls-45 {
        fill: #cee1f4;
      }

      .cls-2, .cls-46 {
        fill: #fdf387;
      }

      .cls-3, .cls-47 {
        fill: #84b0d9;
      }

      .cls-4 {
        fill: #f9a867;
      }

      .cls-5, .cls-48 {
        fill: #ed5844;
      }

      .cls-6 {
        fill: #d0d2d3;
      }

      .cls-7 {
        fill: #fcc28b;
      }

      .cls-49, .cls-12 {
        fill: #fff;
      }

      .cls-8 {
        fill: #d4eef7;
      }

      .cls-9 {
        fill: #dfe2e3;
      }

      .cls-10 {
        fill: #414142;
      }

      .cls-11 {
        fill: #d04779;
      }

      .cls-50 {
        fill: #2589b7;
      }

      .cls-51 {
        fill: none;
      }

      .cls-13 {
        fill: #e0dddd;
      }

      .cls-52 {
        fill: #fffbfd;
      }

      .cls-53 {
        fill: #00aeb2;
      }

      .cls-14 {
        fill: #eac3a3;
      }

      .cls-54 {
        isolation: isolate;
      }

      .cls-16 {
        fill: #0d1526;
      }

      .cls-17 {
        fill: #6d4f3f;
      }

      .cls-18 {
        fill: #faa531;
      }

      .cls-55 {
        fill: #faa864;
      }

      .cls-19 {
        fill: #f9a75f;
      }

      .cls-56 {
        fill: #f2977c;
      }

      .cls-20 {
        fill: #a6c8e2;
      }

      .cls-21 {
        fill: #cfd0d1;
      }

      .cls-22 {
        fill: #6d6e70;
      }

      .cls-57 {
        mix-blend-mode: multiply;
      }

      .cls-23 {
        fill: #48484b;
      }

      .cls-24 {
        fill: #1267b0;
      }

      .cls-25 {
        fill: #2b3e6d;
      }

      .cls-26 {
        fill: #efcca8;
      }

      .cls-58 {
        fill: #fcd5b6;
      }

      .cls-27 {
        fill: #bb8e43;
      }

      .cls-28 {
        fill: #ebebec;
      }

      .cls-29 {
        fill: #3c6a94;
      }

      .cls-30 {
        fill: #487838;
      }

      .cls-59 {
        fill: #84aa5c;
      }

      .cls-31 {
        fill: #81c341;
      }

      .cls-60 {
        fill: #48bdcc;
      }

      .cls-33 {
        fill: #d5d8d8;
      }

      .cls-34 {
        fill: #9ece65;
      }

      .cls-35 {
        fill: #3375a6;
      }

      .cls-36 {
        fill: #f37d4a;
      }

      .cls-37 {
        fill: #f68c36;
      }

      .cls-38 {
        fill: #231f1f;
      }

      .cls-39 {
        fill: #a14e30;
      }

      .cls-61 {
        clip-path: url(#clippath);
      }

      .cls-40 {
        fill: #bbbdbf;
      }

      .cls-62 {
        fill: #7f8e8b;
      }

      .cls-41 {
        fill: #a0ce61;
      }
    </style>
    <clipPath id="clippath">
      <rect class="cls-51" x="267.42" y="170.21" width="29.85" height="8.57"/>
    </clipPath>
  </defs>
  <g class="cls-54">
    <g id="Layer_1" data-name="Layer 1">
      <g>
        <path class="cls-10" d="M220.62,187.92c-.98,7.19-7.48,12.37-14.76,11.66-7.46-.72-12.93-7.36-12.21-14.83.63-6.48,5.71-11.45,11.93-12.18l.2,4.01c-4.26.62-7.71,4.08-8.15,8.56-.51,5.27,3.34,9.95,8.61,10.46,5.08.49,9.62-3.08,10.39-8.07l3.98.39Z"/>
        <path class="cls-10" d="M140.59,170.66c4.53,5.66,3.81,13.94-1.72,18.74-5.67,4.91-14.24,4.3-19.15-1.37-4.26-4.92-4.36-12.03-.61-17.03l3.04,2.62c-2.49,3.52-2.36,8.4.59,11.8,3.47,4,9.52,4.43,13.52.97,3.86-3.35,4.4-9.1,1.31-13.09l3.02-2.62Z"/>
        <path class="cls-10" d="M79.41,277.19c7.25.29,13.03,6.25,13.03,13.57s-6.08,13.58-13.58,13.58c-6.51,0-11.95-4.58-13.27-10.7l3.97-.58c1.03,4.18,4.8,7.28,9.3,7.28,5.29,0,9.58-4.29,9.58-9.58s-4-9.28-9.04-9.56v-4Z"/>
        <path class="cls-6" d="M184.16,295.76c2.19-.02,3.98,1.74,3.99,3.93.02,2.19-1.74,3.98-3.93,3.99l-54.02.6c-2.19.02-3.98-1.74-3.99-3.93l-.6-103.88c0-2.19,1.76-3.97,3.95-3.98,2.19,0,3.97,1.76,3.98,3.95l.57,99.87,50.05-.55Z"/>
        <path class="cls-6" d="M182.7,326.48c2.2,0,3.98,1.78,3.98,3.98s-1.78,3.98-3.98,3.98h-53.12c-.98,0-1.87-.35-2.56-.93l-37.69-27.6c-1.77-1.3-2.15-3.78-.86-5.55,1.3-1.77,3.78-2.15,5.55-.85l36.84,26.98h51.84Z"/>
        <path class="cls-6" d="M183.25,274.57c2.19-.03,3.98,1.73,4.01,3.92.03,2.19-1.73,3.98-3.92,4.01l-21.19.27c-2.19.03-3.99-1.73-4.01-3.92v-.05h-.02v-53.4c0-1.36.68-2.56,1.72-3.28l33.73-28.4c1.67-1.41,4.17-1.19,5.58.48,1.41,1.67,1.19,4.17-.48,5.58l-32.59,27.45v47.56l17.16-.22Z"/>
        <path class="cls-22" d="M163.47,232.03c3.47,0,6.3-2.83,6.3-6.3s-2.83-6.3-6.3-6.3-6.31,2.83-6.31,6.3,2.83,6.3,6.31,6.3"/>
        <path class="cls-40" d="M163.47,228.74c1.66,0,3.02-1.36,3.02-3.02s-1.36-3.02-3.02-3.02-3.02,1.36-3.02,3.02,1.36,3.02,3.02,3.02"/>
        <path class="cls-22" d="M162.26,284.35c3.47,0,6.3-2.83,6.3-6.31s-2.83-6.3-6.3-6.3-6.31,2.83-6.31,6.3,2.83,6.31,6.31,6.31"/>
        <path class="cls-40" d="M162.26,281.07c1.66,0,3.02-1.36,3.02-3.02s-1.36-3.02-3.02-3.02-3.02,1.36-3.02,3.02,1.36,3.02,3.02,3.02"/>
        <path class="cls-22" d="M197.51,202.16c3.47,0,6.3-2.83,6.3-6.3s-2.83-6.3-6.3-6.3-6.31,2.83-6.31,6.3,2.83,6.3,6.31,6.3"/>
        <path class="cls-40" d="M197.51,198.88c1.66,0,3.02-1.36,3.02-3.02s-1.36-3.02-3.02-3.02-3.02,1.36-3.02,3.02,1.36,3.02,3.02,3.02"/>
        <polygon class="cls-10" points="197.51 194.59 198.06 194.91 198.6 195.23 198.6 195.86 198.6 196.49 198.06 196.81 197.51 197.12 196.96 196.81 196.41 196.49 196.41 195.86 196.41 195.23 196.96 194.91 197.51 194.59"/>
        <polygon class="cls-10" points="163.47 224.46 164.02 224.77 164.56 225.09 164.56 225.72 164.56 226.35 164.02 226.67 163.47 226.98 162.92 226.67 162.37 226.35 162.37 225.72 162.37 225.09 162.92 224.77 163.47 224.46"/>
        <polygon class="cls-10" points="162.26 276.78 162.8 277.1 163.35 277.41 163.35 278.05 163.35 278.68 162.8 278.99 162.26 279.31 161.71 278.99 161.16 278.68 161.16 278.05 161.16 277.41 161.71 277.1 162.26 276.78"/>
        <path class="cls-22" d="M129.56,198.8c3.47,0,6.3-2.83,6.3-6.3s-2.83-6.3-6.3-6.3-6.31,2.83-6.31,6.3,2.83,6.3,6.31,6.3"/>
        <path class="cls-40" d="M129.56,195.52c1.66,0,3.02-1.36,3.02-3.02s-1.36-3.02-3.02-3.02-3.02,1.36-3.02,3.02,1.36,3.02,3.02,3.02"/>
        <polygon class="cls-10" points="129.56 191.23 130.11 191.55 130.65 191.86 130.65 192.49 130.65 193.13 130.11 193.44 129.56 193.76 129.01 193.44 128.46 193.13 128.46 192.49 128.46 191.86 129.01 191.55 129.56 191.23"/>
        <path class="cls-22" d="M130.75,306.2c3.47,0,6.3-2.83,6.3-6.3s-2.83-6.3-6.3-6.3-6.31,2.83-6.31,6.3,2.83,6.3,6.31,6.3"/>
        <path class="cls-40" d="M130.75,302.91c1.66,0,3.02-1.36,3.02-3.02s-1.36-3.02-3.02-3.02-3.02,1.36-3.02,3.02,1.36,3.02,3.02,3.02"/>
        <polygon class="cls-10" points="130.75 298.63 131.3 298.94 131.85 299.26 131.85 299.89 131.85 300.52 131.3 300.84 130.75 301.15 130.2 300.84 129.66 300.52 129.66 299.89 129.66 299.26 130.2 298.94 130.75 298.63"/>
        <path class="cls-22" d="M129.77,336.44c3.47,0,6.3-2.83,6.3-6.3s-2.83-6.3-6.3-6.3-6.31,2.83-6.31,6.3,2.83,6.3,6.31,6.3"/>
        <path class="cls-40" d="M129.77,333.16c1.66,0,3.02-1.36,3.02-3.02s-1.36-3.02-3.02-3.02-3.02,1.36-3.02,3.02,1.36,3.02,3.02,3.02"/>
        <polygon class="cls-10" points="129.77 328.87 130.31 329.19 130.86 329.51 130.86 330.14 130.86 330.77 130.31 331.09 129.77 331.4 129.22 331.09 128.67 330.77 128.67 330.14 128.67 329.51 129.22 329.19 129.77 328.87"/>
        <path class="cls-22" d="M88.47,306.66c3.47,0,6.3-2.83,6.3-6.3s-2.83-6.3-6.3-6.3-6.31,2.83-6.31,6.3,2.83,6.3,6.31,6.3"/>
        <path class="cls-40" d="M88.47,303.38c1.66,0,3.02-1.36,3.02-3.02s-1.36-3.02-3.02-3.02-3.02,1.36-3.02,3.02,1.36,3.02,3.02,3.02"/>
        <polygon class="cls-10" points="88.47 299.1 89.01 299.41 89.56 299.73 89.56 300.36 89.56 300.99 89.01 301.31 88.47 301.62 87.92 301.31 87.37 300.99 87.37 300.36 87.37 299.73 87.92 299.41 88.47 299.1"/>
        <path class="cls-40" d="M127.23,199.35h0c.39,0,.71.32.71.71v5.78c0,.39-.32.71-.71.71s-.71-.32-.71-.71v-5.78c0-.39.32-.71.71-.71"/>
        <path class="cls-40" d="M129.53,199.35h0c.39,0,.71.32.71.71v5.78c0,.39-.32.71-.71.71s-.71-.32-.71-.71v-5.78c0-.39.32-.71.71-.71"/>
        <path class="cls-40" d="M131.82,199.35h0c.39,0,.71.32.71.71v5.78c0,.39-.32.71-.71.71s-.71-.32-.71-.71v-5.78c0-.39.32-.71.71-.71"/>
        <path class="cls-40" d="M190.92,198.22h0c.25.3.21.75-.09,1l-4.44,3.71c-.3.25-.75.21-1-.09h0c-.25-.3-.21-.75.09-1l4.44-3.71c.3-.25.75-.21,1,.09"/>
        <path class="cls-40" d="M192.39,199.98h0c.25.3.21.75-.09,1l-4.44,3.71c-.3.25-.75.21-1-.09-.25-.3-.21-.75.09-1l4.44-3.71c.3-.25.75-.21,1,.09"/>
        <path class="cls-40" d="M193.86,201.75h0c.25.3.21.75-.09,1l-4.44,3.71c-.3.25-.75.21-1-.09-.25-.3-.21-.75.09-1l4.44-3.71c.3-.25.75-.21,1,.09"/>
        <path class="cls-40" d="M93.01,306.8h0c.23-.32.67-.39.99-.16l4.69,3.38c.32.23.39.67.16.99-.23.32-.67.39-.99.16l-4.69-3.38c-.32-.23-.39-.67-.16-.99"/>
        <path class="cls-40" d="M94.35,304.94h0c.23-.32.67-.39.99-.16l4.69,3.38c.32.23.39.67.16.99-.23.31-.67.39-.99.16l-4.69-3.38c-.32-.23-.39-.67-.16-.99"/>
        <path class="cls-40" d="M95.69,303.08h0c.23-.32.67-.39.99-.16l4.69,3.38c.32.23.39.67.16.99s-.67.39-.99.16l-4.69-3.38c-.32-.23-.39-.67-.16-.99"/>
        <path class="cls-10" d="M285.79,185.62c.98,7.19,7.48,12.37,14.76,11.66,7.47-.72,12.93-7.36,12.21-14.83-.63-6.48-5.71-11.45-11.93-12.18l-.2,4.01c4.26.62,7.71,4.08,8.14,8.56.51,5.27-3.34,9.95-8.61,10.46-5.08.49-9.63-3.08-10.39-8.07l-3.98.39Z"/>
        <path class="cls-10" d="M365.82,168.36c-4.53,5.66-3.81,13.94,1.72,18.74,5.67,4.91,14.24,4.3,19.15-1.37,4.26-4.92,4.36-12.03.61-17.03l-3.04,2.62c2.49,3.52,2.36,8.4-.59,11.8-3.47,4-9.52,4.43-13.52.96-3.86-3.35-4.4-9.1-1.31-13.09l-3.02-2.62Z"/>
        <path class="cls-10" d="M427,274.89c-7.25.29-13.03,6.25-13.03,13.57s6.08,13.58,13.58,13.58c6.51,0,11.95-4.58,13.27-10.7l-3.97-.58c-1.03,4.18-4.8,7.28-9.3,7.28-5.29,0-9.58-4.29-9.58-9.58s4-9.28,9.04-9.57v-4Z"/>
        <path class="cls-6" d="M322.25,293.46c-2.19-.02-3.98,1.74-4,3.93-.02,2.19,1.74,3.98,3.93,3.99l54.02.6c2.19.02,3.98-1.74,3.99-3.93l.6-103.88c0-2.19-1.76-3.97-3.95-3.98-2.19,0-3.97,1.76-3.98,3.95l-.57,99.87-50.05-.55Z"/>
        <path class="cls-6" d="M323.71,324.18c-2.2,0-3.98,1.78-3.98,3.98s1.78,3.98,3.98,3.98h53.12c.97,0,1.87-.35,2.56-.93l37.69-27.6c1.77-1.3,2.15-3.78.86-5.55s-3.78-2.15-5.55-.85l-36.84,26.98h-51.84Z"/>
        <path class="cls-6" d="M323.16,272.27c-2.19-.02-3.99,1.73-4.01,3.92-.02,2.19,1.73,3.99,3.92,4.01l21.19.27c2.19.03,3.98-1.73,4.01-3.92v-.05h.02v-53.4c0-1.36-.68-2.56-1.72-3.28l-33.73-28.41c-1.67-1.41-4.17-1.19-5.58.48-1.41,1.67-1.19,4.17.48,5.58l32.59,27.45v47.56l-17.16-.22Z"/>
        <path class="cls-22" d="M342.94,229.73c3.47,0,6.3-2.83,6.3-6.3s-2.83-6.3-6.3-6.3-6.31,2.83-6.31,6.3,2.83,6.3,6.31,6.3"/>
        <path class="cls-40" d="M342.94,226.44c1.66,0,3.02-1.36,3.02-3.02s-1.36-3.02-3.02-3.02-3.02,1.36-3.02,3.02,1.36,3.02,3.02,3.02"/>
        <path class="cls-22" d="M344.15,282.05c3.47,0,6.3-2.83,6.3-6.3s-2.83-6.3-6.3-6.3-6.31,2.83-6.31,6.3,2.83,6.3,6.31,6.3"/>
        <path class="cls-40" d="M344.15,278.77c1.66,0,3.02-1.36,3.02-3.02s-1.36-3.02-3.02-3.02-3.02,1.36-3.02,3.02,1.36,3.02,3.02,3.02"/>
        <path class="cls-22" d="M308.9,199.86c3.47,0,6.3-2.83,6.3-6.3s-2.83-6.3-6.3-6.3-6.31,2.83-6.31,6.3,2.83,6.3,6.31,6.3"/>
        <path class="cls-40" d="M308.9,196.58c1.66,0,3.02-1.36,3.02-3.02s-1.36-3.02-3.02-3.02-3.02,1.36-3.02,3.02,1.36,3.02,3.02,3.02"/>
        <polygon class="cls-10" points="308.9 192.3 308.35 192.61 307.8 192.93 307.8 193.56 307.8 194.19 308.35 194.51 308.9 194.82 309.44 194.51 309.99 194.19 309.99 193.56 309.99 192.93 309.44 192.61 308.9 192.3"/>
        <polygon class="cls-10" points="342.94 222.16 342.39 222.47 341.84 222.79 341.84 223.42 341.84 224.05 342.39 224.37 342.94 224.69 343.49 224.37 344.03 224.05 344.03 223.42 344.03 222.79 343.49 222.47 342.94 222.16"/>
        <polygon class="cls-10" points="344.15 274.48 343.6 274.8 343.06 275.12 343.06 275.75 343.06 276.38 343.6 276.7 344.15 277.01 344.7 276.7 345.25 276.38 345.25 275.75 345.25 275.12 344.7 274.8 344.15 274.48"/>
        <path class="cls-22" d="M376.85,196.5c3.47,0,6.3-2.83,6.3-6.3s-2.83-6.3-6.3-6.3-6.31,2.83-6.31,6.3,2.83,6.3,6.31,6.3"/>
        <path class="cls-40" d="M376.85,193.22c1.66,0,3.02-1.36,3.02-3.02s-1.36-3.02-3.02-3.02-3.02,1.36-3.02,3.02,1.36,3.02,3.02,3.02"/>
        <polygon class="cls-10" points="376.85 188.93 376.3 189.25 375.75 189.56 375.75 190.19 375.75 190.83 376.3 191.14 376.85 191.46 377.4 191.14 377.94 190.83 377.94 190.19 377.94 189.56 377.4 189.25 376.85 188.93"/>
        <path class="cls-22" d="M375.66,303.9c3.47,0,6.3-2.83,6.3-6.3s-2.83-6.3-6.3-6.3-6.31,2.83-6.31,6.3,2.83,6.3,6.31,6.3"/>
        <path class="cls-40" d="M375.66,300.61c1.66,0,3.02-1.36,3.02-3.02s-1.36-3.02-3.02-3.02-3.02,1.36-3.02,3.02,1.36,3.02,3.02,3.02"/>
        <polygon class="cls-10" points="375.66 296.33 375.11 296.64 374.56 296.96 374.56 297.59 374.56 298.23 375.11 298.54 375.66 298.86 376.2 298.54 376.75 298.23 376.75 297.59 376.75 296.96 376.2 296.64 375.66 296.33"/>
        <path class="cls-22" d="M376.64,334.14c3.47,0,6.3-2.83,6.3-6.31s-2.83-6.3-6.3-6.3-6.31,2.83-6.31,6.3,2.83,6.31,6.31,6.31"/>
        <path class="cls-40" d="M376.64,330.86c1.66,0,3.02-1.36,3.02-3.02s-1.36-3.02-3.02-3.02-3.02,1.36-3.02,3.02,1.36,3.02,3.02,3.02"/>
        <polygon class="cls-10" points="376.64 326.57 376.09 326.89 375.55 327.21 375.55 327.84 375.55 328.47 376.09 328.79 376.64 329.1 377.19 328.79 377.74 328.47 377.74 327.84 377.74 327.21 377.19 326.89 376.64 326.57"/>
        <path class="cls-22" d="M417.94,304.37c3.47,0,6.3-2.83,6.3-6.3s-2.83-6.3-6.3-6.3-6.31,2.83-6.31,6.3,2.83,6.3,6.31,6.3"/>
        <path class="cls-40" d="M417.94,301.08c1.66,0,3.02-1.36,3.02-3.02s-1.36-3.02-3.02-3.02-3.02,1.36-3.02,3.02,1.36,3.02,3.02,3.02"/>
        <polygon class="cls-10" points="417.94 296.8 417.39 297.11 416.84 297.43 416.84 298.06 416.84 298.69 417.39 299.01 417.94 299.32 418.49 299.01 419.03 298.69 419.03 298.06 419.03 297.43 418.49 297.11 417.94 296.8"/>
        <path class="cls-40" d="M379.17,197.05h0c-.39,0-.71.32-.71.71v5.78c0,.39.32.71.71.71s.71-.32.71-.71v-5.78c0-.39-.32-.71-.71-.71"/>
        <path class="cls-40" d="M376.88,197.05h0c-.39,0-.71.32-.71.71v5.78c0,.39.32.71.71.71h0c.39,0,.71-.32.71-.71v-5.78c0-.39-.32-.71-.71-.71"/>
        <path class="cls-40" d="M374.58,197.05h0c-.39,0-.71.32-.71.71v5.78c0,.39.32.71.71.71s.71-.32.71-.71v-5.78c0-.39-.32-.71-.71-.71"/>
        <path class="cls-40" d="M315.49,195.92h0c-.25.3-.21.75.09,1l4.44,3.71c.3.25.75.21,1-.09h0c.25-.3.21-.75-.09-1l-4.44-3.71c-.3-.25-.75-.21-1,.09"/>
        <path class="cls-40" d="M314.01,197.69h0c-.25.3-.21.75.09,1l4.44,3.71c.3.25.75.21,1-.09.25-.3.21-.75-.09-1l-4.44-3.71c-.3-.25-.75-.21-1,.09"/>
        <path class="cls-40" d="M312.54,199.45h0c-.25.3-.21.75.09,1l4.44,3.71c.3.25.75.21,1-.09.25-.3.21-.75-.09-1l-4.44-3.71c-.3-.25-.75-.21-1,.09"/>
        <path class="cls-40" d="M413.4,304.5h0c-.23-.32-.67-.39-.99-.16l-4.69,3.38c-.32.23-.39.67-.16.99.23.31.67.39.99.16l4.69-3.38c.32-.23.39-.67.16-.99"/>
        <path class="cls-40" d="M412.06,302.64h0c-.23-.32-.67-.39-.99-.16l-4.69,3.38c-.32.23-.39.67-.16.99h0c.23.32.67.39.99.16l4.69-3.38c.32-.23.39-.67.16-.99"/>
        <path class="cls-40" d="M410.71,300.78h0c-.23-.32-.67-.39-.99-.16l-4.69,3.38c-.32.23-.39.67-.16.99.23.32.67.39.99.16l4.69-3.38c.32-.23.39-.67.16-.99"/>
        <path class="cls-23" d="M324.11,258.95h-141.85c-2.03,0-3.68,1.65-3.68,3.68v102.32h149.21v-102.32c0-2.03-1.65-3.68-3.68-3.68"/>
        <path class="cls-15" d="M179.7,364.95v-102.32c0-1.41,1.15-2.57,2.56-2.57h141.85c1.41,0,2.57,1.15,2.57,2.57v102.32h-146.98Z"/>
        <path class="cls-12" d="M167.48,364.95v3.86c0,2.03,1.65,3.68,3.68,3.68h164.05c2.03,0,3.68-1.65,3.68-3.68v-3.86h-171.41Z"/>
        <rect class="cls-59" x="185.59" y="265.25" width="135.22" height="93.01"/>
        <path class="cls-21" d="M167.5,369.05c.12,1.92,1.7,3.45,3.66,3.45h164.05c1.95,0,3.54-1.53,3.66-3.45h-171.37Z"/>
        <rect class="cls-43" x="237.77" y="365.91" width="30.83" height="1.37"/>
        <path class="cls-30" d="M218.69,298.3l2.24-2.51c1.01-1.13,2.76-1.23,3.9-.21l7.34,6.57c1.13,1.01,1.23,2.76.22,3.9l-2.24,2.5c-1.01,1.13-2.76,1.23-3.89.22l-7.34-6.57c-1.13-1.01-1.23-2.76-.22-3.9"/>
        <polygon class="cls-26" points="259.4 329.42 243.05 317.39 250.1 308.15 265.52 327.29 259.4 329.42"/>
        <path class="cls-26" d="M257.35,325.25l-6.42-8.89c-2.58-3.27-3.63-8.7-.36-11.29l8.93-10.55c3.27-2.58,8.07-2.02,10.65,1.25l14.03,17.77c2.58,3.28-6.35,8.85-9.62,11.44l-12.14,5.3c-3.27,2.58-2.49-1.76-5.07-5.03"/>
        <path class="cls-31" d="M276.69,321.53c-3.69,3.49-9.56,3.33-13.06-.37l-20.87-22.07c-3.49-3.69-3.33-9.56.37-13.06,3.69-3.49,9.56-3.33,13.05.36l20.87,22.07c3.49,3.69,3.33,9.57-.36,13.06"/>
        <path class="cls-14" d="M273,295.63l-8.97,10.37c-1.17,1.35-3.23,1.5-4.58.33l-.12-.11c-1.35-1.17-1.5-3.23-.33-4.58l8.96-10.36c1.17-1.35,3.23-1.5,4.58-.33l.12.1c1.35,1.17,1.5,3.23.33,4.58"/>
        <path class="cls-14" d="M278.05,300.49l-9.52,11.06c-1.2,1.39-3.31,1.55-4.7.35-1.39-1.2-1.55-3.31-.35-4.7l9.51-11.06c1.2-1.39,3.31-1.54,4.7-.35,1.39,1.19,1.55,3.31.35,4.7"/>
        <path class="cls-14" d="M282.11,306.55l-8.84,9.84c-1.18,1.31-3.21,1.42-4.53.24l-.18-.17c-1.31-1.18-1.42-3.22-.24-4.53l8.84-9.84c1.18-1.31,3.22-1.42,4.53-.24l.19.17c1.31,1.18,1.42,3.21.24,4.53"/>
        <path class="cls-14" d="M285.27,314.31l-8.19,6.85c-1.26,1.05-3.15.88-4.2-.37l-.45-.53c-1.05-1.26-.89-3.15.37-4.21l8.18-6.85c1.26-1.05,3.15-.89,4.2.37l.45.53c1.05,1.26.89,3.15-.37,4.2"/>
        <path class="cls-9" d="M277.07,245.8c4.18,3.96,10.78,3.78,14.73-.39,3.96-4.17,3.79-10.77-.39-14.73-4.18-3.96-10.77-3.79-14.73.39-3.95,4.17-3.79,10.77.39,14.73"/>
        <path class="cls-9" d="M307.11,263.51s-20.62.83-28.81,9.47l-11.7,12.33-15.32,4.66-15.59-17.38,1.93-15.11,11.53-12.15c10.99-12.13,7.51-29.67,7.51-29.67l50.46,47.85Z"/>
        <path class="cls-31" d="M219.7,276.38c-5.66,5.97-5.22,15.56.97,21.43l6.73,6.38c6.19,5.88,15.79,5.8,21.45-.17l17.92-18.9-29.15-27.65-17.92,18.9Z"/>
        <path class="cls-26" d="M245.12,326.91l-2.44-4.85c-1.09-2.15,5.37-17.9,7.52-18.99l11.28-5.32c2.14-1.09,5.49-.53,5.88,1.92,1.15,2.27-8.46,7.03-11.09,8.69,7.51,14.49-10.06,20.7-11.15,18.56"/>
        <polygon class="cls-9" points="257.23 340.66 236.94 320.98 243.67 313.6 263.48 333.71 257.23 340.66"/>
        <polygon class="cls-38" points="240.79 315.14 263.72 339.62 246.47 358.27 200.7 358.27 240.79 315.14"/>
        <path class="cls-31" d="M313.16,257.84c1.79,1.7,1.86,4.52.16,6.31-1.7,1.79-4.51,1.87-6.31.17l-50.75-48.13c-1.79-1.69-1.87-4.52-.18-6.31,1.7-1.79,4.53-1.87,6.32-.17l50.75,48.13Z"/>
        <polygon class="cls-32" points="240.79 315.14 200.7 358.27 224.55 358.27 252.54 327.68 240.79 315.14"/>
        <path class="cls-34" d="M277.56,230.24l-21.47-20.36c-1.7,1.79-1.61,4.62.18,6.31l.55.52,18,17.07,14.37,13.62,17.03,16.15.8.76c1.79,1.7,4.61,1.62,6.31-.17l-20.74-19.67-15.02-14.24Z"/>
        <path class="cls-41" d="M219.66,279.35l14.41-14.9c.79-.82,2.1-.84,2.91-.05.81.79.84,2.1.05,2.91l-14.41,14.9c-.79.82-2.1.84-2.91.05-.82-.79-.84-2.1-.05-2.91"/>
        <path class="cls-28" d="M244.52,260.1l24.84-25.53-9.07-8.97s1.43,7.83-4.2,15.04c-5.63,7.2-14.93,16.36-14.93,16.36l3.36,3.1Z"/>
        <path class="cls-12" d="M239.83,277.48c1.72,0,3.12,1.39,3.12,3.12s-1.4,3.12-3.12,3.12-3.12-1.4-3.12-3.12,1.39-3.12,3.12-3.12M244.48,286.38h0c.41-.33.79-.71,1.12-1.12l2.32.7c.22-.33.42-.67.59-1.02l-1.76-1.65c.19-.49.33-1,.41-1.53l2.35-.55c.01-.2.02-.39.02-.59s0-.4-.02-.59l-2.35-.55c-.08-.53-.22-1.05-.41-1.54l1.76-1.65c-.18-.36-.37-.7-.59-1.03l-2.32.7c-.33-.41-.71-.79-1.12-1.12l.7-2.32c-.33-.22-.67-.41-1.02-.59l-1.65,1.76c-.49-.19-1-.33-1.53-.41l-.55-2.35c-.2-.01-.39-.02-.59-.02s-.4,0-.59.02l-.55,2.35c-.53.08-1.05.22-1.54.41l-1.66-1.76c-.35.18-.69.38-1.02.59l.7,2.32c-.41.33-.79.71-1.12,1.12l-2.32-.7c-.22.33-.41.67-.59,1.03l1.76,1.65c-.19.49-.33,1-.41,1.54l-2.35.55c-.01.19-.02.39-.02.59s0,.4.02.59l2.35.55c.08.53.22,1.05.41,1.53l-1.76,1.65c.18.35.38.7.59,1.02l2.32-.7c.33.41.71.79,1.12,1.12l-.7,2.32c.33.22.67.42,1.02.59l1.66-1.76c.49.19,1,.33,1.54.41l.55,2.35c.2.01.39.02.59.02s.4,0,.59-.02l.55-2.35c.53-.08,1.05-.22,1.53-.41l1.65,1.76c.35-.18.7-.38,1.02-.59l-.7-2.32Z"/>
        <path class="cls-12" d="M238.59,293.11c.81,0,1.46.65,1.46,1.46s-.65,1.46-1.46,1.46-1.46-.65-1.46-1.46.65-1.46,1.46-1.46M240.76,297.27h0c.19-.16.37-.33.52-.52l1.08.33c.1-.15.19-.31.28-.48l-.82-.77c.09-.23.15-.47.19-.72l1.1-.26c0-.09,0-.18,0-.28s0-.19,0-.28l-1.1-.26c-.04-.25-.1-.49-.19-.72l.82-.77c-.08-.17-.18-.32-.28-.48l-1.08.33c-.15-.19-.33-.37-.52-.52l.33-1.08c-.15-.1-.31-.2-.48-.28l-.77.82c-.23-.09-.47-.15-.72-.19l-.26-1.1c-.09,0-.18,0-.28,0s-.18,0-.28,0l-.26,1.1c-.25.04-.49.1-.72.19l-.77-.82c-.16.08-.32.18-.48.28l.33,1.08c-.19.16-.37.33-.52.52l-1.08-.33c-.1.15-.19.31-.28.48l.82.77c-.09.23-.15.47-.19.72l-1.1.26c0,.09,0,.18,0,.28s0,.18,0,.28l1.1.26c.04.25.1.49.19.72l-.82.77c.08.17.18.32.28.48l1.08-.33c.15.19.33.37.52.52l-.33,1.08c.15.1.31.19.48.28l.77-.82c.23.09.47.15.72.19l.26,1.1c.09,0,.18,0,.28,0s.18,0,.28,0l.26-1.1c.25-.04.49-.1.72-.19l.77.82c.16-.08.32-.17.48-.28l-.33-1.08Z"/>
        <polygon class="cls-27" points="224.26 178.25 207.37 166 224.32 153.82 241.21 166.07 224.26 178.25"/>
        <rect class="cls-49" x="209.26" y="158.69" width="30.04" height="24.59" transform="translate(52.8 394.89) rotate(-89.87)"/>
        <rect class="cls-62" x="223.61" y="154.99" width="1.42" height="17.06" transform="translate(60.29 387.47) rotate(-89.87)"/>
        <rect class="cls-62" x="223.6" y="157.63" width="1.42" height="17.06" transform="translate(57.65 390.1) rotate(-89.87)"/>
        <rect class="cls-62" x="223.59" y="160.26" width="1.42" height="17.05" transform="translate(55.03 392.72) rotate(-89.88)"/>
        <rect class="cls-62" x="223.57" y="162.92" width="1.42" height="17.05" transform="translate(52.35 395.35) rotate(-89.88)"/>
        <rect class="cls-62" x="223.56" y="165.57" width="1.42" height="17.06" transform="translate(49.7 397.99) rotate(-89.88)"/>
        <rect class="cls-58" x="223.58" y="168.19" width="1.42" height="17.06" transform="translate(47.05 400.6) rotate(-89.87)"/>
        <polygon class="cls-18" points="224.26 178.25 207.37 166 207.33 185.97 241.17 186.05 241.21 166.07 224.26 178.25"/>
        <polygon class="cls-7" points="221.18 176.02 221.18 176.01 207.33 185.97 241.17 186.04 227.36 176.03 221.18 176.02"/>
        <rect class="cls-45" x="46.95" y="257.67" width="28.09" height="33.68" transform="translate(-9.51 2.29) rotate(-1.99)"/>
        <polygon class="cls-12" points="48.62 256.3 47.81 289.83 68.76 290.33 75.95 282.12 76.56 256.97 48.62 256.3"/>
        <rect class="cls-55" x="48.93" y="280.98" width="6.49" height="2.5" transform="translate(-231.24 327.5) rotate(-88.6)"/>
        <rect class="cls-48" x="50.35" y="279.77" width="9.04" height="2.5" transform="translate(-227.4 329.01) rotate(-88.6)"/>
        <rect class="cls-55" x="53.76" y="280.6" width="7.5" height="2.5" transform="translate(-225.68 332.35) rotate(-88.58)"/>
        <rect class="cls-48" x="56" y="280.24" width="8.35" height="2.5" transform="translate(-222.72 334.67) rotate(-88.58)"/>
        <rect class="cls-55" x="57.57" y="279.19" width="10.59" height="2.5" transform="translate(-219.03 336.44) rotate(-88.6)"/>
        <polygon class="cls-35" points="50.43 286.01 50.44 285.84 50.7 274.85 50.88 274.85 50.61 285.84 63.98 286.16 63.97 286.34 50.43 286.01"/>
        <rect class="cls-47" x="62.36" y="249.37" width=".33" height="22.6" transform="translate(-199.58 316.89) rotate(-88.62)"/>
        <rect class="cls-47" x="62.34" y="249.89" width=".33" height="22.6" transform="translate(-200.12 317.37) rotate(-88.62)"/>
        <rect class="cls-47" x="62.33" y="250.41" width=".33" height="22.6" transform="translate(-200.65 317.86) rotate(-88.61)"/>
        <rect class="cls-47" x="62.32" y="250.93" width=".33" height="22.6" transform="translate(-201.18 318.36) rotate(-88.62)"/>
        <polygon class="cls-3" points="51.18 262.31 73.78 262.85 73.77 263.19 51.17 262.64 51.18 262.31"/>
        <polygon class="cls-3" points="51.17 262.83 73.76 263.37 73.75 263.71 51.16 263.16 51.17 262.83"/>
        <rect class="cls-47" x="62.28" y="252.48" width=".33" height="22.6" transform="translate(-202.77 319.84) rotate(-88.62)"/>
        <rect class="cls-47" x="62.27" y="253" width=".33" height="22.6" transform="translate(-203.3 320.32) rotate(-88.61)"/>
        <rect class="cls-47" x="62.26" y="253.52" width=".33" height="22.6" transform="translate(-203.83 320.84) rotate(-88.62)"/>
        <rect class="cls-47" x="62.24" y="254.04" width=".33" height="22.6" transform="translate(-204.36 321.33) rotate(-88.62)"/>
        <rect class="cls-47" x="62.23" y="254.56" width=".33" height="22.6" transform="translate(-204.89 321.82) rotate(-88.62)"/>
        <rect class="cls-47" x="68.89" y="272.68" width=".33" height="5.44" transform="translate(-207.92 337.8) rotate(-88.62)"/>
        <rect class="cls-47" x="68.88" y="273.2" width=".33" height="5.44" transform="translate(-208.47 338.24) rotate(-88.61)"/>
        <rect class="cls-47" x="68.87" y="273.72" width=".33" height="5.44" transform="translate(-209 338.74) rotate(-88.61)"/>
        <rect class="cls-47" x="68.85" y="274.24" width=".33" height="5.44" transform="translate(-209.53 339.23) rotate(-88.61)"/>
        <rect class="cls-47" x="68.84" y="274.76" width=".33" height="5.44" transform="translate(-210.05 339.78) rotate(-88.62)"/>
        <rect class="cls-47" x="68.83" y="275.27" width=".33" height="5.44" transform="translate(-210.59 340.22) rotate(-88.61)"/>
        <rect class="cls-47" x="68.82" y="275.79" width=".33" height="5.44" transform="translate(-211.11 340.76) rotate(-88.62)"/>
        <rect class="cls-47" x="68.81" y="276.31" width=".33" height="5.44" transform="translate(-211.64 341.26) rotate(-88.62)"/>
        <rect class="cls-47" x="68.79" y="276.83" width=".33" height="5.44" transform="translate(-212.18 341.7) rotate(-88.61)"/>
        <polygon class="cls-3" points="66.23 279.83 71.67 279.97 71.66 280.3 66.22 280.17 66.23 279.83"/>
        <rect class="cls-47" x="68.77" y="277.87" width=".33" height="5.44" transform="translate(-213.24 342.68) rotate(-88.61)"/>
        <rect class="cls-47" x="68.75" y="278.39" width=".33" height="5.44" transform="translate(-213.76 343.23) rotate(-88.62)"/>
        <rect class="cls-47" x="68.74" y="278.9" width=".33" height="5.44" transform="translate(-214.29 343.73) rotate(-88.62)"/>
        <rect class="cls-47" x="68.73" y="279.42" width=".33" height="5.44" transform="translate(-214.82 344.22) rotate(-88.62)"/>
        <polygon class="cls-3" points="66.17 282.43 71.61 282.56 71.6 282.89 66.16 282.76 66.17 282.43"/>
        <rect class="cls-47" x="68.7" y="280.46" width=".33" height="5.44" transform="translate(-215.88 345.2) rotate(-88.62)"/>
        <rect class="cls-47" x="68.69" y="280.98" width=".33" height="5.44" transform="translate(-216.42 345.7) rotate(-88.62)"/>
        <rect class="cls-47" x="68.68" y="281.5" width=".33" height="5.44" transform="translate(-216.96 346.14) rotate(-88.61)"/>
        <rect class="cls-47" x="68.67" y="282.02" width=".33" height="5.44" transform="translate(-217.49 346.63) rotate(-88.61)"/>
        <rect class="cls-47" x="68.65" y="282.53" width=".33" height="5.44" transform="translate(-218.02 347.13) rotate(-88.61)"/>
        <rect class="cls-47" x="68.64" y="283.05" width=".33" height="5.44" transform="translate(-218.55 347.62) rotate(-88.61)"/>
        <rect class="cls-47" x="68.63" y="283.57" width=".33" height="5.44" transform="translate(-219.07 348.17) rotate(-88.62)"/>
        <path class="cls-20" d="M68.96,281.95c.6,4.21.55,6.3-.2,8.38l7.19-8.21c-1.77.8-3.51.75-6.98-.17"/>
        <rect class="cls-47" x="61.77" y="252.78" width="1.52" height="12.38" transform="translate(-197.87 315.22) rotate(-88.62)"/>
        <path class="cls-5" d="M70.07,267.22c-.17-.03-.34-.04-.51-.04h0s-.07,0-.11,0c-.04,0-.07,0-.11,0-.19,0-.39.03-.58.07-.01,0-.03,0-.04.01-.18.04-.35.1-.52.17-.03.01-.06.02-.09.03-.17.08-.33.17-.48.27-.03.02-.06.04-.09.07-.15.11-.29.23-.43.36-.01.01-.03.03-.04.05-.07.07-.13.14-.19.22h.01c-.33.43-.58.92-.68,1.47-.32,1.8.87,3.53,2.68,3.85,1.8.33,3.53-.87,3.85-2.68.33-1.8-.87-3.53-2.68-3.85"/>
        <path class="cls-37" d="M70.07,267.22c-.17-.03-.34-.05-.51-.05l-.08,3.32,2.36,2.33c.45-.46.78-1.06.9-1.74.07-.4.07-.8,0-1.19-.24-1.32-1.28-2.42-2.67-2.67"/>
        <rect class="cls-47" x="57.85" y="260.53" width=".33" height="13.91" transform="translate(-210.79 319.02) rotate(-88.62)"/>
        <rect class="cls-47" x="57.83" y="261.05" width=".33" height="13.91" transform="translate(-211.32 319.53) rotate(-88.62)"/>
        <rect class="cls-47" x="57.82" y="261.56" width=".33" height="13.91" transform="translate(-211.85 320) rotate(-88.62)"/>
        <rect class="cls-47" x="57.81" y="262.08" width=".33" height="13.91" transform="translate(-212.39 320.48) rotate(-88.61)"/>
        <rect class="cls-47" x="57.8" y="262.6" width=".33" height="13.91" transform="translate(-212.92 320.99) rotate(-88.62)"/>
        <rect class="cls-47" x="57.78" y="263.12" width=".33" height="13.91" transform="translate(-213.45 321.47) rotate(-88.61)"/>
        <rect class="cls-47" x="57.77" y="263.64" width=".33" height="13.91" transform="translate(-213.98 321.96) rotate(-88.61)"/>
        <rect class="cls-47" x="57.76" y="264.16" width=".33" height="13.91" transform="translate(-214.51 322.45) rotate(-88.61)"/>
        <rect class="cls-47" x="57.74" y="264.68" width=".33" height="13.91" transform="translate(-215.04 322.98) rotate(-88.62)"/>
        <rect class="cls-47" x="57.73" y="265.19" width=".33" height="13.91" transform="translate(-215.57 323.44) rotate(-88.61)"/>
        <rect class="cls-47" x="57.72" y="265.71" width=".33" height="13.91" transform="translate(-216.1 323.95) rotate(-88.62)"/>
        <path class="cls-24" d="M137.43,143.14c-7.67-4.29-17.36-1.55-21.65,6.11-4.29,7.67-1.56,17.36,6.11,21.65,7.67,4.29,17.36,1.55,21.65-6.11,4.29-7.66,1.56-17.36-6.11-21.65"/>
        <path class="cls-12" d="M136.39,144.99c-6.64-3.72-15.04-1.35-18.76,5.29-3.72,6.64-1.35,15.04,5.29,18.76,6.64,3.72,15.04,1.35,18.76-5.29,3.72-6.64,1.35-15.04-5.29-18.76"/>
        <path class="cls-11" d="M139.28,162.4c-3.01,5.38-9.78,7.35-15.09,4.38-5.31-2.97-7.17-9.77-4.16-15.15,3.01-5.38,9.78-7.35,15.09-4.38s7.17,9.76,4.16,15.15M121.62,152.52h0c-2.52,4.51-.97,10.2,3.46,12.68,4.43,2.48,10.09.83,12.61-3.68,2.52-4.51.97-10.2-3.46-12.68-4.43-2.48-10.09-.83-12.61,3.68"/>
        <path class="cls-11" d="M135.21,160.12c-1.78,3.18-5.71,4.36-8.77,2.65-3.06-1.71-4.1-5.69-2.33-8.87,1.78-3.18,5.71-4.37,8.77-2.65,3.06,1.71,4.1,5.69,2.33,8.87M125.69,154.8h0c-1.29,2.3-.56,5.17,1.63,6.39,2.19,1.22,5.01.35,6.3-1.96,1.29-2.3.56-5.17-1.63-6.39-2.19-1.22-5.01-.35-6.3,1.95"/>
        <path class="cls-11" d="M130.94,154.84c1.16.65,1.57,2.11.92,3.27-.65,1.16-2.11,1.57-3.27.92-1.16-.65-1.57-2.11-.92-3.27.65-1.16,2.11-1.57,3.27-.92"/>
        <polygon class="cls-19" points="148.32 152.39 153.21 153.64 157.17 152.48 154.45 150.65 148.32 152.39"/>
        <polygon class="cls-19" points="148.23 151.05 151.48 147.49 155.47 146.43 154.1 149.4 148.23 151.05"/>
        <path class="cls-16" d="M129.57,156.28c-.17.05-.33.16-.42.33-.19.33-.07.76.27.94.18.1.39.11.57.04h0s24.46-6.95,24.46-6.95l-.35-1.25-24.53,6.88Z"/>
        <path class="cls-29" d="M154.64,149.95c-.08-.36-.3-.61-.49-.57-.19.04-.29.37-.21.72.08.36.3.61.49.57.19-.04.28-.37.21-.73"/>
        <path class="cls-24" d="M380.89,166.11l-8.9.06c-.37,0-.66.25-.66.56v.37c0,.3.3.55.67.55l8.9-.05c.37,0,.67-.25.67-.56v-.37c0-.31-.31-.55-.68-.55"/>
        <path class="cls-24" d="M380.9,167.78l-8.9.06c-.37,0-.67.25-.66.56v.37c0,.3.3.55.67.55l8.91-.06c.37,0,.66-.25.66-.56v-.37c0-.3-.31-.55-.67-.55"/>
        <path class="cls-24" d="M380.91,169.45l-8.91.06c-.37,0-.67.25-.66.56v.37c0,.3.3.55.67.55l8.91-.06c.37,0,.67-.25.67-.55v-.37c0-.31-.3-.55-.67-.55"/>
        <path class="cls-24" d="M373.13,171.16l6.68-.04c0,1.11-1.77,1.86-3.33,1.86-1.56,0-3.35-.72-3.35-1.82"/>
        <path class="cls-4" d="M369.65,142.32s2.69-2.7,6.35-3.01c0,0,6.17-.69,9.45,5.8,0,0,.66,4.56.05,6.8,0,0-2.68,5.41-2.64,5.94l-1.65,4.91s-.21,2.27-1.15,2.28l-6.8.04s-1.24.03-1.26-1.82c0,0-1.39-4.84-2.23-6.13,0,0-2.67-5.62-2.68-7.37,0,0-1.12-3.28,2.59-7.44"/>
        <path class="cls-25" d="M373.38,164.54c.44-.87.75-1.82,1.05-2.76.45-1.4.84-2.82,1.11-4.26.24-1.25.44-2.6.22-3.86-.07-.42-.21-.85-.5-1.17-.3-.32-.88-.6-1.3-.39-.49.25-.52.96-.44,1.42.12.64.47,1.29,1.01,1.67.52.36,1.31.39,1.91.35.67-.05,1.37-.29,1.8-.83.44-.56.55-1.29.3-1.95-.17-.46-.65-.88-1.16-.73-.51.15-.7.77-.71,1.24-.01.82.47,1.76,1.07,2.31.44.4,1.04.54,1.6.33.65-.25,1.02-.98,1.23-1.6.15-.44.48-1.62-.05-1.95-.42-.25-.92.56-1.07.82-.43.77-.52,1.73-.62,2.6-.11,1-.12,2.01-.07,3.02.09,2.06.41,4.1.48,6.16,0,.18.31-.2.31-.34-.08-2.24-.43-4.45-.5-6.7-.04-1.18.04-2.36.25-3.52.09-.51.2-1.06.56-1.45.27-.3.53-.13.59.22.16.93-.34,2.34-1.42,2.39-.87.04-1.5-.82-1.79-1.53-.17-.42-.36-.92-.24-1.38.07-.26.49-.19.67-.12.68.29.92,1.44.45,1.98-.52.57-1.5.63-2.21.57-.72-.06-1.31-.33-1.71-.95-.2-.31-.33-.67-.4-1.03-.03-.15-.04-.32-.02-.47.02-.17.22-.15.35-.14.49.04.9.41,1.1.83.51,1.06.3,2.46.13,3.57-.22,1.49-.6,2.96-1.04,4.4-.32,1.05-.66,2.18-1.15,3.15-.14.26.04.37.18.09"/>
        <path class="cls-12" d="M376.26,138.95c-5.48.04-9.9,4.51-9.87,9.99.01,1.81.53,3.48,1.35,4.95,2.47,4.38,3.13,6.84,3.54,9.23.35,2,.81,2.46,2.33,2.45.64,0,1.69-.01,2.82-.02,1.12,0,2.17-.01,2.82-.02,1.51-.01,1.97-.48,2.29-2.48.39-2.39,1.02-4.86,3.43-9.27.81-1.48,1.31-3.16,1.29-4.97-.03-5.49-4.51-9.9-9.99-9.87M384.18,153.36h0c-2.35,4.29-3.09,6.84-3.52,9.56-.05.3-.2,1.23-.47,1.52-.09.1-.28.21-.95.21l-2.82.02-2.82.02c-.67,0-.85-.1-.95-.2-.28-.29-.44-1.21-.49-1.51-.47-2.72-1.24-5.25-3.64-9.51-.81-1.45-1.23-2.97-1.24-4.52-.03-4.98,4-9.06,8.98-9.09,4.98-.03,9.06,4,9.1,8.98.01,1.55-.39,3.08-1.18,4.53"/>
        <path class="cls-12" d="M371.04,146.21c-.38.32-2.18,2.05-.22,5.08.14.21.08.5-.14.64-.08.05-.16.08-.25.08-.15,0-.3-.08-.39-.21-2.39-3.69-.08-5.89.4-6.3.2-.16.49-.14.65.06.16.2.14.49-.06.65"/>
        <path class="cls-8" d="M391.14,147.96l-3.25.02c-.2,0-.35.16-.35.36s.16.36.36.35l3.25-.02c.2,0,.36-.16.35-.36s-.16-.36-.36-.36"/>
        <path class="cls-8" d="M386.81,143.28c.06,0,.12-.02.18-.05l2.8-1.65c.17-.1.23-.32.13-.49-.1-.17-.32-.23-.49-.13l-2.8,1.65c-.17.1-.23.32-.12.49.06.11.18.17.31.17"/>
        <path class="cls-8" d="M382.34,138.48c.05.03.11.05.18.05.13,0,.24-.07.31-.18l1.6-2.83c.1-.17.03-.39-.14-.49-.17-.1-.39-.04-.48.14l-1.59,2.83c-.1.17-.04.39.14.48"/>
        <path class="cls-8" d="M365.29,142.43l-2.82-1.62c-.17-.1-.39-.04-.49.13-.1.17-.04.39.13.49l2.82,1.62c.05.03.12.05.18.05.12,0,.24-.07.31-.18.1-.17.04-.39-.13-.49"/>
        <path class="cls-8" d="M389.87,154.78l-2.82-1.62c-.17-.1-.39-.04-.49.13-.1.17-.04.39.13.49l2.82,1.62c.06.03.12.05.18.04.12,0,.24-.06.31-.18.1-.17.04-.39-.13-.49"/>
        <path class="cls-8" d="M365,153.62l-2.8,1.65c-.17.1-.22.32-.12.49.07.11.19.18.31.18.06,0,.12-.02.18-.05l2.8-1.65c.17-.1.23-.32.13-.49-.1-.17-.32-.23-.49-.12"/>
        <path class="cls-8" d="M369.04,138.11c.07.12.19.18.31.18.06,0,.12-.02.18-.05.17-.1.23-.32.13-.49l-1.63-2.81c-.1-.17-.32-.23-.49-.13-.17.1-.23.32-.13.49l1.63,2.81Z"/>
        <path class="cls-8" d="M376.06,136.91c.2,0,.35-.16.35-.36l-.02-3.25c0-.2-.16-.36-.36-.35-.19,0-.35.16-.35.36l.02,3.25c0,.2.16.36.36.35"/>
        <path class="cls-8" d="M365.12,148.48c0-.2-.16-.36-.36-.35l-3.25.02c-.2,0-.36.16-.35.36,0,.2.16.36.36.36l3.25-.02c.2,0,.35-.16.35-.36"/>
        <path class="cls-36" d="M451.77,281.37l.02.03-22.66,13.87c-.31.19-.71.09-.9-.22l-3.54-5.78-3.53-5.78c-.19-.31-.09-.71.22-.9l22.67-13.85.02.03c1.44-.73,8.03.11,9.87,2.63,1.4,2.78-.85,9.03-2.16,9.98M452.58,272.22h0c-.31-.51-.97-.67-1.48-.36-.51.31-.67.97-.36,1.48.31.51.97.67,1.48.36.51-.31.67-.97.36-1.48"/>
        <rect class="cls-44" x="424.04" y="276.07" width="25.28" height="12.02" transform="translate(-83.02 269.25) rotate(-31.45)"/>
        <polygon class="cls-1" points="449.89 281.21 449.74 280.97 450.41 280.56 450 279.89 450.24 279.75 450.8 280.66 449.89 281.21"/>
        <path class="cls-1" d="M449.65,279.32l-.89-1.45.24-.14.88,1.45-.24.14ZM448.41,277.29h0l-.89-1.45.24-.14.88,1.45-.23.14ZM447.18,275.27h0l-.88-1.45.24-.14.88,1.44-.24.15ZM445.94,273.24h0l-.88-1.45.24-.14.88,1.45-.24.14Z"/>
        <polygon class="cls-1" points="444.7 271.22 444.29 270.55 443.62 270.96 443.48 270.72 444.38 270.17 444.94 271.07 444.7 271.22"/>
        <path class="cls-1" d="M424.24,282.81l-.15-.24,1.54-.94.14.24-1.54.94ZM426.4,281.49h0l-.15-.24,1.54-.94.14.24-1.54.94ZM428.55,280.17h0l-.14-.24,1.54-.94.14.24-1.54.94ZM430.7,278.86h0l-.14-.24,1.54-.94.14.24-1.54.94ZM432.85,277.54h0l-.14-.24,1.54-.94.15.24-1.54.94ZM435.01,276.22h0l-.14-.24,1.54-.94.14.24-1.54.94ZM437.16,274.91h0l-.14-.24,1.54-.94.14.24-1.54.94ZM439.31,273.59h0l-.15-.24,1.54-.94.14.23-1.54.94ZM441.47,272.27h0l-.15-.24,1.54-.94.14.24-1.54.94Z"/>
        <polygon class="cls-1" points="423.13 284.41 422.58 283.5 423.48 282.95 423.63 283.18 422.96 283.59 423.37 284.26 423.13 284.41"/>
        <path class="cls-1" d="M428.08,292.5l-.88-1.45.24-.15.89,1.45-.24.14ZM426.84,290.48h0l-.88-1.45.24-.14.89,1.45-.24.14ZM425.61,288.45h0l-.88-1.45.24-.14.88,1.45-.24.14ZM424.37,286.43h0l-.89-1.45.24-.14.88,1.45-.24.14Z"/>
        <polygon class="cls-1" points="428.99 293.99 428.44 293.08 428.67 292.94 429.08 293.61 429.75 293.2 429.9 293.43 428.99 293.99"/>
        <path class="cls-1" d="M430.51,293.06l-.15-.24,1.54-.94.14.24-1.54.94ZM432.67,291.74h0l-.15-.24,1.54-.94.14.24-1.54.94ZM434.82,290.42h0l-.14-.24,1.54-.94.15.24-1.54.94ZM436.97,289.11h0l-.14-.24,1.54-.94.14.24-1.54.94ZM439.12,287.79h0l-.14-.24,1.54-.94.15.24-1.54.94ZM441.28,286.48h0l-.14-.24,1.54-.94.14.24-1.54.94ZM443.43,285.16h0l-.14-.24,1.54-.94.14.24-1.54.94ZM445.58,283.84h0l-.15-.24,1.54-.94.14.24-1.54.94ZM447.74,282.53h0l-.15-.24,1.54-.94.14.24-1.54.94Z"/>
        <path class="cls-33" d="M430.45,288.45c.37.01.89-.06,1.31-.32.45-.28.54-.67.32-1.04-.22-.35-.54-.43-1.22-.35-.93.11-1.71-.12-2.22-.94-.59-.96-.42-2.08.61-2.71.49-.3.93-.39,1.29-.39l.41,1.16c-.24,0-.65.03-1.07.29-.43.26-.48.64-.3.93.22.36.56.37,1.3.3.99-.1,1.67.2,2.16.99.58.95.51,2.1-.69,2.83-.5.3-1.09.44-1.45.41l-.44-1.18Z"/>
        <path class="cls-33" d="M434.85,285.58l.58,1.64-1.02.62-2.12-6.47,1.29-.79,4.81,4.83-1.06.65-1.22-1.24-1.25.76ZM435.37,283.95h0l-1-1.03c-.28-.29-.62-.66-.89-.96h-.01c.14.38.34.85.47,1.22l.47,1.36.96-.59Z"/>
        <polygon class="cls-33" points="435.5 279.41 436.49 278.8 439.29 283.38 441.02 282.32 441.68 283.39 438.96 285.06 435.5 279.41"/>
        <polygon class="cls-33" points="443.4 279.06 441.79 280.04 442.61 281.39 444.4 280.29 445.04 281.34 442.26 283.04 438.81 277.39 441.5 275.74 442.14 276.79 440.44 277.83 441.16 279 442.76 278.02 443.4 279.06"/>
        <path class="cls-17" d="M450.79,271.35c.79-.48,1.82-.23,2.3.56.48.79.23,1.82-.55,2.3-.79.48-1.82.23-2.3-.56-.48-.79-.23-1.82.55-2.3M451.1,271.86h0c-.51.31-.67.97-.36,1.48.31.51.97.67,1.48.36.51-.31.67-.97.36-1.48-.31-.51-.97-.67-1.48-.36"/>
        <path class="cls-39" d="M460.44,278.21c-.17-.02-.35-.06-.52-.09-3.64-.79-5.6-2.61-5.69-2.7l.1-.73s2.24,2.13,5.72,2.89c1.64.36,3.07.05,4.04-.86.77-.73,1.13-1.78.96-2.82-.19-1.19-.53-1.2-2.54-1.04-1.2.1-2.84.23-5.17.09-4.17-.25-4.64.24-4.68.29,0,0,.02.01.03.02l-.37.41c-.12-.11-.29-.36-.17-.64.18-.43.93-.89,5.23-.64,2.29.13,3.91,0,5.09-.09,1.96-.16,2.85-.23,3.13,1.5.2,1.21-.23,2.45-1.13,3.31-.99.94-2.41,1.32-4.02,1.09"/>
        <rect class="cls-52" x="265.96" y="135.48" width="32.95" height="47.67"/>
        <rect class="cls-52" x="265.96" y="161.32" width="32.95" height="21.84"/>
        <rect class="cls-56" x="267.42" y="162.83" width="9.32" height="6.36"/>
        <rect class="cls-46" x="287.95" y="162.83" width="9.32" height="6.36"/>
        <rect class="cls-50" x="277.68" y="162.83" width="9.32" height="6.36"/>
        <g class="cls-57">
          <g class="cls-61">
            <path class="cls-21" d="M277.68,170.62h9.32v-.41h-9.32v.41ZM287.95,170.62h9.32v-.41h-9.32v.41ZM267.42,170.62h9.32v-.41h-9.32v.41ZM277.68,171.44h9.32v-.41h-9.32v.41ZM287.95,171.44h9.32v-.41h-9.32v.41ZM267.42,171.44h9.32v-.41h-9.32v.41ZM267.42,172.25h9.32v-.41h-9.32v.41ZM277.68,172.25h9.32v-.41h-9.32v.41ZM287.95,172.25h9.32v-.41h-9.32v.41ZM277.68,173.07h9.32v-.41h-9.32v.41ZM287.95,173.07h9.32v-.41h-9.32v.41ZM267.42,173.07h9.32v-.41h-9.32v.41ZM277.68,173.89h9.32v-.41h-9.32v.41ZM267.42,173.89h9.32v-.41h-9.32v.41ZM287.95,173.89h9.32v-.41h-9.32v.41ZM287.95,174.7h9.32v-.41h-9.32v.41ZM277.68,174.7h9.32v-.41h-9.32v.41ZM267.42,174.7h9.32v-.41h-9.32v.41ZM287.95,175.52h9.32v-.41h-9.32v.41ZM277.68,175.52h9.32v-.41h-9.32v.41ZM267.42,175.52h9.32v-.41h-9.32v.41ZM267.42,176.34h9.32v-.41h-9.32v.41ZM287.95,176.34h9.32v-.41h-9.32v.41ZM277.68,176.34h9.32v-.41h-9.32v.41ZM287.95,177.15h9.32v-.41h-9.32v.41ZM267.42,177.15h9.32v-.41h-9.32v.41ZM277.68,177.15h9.32v-.41h-9.32v.41ZM267.42,177.97h9.32v-.41h-9.32v.41ZM277.68,177.97h9.32v-.41h-9.32v.41ZM287.95,177.97h9.32v-.41h-9.32v.41ZM267.42,178.78h9.32v-.41h-9.32v.41ZM287.95,178.78h9.32v-.41h-9.32v.41ZM277.68,178.78h9.32v-.41h-9.32v.41Z"/>
          </g>
        </g>
        <rect class="cls-60" x="267.42" y="180.3" width="29.85" height="1.1"/>
        <rect class="cls-53" x="265.96" y="135.48" width="32.97" height="1.14"/>
        <path class="cls-13" d="M298.37,136.04c0,.15-.12.27-.27.27s-.27-.12-.27-.27.12-.27.27-.27.27.12.27.27"/>
        <path class="cls-13" d="M297.48,136.04c0,.15-.12.27-.27.27s-.27-.12-.27-.27.12-.27.27-.27.27.12.27.27"/>
        <rect class="cls-60" x="265.94" y="137.69" width="32.99" height="2.68"/>
        <rect class="cls-49" x="286.97" y="138.44" width="10.11" height="1.17"/>
        <rect class="cls-46" x="268.19" y="138.64" width="2.96" height=".79"/>
        <rect class="cls-46" x="271.39" y="138.64" width="2.96" height=".79"/>
        <rect class="cls-46" x="274.58" y="138.64" width="2.96" height=".79"/>
        <rect class="cls-46" x="277.78" y="138.64" width="2.96" height=".79"/>
        <path class="cls-12" d="M297.74,138.72c-.13,0-.23.11-.23.24s.1.24.23.24.23-.11.23-.24-.1-.24-.23-.24M297.52,138.73h0c.12-.12.32-.12.44,0,.12.12.12.32,0,.44-.12.12-.32.12-.44,0-.12-.12-.12-.32,0-.44"/>
        <path class="cls-12" d="M298.01,139.3l-.07-.07s.03-.02.04-.03c.01-.01.03-.03.04-.05l.07.07-.07.08Z"/>
        <path class="cls-12" d="M298.38,139.5s.02.07,0,.09c-.02.02-.06.02-.09,0l-.27-.28.09-.09.27.28Z"/>
        <path class="cls-12" d="M297.72,139.15s.05,0,.07-.01c.01,0,.02-.02.01-.03,0-.01-.02-.02-.03-.01-.02,0-.04.01-.05.01-.05,0-.09-.02-.1-.06,0-.01-.02-.02-.03-.01-.01,0-.02.02-.01.03.02.06.08.09.14.09"/>
        <rect class="cls-56" x="271.56" y="142.97" width="6.78" height="5.49"/>
        <rect class="cls-42" x="279.1" y="142.93" width="6.78" height="5.49"/>
        <rect class="cls-50" x="286.65" y="142.9" width="6.78" height="5.5"/>
        <rect class="cls-60" x="265.96" y="151.56" width="32.97" height="9.73"/>
        <rect class="cls-46" x="268.94" y="153.17" width="8.53" height="6.51"/>
        <rect class="cls-49" x="279.67" y="155.45" width="13.65" height=".21"/>
        <rect class="cls-49" x="279.67" y="155.98" width="13.65" height=".21"/>
        <rect class="cls-49" x="279.67" y="156.51" width="13.65" height=".21"/>
        <rect class="cls-49" x="279.67" y="157.04" width="8.99" height=".21"/>
        <polygon class="cls-2" points="266.22 156.43 266.63 156.2 267.03 155.98 267.03 156.43 267.03 156.87 266.63 156.65 266.22 156.43"/>
        <polygon class="cls-2" points="298.55 156.43 298.14 156.2 297.74 155.98 297.74 156.43 297.74 156.87 298.14 156.65 298.55 156.43"/>
      </g>
    </g>
  </g>
</svg>