<?xml version="1.0" encoding="UTF-8"?>
<svg id="Layer_1" data-name="Layer 1" xmlns="http://www.w3.org/2000/svg" viewBox="0 0 500 500">
  <defs>
    <style>
      .cls-1 {
        fill: #57596a;
      }

      .cls-2 {
        fill: #3b4350;
      }

      .cls-3 {
        fill: #eea882;
      }

      .cls-4 {
        fill: #4a58a0;
      }

      .cls-5 {
        fill: #b4d4ea;
      }

      .cls-6 {
        fill: #fff;
      }

      .cls-7 {
        fill: #7c8684;
      }

      .cls-8 {
        fill: #d7f0fc;
      }

      .cls-9 {
        fill: #ac3c33;
      }

      .cls-10 {
        fill: #faaf88;
      }

      .cls-11 {
        fill: #f1fafe;
      }

      .cls-12 {
        fill: #e4e53e;
      }

      .cls-13 {
        fill: #1b4e94;
      }

      .cls-14 {
        fill: #0a2220;
      }

      .cls-15 {
        fill: #2b337b;
      }

      .cls-16 {
        fill: #3373b9;
      }

      .cls-17 {
        fill: #405294;
      }

      .cls-18 {
        fill: #f2f4f3;
      }

      .cls-19 {
        fill: #d9823b;
      }

      .cls-20 {
        fill: #d55240;
      }

      .cls-21 {
        fill: #81c341;
      }

      .cls-22 {
        fill: #222355;
      }

      .cls-23 {
        fill: #e97e5f;
      }
    </style>
  </defs>
  <path class="cls-8" d="M378.44,101.89c-.06-.24-.12-.47-.18-.71-.13-.5-.26-1-.39-1.5-1.27-4.68-2.73-8.96-4.38-12.39v-.03c-.07-.11-.12-.23-.18-.34l-.03-.06c-.05-.1-.1-.2-.15-.3l-.04-.07c-.05-.1-.1-.19-.15-.28l-.02-.03c-.08-.16-.17-.31-.25-.46l-.11-.2-.09-.15-.11-.19v-.02c-.23-.37-.44-.72-.65-1.05l-.02-.04-.13-.19c-.64-.96-1.29-1.8-1.98-2.48-7.89-7.9-29.19-2.9-41.45.81-20.11,6.09-39.32,15.42-56.93,26.87-8.29,5.39-16.24,11.28-23.83,17.62-4.82,4.02-9.5,8.23-14.01,12.61-1.93,1.86-3.82,3.77-5.69,5.7-5.77,5.96-11.26,12.21-16.45,18.71-7.26,1.91-17.76,9.8-28.03,20.81h-.09c-.46-1.36-.95-2.71-1.45-4.05.01-.22.94-14.24-8.16-34.97-2.08-4.73-4.29-8.66-6.53-11.94,9.75-6.04,19.58-15.69,26.46-23.68,9.97-9.43,22.93-28.03,27.28-34.42l.48.49,2.04-2.99-1.24-1.11c1.26-1.31,2.65-2.47,4.25-3.33.97-.52,1.94-1.01,2.73-1.81,1.05-1.06,2.43-3,1.93-4.56-.27-.84-.58-1.68-1.23-1.75.05-.39.07-.86.02-1.25-.09-.84-.5-1.2-1.29-1.26-.16-.01-.35-.02-.54-.02.43-.46.83-.99,1.23-1.42,1.05-1.12,2.11-2.2,3.02-3.44.37-.5,2.25-2.97.61-2.99-.47,0-.97.46-1.38.88-.83.86-1.99,1.5-2.94,2.25-1.01.79-1.99,1.61-2.98,2.42-1.26,1.04-2.53,1.77-3.4,3.2-1.7,2.83-3.03,5.97-5.16,8.52l-1.36-1.21-1.97,1.97.38.4c-5.57,5.6-25,25.03-32.2,30.91-.09.07-.17.15-.26.23-.38.2-.75.45-1.11.73-13.09,10.26-23.37,11.19-32.57,17-.29.18-.57.37-.84.56-1.04-.26-1.9-.39-2.54-.46l-5.15-3.25-4.28-7.26c.49-.99.7-2,.49-2.98-.85-3.97-5.02-10.94-10.2-14.35.12-.2.23-.39.33-.59.89-1.69,1.36-3.46.97-5.02-.69-2.74-3.96-2.97-6.37-1.66-1.4.76-1.77,2.21-2.7,3.39-.91,1.15-2.77,1.84-4.09,2.34-2.45.92-5.29,1.77-7.29,3.66-1.47,1.39-2.51,3.31-2.94,5.31-.35,1.62-.02,3.68,1.53,4.44-.07.38,0,.8.19,1.22.36.8.87,1.55,1.43,2.22,1.17,1.41,2.44,2.73,3.81,3.93,1.12.98,2.38,2.19,3.73,2.8,1.57.71,3.22,1.24,4.88,1.68.83.22,1.68.47,2.53.6.47.07,1.46-.62,2.12-.73.13.03.27.05.41.07.09.19.18.38.27.56h0c1.69,3.7,2.34,7.51,2.54,10.63-1.31-.02-1.76.22-1.76.22,0,0-2.41,1.52-2.91,3.41,0,0-7.19,6.62-6.37,19.52.02,6.28,2.78,13.38,6.86,20.37,1.83,3.17,4.23,6.93,6.73,10.85-2.13,1.71-4.44,3.46-6.94,5.24l-3,9.8s3.43-.33,8.35-1.92c2.09-1.41,4.39-3.05,6.77-4.9,1.51,2.47,2.94,4.88,4.17,7.14l.03.05.12.23.03.06.12.22.03.06.12.22.03.05c.04.08.09.16.13.24l.02.03.12.24.02.05.11.22.03.06.12.23.02.04c.23.45.45.9.66,1.33l.04.08.09.18.04.08.09.18.03.06.08.18.05.1.07.15.04.09.07.15.04.09.07.17.03.07.07.16.04.08.07.16.04.08.07.16.03.08.06.16.03.08.06.16.03.07c.06.15.12.31.18.46v.02s.08.2.08.2l.02.06.06.17.02.07.05.14.03.09.04.12.03.09.04.12.03.1.03.11.03.1.03.11.03.09.03.12.02.08.03.12.02.08.03.12.02.08.03.12.02.07.03.13v.06s.04.13.04.13v.05s.04.18.04.18l-.32,9.01s.44.06,1.22.13c.04,1.53.03,3.05-.03,4.56-1.17.41-2.34.92-3.5,1.57-.13.07-.25.14-.37.21-.24.14-.48.29-.72.44l-.06.04c-1.1.7-2.19,1.53-3.26,2.5l-.18.16c-.12.11-.24.22-.36.33l-.18.17c-.47.46-.94.95-1.4,1.47l-.17.19c-.09.1-.17.2-.26.3-.14.17-.29.34-.43.51-.11.14-.23.28-.34.42-.43.54-.86,1.11-1.28,1.71l-.13.18c-.09.13-.18.26-.27.39l-.16.24c-.47.7-.93,1.44-1.37,2.22-.06.11-.13.22-.19.33-.13.22-.25.45-.38.67-.07.12-.13.24-.19.36-.39.73-.78,1.49-1.15,2.29-.19.4-.38.81-.56,1.23-.05.11-.1.23-.15.34l-.14.33c-.19.44-.38.89-.57,1.35-.05.12-.1.24-.14.36-.07.17-.13.34-.2.51-.12.3-.24.61-.35.93-.08.22-.17.45-.25.67l-.02.07c-.12.34-.25.69-.37,1.05-.05.16-.11.32-.16.47-.12.35-.23.7-.35,1.06l-.04.12c-.07.22-.14.45-.21.67l-.04.14c-.08.25-.15.49-.23.74-.17.58-.34,1.16-.51,1.76-.05.17-.1.35-.14.52-.04.16-.09.33-.13.49-.06.21-.11.42-.17.63-.08.29-.15.59-.23.89-.1.41-.2.82-.3,1.23l-.06.25c-.05.22-.1.44-.15.66-.13.56-.25,1.13-.38,1.7-.06.27-.12.54-.17.82-.11.54-.22,1.09-.33,1.65-.04.22-.08.44-.13.66-.02.12-.04.23-.07.35-.04.22-.08.44-.12.66-.05.29-.11.59-.16.89-.04.22-.08.44-.11.66-.14.83-.28,1.68-.41,2.55-.03.22-.07.44-.1.66-.21,1.44-.42,2.92-.6,4.44-.07.61-.15,1.22-.22,1.84-.13,1.18-.26,2.38-.38,3.61-.02.22-.04.44-.06.66-.08.83-.15,1.67-.22,2.52-.04.43-.07.87-.1,1.31-.07.91-.13,1.83-.19,2.77-.01.19-.02.37-.04.55-.08,1.36-.16,2.76-.22,4.18-.01.22-.02.44-.03.66-.84,19.06-.01,43.22,3.14,73.7.09.03.33.1.66.2l.25.07.13.04.21.06c.12.03.24.07.37.1l.08.02.15.04c.23.06.46.13.69.19l.15.04c.47.13.91.24,1.21.3,2.78-61.06,23.18-71.38,33.46-72.66-1.26,7.73-2.18,15.58-2.65,23.44v.21s-.03.23-.03.23c-.01.21-.02.41-.04.62v.12c-.28,5.04-.36,10.08-.22,15.1v.06c0,.24.02.47.02.71v.1c0,.22.02.43.03.65v.18c.01.19.02.38.03.56v.26c.02.15.03.31.03.46,0,.13.01.26.02.39,0,.11.01.22.02.33,0,.16.02.33.03.49v.26c.02.19.04.38.05.57v.16c.02.22.04.45.05.67v.06c.12,1.84.27,3.67.46,5.5-.4-.47-.8-.93-1.19-1.4.69,8.62,2.1,17.13,4.42,25.36.53,1.88,1.49,3.87,2.79,5.91-12.49,11.38-31.87,37.31-18.32,83.23,0,0,51.79.68,69.63-47.11,5.33.19,13.31-2.63,22.48-7.21-.46-.21-.92-.43-1.39-.65,12.9-6.16,28.54-16.19,42.58-26.41,5.01,7.5,13.78,31.51-38.43,71.56.36.36,1.02.96,1.64,1.51.08.07.16.14.24.21l.17.15.22.19c.12.11.24.21.34.29l.08.07.08.07.1.09.03.03.15.12c51.94-28.33,78.95-50.61,91.51-67.86.08-.11.16-.22.24-.33.62-.87,1.21-1.72,1.76-2.56.07-.11.14-.21.2-.31.34-.52.67-1.04.98-1.56.12-.2.25-.41.37-.61.36-.61.7-1.21,1.03-1.81l.16-.3c1.01-1.88,1.83-3.7,2.49-5.44l.1-.28c.34-.92.63-1.81.88-2.69.07-.26.14-.53.21-.79.22-.87.4-1.72.54-2.55l.04-.25c.11-.66.19-1.31.24-1.95.01-.16.03-.32.04-.48.03-.4.05-.79.06-1.17,0-.31,0-.62,0-.92,0-.3-.01-.6-.03-.9,0-.15-.01-.3-.03-.44-.03-.44-.07-.88-.12-1.31-.02-.14-.03-.29-.05-.43-.04-.28-.08-.56-.13-.84-.05-.28-.1-.55-.16-.83-.07-.34-.15-.68-.24-1.01-.04-.13-.07-.27-.11-.4-.06-.2-.12-.39-.18-.59-.06-.19-.12-.39-.19-.58-.04-.13-.09-.25-.13-.38l-.07-.19c-.12-.31-.24-.63-.37-.93-.05-.12-.1-.24-.16-.37-.08-.18-.16-.36-.25-.54l-.08-.18c-.06-.12-.11-.24-.17-.35-.09-.18-.18-.35-.27-.52-.06-.11-.12-.23-.19-.34l-.09-.17c-.16-.28-.32-.56-.49-.84-.1-.16-.2-.33-.31-.49-.14-.22-.28-.43-.42-.64l-.11-.16c-.14-.21-.29-.42-.44-.62-.15-.2-.3-.41-.46-.6-.23-.3-.47-.59-.71-.88-.12-.14-.24-.29-.37-.43-.12-.14-.25-.28-.37-.42-.13-.14-.25-.27-.38-.41-.08-.09-.17-.18-.26-.27l-.13-.13c-.09-.09-.17-.18-.26-.26-.13-.13-.26-.26-.39-.39-.13-.13-.26-.26-.4-.38-.09-.08-.18-.17-.27-.25-.09-.08-.18-.17-.27-.25-.27-.24-.54-.48-.82-.72-.09-.08-.18-.15-.27-.23l-.14-.11c-.09-.08-.18-.15-.28-.23-.28-.22-.55-.44-.83-.66-.09-.07-.19-.14-.28-.21-.56-.42-1.12-.82-1.67-1.2-.09-.06-.19-.13-.28-.19l-.14-.09c-.19-.12-.37-.25-.56-.36-.18-.12-.37-.24-.55-.35l-.27-.17c-.14-.08-.27-.17-.41-.25-.18-.11-.36-.22-.54-.32-.67-.39-1.33-.76-1.96-1.09,15.99-18.32,29.35-39.02,39.33-61.37,6.53-14.62,11.6-29.9,15.2-45.56.67-2.94,1.29-5.89,1.87-8.87,1.39-7.21,2.47-14.5,3.24-21.81,1.73-16.37,1.92-32.94.53-49.39-.07-.8-.14-1.67-.23-2.59-.06-.69-.14-1.41-.22-2.15-.08-.74-.16-1.52-.25-2.32-.06-.53-.13-1.08-.19-1.63-.09-.83-.2-1.68-.31-2.54-.11-.87-.23-1.75-.36-2.65h0c-.02-.15-.04-.3-.06-.44-.1-.76-.21-1.53-.33-2.31-.03-.25-.07-.5-.11-.74-.06-.42-.13-.84-.19-1.26-.23-1.52-.49-3.07-.76-4.63-.24-1.39-.5-2.79-.77-4.19-.03-.15-.06-.3-.09-.45l-.05-.26c-.05-.28-.11-.55-.16-.83l-.03-.13c-.05-.28-.11-.55-.17-.83l-.04-.2c-.04-.18-.07-.36-.11-.54-.02-.1-.04-.2-.06-.31-.2-.96-.41-1.92-.63-2.87-.12-.55-.26-1.11-.39-1.66-.05-.2-.1-.39-.14-.59-.09-.37-.18-.74-.28-1.11h0Z"/>
  <path class="cls-7" d="M181.67,180.47c.01-.22.94-14.24-8.16-34.97-2.08-4.73-4.29-8.66-6.53-11.94-7.55-11.03-15.49-14.57-20.03-15.7-1.04-.26-1.9-.39-2.54-.46l1.14.72c5.75,2.07,7.86,5.23,8.61,6.97.33.76.4,1.25.4,1.25-.3-.39-.62-.73-.97-1.03l1.35,4.05c2.55,3.33,4.23,6.68,5.19,10.02,1.31,4.53,1.28,9.04.3,13.41,6.36,4.99,13.86,13.43,21.24,27.69h0s0,0,0,0h0Z"/>
  <path class="cls-20" d="M373.48,87.29v-.03c-.07-.11-.12-.23-.18-.34l-.03-.06c-.05-.1-.1-.2-.15-.3l-.04-.07c-.05-.1-.1-.19-.15-.28l-.02-.03c-.08-.16-.17-.31-.25-.46l-.11-.2-.09-.15-.11-.19v-.02c-.23-.37-.44-.72-.65-1.05l-.02-.04-.13-.19c-.64-.96-1.29-1.8-1.98-2.48-7.89-7.9-29.19-2.9-41.45.81-20.11,6.09-39.32,15.42-56.93,26.87-8.29,5.39-16.24,11.28-23.83,17.62-.07,14.34,3.55,28.95,11.26,42.33,22.68,39.35,72.1,53.1,110.38,30.7.66-.38,1.31-.78,1.95-1.18.73-.45,1.45-.92,2.15-1.39.08-.06.17-.11.25-.17l.15-.1c3.72-2.52,7.17-5.32,10.32-8.36,1.73-16.37,1.92-32.94.53-49.39-.07-.8-.14-1.67-.23-2.59-.06-.69-.14-1.41-.22-2.15-.02-.17-.04-.34-.06-.51-.02-.14-.03-.28-.04-.42-.05-.46-.1-.92-.15-1.39-.06-.53-.13-1.08-.19-1.63-.09-.83-.2-1.68-.31-2.54-.11-.87-.23-1.75-.36-2.65h0s0,0,0,0c-.02-.14-.04-.29-.06-.43-.1-.76-.21-1.53-.33-2.31-.03-.25-.07-.5-.11-.74l-.03-.19c-.05-.36-.11-.71-.16-1.07-.23-1.52-.49-3.07-.76-4.63-.24-1.39-.5-2.79-.77-4.19-.03-.15-.06-.3-.09-.45l-.05-.26c-.05-.28-.11-.55-.16-.83l-.03-.13c-.06-.28-.11-.55-.17-.83l-.04-.2c-.04-.18-.07-.36-.11-.54-.02-.1-.04-.2-.06-.31-.2-.96-.41-1.92-.63-2.87-.12-.55-.26-1.11-.39-1.66l-.06-.23c-.03-.12-.06-.24-.08-.36-.09-.37-.18-.74-.28-1.11-.03-.13-.07-.25-.1-.38-.03-.11-.05-.22-.08-.33-.13-.5-.26-1-.39-1.5-1.27-4.68-2.73-8.96-4.38-12.39h0Z"/>
  <path class="cls-20" d="M380.6,210.33c-1.32.86-2.66,1.69-4.03,2.49-3.27,1.91-6.61,3.61-10.01,5.08-.14.06-.28.12-.42.18l-.13.06c-.22.09-.43.18-.65.27h0c-43.31,18.05-94.83.82-119.47-41.93-6.81-11.81-10.92-24.45-12.52-37.18-1.93,1.86-3.82,3.77-5.69,5.7,2.07,11.9,6.24,23.66,12.62,34.74,25.29,43.88,77.1,62.59,122.16,46.85h0c.2-.07.4-.14.6-.21l.18-.07c.11-.04.22-.08.33-.12.12-.04.23-.08.35-.13l.16-.06c.14-.05.27-.1.41-.15l.09-.03c1-.38,2-.77,2.99-1.18l.08-.03.38-.16.2-.08c.1-.04.19-.08.29-.12.11-.05.21-.09.32-.14l.2-.08c.16-.07.33-.14.49-.21l.03-.02c3.1-1.36,6.17-2.89,9.17-4.6.67-2.94,1.29-5.89,1.87-8.87h0Z"/>
  <path class="cls-20" d="M166.94,233.56l-.11.12c-.34.35-.69.69-1.03,1.03-.17.17-.35.34-.52.5-.09.08-.17.17-.26.25-.26.25-.52.49-.78.73-.35.32-.69.64-1.04.95-.35.31-.69.61-1.04.91-.09.07-.17.15-.26.22-.35.3-.69.59-1.04.87-.09.07-.17.14-.26.21-.26.21-.52.42-.78.63-.43.34-.86.68-1.29,1-.09.06-.17.13-.26.2-.34.26-.69.51-1.03.76-.17.12-.34.25-.51.37-.09.06-.17.12-.26.18-.34.24-.68.48-1.02.71-.34.23-.67.46-1.01.68-.17.11-.33.22-.5.33-.17.11-.33.22-.5.32-.16.11-.33.21-.49.31-.33.21-.66.41-.98.61-.16.1-.32.2-.49.29-.4.24-.8.47-1.2.7-.24.14-.47.27-.71.4-.31.17-.62.35-.93.51-.31.17-.61.33-.91.49-.38.2-.75.39-1.12.57l-.22.11c-.15.07-.29.14-.43.22l-.22.11c-.14.07-.29.14-.43.21-2.19,1.05-4.16,1.86-5.82,2.48-.11.04-.21.08-.32.12-.1.04-.21.08-.31.11-1.11.4-2.06.71-2.81.93l-.2.06-.19.06c-.21.06-.41.12-.58.16l-.14.04-.07.02-.12.03c-.4.1-.61.15-.61.15,0,0,8.45-16.34,9.21-35.9-1.17.41-2.34.92-3.5,1.57-.13.07-.25.14-.37.21-.24.14-.48.29-.72.44l-.06.04c-1.1.7-2.19,1.53-3.26,2.5l-.18.16c-.12.11-.24.22-.36.33l-.18.17c-.47.46-.94.95-1.4,1.47l-.17.19c-.09.1-.17.2-.26.3-.14.17-.29.34-.43.51-.11.14-.23.28-.34.42-.43.54-.86,1.11-1.28,1.71l-.13.18c-.09.13-.18.26-.27.39l-.16.24c-.47.7-.93,1.44-1.37,2.22-.06.11-.13.22-.19.33-.13.22-.25.45-.38.67-.07.12-.13.24-.19.36-.39.73-.78,1.49-1.15,2.29-.19.4-.38.81-.56,1.23-.05.11-.1.23-.15.34l-.14.33c-.19.44-.38.89-.57,1.35-.05.12-.1.24-.14.36-.07.17-.13.34-.2.51-.12.3-.24.61-.35.93-.08.22-.17.45-.25.67l-.02.07c-.12.34-.25.69-.37,1.05-.05.16-.11.32-.16.47-.12.35-.23.7-.35,1.06l-.04.12c-.07.22-.14.45-.21.67l-.04.14c-.08.25-.15.49-.23.74-.17.58-.34,1.16-.51,1.76-.05.17-.1.35-.14.52-.04.16-.09.33-.13.49-.06.21-.11.42-.17.63-.08.29-.15.59-.23.89-.1.41-.2.82-.3,1.23l-.06.25c-.05.22-.1.44-.15.66-.13.56-.25,1.13-.38,1.7-.06.27-.12.54-.17.82-.11.54-.22,1.09-.33,1.65-.04.22-.08.44-.13.66-.02.12-.04.23-.07.35-.04.22-.08.44-.12.66-.05.29-.11.59-.16.89-.04.22-.08.44-.11.66-.07.42-.14.83-.21,1.26-.07.43-.14.86-.2,1.29-.03.22-.07.44-.1.66-.12.81-.24,1.63-.35,2.46-.09.65-.17,1.31-.25,1.98-.07.61-.15,1.22-.22,1.84-.1.88-.2,1.78-.29,2.7-.03.3-.06.61-.09.91-.02.22-.04.44-.06.66-.08.83-.15,1.67-.22,2.52-.04.43-.07.87-.1,1.31-.07.91-.13,1.83-.19,2.77-.01.19-.02.37-.04.55-.08,1.36-.16,2.76-.22,4.18-.01.22-.02.44-.03.66-.84,19.06-.01,43.22,3.14,73.7.05.02.16.05.3.09.1.03.22.07.36.11l.25.07.13.04.21.06.22.06.15.04.08.02.15.04c.23.06.46.13.69.19l.15.04c.47.13.91.24,1.21.3,2.78-61.06,23.18-71.38,33.46-72.66,1.41-8.71,3.24-17.28,5.31-25.54.12-.48.24-.96.36-1.44,2.09-8.24,4.63-16.36,7.56-24.31-1.47-.28-2.9-.59-4.27-.92h0Z"/>
  <path class="cls-12" d="M212.97,402.88c-2.01-.09-5.05-1.07-8.67-2.71-3.72-1.68-8.07-4.06-12.58-6.88-8.52,10.35-16.48,19.62-22.37,26.36-6.08,6.96-9.95,11.24-9.95,11.24l-4.12-2.89s2.6-5.48,6.9-14.13c4-8.03,9.46-18.79,15.68-30.44-3.71-2.99-7.19-6.13-10.15-9.27-2.35-2.49-4.36-4.98-5.9-7.39-12.49,11.38-31.87,37.31-18.32,83.23,0,0,51.79.68,69.63-47.11h-.14Z"/>
  <path class="cls-6" d="M260.03,257.7c-9.47-7.2-20.07-10.35-28.88-9.42-.38,1.59-.78,3.22-1.19,4.87-2,7.96-4.39,16.51-6.49,23.75-.42,1.44-.82,2.83-1.21,4.15l.02.05-.02-.04c-1,3.39-1.89,6.35-2.58,8.63,2.97,4.3,6.8,8.35,11.37,11.82,16.43,12.49,36.24,12.81,44.25.72,8-12.1,1.17-32.02-15.27-44.51h0Z"/>
  <path class="cls-16" d="M258.6,259.85c-9.64-7.33-20.69-9.58-28.65-6.69-2,7.96-4.39,16.51-6.49,23.75-.42,1.44-.82,2.83-1.21,4.15l.02.05.02.05c.13.28.27.55.41.83l.03.06c.07.13.13.26.2.39v.02c.09.14.16.28.24.42l.02.04c.07.12.14.25.21.37l.03.06c.15.27.31.54.47.81l.04.07c.16.27.33.53.49.8l.05.07c.08.12.15.24.23.35l.03.05c.09.13.18.27.27.4l.02.04c.08.12.16.24.24.35l.05.08c.18.26.36.52.55.77l.06.08c.08.11.17.22.25.34l.04.05c.1.13.19.25.29.38l.05.06c.08.11.17.21.25.32l.07.09c.1.12.2.25.3.37l.02.02c.09.12.19.23.28.35l.08.09c.09.11.19.22.28.34l.02.03c.1.12.21.24.32.36l.07.08c.09.1.18.2.26.3l.07.07c.11.12.21.24.32.36l.06.07c.09.1.19.2.28.3l.08.09c.22.24.45.47.68.7l.09.09c.09.09.19.19.29.29l.06.06c.12.11.23.23.35.34l.08.08c.09.09.19.18.28.27l.1.09c.12.11.24.22.36.33l.03.03c.11.1.22.2.34.3l.1.09c.11.09.21.19.32.28l.06.05c.12.11.25.22.38.32l.09.08c.11.09.21.18.32.26l.08.07c.13.11.26.21.39.32l.07.06c.11.09.22.17.33.26l.12.09c.13.1.26.2.4.3.74.56,1.49,1.1,2.25,1.6.22.15.43.29.65.42.33.21.65.41.98.61.22.13.44.26.66.39.11.06.22.12.33.19.33.19.66.37.99.54.11.06.22.12.33.17.22.12.44.23.66.34.44.22.89.43,1.33.63l.33.15c.22.1.44.19.67.28.55.23,1.11.45,1.66.65.55.2,1.11.38,1.66.55.22.07.44.13.66.19.22.06.44.12.66.18.22.06.44.11.66.17.11.03.22.05.33.08.22.05.44.1.65.14.43.09.87.17,1.3.24.22.04.43.07.64.1.32.05.64.09.96.12.11.01.21.02.32.03.21.02.42.04.63.05.74.05,1.47.08,2.18.07.21,0,.41,0,.61-.01,2.23-.07,4.35-.44,6.29-1.12.35-.12.7-.25,1.04-.4.09-.04.17-.07.25-.11.25-.11.5-.23.75-.35.08-.04.16-.08.24-.12,2.35-1.21,4.35-2.95,5.85-5.21l.04-.07.11-.18.07-.11.09-.14.07-.11.08-.13.07-.12.08-.14.06-.12.07-.14.06-.12.07-.13.07-.13.07-.13.06-.12.07-.14.05-.12.06-.15.05-.12.06-.15.05-.12.07-.16.04-.11.07-.17.04-.11.07-.19.06-.16.07-.2.03-.1.06-.17.04-.12.05-.16.03-.12.05-.17.03-.12.04-.16.04-.13.04-.15.03-.13.04-.16.03-.13.03-.16.03-.12.03-.17.02-.13.03-.17.02-.12.03-.18.02-.11.03-.19.02-.1c.03-.2.05-.4.07-.6v-.08s.03-.22.03-.22v-.11s.02-.2.02-.2v-.12s.02-.18.02-.18v-.13s.02-.18.02-.18v-.12s0-.18,0-.18v-.13s0-.18,0-.18v-.12s0-.19,0-.19v-.12s0-.19,0-.19v-.12s0-.21,0-.21v-.1s-.01-.23-.01-.23v-.08s-.02-.25-.02-.25v-.07c-.02-.21-.03-.42-.05-.63v-.06s-.03-.26-.03-.26v-.08s-.03-.23-.03-.23v-.11s-.04-.22-.04-.22v-.1s-.04-.21-.04-.21l-.02-.12-.03-.21-.02-.1-.04-.22-.02-.11-.04-.21-.02-.11-.04-.22-.02-.11-.04-.22-.02-.1-.05-.25-.02-.08c-.02-.09-.04-.19-.06-.28v-.04c-.06-.22-.12-.44-.17-.66v-.02c-.03-.1-.06-.2-.09-.31l-.02-.06c-.03-.09-.05-.18-.08-.27l-.02-.08-.07-.24-.03-.1-.07-.22-.03-.11-.07-.22-.03-.1-.07-.22-.03-.1-.08-.22-.04-.11-.08-.22-.04-.1-.09-.24-.03-.09c-.03-.09-.07-.17-.1-.26l-.02-.07c-.04-.1-.08-.21-.12-.31h0c-2.46-6.15-7.04-12.22-13.3-16.98h0Z"/>
  <path class="cls-14" d="M231.56,222.15c-4.61-5.4-15.88-11.1-30.03-15.45-3.56-1.09-7.3-2.1-11.16-3-1.58-.37-3.19-.72-4.81-1.05l-.15-.03h0c-.07.31-.16.63-.25.96l-.07.25c-.14.46-.3.95-.48,1.47l-.1.29c-.12.34-.26.69-.4,1.06-1.12,2.89-2.36,5.61-3.67,8.16-.14.27-.28.54-.42.8-.99,1.86-2.01,3.62-3.08,5.31-.15.24-.31.48-.46.72-.08.12-.15.24-.23.35-.46.71-.93,1.4-1.41,2.07-.16.23-.32.45-.48.67-.16.22-.32.44-.48.66-.24.33-.48.65-.73.97-.08.11-.16.21-.24.32-.16.21-.33.42-.49.63-.33.42-.66.83-.99,1.24-.17.2-.33.4-.5.6-.17.2-.33.4-.5.59-.08.1-.17.2-.25.29-.25.29-.51.58-.76.87-.08.09-.17.19-.25.28-.25.28-.51.56-.76.84-.26.28-.51.55-.77.82-.22.23-.44.46-.66.68h0c1.37.33,2.8.64,4.27.92,1.29.25,2.6.48,3.95.69,4.27.67,8.81,1.16,13.4,1.47,6.99.47,14.08.51,20.51.12-4.27,12.62-5.83,30.47-2.81,56.79,0,0,.56.29,1.61.6l.08.02c.15.04.3.08.47.12.39.1.83.22,1.33.3.18.03.38.07.57.1,1.41.22,3.17.34,5.23.18.84-.07,1.72-.18,2.65-.34,0,0,.57-1.81,1.49-4.85.69-2.27,1.58-5.23,2.58-8.63h0c.39-1.32.79-2.71,1.21-4.15,2.1-7.24,4.49-15.79,6.49-23.75.42-1.66.82-3.29,1.19-4.87,1.86-7.86,3.17-14.68,3.19-18.42.02-3.6-1.09-6.09-2.78-7.72h0Z"/>
  <path class="cls-4" d="M183.2,184.52h-.09c-.46-1.36-.95-2.71-1.45-4.05h0s0,0,0,0c-7.39-14.26-14.88-22.7-21.24-27.69-1.5,6.66-5.24,13.03-9.92,18.77-.69.84-1.39,1.67-2.12,2.48-3.97,4.47-8.43,8.49-12.7,11.9-.45.36-.9.71-1.34,1.06,1.23,2,2.4,3.97,3.46,5.85.24.43.48.86.71,1.29l.03.05.12.23.03.06.12.22.03.06.12.22.03.05c.04.08.09.16.13.24l.02.03.12.24.02.05.11.22.03.06.12.23.02.04c.06.11.12.23.17.34.11.22.22.45.33.67.05.11.11.22.16.33l.04.08.09.18.04.08.09.18.03.06.08.18.05.1.07.15.04.09.07.15.04.09.07.17.03.07.07.16.04.08.07.16.04.08.07.16.03.08.06.16.03.08.06.16.03.07c.06.15.12.31.18.46v.02s.08.2.08.2l.02.06.06.17.02.07.05.14.03.09.04.12.03.09.04.12.03.1.03.11.03.1.03.11.03.09.03.12.02.08.03.12.02.08.03.12.02.08.03.12.02.07.03.13v.06s.04.13.04.13v.05s.04.18.04.18c.54,3.07.82,6.13.89,9.14.04,1.53.03,3.05-.03,4.56-.76,19.56-9.21,35.9-9.21,35.9,0,0,.21-.05.61-.15l.12-.03.07-.02.14-.04c.17-.05.37-.1.58-.16l.19-.06.2-.06c.75-.22,1.7-.53,2.81-.93.1-.04.2-.07.31-.11.1-.04.21-.08.32-.12,1.65-.62,3.63-1.43,5.82-2.48.14-.07.28-.14.43-.21l.22-.11c.14-.07.29-.14.43-.22l.22-.11c.37-.18.74-.38,1.12-.57.3-.16.61-.32.91-.49.31-.17.62-.34.93-.51.23-.13.47-.27.71-.4.4-.23.8-.46,1.2-.7.16-.1.32-.19.49-.29.33-.2.65-.4.98-.61.16-.1.33-.21.49-.31.17-.11.33-.21.5-.32.17-.11.33-.22.5-.33.33-.22.67-.45,1.01-.68.34-.23.68-.47,1.02-.71.08-.06.17-.12.26-.18.17-.12.34-.24.51-.37.34-.25.69-.5,1.03-.76.09-.07.17-.13.26-.2.43-.33.86-.66,1.29-1,.26-.21.52-.41.78-.63.09-.07.17-.14.26-.21.35-.28.69-.58,1.04-.87.09-.07.17-.15.26-.22.35-.3.69-.6,1.04-.91.35-.31.69-.63,1.04-.95.26-.24.52-.49.78-.73.09-.08.17-.17.26-.25.17-.17.35-.33.52-.5.35-.34.69-.68,1.03-1.03.26-.26.52-.53.77-.8.26-.27.51-.54.77-.82.26-.28.51-.56.76-.84.09-.09.17-.19.25-.28.25-.29.51-.57.76-.87.08-.1.17-.2.25-.29.17-.2.34-.4.5-.59.17-.2.33-.4.5-.6.33-.41.66-.82.99-1.24.16-.21.33-.42.49-.63.08-.11.16-.21.24-.32.24-.32.49-.65.73-.97.16-.22.32-.44.48-.66.16-.22.32-.45.48-.67.48-.68.95-1.37,1.41-2.07.08-.12.15-.24.23-.35.15-.24.31-.48.46-.72,1.07-1.69,2.1-3.45,3.08-5.31.14-.27.28-.53.42-.8,1.32-2.55,2.55-5.27,3.67-8.16.14-.37.28-.72.4-1.06l.1-.29c.18-.52.35-1.01.48-1.47l.07-.25c.1-.33.18-.65.25-.95h0c.03-.12.05-.23.08-.35l.05-.22c.02-.11.04-.22.06-.33l.04-.22c.02-.11.04-.22.05-.32.02-.14.04-.28.06-.42l.02-.21c.01-.14.03-.28.04-.42v-.1s.02-.21.02-.21v-.21s.01-.1.01-.1v-.21s0-.1,0-.1c0-.14,0-.28,0-.42v-.11c0-.11,0-.21-.01-.32v-.22c-.02-.18-.03-.36-.04-.55l-.02-.23-.02-.23-.02-.23c-.01-.12-.02-.23-.03-.35l-.03-.25v-.04c1.24-.02,2.41-.05,3.48-.08,1.75-.05,3.25-.1,4.4-.14l1.24-9.73-11.58-1.8h0Z"/>
  <path class="cls-4" d="M143.54,145.57l.89-10.34-7.56,3.7-14.92-10.92s-7.19,6.62-6.37,19.52c.02,6.28,2.78,13.38,6.86,20.37,1.83,3.17,4.23,6.93,6.73,10.85h0c.13-.11.26-.21.39-.31,6.28-5.08,11.02-9.87,14.59-14.3.27-.34.54-.68.8-1.01,4.37-5.64,6.81-10.69,8.08-15.02-5.76-2.78-9.49-2.54-9.49-2.54h0Z"/>
  <path class="cls-3" d="M144.41,117.39l-5.15-3.25-4.28-7.26c.49-.99.7-2,.49-2.98-.85-3.97-5.02-10.94-10.2-14.35-1.1,1.88-2.66,3.6-4.01,4.72-.92.76-1.73,1.5-2.84,1.97-1.2.5-3.36,1.64-3.4,1.66.62.64.74,1,1.17,1.47.82.89,2.64,2.54,2.41,3.93-.09.55-.52.77-.31,1.41.16.48.63.95,1.01,1.27.47.4,1.12.57,1.48,1.09.02.04-.01.14-.08.28-.53-.27-.96-.32-.96-.32,0,0-4.75-.9-5.36,1.43-.61,2.32,2.74,3.55,3.75,3.95.9.36,3.48,2.15,4.21-.24.37.2.86.48,1.51,1.03-.11-.09-.27-.11-.45-.08.13.03.27.05.41.07.09.19.18.38.27.56h0c1.69,3.7,2.34,7.51,2.54,10.63.96.01,2.37.16,4.41.63l16.02-1.95-1.51-4.97-1.14-.72h0Z"/>
  <path class="cls-3" d="M226.25,68.52c.97-.52,1.94-1.01,2.73-1.81,1.05-1.06,2.43-3,1.93-4.56-.27-.84-.58-1.68-1.23-1.75.05-.39.07-.86.02-1.25-.09-.84-.5-1.2-1.29-1.26-.16-.01-.35-.02-.54-.02.43-.46.83-.99,1.23-1.42,1.05-1.12,2.11-2.2,3.02-3.44.37-.5,2.25-2.97.61-2.99-.47,0-.97.46-1.38.88-.83.86-1.99,1.5-2.94,2.25-1.01.79-1.99,1.61-2.98,2.42-1.26,1.04-2.53,1.77-3.4,3.2-1.7,2.83-3.03,5.97-5.16,8.52l5.11,4.58c1.26-1.31,2.65-2.47,4.25-3.33h0Z"/>
  <polygon class="cls-18" points="221.19 75.95 223.23 72.95 221.99 71.85 216.88 67.27 215.52 66.06 213.55 68.02 213.93 68.42 220.71 75.45 221.19 75.95 221.19 75.95"/>
  <path class="cls-4" d="M166.98,133.56c9.75-6.04,19.58-15.69,26.46-23.68,9.97-9.43,22.93-28.03,27.28-34.42l-6.78-7.03c-5.57,5.6-25,25.03-32.2,30.91-.09.07-.17.15-.26.23-.38.2-.75.45-1.11.73-13.09,10.26-23.37,11.19-32.57,17-.29.18-.57.37-.84.56,4.53,1.13,12.47,4.68,20.03,15.7h0Z"/>
  <path class="cls-14" d="M194.85,185.78l.55.09c4.89-7.66,10.18-15.06,15.83-22.16-7.26,1.91-17.76,9.8-28.03,20.81l11.58,1.8.07-.54h0Z"/>
  <path class="cls-2" d="M185.97,201.87c1.03-1.91,2.09-3.8,3.17-5.68-1.07.03-2.24.05-3.49.08.01.1.02.2.03.29.01.12.02.24.03.35l.02.23.02.23.02.23c.01.19.02.37.03.55v.22c.01.11.02.21.02.32v.11c0,.14,0,.28,0,.42v.1s0,.21,0,.21v.1s-.01.21-.01.21v.21s-.02.1-.02.1c-.01.14-.02.28-.04.42l-.02.21c-.02.14-.03.28-.06.42-.02.11-.03.21-.05.32l-.04.22c-.02.11-.04.22-.06.33l-.05.22c-.02.11-.05.22-.08.34l.15.03c.14-.26.28-.53.42-.79h0Z"/>
  <path class="cls-19" d="M204.29,400.18c-3.72-1.68-8.07-4.06-12.58-6.88-8.52,10.35-16.48,19.62-22.37,26.36,8.39-1.11,24.4-5.11,34.95-19.48h0Z"/>
  <path class="cls-19" d="M167.71,374.16c-5.39,8.74-9.37,21.69-5.53,39.71,4-8.03,9.46-18.79,15.68-30.44-3.71-2.99-7.19-6.13-10.15-9.27h0Z"/>
  <path class="cls-20" d="M296.61,353.18c-.25.21-.5.42-.74.62-5.63,4.68-12.17,9.77-19.09,14.8,5.01,7.5,13.78,31.51-38.43,71.56h0c74.16-44.43,69.9-72.77,58.26-86.98h0Z"/>
  <path class="cls-9" d="M238.35,440.17h0c.36.36,1.02.96,1.64,1.51l.12.11.12.1.17.15.11.1.11.09c.12.11.24.21.34.29l.08.07.08.07.1.09.03.03.15.12c51.94-28.33,78.95-50.61,91.51-67.86.08-.11.16-.22.24-.33.62-.87,1.21-1.72,1.76-2.56.07-.11.14-.21.2-.31.34-.52.67-1.04.98-1.56.12-.2.25-.41.37-.61.36-.61.7-1.21,1.03-1.81l.16-.3c1.01-1.88,1.83-3.7,2.49-5.44l.1-.28c.34-.92.63-1.81.88-2.69.07-.26.14-.53.21-.79.22-.87.4-1.72.54-2.55l.04-.25c.11-.66.19-1.31.24-1.95.01-.16.03-.32.04-.48.03-.4.05-.79.06-1.17,0-.31,0-.62,0-.92,0-.3-.01-.6-.03-.9,0-.15-.01-.3-.03-.44-.03-.44-.07-.88-.12-1.31-.02-.14-.03-.29-.05-.43-.04-.28-.08-.56-.13-.84-.05-.28-.1-.55-.16-.83-.07-.34-.15-.68-.24-1.01-.04-.13-.07-.27-.11-.4-.06-.2-.12-.39-.18-.59-.06-.19-.12-.39-.19-.58-.04-.13-.09-.25-.13-.38l-.07-.19c-.12-.31-.24-.63-.37-.93-.05-.12-.1-.24-.16-.37-.08-.18-.16-.36-.25-.54l-.08-.18c-.06-.12-.11-.24-.17-.35-.09-.18-.18-.35-.27-.52-.06-.11-.12-.23-.19-.34l-.09-.17c-.16-.28-.32-.56-.49-.84-.1-.16-.2-.33-.31-.49-.14-.22-.28-.43-.42-.64l-.11-.16c-.14-.21-.29-.42-.44-.62-.15-.2-.3-.41-.46-.6-.23-.3-.47-.59-.71-.88-.12-.14-.24-.29-.37-.43-.12-.14-.25-.28-.37-.42-.13-.14-.25-.27-.38-.41-.08-.09-.17-.18-.26-.27l-.13-.13c-.09-.09-.17-.18-.26-.26-.13-.13-.26-.26-.39-.39-.13-.13-.26-.26-.4-.38-.09-.08-.18-.17-.27-.25-.09-.08-.18-.17-.27-.25-.27-.24-.54-.48-.82-.72-.09-.08-.18-.15-.27-.23l-.14-.11c-.09-.08-.18-.15-.28-.23-.28-.22-.55-.44-.83-.66-.09-.07-.19-.14-.28-.21-.56-.42-1.12-.82-1.67-1.2-.09-.06-.19-.13-.28-.19l-.14-.09c-.19-.12-.37-.25-.56-.36-.18-.12-.37-.24-.55-.35l-.27-.17c-.14-.08-.27-.17-.41-.25-.18-.11-.36-.22-.54-.32-.67-.39-1.33-.76-1.96-1.09-8.49,9.73-17.73,18.78-27.59,27.05,11.64,14.21,15.9,42.56-58.26,86.98h0Z"/>
  <path class="cls-9" d="M163.28,260.23c.12-.48.24-.96.36-1.44,2.09-8.24,4.63-16.36,7.56-24.31-1.47-.28-2.9-.59-4.27-.92l-.11.12c-.34.35-.69.69-1.03,1.03-.17.17-.35.34-.52.5-.09.08-.17.17-.26.25-.26.25-.52.49-.78.73-.35.32-.69.64-1.04.95-.35.31-.69.61-1.04.91-.09.07-.17.15-.26.22-.35.3-.69.59-1.04.87-.09.07-.17.14-.26.21-.26.21-.52.42-.78.63-.43.34-.86.68-1.29,1-.09.06-.17.13-.26.2-.34.26-.69.51-1.03.76-.17.12-.34.25-.51.37-.09.06-.17.12-.26.18-.34.24-.68.48-1.02.71-.34.23-.67.46-1.01.68-.17.11-.33.22-.5.33-.17.11-.33.22-.5.32-.16.11-.33.21-.49.31-.33.21-.66.41-.98.61-.16.1-.32.2-.49.29-.4.24-.8.47-1.2.7-.24.14-.47.27-.71.4-.31.17-.62.35-.93.51-.31.17-.61.33-.91.49-.38.2-.75.39-1.12.57l-.22.11c-.15.07-.29.14-.43.22l-.22.11c-.14.07-.29.14-.43.21-2.19,1.05-4.16,1.86-5.82,2.48-.11.04-.21.08-.32.12-.1.04-.21.08-.31.11-1.11.4-2.06.71-2.81.93l-.2.06-.19.06c-.21.06-.41.12-.58.16l-.14.04-.07.02-.12.03c-.4.1-.61.15-.61.15,0,0,8.45-16.34,9.21-35.9-1.17.41-2.34.92-3.5,1.57-.13.07-.25.14-.37.21-.24.14-.48.29-.72.44l-.06.04c-1.1.7-2.19,1.53-3.26,2.5l-.18.16c-.12.11-.24.22-.36.33l-.18.17c-.47.46-.94.95-1.4,1.47l-.17.19c-.09.1-.17.2-.26.3-.14.17-.29.34-.43.51-.11.14-.23.28-.34.42-.43.54-.86,1.11-1.28,1.71l-.13.18c-.09.13-.18.26-.27.39l-.16.24c-.47.7-.93,1.44-1.37,2.22-.06.11-.13.22-.19.33-.13.22-.25.45-.38.67-.07.12-.13.24-.19.36-.39.73-.78,1.49-1.15,2.29-.19.4-.38.81-.56,1.23-.05.11-.1.23-.15.34l-.14.33c-.19.44-.38.89-.57,1.35-.05.12-.1.24-.14.36-.07.17-.13.34-.2.51-.12.3-.24.61-.35.93-.08.22-.17.45-.25.67l-.02.07c-.12.34-.25.69-.37,1.05-.05.16-.11.32-.16.47-.12.35-.23.7-.35,1.06l-.04.12c-.07.22-.14.45-.21.67l-.04.14c-.08.25-.15.49-.23.74-.17.58-.34,1.16-.51,1.76-.05.17-.1.35-.14.52-.04.16-.09.33-.13.49-.06.21-.11.42-.17.63-.08.29-.15.59-.23.89-.1.41-.2.82-.3,1.23l-.06.25c-.05.22-.1.44-.15.66-.13.56-.25,1.13-.38,1.7-.06.27-.12.54-.17.82-.11.54-.22,1.09-.33,1.65-.04.22-.08.44-.13.66-.02.12-.04.23-.07.35-.04.22-.08.44-.12.66-.05.29-.11.59-.16.89-.04.22-.08.44-.11.66-.07.42-.14.83-.21,1.26-.07.43-.14.86-.2,1.29-.03.22-.07.44-.1.66-.12.81-.24,1.63-.35,2.46-.09.65-.17,1.31-.25,1.98-.07.61-.15,1.22-.22,1.84-.1.88-.2,1.78-.29,2.7-.03.3-.06.61-.09.91-.02.22-.04.44-.06.66-.08.83-.15,1.67-.22,2.52-.04.43-.07.87-.1,1.31-.07.91-.13,1.83-.19,2.77-.01.19-.02.37-.04.55-.08,1.36-.16,2.76-.22,4.18-.01.22-.02.44-.03.66-.84,19.06-.01,43.22,3.14,73.7.05.02.16.05.3.09.1.03.22.07.36.11l.25.07.13.04.21.06.22.06.15.04.08.02.15.04c.23.06.46.13.69.19l.15.04c.47.13.91.24,1.21.3h0c-5.83-90.31,20.76-100.91,38.77-98.2h0Z"/>
  <path class="cls-11" d="M172.69,242.39c-1.02,3.31-1.98,6.63-2.82,10-.82,3.37-1.58,6.76-2.2,10.13-.65,3.37-1.19,6.78-1.66,10.19-.91,6.83-1.48,13.74-1.54,20.66-.03,6.92.36,13.86,1.6,20.69,3.06-13.4,6.24-26.27,9.92-39.04,1.84-6.36,3.7-12.76,5.7-18.97,1.02-3.11,2.01-6.23,3.14-9.29,1.06-3.09,2.18-6.16,3.37-9.2.12-.31.24-.62.35-.92-4.59-.31-9.12-.8-13.4-1.47-.87,2.39-1.69,4.8-2.47,7.22h0Z"/>
  <path class="cls-11" d="M207.4,186.34c.68.05,3.13-.31,3.2.54.05.69-1.42,1.43-2.52,1.62.13.05.25.09.37.11.5.09,1.01.12,1.53.19.2.03.39.05.58.07.86-1.63,1.73-3.25,2.61-4.88,3.14-5.89,6.45-11.7,9.66-17.75-5.36,4.17-10.24,8.9-14.83,13.91-1.82,2-3.59,4.05-5.3,6.16.17-.04.35-.06.52-.08,1.38-.09,2.81,0,4.18.1h0Z"/>
  <path class="cls-11" d="M200.46,195.72c-1.07-.55-2.18-.9-3.31-1.1l-.11,1.99-2.11.07c-1.58,2.3-3.1,4.64-4.57,7.02,3.86.9,7.61,1.91,11.16,3,.82-1.7,1.65-3.39,2.49-5.08.7-1.42,1.42-2.84,2.14-4.25-.76-.13-1.53-.33-2.21-.44-1.24-.2-2.36-.63-3.48-1.2h0Z"/>
  <path class="cls-5" d="M373.53,196.87l-.15.1c-.08.06-.17.11-.25.17-.71.47-1.43.94-2.15,1.39-1.58,6.72-3.46,13.36-5.62,19.87.22-.09.44-.18.65-.27l.13-.06c.14-.06.28-.12.42-.18,3.4-1.47,6.74-3.16,10.01-5.08,1.37-.8,2.71-1.63,4.03-2.49h0s0,0,0,0c1.39-7.21,2.47-14.5,3.24-21.81-3.16,3.04-6.6,5.84-10.32,8.36h0Z"/>
  <path class="cls-5" d="M187.47,365.86c3.17-5.64,6.43-11.27,9.7-16.71-14.56-10.6-31.79-25.78-41.84-39.94v.21s-.03.23-.03.23c-.01.21-.02.41-.04.62v.12c-.28,5.04-.36,10.08-.22,15.1v.06c0,.24.02.47.02.71v.1c0,.22.02.43.03.65v.18c.01.19.02.38.03.56v.26c.02.15.03.31.03.46,0,.13.01.26.02.39,0,.11.01.22.02.33,0,.16.02.33.03.49v.26c.02.19.04.38.05.57v.16c.02.22.04.45.05.67v.06c.12,1.84.27,3.67.46,5.5,8.46,9.82,19.7,19.83,31.69,28.96h0Z"/>
  <path class="cls-5" d="M369.56,223.8l-.03.02c-.16.07-.33.14-.49.21l-.2.08c-.11.05-.21.09-.32.14-.1.04-.19.08-.29.12l-.2.08-.38.16-.08.03c-.99.41-1.99.8-2.99,1.18l-.09.03c-.14.05-.27.1-.41.15l-.16.06c-.12.04-.24.08-.35.13-.11.04-.22.08-.33.12l-.18.07c-.2.07-.4.14-.6.21-1.04,2.81-2.14,5.58-3.3,8.33-13.79,32.84-35.21,61.75-61.73,84.17-22.47,19-60.72,44.82-75.97,43.8-1.08-.07-2.69-.61-4.71-1.53-4.02,5.45-8.25,10.98-12.52,16.41,10.57,7,21,12.98,29.98,17.26,12.9-6.16,28.54-16.19,42.58-26.41,6.92-5.04,13.45-10.12,19.09-14.8.25-.21.5-.41.74-.62,9.87-8.27,19.1-17.32,27.59-27.05,15.99-18.32,29.35-39.02,39.33-61.37,6.53-14.62,11.6-29.9,15.2-45.56-3.01,1.71-6.07,3.24-9.17,4.6h0Z"/>
  <path class="cls-1" d="M177.85,383.43c3.05-5.72,6.28-11.65,9.61-17.57-11.99-9.13-23.23-19.14-31.69-28.96h0c-.4-.47-.8-.93-1.19-1.4.69,8.62,2.1,17.13,4.42,25.36.53,1.88,1.49,3.87,2.79,5.91,1.54,2.41,3.56,4.9,5.9,7.39,2.95,3.14,6.43,6.28,10.15,9.27h0Z"/>
  <path class="cls-1" d="M204.22,377.76c-4.19,5.32-8.41,10.55-12.51,15.53,4.51,2.83,8.86,5.2,12.58,6.88,3.63,1.64,6.66,2.61,8.67,2.71h.14c5.33.19,13.31-2.62,22.48-7.2-.46-.21-.92-.43-1.39-.65-8.97-4.28-19.4-10.26-29.98-17.26h0Z"/>
  <path class="cls-9" d="M378.71,103c-.09-.37-.18-.74-.28-1.11-.03-.13-.07-.25-.1-.38-.03-.11-.05-.22-.08-.33-.13-.5-.26-1-.39-1.5-1.27-4.68-2.73-8.96-4.38-12.39v-.03c-.07-.11-.12-.23-.18-.34l-.03-.06c-.05-.1-.1-.2-.15-.3l-.04-.07c-.05-.1-.1-.19-.15-.28l-.02-.03c-.08-.16-.17-.31-.25-.46l-.11-.2-.09-.15-.11-.19v-.02c-.23-.37-.44-.72-.65-1.05l-.02-.04-.13-.19c-.17-.25-.34-.5-.51-.73,2.74,11.62,4.48,24.27,5.22,31.58,1.62,15.83,1.76,31.72.46,47.41-.58,7.01-1.46,13.98-2.61,20.87-.49,2.85-1.02,5.67-1.59,8.47-.48,2.37-1.01,4.71-1.57,7.05.73-.45,1.45-.92,2.15-1.39.08-.06.17-.11.25-.17l.15-.1c3.72-2.52,7.17-5.32,10.32-8.36,1.73-16.37,1.92-32.94.53-49.39-.07-.8-.14-1.67-.23-2.59-.06-.69-.14-1.41-.22-2.15-.02-.17-.04-.34-.06-.51-.02-.14-.03-.28-.04-.42-.05-.46-.1-.92-.15-1.39-.06-.53-.13-1.08-.19-1.63-.09-.83-.2-1.68-.31-2.54-.11-.87-.23-1.75-.36-2.65h0s0,0,0,0c-.02-.14-.04-.29-.06-.43-.1-.76-.21-1.53-.33-2.31-.03-.25-.07-.5-.11-.74l-.03-.19c-.05-.36-.11-.71-.16-1.07-.23-1.52-.49-3.07-.76-4.63-.24-1.39-.5-2.79-.77-4.19-.03-.15-.06-.3-.09-.45l-.05-.26c-.05-.28-.11-.55-.16-.83l-.03-.13c-.06-.28-.11-.55-.17-.83l-.04-.2c-.04-.18-.07-.36-.11-.54-.02-.1-.04-.2-.06-.31-.2-.96-.41-1.92-.63-2.87-.12-.55-.26-1.11-.39-1.66l-.06-.23c-.03-.12-.06-.24-.08-.36h0Z"/>
  <path class="cls-9" d="M376.57,212.82c-3.27,1.91-6.61,3.61-10.01,5.08-.14.06-.28.12-.42.18l-.13.06c-.22.09-.43.18-.65.27h0c-.91,2.76-1.87,5.49-2.89,8.19h0c.2-.07.4-.14.6-.21l.18-.07c.11-.04.22-.08.33-.12.12-.04.23-.08.35-.13l.16-.06c.14-.05.27-.1.41-.15l.09-.03c1-.38,2-.77,2.99-1.18l.08-.03.38-.16.2-.08c.1-.04.19-.08.29-.12.11-.05.21-.09.32-.14l.2-.08c.16-.07.33-.14.49-.21l.03-.02c3.1-1.36,6.17-2.89,9.17-4.6.67-2.94,1.29-5.89,1.87-8.87h0c-1.32.86-2.66,1.69-4.03,2.49h0Z"/>
  <path class="cls-9" d="M225.23,327.85h0c-4.56-3.2-13.14-2.06-18.6,6.2-3.13,4.74-6.31,9.82-9.47,15.09-3.27,5.44-6.53,11.08-9.7,16.71-3.33,5.93-6.56,11.86-9.61,17.57-6.22,11.65-11.68,22.41-15.68,30.44-4.3,8.65-6.9,14.13-6.9,14.13l4.12,2.89s3.87-4.27,9.95-11.24c5.89-6.74,13.85-16.01,22.37-26.36,4.1-4.98,8.32-10.21,12.51-15.53,4.27-5.43,8.51-10.96,12.52-16.41,3.38-4.58,6.6-9.12,9.56-13.5,5.55-8.2,3.49-16.8-1.08-20h0Z"/>
  <path class="cls-20" d="M208.9,351.89h0c-3.22-2.26-9.4-1.26-13.48,4.91-18.02,27.27-38.63,69.86-38.63,69.86l2.9,2.04s31.31-35.08,49.61-62.16c4.14-6.12,2.81-12.39-.41-14.65h0Z"/>
  <path class="cls-13" d="M222.3,281.15c.13.28.27.55.41.83l.03.06c.07.13.13.26.2.39v.02c.09.14.16.28.24.42l.02.04c.07.12.14.25.21.37l.03.06c.15.27.31.54.47.81l.04.07c.16.27.33.53.49.8l.05.07c.08.12.15.24.23.35l.03.05c.09.13.18.27.27.4l.02.04c.08.12.16.24.24.35l.05.08c.18.26.36.52.55.77l.06.08c.08.11.17.22.25.34l.04.05c.1.13.19.25.29.38l.05.06c.08.11.17.21.25.32l.07.09c.1.12.2.25.3.37l.02.02c.09.12.19.23.28.35l.08.09c.09.11.19.22.28.34l.02.03c.1.12.21.24.32.36l.07.08c.09.1.18.2.26.3l.07.07c.11.12.21.24.32.36l.06.07c.09.1.19.2.28.3l.08.09c.22.24.45.47.68.7l.09.09c.09.09.19.19.29.29l.06.06c.12.11.23.23.35.34l.08.08c.09.09.19.18.28.27l.1.09c.12.11.24.22.36.33l.03.03c.11.1.22.2.34.3l.1.09c.11.09.21.19.32.28l.06.05c.12.11.25.22.38.32l.09.08c.11.09.21.18.32.26l.08.07c.13.11.26.21.39.32l.07.06c.11.09.22.17.33.26l.12.09c.13.1.26.2.4.3.74.56,1.49,1.1,2.25,1.6.22.15.43.29.65.42.33.21.65.41.98.61.22.13.44.26.66.39.11.06.22.12.33.19.33.19.66.37.99.54.11.06.22.12.33.17.22.12.44.23.66.34.44.22.89.43,1.33.63l.33.15c.22.1.44.19.67.28.55.23,1.11.45,1.66.65.55.2,1.11.38,1.66.55.22.07.44.13.66.19.22.06.44.12.66.18.22.06.44.11.66.17.11.03.22.05.33.08.22.05.44.1.65.14.43.09.87.17,1.3.24.22.04.43.07.64.1.32.05.64.09.96.12.11.01.21.02.32.03.21.02.42.04.63.05.74.05,1.47.08,2.18.07.21,0,.41,0,.61-.01,2.23-.07,4.35-.44,6.29-1.12.35-.12.7-.25,1.04-.4.09-.04.17-.07.25-.11.25-.11.5-.23.75-.35.08-.04.16-.08.24-.12,2.35-1.21,4.35-2.95,5.85-5.21l.04-.07.11-.18.07-.11.09-.14.07-.11.08-.13.07-.12.08-.14.06-.12.07-.14.06-.12.07-.13.07-.13.07-.13.06-.12.07-.14.05-.12.06-.15.05-.12.06-.15.05-.12.07-.16.04-.11.07-.17.04-.11.07-.19.06-.16.07-.2.03-.1.06-.17.04-.12.05-.16.03-.12.05-.17.03-.12.04-.16.04-.13.04-.15.03-.13.04-.16.03-.13.03-.16.03-.12.03-.17.02-.13.03-.17.02-.12.03-.18.02-.11.03-.19.02-.1c.03-.2.05-.4.07-.6v-.08s.03-.22.03-.22v-.11s.02-.2.02-.2v-.12s.02-.18.02-.18v-.13s.02-.18.02-.18v-.12s0-.18,0-.18v-.13s0-.18,0-.18v-.12s0-.19,0-.19v-.12s0-.19,0-.19v-.12s0-.21,0-.21v-.1s-.01-.23-.01-.23v-.08s-.02-.25-.02-.25v-.07c-.02-.21-.03-.42-.05-.63v-.06s-.03-.26-.03-.26v-.08s-.03-.23-.03-.23v-.11s-.04-.22-.04-.22v-.1s-.04-.21-.04-.21l-.02-.12-.03-.21-.02-.1-.04-.22-.02-.11-.04-.21-.02-.11-.04-.22-.02-.11-.04-.22-.02-.1-.05-.25-.02-.08c-.02-.09-.04-.19-.06-.28v-.04c-.06-.22-.12-.44-.17-.66v-.02c-.03-.1-.06-.2-.09-.31l-.02-.06c-.03-.09-.05-.18-.08-.27l-.02-.08-.07-.24-.03-.1-.07-.22-.03-.11-.07-.22-.03-.1-.07-.22-.03-.1-.08-.22-.04-.11-.08-.22-.04-.1-.09-.24-.03-.09c-.03-.09-.07-.17-.1-.26l-.02-.07c-.04-.1-.08-.21-.12-.31h0c.05,3.69-.83,7.15-2.76,10.07-6.61,9.99-22.97,9.72-36.54-.59-3.65-2.77-6.72-5.99-9.14-9.4-.42,1.44-.82,2.83-1.21,4.15l.02.05.02.05h0Z"/>
  <path class="cls-10" d="M209.73,294.59c-.5-.08-.94-.19-1.33-.3-.16-.04-.32-.08-.47-.12l-.43,3.19c3.31,3.29,7.2.66,7.2.66l.82-3.15c-2.06.16-3.82.04-5.23-.18-.19-.03-.39-.07-.57-.1h0Z"/>
  <path class="cls-14" d="M179.14,235.73c.08-.16.17-.32.25-.49,4.73-9.76,8.32-21.43,6.83-32.44-.27-.06-.55-.11-.82-.17-.07.31-.16.62-.25.95l-.07.25c-.14.46-.3.95-.48,1.47l-.1.29c-.12.34-.26.69-.4,1.06-1.12,2.89-2.36,5.61-3.67,8.16-.14.27-.28.54-.42.8-.99,1.86-2.01,3.62-3.08,5.31-.15.24-.31.48-.46.72-.08.12-.15.24-.23.35-.46.71-.93,1.4-1.41,2.07-.16.23-.32.45-.48.67-.16.22-.32.44-.48.66-.24.33-.48.65-.73.97-.08.11-.16.21-.24.32-.16.21-.33.42-.49.63-.33.42-.66.83-.99,1.24-.17.2-.33.4-.5.6-.17.2-.33.4-.5.59-.08.1-.17.2-.25.29-.25.29-.51.58-.76.87-.08.09-.17.19-.25.28-.25.28-.51.56-.76.84-.26.28-.51.55-.77.82-.22.23-.44.46-.66.68,3.74.9,7.87,1.62,12.2,2.17h0Z"/>
  <path class="cls-22" d="M207.51,297.37h0s-5.05,6.5-3.75,13.07c0,0,5.15.72,28.72-1.68,1.14-.12,2.05-4.28-1.95-3.69-3.99.6-14.6-4.92-15.82-7.04,0,0-3.89,2.63-7.2-.66h0Z"/>
  <path class="cls-6" d="M142.17,212.62s.44.06,1.22.13c-.08-3.01-.36-6.07-.89-9.14l-.32,9.01h0Z"/>
  <path class="cls-18" d="M148.01,129.05c.15.99.29,1.88.39,2.5,1.77.83,3.45,1.75,5.04,2.76-.61-2.14-1.35-3.29-1.35-3.29l-4.07-1.97h0Z"/>
  <path class="cls-18" d="M181.67,180.47h0c-3.64-28.48-18.03-46.41-27.51-55.39.33.76.4,1.25.4,1.25-.3-.39-.62-.73-.97-1.03l1.35,4.05c2.55,3.33,4.23,6.68,5.19,10.02,17.49,15.7,21.47,40.69,21.54,41.1h0Z"/>
  <path class="cls-23" d="M134.74,117.56c2.04.16,5.45-.1,7.18-1.74l-2.66-1.68-4.28-7.26c-1.81,3.61-7.51,6.8-11.18,6.32.09.19.18.38.27.56h0c3.22,2.05,6.83,3.49,10.66,3.8h0Z"/>
  <path class="cls-18" d="M147.06,123.08l-16.02,1.95c3.56.82,9,2.64,17.2,6.45l.17.08c-.1-.62-.23-1.52-.39-2.5-.39-2.51-.87-5.59-.95-5.97h0Z"/>
  <path class="cls-18" d="M153.59,125.3c.35.3.68.64.97,1.03,0,0-.07-.49-.4-1.25-.75-1.74-2.86-4.9-8.61-6.97l1.51,4.97s3.87-.07,6.53,2.23h0Z"/>
  <path class="cls-13" d="M142.53,159.29c.5,1.57,1.03,3.18,1.62,4.85.27-.34.54-.68.8-1.01-.83-1.26-1.62-2.55-2.42-3.83h0Z"/>
  <path class="cls-13" d="M123.38,169.5c1.68,2.8,3.7,5.97,5.79,9.25.13-.11.26-.21.39-.31-2.21-2.9-4.31-5.91-6.17-8.95h0Z"/>
  <path class="cls-15" d="M143.65,192.74c-1.22-.19-2.38-.76-3.36-1.79-1.51-1.58-3.06-3.27-4.61-5.03-.45.36-.9.71-1.34,1.06,1.51,2.47,2.94,4.88,4.17,7.14l.03.05.12.23.03.06.12.22.03.06.12.22.03.05c.04.08.09.16.13.24l.02.03.12.24.02.05.11.22.03.06.12.23.02.04c.23.45.45.9.66,1.33l.04.08.09.18.04.08.09.18.03.06.08.18.05.1.07.15.04.09.07.15.04.09.07.17.03.07.07.16.04.08.07.16.04.08.07.16.03.08.06.16.03.08.06.16.03.07c.06.15.12.31.18.46v.02s.08.2.08.2l.02.06.06.17.02.07.05.14.03.09.04.12.03.09.04.12.03.1.03.11.03.1.03.11.03.09.03.12.02.08.03.12.02.08.03.12.02.08.03.12.02.07.03.13v.06s.04.13.04.13v.05s.04.18.04.18c.54,3.07.82,6.13.89,9.14.04,1.53.03,3.05-.03,4.56-.76,19.56-9.21,35.9-9.21,35.9,0,0,.21-.05.61-.15l.12-.03.07-.02.14-.04c.17-.05.37-.1.58-.16l.19-.06.2-.06c.75-.22,1.7-.53,2.81-.93.1-.04.2-.07.31-.11.1-.04.21-.08.32-.12,1.65-.62,3.63-1.43,5.82-2.48.14-.07.28-.14.43-.21l.22-.11c.14-.07.29-.14.43-.22l.22-.11c.37-.18.74-.38,1.12-.57.3-.16.61-.32.91-.49.31-.17.62-.34.93-.51.23-.13.47-.27.71-.4.4-.23.8-.46,1.2-.7.16-.1.32-.19.49-.29.33-.2.65-.4.98-.61.16-.1.33-.21.49-.31.17-.11.33-.21.5-.32.17-.11.33-.22.5-.33.33-.22.67-.45,1.01-.68.34-.23.68-.47,1.02-.71.08-.06.17-.12.26-.18.17-.12.34-.24.51-.37.34-.25.69-.5,1.03-.76.09-.07.17-.13.26-.2.43-.33.86-.66,1.29-1,.26-.21.52-.41.78-.63.09-.07.17-.14.26-.21.35-.28.69-.58,1.04-.87.09-.07.17-.15.26-.22.35-.3.69-.6,1.04-.91.35-.31.69-.63,1.04-.95.26-.24.52-.49.78-.73.09-.08.17-.17.26-.25.17-.17.35-.33.52-.5.35-.34.69-.68,1.03-1.03.26-.26.52-.53.77-.8.26-.27.51-.54.77-.82.26-.28.51-.56.76-.84.09-.09.17-.19.25-.28.25-.29.51-.57.76-.87.08-.1.17-.2.25-.29.17-.2.34-.4.5-.59.17-.2.33-.4.5-.6.33-.41.66-.82.99-1.24.16-.21.33-.42.49-.63.08-.11.16-.21.24-.32.24-.32.49-.65.73-.97.16-.22.32-.44.48-.66.16-.22.32-.45.48-.67.48-.68.95-1.37,1.41-2.07.08-.12.15-.24.23-.35.15-.24.31-.48.46-.72,1.07-1.69,2.1-3.45,3.08-5.31.14-.27.28-.53.42-.8,1.32-2.55,2.55-5.27,3.67-8.16.14-.37.28-.72.4-1.06l.1-.29c.18-.52.35-1.01.48-1.47l.07-.25c.1-.33.18-.65.25-.95h0c.03-.12.05-.23.08-.35l.05-.22c.02-.11.04-.22.06-.33l.04-.22c.02-.11.04-.22.05-.32.02-.14.04-.28.06-.42l.02-.21c.01-.14.03-.28.04-.42v-.1s.02-.21.02-.21v-.21s.01-.1.01-.1v-.21s0-.1,0-.1c0-.14,0-.28,0-.42v-.11c0-.11,0-.21-.01-.32v-.22c-.02-.18-.03-.36-.04-.55l-.02-.23-.02-.23-.02-.23c-.01-.12-.02-.23-.03-.35,0-.1-.02-.19-.03-.29-12.62.22-33.18-.03-42.01-3.52h0Z"/>
  <path class="cls-17" d="M183.11,184.5c-.46-1.34-.95-2.69-1.45-4.03-.15.03-.3.06-.45.09-3.31.61-6.47.7-9.81.24-2.77-.39-5.57-.99-8.29-1.68-2.51-.63-4.99-1.44-7.25-2.73-2.16-1.23-3.87-2.94-5.36-4.85-.69.84-1.39,1.67-2.12,2.48.92,1.79,1.98,3.65,3.19,5.57l31.54,4.9h0Z"/>
  <path class="cls-14" d="M162.48,203.19l-2.52-2.19c-6.75,7.75-12.47,6.61-12.71,6.55l-.38,1.63-.4,1.62c.2.05,3.15.72,7.31-1,2.56-1.06,5.58-3.03,8.69-6.61h0Z"/>
  <path class="cls-7" d="M136.87,138.93l7.56-3.7-.89,10.34s3.73-.24,9.49,2.54c1.82-6.18,1.23-10.9.41-13.8-1.59-1-3.27-1.93-5.04-2.76l-.17-.08c-8.2-3.81-13.64-5.62-17.2-6.45-2.04-.47-3.46-.62-4.41-.63-1.31-.02-1.76.22-1.76.22,0,0-2.41,1.52-2.91,3.41l14.92,10.92h0Z"/>
  <path class="cls-22" d="M123.85,113.2c-.66-.54-1.14-.83-1.51-1.03-.73,2.39-3.3.59-4.21.24-1-.4-4.36-1.62-3.75-3.95.61-2.32,5.36-1.43,5.36-1.43,0,0,.44.05.96.32.06-.14.1-.24.08-.28-.36-.52-1.01-.69-1.48-1.09-.38-.32-.85-.79-1.01-1.27-.21-.64.22-.87.31-1.41.23-1.4-1.58-3.04-2.41-3.93-.44-.47-.55-.84-1.17-1.47.04-.02,2.2-1.16,3.4-1.66,1.1-.46,1.92-1.21,2.84-1.97,1.35-1.12,2.91-2.84,4.01-4.72.12-.2.23-.39.33-.59.89-1.69,1.36-3.46.97-5.02-.69-2.74-3.96-2.97-6.37-1.66-1.4.76-1.77,2.21-2.7,3.39-.91,1.15-2.77,1.84-4.09,2.34-2.45.92-5.29,1.77-7.29,3.66-1.47,1.39-2.51,3.31-2.94,5.31-.35,1.62-.02,3.68,1.53,4.44-.07.38,0,.8.19,1.22.36.8.87,1.55,1.43,2.22,1.17,1.41,2.44,2.73,3.81,3.93,1.12.98,2.38,2.19,3.73,2.8,1.57.71,3.22,1.24,4.88,1.68.83.22,1.68.47,2.53.6.47.07,1.46-.62,2.12-.73.19-.03.34-.02.45.08h0Z"/>
  <path class="cls-3" d="M197.15,194.62c1.14.2,2.25.55,3.31,1.1,1.12.58,2.23,1,3.48,1.2.68.11,1.45.31,2.21.44.89.15,1.78.2,2.57-.1.32-.12,1.12-.5.97-1.01l-.05-.09c.63-.33,1.08-1.43.75-1.97.49-.46.88-1.43.61-1.6,1.15.08,1.78-1.78,1.6-2.5.89.15,2.02-.9,2-1.75-1.62.45-2.66.66-4.04.54-.19-.02-.38-.04-.58-.07-.52-.08-1.03-.11-1.53-.19-.12-.02-.24-.06-.37-.11,1.1-.2,2.57-.93,2.52-1.62-.06-.85-2.52-.49-3.2-.54-1.37-.1-2.8-.19-4.18-.1-.17.01-.35.04-.52.08-.91.2-1.82.69-2.7.93-.81.22-1.64.4-2.48.48l-.37,6.89h0Z"/>
  <polygon class="cls-18" points="194.78 186.32 193.55 196.05 193.46 196.73 194.93 196.68 197.04 196.61 197.15 194.62 197.51 187.73 197.59 186.21 195.4 185.86 194.85 185.78 194.78 186.32 194.78 186.32"/>
  <path class="cls-21" d="M154.94,129.35l-1.35-4.05c-2.66-2.29-6.53-2.23-6.53-2.23.08.38.56,3.46.95,5.97l4.07,1.97s.74,1.14,1.35,3.29c.83,2.9,1.41,7.62-.41,13.8-1.27,4.33-3.72,9.38-8.08,15.02-.26.34-.53.67-.8,1.01-3.57,4.43-8.31,9.22-14.59,14.3-.13.1-.26.21-.39.31h0c-2.13,1.71-4.44,3.46-6.94,5.24l-3,9.8s3.43-.33,8.35-1.92c2.09-1.41,4.39-3.05,6.77-4.9.44-.34.89-.7,1.34-1.06,4.27-3.41,8.73-7.43,12.7-11.9.72-.81,1.43-1.64,2.12-2.48,4.68-5.74,8.42-12.1,9.92-18.77.99-4.37,1.01-8.88-.3-13.41-.96-3.34-2.64-6.69-5.19-10.02h0Z"/>
</svg>