<?xml version="1.0" encoding="UTF-8"?>
<svg id="Layer_1" data-name="Layer 1" xmlns="http://www.w3.org/2000/svg" viewBox="0 0 500 500">
  <defs>
    <style>
      .cls-1 {
        fill: #cccccb;
      }

      .cls-2 {
        fill: #c87b29;
      }

      .cls-3 {
        fill: #fff;
      }

      .cls-4 {
        fill: #7c8684;
      }

      .cls-5 {
        fill: #1c130a;
      }

      .cls-6 {
        fill: #677b35;
      }

      .cls-7 {
        fill: none;
      }

      .cls-8 {
        fill: #54622c;
      }

      .cls-9 {
        fill: #0c0a07;
      }

      .cls-10 {
        fill: #f2f4f3;
      }

      .cls-11 {
        fill: #4d3113;
      }

      .cls-12 {
        fill: #777677;
      }

      .cls-13 {
        fill: #252527;
      }

      .cls-14 {
        fill: #74481c;
      }

      .cls-15 {
        fill: #81c341;
      }

      .cls-16 {
        fill: #0a0a0b;
      }

      .cls-17 {
        fill: #527a38;
      }

      .cls-18 {
        fill: #f89824;
      }
    </style>
  </defs>
  <rect class="cls-7" x=".05" y=".05" width="499.95" height="499.95"/>
  <path class="cls-12" d="M331.23,386.63c-6.6,0-11.95-5.35-11.95-11.95s5.35-11.95,11.95-11.95,11.95,5.35,11.95,11.95-5.35,11.95-11.95,11.95M360.21,382.64c.57-2.1.92-4.25,1.04-6.44l-4.79-2.05c-.04-1.35-.18-2.72-.42-4.08l4.28-2.98c-.27-1.04-.61-2.09-1-3.12-.39-1.03-.83-2.02-1.33-2.98l-5.17.62c-.72-1.19-1.52-2.3-2.4-3.33l2.21-4.72c-1.55-1.56-3.24-2.94-5.06-4.12l-4.18,3.13c-1.19-.66-2.45-1.22-3.73-1.68l-.45-5.21c-2.09-.57-4.25-.92-6.43-1.02l-2.06,4.78c-1.35.03-2.71.18-4.07.43l-2.98-4.27c-1.04.27-2.09.59-3.12.99-1.02.39-2.02.84-2.98,1.32l.62,5.18c-1.18.72-2.3,1.52-3.33,2.4l-4.72-2.21c-1.56,1.54-2.93,3.23-4.12,5.05l3.13,4.18c-.66,1.2-1.22,2.45-1.68,3.73l-5.2.45c-.57,2.1-.92,4.25-1.04,6.44l4.79,2.05c.03,1.36.17,2.72.42,4.08l-4.28,2.98c.27,1.05.6,2.08,1,3.11.39,1.03.84,2.03,1.32,2.99l5.18-.62c.71,1.18,1.52,2.29,2.4,3.32l-2.21,4.72c1.55,1.56,3.23,2.94,5.05,4.11l4.18-3.12c1.2.66,2.44,1.22,3.74,1.68l.45,5.2c2.09.57,4.25.92,6.44,1.04l2.05-4.79c1.36-.03,2.72-.18,4.08-.43l2.99,4.28c1.04-.27,2.08-.6,3.11-.99,1.03-.39,2.02-.84,2.99-1.34l-.62-5.17c1.18-.72,2.3-1.52,3.33-2.4l4.72,2.21c1.56-1.54,2.94-3.24,4.11-5.06l-3.13-4.19c.66-1.19,1.22-2.44,1.68-3.73l5.2-.45"/>
  <path d="M331.23,383.93c-5.11,0-9.26-4.14-9.26-9.26s4.14-9.25,9.26-9.25,9.25,4.14,9.25,9.25-4.14,9.26-9.25,9.26h0ZM331.23,358.06c-9.18,0-16.62,7.44-16.62,16.62s7.44,16.62,16.62,16.62,16.62-7.44,16.62-16.62-7.44-16.62-16.62-16.62h0Z"/>
  <path class="cls-4" d="M331.23,382.62c-4.39,0-7.95-3.56-7.95-7.95s3.56-7.95,7.95-7.95,7.94,3.56,7.94,7.95-3.56,7.95-7.94,7.95h0ZM331.23,362.56c-6.69,0-12.12,5.43-12.12,12.12s5.43,12.12,12.12,12.12,12.12-5.43,12.12-12.12-5.43-12.12-12.12-12.12h0Z"/>
  <path class="cls-12" d="M314.04,292.7c3.64,12.74-3.73,26.02-16.47,29.66-12.9,3.69-26.34-3.92-29.79-16.94-3.24-12.23,4.04-25.32,16.13-29.04,12.88-3.97,26.43,3.44,30.13,16.32M252.92,289.19c-5.92,20.86,6.23,42.64,27.09,48.56,20.86,5.92,42.64-6.24,48.56-27.09,5.92-20.86-6.23-42.64-27.09-48.56-20.85-5.92-42.64,6.23-48.55,27.09"/>
  <path d="M279.55,339.38c-21.76-6.17-34.43-28.9-28.26-50.66,6.17-21.76,28.9-34.44,50.66-28.26,21.76,6.17,34.44,28.89,28.27,50.66-6.18,21.76-28.9,34.44-50.66,28.26M350.3,321.92c1.59-4.31,2.71-8.78,3.35-13.38l-9.7-5.18c.17-2.86.11-5.76-.17-8.66l9.55-5.51c-.39-2.25-.91-4.5-1.54-6.74-.64-2.23-1.39-4.4-2.27-6.52l-11,.38c-1.3-2.63-2.79-5.11-4.45-7.44l5.5-9.53c-2.97-3.57-6.29-6.77-9.91-9.59l-9.36,5.84c-2.4-1.6-4.93-3.01-7.56-4.2v-11.04c-4.31-1.58-8.78-2.7-13.37-3.31l-5.2,9.69c-2.85-.18-5.74-.11-8.64.17l-5.52-9.53c-2.23.38-4.5.87-6.74,1.52-2.23.64-4.41,1.4-6.51,2.25l.37,11.02c-2.62,1.3-5.11,2.79-7.43,4.45l-9.53-5.5c-3.56,2.95-6.76,6.28-9.58,9.9l5.83,9.36c-1.61,2.41-2.99,4.94-4.19,7.56h-11.03c-1.59,4.32-2.71,8.8-3.34,13.39l9.72,5.17c-.19,2.87-.13,5.75.15,8.67l-9.53,5.5c.38,2.25.89,4.49,1.53,6.72.65,2.24,1.4,4.43,2.26,6.53l11.02-.37c1.29,2.61,2.79,5.11,4.45,7.43l-5.49,9.54c2.97,3.56,6.27,6.77,9.89,9.56l9.37-5.82c2.41,1.61,4.91,3,7.56,4.19v11.03c4.31,1.57,8.78,2.71,13.38,3.34l5.17-9.71c2.86.19,5.75.13,8.66-.16l5.53,9.54c2.23-.38,4.48-.88,6.71-1.53,2.24-.64,4.4-1.4,6.52-2.27l-.38-11c2.62-1.3,5.11-2.79,7.43-4.45l9.54,5.5c3.56-2.96,6.78-6.29,9.56-9.91l-5.82-9.37c1.59-2.39,3.01-4.91,4.2-7.55h11.02"/>
  <path class="cls-1" d="M328.57,310.66c-5.91,20.85-27.7,33.01-48.56,27.09-20.85-5.92-33.01-27.7-27.09-48.56,5.92-20.86,27.7-33.01,48.55-27.09,20.86,5.92,33.02,27.71,27.09,48.56M251.28,288.72c-6.17,21.76,6.5,44.49,28.26,50.66,21.77,6.18,44.49-6.5,50.66-28.26,6.17-21.77-6.51-44.49-28.27-50.66-21.76-6.17-44.49,6.51-50.66,28.26"/>
  <path class="cls-1" d="M276.77,313.01c6.03-9.68,9.52-21.11,9.52-33.36,0-34.91-28.3-63.21-63.22-63.21s-63.22,28.3-63.22,63.21c0,11.63,3.15,22.51,8.63,31.87.04.1.06.22.12.31,16.39,27.86,21.09,35.82,22.57,38.26.12.2.33.62.57,1.08l.38,4h.98c.09.05.18.08.26.06l.16-.06h59.01l.17.06c.09.02.17-.01.26-.06h1.06l.44-4.27c.18-.35.33-.65.43-.81,1.46-2.41,6.05-10.19,21.87-37.08"/>
  <path class="cls-3" d="M273.13,284.89c-2.18,0-3.95-1.77-3.95-3.95,0-25.41-20.68-46.09-46.1-46.09-2.18,0-3.95-1.77-3.95-3.95s1.76-3.95,3.95-3.95c29.77,0,54,24.22,54,53.99,0,2.18-1.77,3.95-3.95,3.95"/>
  <path d="M228.54,404.34h-10.92c-8.88,0-16.08-7.2-16.08-16.08v-20.51c0-1.15.94-2.08,2.09-2.08h38.9c1.15,0,2.09.93,2.09,2.08v20.51c0,8.88-7.2,16.08-16.07,16.08h0Z"/>
  <path d="M214.95,358.76h-.08c-2.18,0-3.94-1.76-3.94-3.94v-56.51c0-2.18,1.76-3.94,3.94-3.94h.08c2.18,0,3.94,1.76,3.94,3.94v56.51c0,2.18-1.76,3.94-3.94,3.94"/>
  <path d="M231.28,358.76h-.08c-2.18,0-3.94-1.76-3.94-3.94v-56.51c0-2.18,1.76-3.94,3.94-3.94h.08c2.17,0,3.94,1.76,3.94,3.94v56.51c0,2.18-1.77,3.94-3.94,3.94"/>
  <path class="cls-12" d="M250.56,366.85h-54.97c-3.55,0-6.43-2.88-6.43-6.43v-.13c0-3.55,2.88-6.43,6.43-6.43h54.97c3.55,0,6.43,2.88,6.43,6.43v.13c0,3.55-2.88,6.43-6.43,6.43h0Z"/>
  <path class="cls-12" d="M250.56,377.22h-54.97c-3.55,0-6.43-2.88-6.43-6.43v-.13c0-3.55,2.88-6.43,6.43-6.43h54.97c3.55,0,6.43,2.88,6.43,6.43v.13c0,3.55-2.88,6.43-6.43,6.43h0Z"/>
  <path class="cls-12" d="M250.56,387.59h-54.97c-3.55,0-6.43-2.88-6.43-6.43v-.13c0-3.55,2.88-6.43,6.43-6.43h54.97c3.55,0,6.43,2.88,6.43,6.43v.13c0,3.55-2.88,6.43-6.43,6.43h0Z"/>
  <path class="cls-10" d="M158.54,221.26c.78-.73,1.2-1.71,1.2-2.74,0-.43-.09-.85-.24-1.25l-13.03-12.33c-.73-.69-1.77-1.08-2.88-1.08s-2.18.4-2.95,1.12c-.77.73-1.2,1.7-1.2,2.73,0,.44.09.86.24,1.26l13.02,12.33c1.55,1.47,4.22,1.49,5.82-.04"/>
  <path class="cls-1" d="M158.5,342.41c-.73-.69-1.77-1.08-2.88-1.08s-2.18.39-2.91,1.08l-14.83,14.04c-.56,1.39-.25,3.04.95,4.18,1.54,1.46,4.24,1.46,5.78,0l14.85-14.05c.18-.44.28-.91.28-1.39,0-1.05-.43-2.01-1.24-2.78"/>
  <path class="cls-1" d="M132.01,281.82c0-2.13-1.83-3.87-4.09-3.87h-17.58c-2.26,0-4.09,1.77-4.09,3.94s1.84,3.86,4.09,3.86h17.58c2.26,0,4.09-1.76,4.09-3.93"/>
  <path class="cls-15" d="M120.72,364.96c-39.35,0-71.26-31.9-71.26-71.26s31.9-71.26,71.26-71.26c14.3,0,27.62,4.21,38.78,11.47,1.14,7.29,2.93,14.36,5.31,21.15-3.19,7.56-4.96,15.86-4.96,24.58,0,11.63,3.15,22.51,8.63,31.87.04.1.06.22.12.31,5.03,8.55,8.96,15.23,12.04,20.45-8.55,13.26-21.39,23.5-36.55,28.76.19-.12.36-.26.52-.41l14.85-14.05c.18-.44.28-.91.28-1.39,0-1.05-.43-2.01-1.24-2.78-.73-.69-1.77-1.08-2.88-1.08s-2.18.39-2.91,1.08l-14.83,14.04c-.56,1.39-.25,3.04.95,4.18.77.73,1.83,1.09,2.9,1.09.11,0,.23,0,.34-.01-6.74,2.11-13.91,3.25-21.35,3.25M110.34,277.95c-2.26,0-4.09,1.77-4.09,3.94s1.84,3.86,4.09,3.86h17.58c2.26,0,4.09-1.76,4.09-3.93s-1.83-3.87-4.09-3.87h-17.58"/>
  <path class="cls-17" d="M180.64,332.28c-3.07-5.22-7-11.9-12.04-20.45-.05-.09-.08-.21-.12-.31-5.48-9.36-8.63-20.25-8.63-31.87,0-8.72,1.76-17.02,4.96-24.58,5.79,16.49,15.09,31.33,26.99,43.64-.85,12.32-4.84,23.77-11.16,33.58"/>
  <path class="cls-17" d="M141.73,361.72c-1.06,0-2.12-.37-2.9-1.09-1.2-1.14-1.52-2.79-.95-4.18l14.83-14.04c.73-.68,1.79-1.08,2.91-1.08s2.16.39,2.88,1.08c.81.77,1.24,1.73,1.24,2.78,0,.49-.1.95-.28,1.39l-14.85,14.05c-.16.15-.34.29-.52.41-.67.23-1.34.46-2.02.67-.11,0-.23.01-.34.01"/>
  <path class="cls-17" d="M127.92,285.75h-17.58c-2.26,0-4.09-1.73-4.09-3.86s1.84-3.94,4.09-3.94h17.58c2.26,0,4.09,1.74,4.09,3.87s-1.83,3.93-4.09,3.93"/>
  <path class="cls-4" d="M393.59,378.66c-12.69,0-24.4-4.15-33.87-11.16l.59-.41c-.27-1.04-.61-2.09-1-3.12-.39-1.03-.83-2.02-1.33-2.98l-5.04.61c-.13-.14-.27-.27-.4-.41-.65-1.03-1.36-2-2.14-2.9l2.21-4.72c-1.55-1.56-3.24-2.94-5.06-4.12l-2.58,1.93c-2.12-3.47-3.88-7.18-5.23-11.09.39-.48.77-.96,1.15-1.45l-2.87-4.62c-.56-2.48-.95-5.03-1.17-7.62.88-1.52,1.69-3.08,2.42-4.68h11.02c1.59-4.31,2.71-8.78,3.35-13.38l-.06-.03c14.3-11.6,25.88-26.43,33.63-43.38,2.09-.23,4.22-.35,6.37-.35,31.45,0,56.94,25.49,56.94,56.94s-25.49,56.94-56.94,56.94"/>
  <path class="cls-13" d="M359.72,367.49c-2.41-1.79-4.68-3.76-6.78-5.9l5.04-.61c.5.96.94,1.96,1.33,2.98.4,1.03.73,2.07,1,3.12l-.59.41M352.55,361.18c-2.86-2.98-5.41-6.26-7.57-9.81l2.58-1.93c1.83,1.18,3.52,2.56,5.06,4.12l-2.21,4.72c.78.91,1.49,1.88,2.14,2.9"/>
  <path class="cls-16" d="M339.75,340.28c-.68-1.98-1.26-4-1.72-6.07l2.87,4.62c-.38.49-.76.97-1.15,1.45M336.86,326.6c-.14-1.61-.21-3.24-.21-4.88,0-.58,0-1.15.03-1.72,5.97-3.35,11.63-7.2,16.91-11.49l.06.03c-.64,4.6-1.76,9.07-3.35,13.38h-11.02c-.73,1.6-1.54,3.16-2.42,4.68"/>
  <path class="cls-18" d="M290.96,323.3c-6.16,0-12.02-2.39-16.42-6.51.71-1.21,1.46-2.47,2.22-3.78,6.03-9.68,9.52-21.11,9.52-33.36,0-1.29-.04-2.57-.11-3.85,1.61-.33,3.22-.49,4.81-.49,10.43,0,20.03,6.87,23.05,17.39,3.64,12.74-3.73,26.02-16.47,29.66-2.2.63-4.43.93-6.61.93M328.52,310.83s.01-.04.02-.06c0,.02-.01.04-.02.06M301.4,262.07c-3.55-1-7.12-1.48-10.64-1.48,3.52,0,7.09.48,10.64,1.48M290.75,260.59h0,0"/>
  <path class="cls-14" d="M278.05,335.27c-1.58,0-3.14-.03-4.71-.09-2.52-1.24-4.86-2.74-7.01-4.44,2.27-3.86,4.98-8.46,8.21-13.95,4.39,4.12,10.26,6.51,16.42,6.51,2.18,0,4.4-.3,6.61-.93,12.74-3.64,20.11-16.93,16.47-29.66-3.02-10.52-12.62-17.39-23.05-17.39-1.59,0-3.2.16-4.81.49-.3-5.03-1.19-9.9-2.6-14.54,2.35-.44,4.75-.67,7.17-.67h0c3.52,0,7.09.48,10.64,1.48.03,0,.05.01.08.02,17.28,4.9,28.58,20.69,28.59,37.81,0,3.55-.48,7.17-1.5,10.75h0s-.02.08-.03.12c0,.02-.01.04-.02.06-2.03,7.04-5.87,13.07-10.87,17.75-12.4,4.33-25.72,6.69-39.6,6.69"/>
  <path class="cls-5" d="M269.42,334.97c-1.77-.13-3.54-.29-5.29-.49.42-.72.87-1.47,1.33-2.25,1.26.99,2.58,1.9,3.96,2.75"/>
  <path class="cls-18" d="M330.1,311.49s0-.01,0-.02c0,0,0,.01,0,.02M330.13,311.41s.02-.06.03-.09c0,.03-.02.06-.03.09M351.91,282.93c-.04-.16-.09-.32-.13-.48-.64-2.23-1.39-4.4-2.27-6.52l-11,.38c-1.3-2.63-2.79-5.11-4.45-7.44l5.5-9.53c-2.97-3.57-6.29-6.77-9.91-9.59l-9.36,5.84c-2.4-1.6-4.93-3.01-7.56-4.2v-11.04c-4.31-1.58-8.78-2.7-13.37-3.31l-5.2,9.69c-1.07-.07-2.14-.1-3.22-.1-1.8,0-3.61.09-5.43.27l-5.52-9.53c-2.23.38-4.5.87-6.74,1.52-.5.14-.99.29-1.49.44-11.59-13.99-29.11-22.91-48.7-22.91-21.45,0-40.4,10.68-51.83,27.02-3.56-3.57-7.49-6.78-11.74-9.54-.63-4.06-1.06-8.2-1.28-12.38.11-.08.22-.18.32-.27.78-.73,1.2-1.71,1.2-2.74,0-.43-.09-.85-.24-1.25l-1.44-1.37c0-.21,0-.41,0-.62,0-66.26,53.72-119.98,119.98-119.98s119.98,53.72,119.98,119.98c0,17.78-3.87,34.66-10.81,49.84-13.89,1.55-26.27,8.09-35.31,17.8M301.9,260.44c-3.71-1.05-7.45-1.55-11.14-1.55,3.68,0,7.42.5,11.14,1.55M290.75,258.9h0,0"/>
  <path class="cls-5" d="M321.37,327.21c3.93-4.4,6.97-9.71,8.73-15.72,0,0,0-.01,0-.02,0-.02.01-.04.02-.06,0-.03.02-.06.03-.09.02-.07.04-.14.06-.21,1.05-3.72,1.56-7.47,1.56-11.16.01-17.89-11.79-34.39-29.83-39.51h0s-.03,0-.05-.01c-3.72-1.05-7.45-1.55-11.14-1.55h0c-2.61,0-5.18.25-7.7.74-2.5-7.48-6.35-14.35-11.28-20.29.49-.15.99-.3,1.49-.44,2.24-.65,4.5-1.15,6.74-1.52l5.52,9.53c1.82-.18,3.63-.27,5.43-.27,1.08,0,2.15.03,3.22.1l5.2-9.69c4.59.62,9.06,1.73,13.36,3.31v11.04c2.63,1.2,5.16,2.6,7.56,4.2l9.36-5.84c3.62,2.82,6.94,6.02,9.91,9.59l-5.5,9.53c1.67,2.33,3.15,4.82,4.45,7.44l11-.38c.87,2.12,1.63,4.29,2.27,6.52.05.16.09.32.13.48-9.1,9.78-14.81,22.76-15.23,37.07-4.9,2.75-10.02,5.17-15.31,7.22"/>
  <path class="cls-2" d="M273.34,335.18c-1.31-.05-2.62-.12-3.92-.22-1.38-.84-2.7-1.76-3.96-2.75.28-.48.57-.97.87-1.48,2.15,1.71,4.49,3.2,7.01,4.44M317.65,328.58c5-4.68,8.84-10.71,10.87-17.75,0-.02.01-.04.02-.06.01-.04.02-.08.03-.12h0c1.02-3.58,1.5-7.2,1.5-10.75-.01-17.13-11.32-32.91-28.59-37.81-.03,0-.05-.01-.08-.02-3.55-1-7.12-1.48-10.64-1.48h0c-2.43,0-4.83.23-7.17.67-.17-.55-.34-1.09-.52-1.63,2.52-.48,5.09-.74,7.7-.74h0c3.68,0,7.42.5,11.14,1.55.01,0,.03,0,.05.01h0c18.04,5.12,29.84,21.61,29.83,39.51,0,3.69-.51,7.44-1.56,11.16-.02.07-.04.14-.06.21,0,.03-.02.06-.03.09,0,.02-.01.04-.02.06,0,0,0,.01,0,.02-1.77,6.01-4.8,11.32-8.73,15.72-1.23.48-2.47.93-3.72,1.37"/>
  <path class="cls-2" d="M264.13,334.47c-10.07-1.16-19.76-3.57-28.91-7.07v-29.09c0-2.18-1.77-3.94-3.94-3.94h-.08c-2.18,0-3.94,1.76-3.94,3.94v25.71c-2.85-1.33-5.64-2.78-8.36-4.32v-21.39c0-2.18-1.76-3.94-3.94-3.94h-.08c-2.18,0-3.94,1.76-3.94,3.94v16.45c-6.93-4.68-13.34-10.07-19.13-16.06.11-1.65.17-3.32.17-5,0-19.61-7.92-37.37-20.74-50.25,11.43-16.34,30.38-27.02,51.83-27.02,19.59,0,37.11,8.91,48.7,22.91,4.93,5.94,8.78,12.81,11.28,20.29.18.54.35,1.08.52,1.63,1.41,4.64,2.3,9.51,2.6,14.54.08,1.27.11,2.55.11,3.85,0,12.25-3.49,23.68-9.52,33.36-.77,1.3-1.51,2.56-2.22,3.78-3.23,5.49-5.94,10.09-8.21,13.95h0c-.3.51-.59,1-.87,1.48-.46.78-.9,1.53-1.33,2.25M223.08,226.94c-2.18,0-3.95,1.77-3.95,3.95s1.76,3.95,3.95,3.95c25.42,0,46.1,20.68,46.1,46.09,0,2.18,1.77,3.95,3.95,3.95s3.95-1.77,3.95-3.95c0-29.77-24.22-53.99-54-53.99"/>
  <path class="cls-18" d="M273.13,284.89c-2.18,0-3.95-1.77-3.95-3.95,0-25.41-20.68-46.09-46.1-46.09-2.18,0-3.95-1.77-3.95-3.95s1.76-3.95,3.95-3.95c29.77,0,54,24.22,54,53.99,0,2.18-1.77,3.95-3.95,3.95"/>
  <path class="cls-5" d="M218.9,319.7c-2.72-1.54-5.38-3.2-7.96-4.94v-16.45c0-2.18,1.76-3.94,3.94-3.94h.08c2.18,0,3.94,1.76,3.94,3.94v21.39"/>
  <path class="cls-5" d="M235.22,327.4c-2.7-1.03-5.36-2.16-7.96-3.38v-25.71c0-2.18,1.76-3.94,3.94-3.94h.08c2.17,0,3.94,1.76,3.94,3.94v29.09"/>
  <path class="cls-2" d="M158.23,221.54c-.1-1.86-.15-3.74-.16-5.63l1.44,1.37c.14.4.24.82.24,1.25,0,1.03-.43,2-1.2,2.74-.1.1-.21.19-.32.27"/>
  <path class="cls-6" d="M164.82,255.07c-2.39-6.79-4.18-13.86-5.31-21.15,4.25,2.76,8.18,5.96,11.74,9.54-2.53,3.61-4.69,7.5-6.42,11.61"/>
  <path class="cls-8" d="M191.81,298.7c-11.9-12.3-21.2-27.15-26.99-43.64,1.74-4.11,3.9-8,6.42-11.61,12.82,12.88,20.74,30.64,20.74,50.25,0,1.68-.06,3.35-.17,5"/>
  <path class="cls-11" d="M353.59,308.51l-9.65-5.15c.17-2.86.11-5.76-.17-8.66l9.55-5.51c-.36-2.09-.83-4.18-1.41-6.26,9.03-9.7,21.42-16.25,35.31-17.8-7.75,16.94-19.33,31.77-33.63,43.38"/>
  <path class="cls-9" d="M336.68,319.99c.42-14.31,6.13-27.29,15.23-37.07.58,2.08,1.05,4.17,1.41,6.26l-9.55,5.51c.28,2.9.34,5.81.17,8.66l9.65,5.15c-5.29,4.29-10.94,8.13-16.91,11.49"/>
  <path class="cls-10" d="M160.9,234.9c.09.58-.28,1.22-.82,1.43,0,0-5.68,2.18-11.7,2.18-17.09,0-25.89-12.78-25.89-29.7,0-20.27,12.03-31.55,27-31.55,5.8,0,11.19,2.24,11.19,2.24.54.22.88.88.76,1.45l-1.83,8.58c-.12.57-.66.86-1.21.64,0,0-4.44-1.8-8.4-1.8-8.88,0-15.77,6.43-15.77,19.65,0,11.9,5.87,19.39,15.84,19.39,3.37,0,8.31-1.61,8.31-1.61.56-.18,1.09.14,1.18.72l1.35,8.39h0Z"/>
  <path class="cls-10" d="M179.48,203.52c0,.58.48,1.06,1.06,1.06h2.28c.59,0,1.51-.17,2.06-.38,0,0,7.88-2.97,7.88-8.17,0-5.46-3.08-8.2-8.22-8.28-2.71,0-4.02.24-4.02.24-.57.11-1.04.67-1.04,1.26v14.26h0ZM168.4,180.09c0-.58.47-1.13,1.05-1.21,0,0,7.9-1.09,13.84-1.09,7.34,0,12.47,1.32,15.99,4.67,2.93,2.82,4.55,6.96,4.55,12.43,0,7.58-7.9,13.96-7.9,13.96-.45.37-.83.73-.83.8s.33.48.73.9c0,0,4.62,4.87,5.87,10.33,1.54,6.7,3.78,15.71,3.78,15.71.14.57-.22,1.03-.81,1.03h-9.32c-.58,0-1.2-.46-1.37-1.02,0,0-1.67-5.5-3.14-12.82-1.32-7.4-6.98-9.2-6.98-9.2-.56-.18-1.49-.32-2.08-.32h-1.25c-.58,0-1.06.48-1.06,1.06v21.23c0,.59-.48,1.06-1.06,1.06h-8.95c-.59,0-1.06-.48-1.06-1.06v-56.48h0Z"/>
  <path class="cls-10" d="M241.31,211.45c0,.58-.48,1.06-1.06,1.06h-16.07c-.59,0-1.06.48-1.06,1.06v11.97c0,.59.48,1.06,1.06,1.06h18.19c.58,0,1.06.48,1.06,1.06v8.89c0,.59-.48,1.06-1.06,1.06h-29.42c-.59,0-1.06-.48-1.06-1.06v-57.27c0-.58.48-1.06,1.06-1.06h28.39c.59,0,1.06.48,1.06,1.06v8.89c0,.59-.48,1.06-1.06,1.06h-17.17c-.59,0-1.06.48-1.06,1.06v10.21c0,.59.48,1.06,1.06,1.06h16.07c.58,0,1.06.48,1.06,1.06v8.8h0Z"/>
  <path class="cls-10" d="M274.06,212.34c.58,0,.95-.46.81-1.03l-2.58-10.54c-.14-.57-.36-1.5-.48-2.07l-2.05-9.38c-.12-.57-.25-1.04-.29-1.04s-.16.47-.26,1.05l-1.88,9.37c-.11.57-.31,1.51-.44,2.08l-2.45,10.53c-.13.57.24,1.04.82,1.04h8.8ZM263.64,222.38c-.58,0-1.17.47-1.3,1.04l-3.04,13.17c-.13.57-.72,1.04-1.3,1.04h-9.46c-.58,0-.95-.46-.8-1.03l14.59-57.34c.14-.57.74-1.03,1.33-1.03h12.54c.58,0,1.18.46,1.33,1.03l14.8,57.34c.15.57-.21,1.03-.8,1.03h-9.9c-.58,0-1.18-.46-1.32-1.03l-3.3-13.18c-.14-.57-.74-1.03-1.32-1.03h-12.03Z"/>
  <path class="cls-10" d="M302.62,190.57c0-.58-.48-1.06-1.06-1.06h-11.15c-.58,0-1.06-.48-1.06-1.06v-9.15c0-.58.48-1.06,1.06-1.06h35.87c.58,0,1.06.48,1.06,1.06v9.15c0,.58-.48,1.06-1.06,1.06h-11.37c-.59,0-1.06.48-1.06,1.06v45.99c0,.59-.48,1.06-1.06,1.06h-9.1c-.58,0-1.06-.48-1.06-1.06v-45.99h0Z"/>
  <path class="cls-10" d="M343.44,178.23c.58,0,1.06.48,1.06,1.06v57.27c0,.59-.48,1.06-1.06,1.06h-9.1c-.58,0-1.06-.48-1.06-1.06v-57.27c0-.58.48-1.06,1.06-1.06h9.1Z"/>
  <path class="cls-10" d="M366.91,237.63c-.58,0-1.19-.46-1.34-1.03l-15.3-57.34c-.15-.57.2-1.03.79-1.03h10.12c.59,0,1.17.47,1.31,1.03l5.52,23.05c.14.57.36,1.5.49,2.07l3.96,19.16c.11.57.25,1.04.31,1.04s.2-.47.32-1.04l4.03-18.9c.13-.57.36-1.5.5-2.07l5.8-23.32c.14-.57.74-1.03,1.32-1.03h9.76c.58,0,.93.46.78,1.02l-16.08,57.35c-.16.56-.77,1.02-1.35,1.02h-10.93Z"/>
  <path class="cls-10" d="M430.24,211.45c0,.58-.48,1.06-1.06,1.06h-16.07c-.59,0-1.06.48-1.06,1.06v11.97c0,.59.48,1.06,1.06,1.06h18.19c.59,0,1.06.48,1.06,1.06v8.89c0,.59-.48,1.06-1.06,1.06h-29.42c-.58,0-1.06-.48-1.06-1.06v-57.27c0-.58.48-1.06,1.06-1.06h28.39c.58,0,1.06.48,1.06,1.06v8.89c0,.59-.48,1.06-1.06,1.06h-17.17c-.59,0-1.06.48-1.06,1.06v10.21c0,.59.48,1.06,1.06,1.06h16.07c.58,0,1.06.48,1.06,1.06v8.8h0Z"/>
  <path class="cls-3" d="M57.95,282.67c.18,0,.33.15.33.33v19.11c0,.18-.15.33-.33.33h-2.32c-.18,0-.33-.15-.33-.33v-19.11c0-.18.15-.33.33-.33h2.32Z"/>
  <path class="cls-3" d="M62.02,302.45c-.18,0-.33-.15-.33-.33v-19.11c0-.18.15-.33.33-.33h2.73c.18,0,.39.13.47.29l3.92,7.89c.08.16.21.43.28.59l2.53,6.02c.06.17.13.31.14.31s.02-.15,0-.33l-.25-7.56c0-.18,0-.48,0-.66v-6.24c0-.18.15-.33.33-.33h2.1c.18,0,.33.15.33.33v19.11c0,.18-.15.33-.33.33h-2.42c-.18,0-.39-.13-.47-.29l-3.97-8.09c-.08-.16-.21-.43-.28-.59l-2.67-6.23c-.07-.17-.14-.3-.16-.29-.02,0-.03.16-.03.34l.14,7.76c0,.18,0,.48,0,.66v6.41c0,.18-.15.33-.33.33h-2.08Z"/>
  <path class="cls-3" d="M77.9,298.84c.04-.18.2-.25.36-.17,0,0,2.13,1.11,3.65,1.11,1.91,0,2.98-1.09,2.98-2.7,0-1.5-.82-2.38-2.9-3.29-2.69-1.17-4.4-2.9-4.4-5.75,0-3.23,2.23-5.69,5.76-5.69,1.77,0,3.62.86,3.62.86.16.08.26.28.22.46l-.57,2.27c-.04.18-.21.25-.37.16,0,0-1.43-.78-2.96-.78-1.89,0-2.71,1.23-2.71,2.38,0,1.52.94,2.23,3.12,3.26,2.83,1.29,4.21,3.02,4.21,5.87,0,3.17-1.98,5.93-6.2,5.93-1.72,0-4.11-1.1-4.11-1.1-.16-.08-.27-.28-.23-.46l.51-2.35h0Z"/>
  <path class="cls-3" d="M93.56,291.82c0,.18.15.35.32.38,0,0,.52.09,1.13.09,2.23,0,3.58-1.32,3.58-3.64s-1.26-3.37-3.32-3.37c-.82,0-1.4.11-1.4.11-.18.03-.32.21-.32.39v6.03h0ZM90.6,283.27c0-.18.15-.35.32-.38,0,0,2.22-.36,4.23-.36,2.18,0,3.78.56,4.82,1.61.97.97,1.6,2.52,1.6,4.37s-.48,3.43-1.4,4.49c-1.19,1.44-3.05,2.11-5.16,2.11-.56,0-1.13-.07-1.13-.07-.18-.02-.33.11-.33.29v6.79c0,.18-.15.33-.33.33h-2.3c-.18,0-.33-.15-.33-.33v-18.85h0Z"/>
  <path class="cls-3" d="M106.78,282.67c.18,0,.33.15.33.33v19.11c0,.18-.15.33-.33.33h-2.32c-.18,0-.33-.15-.33-.33v-19.11c0-.18.15-.33.33-.33h2.32Z"/>
  <path class="cls-3" d="M113.47,291.35c0,.18.15.33.33.33h1.11c.18,0,.47-.05.63-.12,0,0,2.96-1.17,2.96-3.14,0-2.17-1.26-3.17-3.19-3.17-.94,0-1.52.11-1.52.11-.18.03-.32.21-.32.39v5.59h0ZM110.52,283.27c0-.18.15-.35.32-.38,0,0,2.46-.36,4.18-.36,2.35,0,3.95.47,5.03,1.58.9.91,1.4,2.29,1.4,3.96,0,2.55-2.7,4.75-2.7,4.75-.14.11-.25.23-.25.25s.1.15.23.28c0,0,1.63,1.67,2.05,3.58.51,2.46,1.2,5.2,1.2,5.2.04.17-.07.32-.25.32h-2.42c-.18,0-.37-.14-.42-.32,0,0-.54-1.88-1-4.35-.46-2.58-2.62-3.35-2.62-3.35-.17-.06-.46-.11-.64-.11h-.85c-.18,0-.33.15-.33.33v7.47c0,.18-.15.33-.33.33h-2.3c-.18,0-.33-.15-.33-.33v-18.85h0Z"/>
  <path class="cls-3" d="M132.06,294.11c.18,0,.29-.14.24-.32l-1.12-4.23c-.05-.17-.12-.46-.16-.64l-.68-3.05c-.04-.18-.08-.32-.09-.32s-.05.15-.09.32l-.65,3.05c-.04.18-.1.46-.15.64l-1.09,4.23c-.05.17.07.32.25.32h3.53ZM128.05,296.84c-.18,0-.36.14-.41.32l-1.24,4.97c-.04.18-.23.32-.41.32h-2.42c-.18,0-.29-.14-.24-.32l5.06-19.14c.05-.17.23-.32.41-.32h3.14c.18,0,.37.14.41.32l5.13,19.14c.05.17-.06.32-.24.32h-2.54c-.18,0-.37-.14-.41-.32l-1.31-4.97c-.05-.17-.23-.32-.41-.32h-4.52Z"/>
  <path class="cls-3" d="M141,286.02c0-.18-.15-.33-.33-.33h-3.99c-.18,0-.33-.15-.33-.33v-2.37c0-.18.15-.33.33-.33h11.66c.18,0,.33.15.33.33v2.37c0,.18-.15.33-.33.33h-4.04c-.18,0-.33.15-.33.33v16.09c0,.18-.15.33-.33.33h-2.32c-.18,0-.33-.15-.33-.33v-16.09h0Z"/>
  <path class="cls-3" d="M153.23,282.67c.18,0,.33.15.33.33v19.11c0,.18-.15.33-.33.33h-2.32c-.18,0-.33-.15-.33-.33v-19.11c0-.18.15-.33.33-.33h2.32Z"/>
  <path class="cls-3" d="M159.27,292.65c0,4.02,1.67,7.22,4.53,7.22s4.5-3.23,4.5-7.36c0-3.73-1.52-7.25-4.5-7.25s-4.53,3.31-4.53,7.39h0ZM171.45,292.36c0,6.63-3.32,10.41-7.82,10.41s-7.5-4.25-7.5-10.06,3.15-10.35,7.75-10.35,7.58,4.37,7.58,10h0Z"/>
  <path class="cls-3" d="M174.34,302.45c-.18,0-.33-.15-.33-.33v-19.11c0-.18.15-.33.33-.33h2.73c.18,0,.39.13.47.29l3.92,7.89c.08.16.21.43.28.59l2.53,6.02c.06.17.13.31.14.31s.02-.15,0-.33l-.25-7.56c0-.18,0-.48,0-.66v-6.24c0-.18.15-.33.33-.33h2.1c.18,0,.33.15.33.33v19.11c0,.18-.15.33-.33.33h-2.42c-.18,0-.39-.13-.47-.29l-3.97-8.09c-.08-.16-.21-.43-.28-.59l-2.67-6.23c-.07-.17-.14-.3-.16-.29-.02,0-.03.16-.03.34l.13,7.76c0,.18,0,.48,0,.66v6.41c0,.18-.15.33-.33.33h-2.08Z"/>
  <path class="cls-10" d="M355.78,305.71c.18,0,.32.15.32.32v26.77c0,.18-.14.32-.32.32h-4.49c-.18,0-.32-.14-.32-.32v-26.77c0-.18.15-.32.32-.32h4.49Z"/>
  <path class="cls-10" d="M365.66,328.13c0,.18.14.34.32.36,0,0,.82.09,1.46.09,4.63.04,7.65-3.05,7.65-9.6.03-5.69-2.72-8.7-7.11-8.7-1.14,0-2,.18-2,.18-.17.04-.32.21-.32.39v17.29h0ZM360.52,306.4c0-.18.14-.34.32-.36,0,0,4.01-.53,6.59-.53,4.29,0,7.08.94,9.26,2.93,2.35,2.11,3.83,5.49,3.83,10.33,0,5.25-1.58,8.87-3.76,11.1-2.38,2.4-6.01,3.54-10.44,3.54-2.65,0-5.48-.36-5.48-.36-.18-.02-.32-.19-.32-.36v-26.28h0Z"/>
  <path class="cls-10" d="M397.33,321.21c0,.18-.14.32-.32.32h-7.68c-.18,0-.32.14-.32.32v5.86c0,.18.14.32.32.32h8.65c.18,0,.32.15.32.32v4.44c0,.18-.15.32-.32.32h-13.78c-.18,0-.32-.14-.32-.32v-26.77c0-.18.14-.32.32-.32h13.31c.18,0,.32.15.32.32v4.44c0,.18-.14.32-.32.32h-8.18c-.18,0-.32.14-.32.32v5.05c0,.18.14.32.32.32h7.68c.18,0,.32.14.32.32v4.4h0Z"/>
  <path class="cls-10" d="M412.47,321.45c.18,0,.29-.14.25-.31l-1.26-5.19c-.04-.17-.11-.45-.15-.63l-1.01-4.66c-.04-.17-.08-.32-.1-.32s-.06.14-.09.32l-.92,4.65c-.03.17-.09.46-.13.63l-1.2,5.19c-.04.17.07.31.25.31h4.35ZM407.37,326.09c-.18,0-.35.14-.39.31l-1.47,6.41c-.04.17-.22.31-.39.31h-4.66c-.18,0-.29-.14-.24-.31l6.75-26.79c.04-.17.22-.31.4-.31h6.07c.18,0,.36.14.4.31l6.85,26.79c.04.17-.07.31-.24.31h-4.86c-.18,0-.36-.14-.4-.31l-1.59-6.41c-.04-.17-.22-.31-.4-.31h-5.83Z"/>
  <path class="cls-10" d="M423.89,327.06c.04-.17.19-.25.35-.17,0,0,3.2,1.57,5.38,1.57,2.35,0,3.59-1.18,3.59-2.97s-1.07-2.68-3.79-3.86c-3.76-1.59-6.21-4.11-6.21-8.09,0-4.68,3.22-8.26,8.56-8.26,2.55,0,5.48,1.25,5.48,1.25.16.07.26.27.22.44l-1,4.37c-.04.17-.2.25-.36.17,0,0-2.23-1.16-4.45-1.16s-3.29,1.22-3.29,2.64c0,1.75,1.27,2.52,4.19,3.86,3.99,1.79,5.87,4.31,5.87,8.17,0,4.6-2.92,8.5-9.13,8.5-2.58,0-6.11-1.54-6.11-1.54-.16-.07-.27-.27-.23-.44l.91-4.49h0Z"/>
</svg>