<?xml version="1.0" encoding="UTF-8"?>
<svg id="Layer_1" data-name="Layer 1" xmlns="http://www.w3.org/2000/svg" xmlns:xlink="http://www.w3.org/1999/xlink" viewBox="0 0 500 500">
  <defs>
    <style>
      .cls-1 {
        clip-path: url(#clippath-6);
      }

      .cls-2 {
        clip-path: url(#clippath-7);
      }

      .cls-3 {
        fill: #ececeb;
      }

      .cls-4 {
        fill: #4075ba;
      }

      .cls-5 {
        clip-path: url(#clippath-15);
      }

      .cls-6 {
        clip-path: url(#clippath-4);
      }

      .cls-7 {
        opacity: .4;
      }

      .cls-8 {
        fill: #f5f6f6;
      }

      .cls-9 {
        clip-path: url(#clippath-9);
      }

      .cls-10 {
        clip-path: url(#clippath-10);
      }

      .cls-11 {
        fill: #fff;
      }

      .cls-12 {
        fill: #7c8684;
      }

      .cls-13 {
        clip-path: url(#clippath-11);
      }

      .cls-14 {
        fill: none;
      }

      .cls-15 {
        opacity: .7;
      }

      .cls-16 {
        fill: #fafbfb;
      }

      .cls-17 {
        clip-path: url(#clippath-5);
      }

      .cls-18 {
        clip-path: url(#clippath-3);
      }

      .cls-19 {
        clip-path: url(#clippath-12);
      }

      .cls-20 {
        clip-path: url(#clippath-14);
      }

      .cls-21 {
        fill: #923c38;
      }

      .cls-22 {
        fill: #731012;
      }

      .cls-23 {
        fill: #f2f4f3;
      }

      .cls-24 {
        clip-path: url(#clippath-16);
      }

      .cls-25 {
        clip-path: url(#clippath-2);
      }

      .cls-26 {
        opacity: .2;
      }

      .cls-27 {
        fill: #a2a4a3;
      }

      .cls-28 {
        clip-path: url(#clippath-13);
      }

      .cls-29 {
        fill: #192e35;
      }

      .cls-30 {
        fill: #81c341;
      }
    </style>
    <clipPath id="clippath">
      <rect class="cls-14" width="500" height="500"/>
    </clipPath>
    <clipPath id="clippath-2">
      <rect class="cls-14" width="500" height="500"/>
    </clipPath>
    <clipPath id="clippath-3">
      <rect class="cls-14" x="308.67" y="158" width="115.05" height="258.02"/>
    </clipPath>
    <clipPath id="clippath-4">
      <rect class="cls-14" x="340.66" y="158" width="83.05" height="258.02"/>
    </clipPath>
    <clipPath id="clippath-5">
      <rect class="cls-14" x="238.72" y="158" width="83.28" height="258.02"/>
    </clipPath>
    <clipPath id="clippath-6">
      <rect class="cls-14" x="297.28" y="148.39" width="67.94" height="88"/>
    </clipPath>
    <clipPath id="clippath-7">
      <rect class="cls-14" x="300.71" y="107.7" width="17.07" height="16.72"/>
    </clipPath>
    <clipPath id="clippath-9">
      <rect class="cls-14" x="175.59" y="207.59" width="8.18" height="16.99"/>
    </clipPath>
    <clipPath id="clippath-10">
      <rect class="cls-14" x="182.49" y="243.01" width="9.19" height="5.71"/>
    </clipPath>
    <clipPath id="clippath-11">
      <rect class="cls-14" x="159.04" y="208.66" width="4.05" height="11.49"/>
    </clipPath>
    <clipPath id="clippath-12">
      <rect class="cls-14" x="159.15" y="228.34" width="16.75" height="2.08"/>
    </clipPath>
    <clipPath id="clippath-13">
      <rect class="cls-14" x="164.13" y="227.09" width="1.52" height="1.82"/>
    </clipPath>
    <clipPath id="clippath-14">
      <rect class="cls-14" x="176.99" y="219.51" width="2.56" height="32.43"/>
    </clipPath>
    <clipPath id="clippath-15">
      <rect class="cls-14" x="140.63" y="396.05" width="45.83" height="12.42"/>
    </clipPath>
    <clipPath id="clippath-16">
      <rect class="cls-14" x="169.4" y="278.73" width="7.51" height="46.11"/>
    </clipPath>
  </defs>
  <path class="cls-30" d="M237.01,337.8H43.92c-3.15,0-5.71-2.56-5.71-5.71V60.66c0-3.15,2.56-5.71,5.71-5.71h193.1c3.15,0,5.71,2.56,5.71,5.71v271.43c0,3.15-2.56,5.71-5.71,5.71M43.92,55.2c-3.01,0-5.46,2.45-5.46,5.46v271.43c0,3.01,2.45,5.46,5.46,5.46h193.1c3.01,0,5.46-2.45,5.46-5.46V60.66c0-3.01-2.45-5.46-5.46-5.46H43.92Z"/>
  <rect class="cls-30" y="382.4" width="500" height=".25"/>
  <rect class="cls-3" x="396.83" y="398.5" width="53.07" height=".25"/>
  <rect class="cls-3" x="272.56" y="395.36" width="58.66" height=".25"/>
  <rect class="cls-3" x="380.2" y="393.92" width="19.19" height=".25"/>
  <path class="cls-30" d="M453.31,337.8h-193.1c-3.15,0-5.71-2.56-5.71-5.71V60.66c0-3.15,2.56-5.71,5.71-5.71h193.1c3.15,0,5.71,2.56,5.71,5.71v271.43c0,3.15-2.56,5.71-5.71,5.71M260.21,55.2c-3.01,0-5.46,2.45-5.46,5.46v271.43c0,3.01,2.45,5.46,5.46,5.46h193.1c3.01,0,5.46-2.45,5.46-5.46V60.66c0-3.01-2.45-5.46-5.46-5.46h-193.1Z"/>
  <path class="cls-12" d="M372.78,277.78c-25.58-33.16-37.42-65.67-68.52-17.83-13.99-14.78-26.29-29.58-35.25-43.52-48.45-75.47-97.16-29.03-136.72,22.26-39.56,51.28-85.3,143.72-85.3,143.72h411.77s-60.26-71.25-85.99-104.62"/>
  <path class="cls-27" d="M284.97,304.42c-13.26-24.87-19.34-49.26-35.58-12.67-15.44,34.81-55.04,90.64-55.04,90.64h134.91s-31.04-53.11-44.29-77.98"/>
  <path class="cls-12" d="M433.7,105.17c0,19.27-15.62,34.89-34.89,34.89s-34.89-15.62-34.89-34.89,15.62-34.89,34.89-34.89,34.89,15.62,34.89,34.89"/>
  <path class="cls-23" d="M313.65,104.15c1.28.05,2.22.36,2.77.86,6.11-2.97,13.2-4.8,19.13-4.59,3.01.1,5.38.71,7.03,1.71,6.51-4.48,14.9-7.66,21.08-7.66,3.51,0,5.74,1.03,6.58,2.74,6.74-3.01,13.72-4.86,19.4-4.86,9.06,0,12.19,4.7,8.74,11.3,4.27.12,7.87,2.72,4.8,5.06h-100.07c.12-.14.24-.29.38-.44,2.2-2.39,6.74-4.23,10.15-4.12"/>
  <path class="cls-16" d="M380.33,160.12c.75.03,1.29.26,1.59.62,3.7-2.16,7.93-3.49,11.38-3.35,1.76.07,3.12.52,4.03,1.25,0,0,0,0,0,0,3.99-3.26,9.04-5.57,12.65-5.57,2.06,0,3.31.75,3.73,2,4.07-2.19,8.23-3.54,11.55-3.54,4.12,0,6.02,2.07,5.58,5.25,1.95-.93,3.88-1.47,5.46-1.47,2.2,0,3.27,1.05,3.16,2.69.19,0,.39,0,.57.02,3.37.27,4.74,2.39,3.22,4.81h-68.82c1.44-1.6,3.99-2.79,5.88-2.71"/>
  <rect class="cls-14" width="500" height="500"/>
  <g class="cls-25">
    <path class="cls-8" d="M443.89,416.24c0,6.25-86.81,11.32-193.89,11.32s-193.89-5.07-193.89-11.32,86.81-11.32,193.89-11.32,193.89,5.07,193.89,11.32"/>
  </g>
  <rect class="cls-4" x="391.73" y="284.62" width="1" height="8.12" transform="translate(-67.41 127.7) rotate(-17.05)"/>
  <rect class="cls-4" x="384.89" y="254.29" width="1" height="24.16" transform="translate(-61.16 124.71) rotate(-17.05)"/>
  <path class="cls-4" d="M349.01,158h-35.59l-74.14,241.73c-2.48,8.1,3.57,16.29,12.04,16.29h159.79c8.47,0,14.52-8.19,12.04-16.29l-74.14-241.73Z"/>
  <g class="cls-26">
    <g class="cls-18">
      <path class="cls-29" d="M349.01,158h-17.79l-22.55,258.02h102.45c8.47,0,14.52-8.19,12.04-16.29l-74.14-241.73Z"/>
    </g>
  </g>
  <g class="cls-26">
    <g class="cls-6">
      <path class="cls-29" d="M349.01,158h-8.35l25.45,258.02h45c8.47,0,14.52-8.19,12.04-16.29l-74.14-241.73Z"/>
    </g>
  </g>
  <g class="cls-26">
    <g class="cls-17">
      <path class="cls-11" d="M313.43,158h8.57l-61.33,258.02h-9.34c-8.47,0-14.52-8.19-12.04-16.29l74.14-241.73Z"/>
    </g>
  </g>
  <path class="cls-4" d="M330.94,148.39h0c10.68,0,20.02,7.17,22.8,17.48l11.48,42.69-3.05,13.5-11.68-11.08-11.07,25.42-10.08-17.67-12.52,17.67-5.44-26.5-11.4,15.11-2.7-17.44,10.82-41.51c2.71-10.4,12.1-17.65,22.84-17.65"/>
  <g class="cls-15">
    <g class="cls-1">
      <path class="cls-11" d="M330.94,148.39h0c10.68,0,20.02,7.17,22.8,17.48l11.48,42.69-3.05,13.5-11.68-11.08-11.07,25.42-10.08-17.67-12.52,17.67-5.44-26.5-11.4,15.11-2.7-17.44,10.82-41.51c2.71-10.4,12.1-17.65,22.84-17.65"/>
    </g>
  </g>
  <path class="cls-11" d="M308.67,417.02c-.38,0-.74-.21-.91-.58l-16.95-36.74c-.18-.39-.09-.85.22-1.15l65.97-61.82-40.99-79.88c-.1-.19-.13-.41-.1-.62l14.34-85.33c.09-.54.61-.91,1.15-.82.54.09.91.61.82,1.15l-14.29,85.01,41.18,80.26c.2.4.12.88-.21,1.19l-65.99,61.84,16.64,36.08c.23.5.01,1.1-.49,1.33-.14.06-.28.09-.42.09"/>
  <path class="cls-30" d="M368.41,316.94c0,5.62-4.55,10.17-10.17,10.17s-10.17-4.55-10.17-10.17,4.55-10.17,10.17-10.17,10.17,4.55,10.17,10.17"/>
  <path class="cls-11" d="M358.24,328.11c-6.16,0-11.17-5.01-11.17-11.17s5.01-11.17,11.17-11.17,11.17,5.01,11.17,11.17-5.01,11.17-11.17,11.17M358.24,307.78c-5.05,0-9.17,4.11-9.17,9.17s4.11,9.17,9.17,9.17,9.17-4.11,9.17-9.17-4.11-9.17-9.17-9.17"/>
  <path class="cls-30" d="M301.89,379.28c0,5.62-4.55,10.17-10.17,10.17s-10.17-4.55-10.17-10.17,4.55-10.17,10.17-10.17,10.17,4.55,10.17,10.17"/>
  <path class="cls-11" d="M291.72,390.44c-6.16,0-11.17-5.01-11.17-11.17s5.01-11.17,11.17-11.17,11.17,5.01,11.17,11.17-5.01,11.17-11.17,11.17M291.72,370.11c-5.06,0-9.17,4.11-9.17,9.17s4.11,9.17,9.17,9.17,9.17-4.11,9.17-9.17-4.11-9.17-9.17-9.17"/>
  <path class="cls-30" d="M327.08,236.39c0,5.62-4.55,10.17-10.17,10.17s-10.17-4.55-10.17-10.17,4.55-10.17,10.17-10.17,10.17,4.55,10.17,10.17"/>
  <path class="cls-11" d="M316.91,247.56c-6.16,0-11.17-5.01-11.17-11.17s5.01-11.17,11.17-11.17,11.17,5.01,11.17,11.17-5.01,11.17-11.17,11.17M316.91,227.22c-5.06,0-9.17,4.11-9.17,9.17s4.11,9.17,9.17,9.17,9.17-4.11,9.17-9.17-4.11-9.17-9.17-9.17"/>
  <path class="cls-30" d="M341.42,151.06c0,5.62-4.55,10.17-10.17,10.17s-10.17-4.55-10.17-10.17,4.55-10.17,10.17-10.17,10.17,4.55,10.17,10.17"/>
  <path class="cls-11" d="M331.25,162.22c-6.16,0-11.17-5.01-11.17-11.17s5.01-11.17,11.17-11.17,11.17,5.01,11.17,11.17-5.01,11.17-11.17,11.17M331.25,141.89c-5.06,0-9.17,4.11-9.17,9.17s4.11,9.17,9.17,9.17,9.17-4.11,9.17-9.17-4.11-9.17-9.17-9.17"/>
  <path class="cls-30" d="M331.22,151.11c-.55,0-1-.45-1-1v-44.94c0-.55.45-1,1-1s1,.45,1,1v44.94c0,.55-.45,1-1,1"/>
  <path class="cls-30" d="M290.89,123.86c8.96,3.06,17.92-3.06,26.89,0v-15.28c-8.96-3.05-17.93,3.05-26.89,0v15.28Z"/>
  <g class="cls-26">
    <g class="cls-2">
      <path d="M300.71,109.15v15.27c5.69-.75,11.38-2.5,17.07-.56v-15.28c-5.69-1.94-11.38-.19-17.07.57"/>
    </g>
  </g>
  <path class="cls-30" d="M304.33,120.44c8.96,3.06,17.92-3.05,26.89,0v-15.28c-8.96-3.05-17.92,3.06-26.89,0v15.28Z"/>
  <rect class="cls-14" width="500" height="500"/>
  <rect class="cls-14" width="500" height="500"/>
  <rect class="cls-14" width="500" height="500"/>
  <g>
    <path class="cls-23" d="M66.17,89.45c1.28.05,2.22.36,2.77.86,6.11-2.97,13.21-4.8,19.13-4.59,3.01.1,5.38.71,7.03,1.71,6.51-4.48,14.9-7.66,21.08-7.66,3.51,0,5.74,1.03,6.58,2.74,6.74-3.01,13.72-4.86,19.4-4.86,9.06,0,12.19,4.7,8.74,11.3,4.28.12,7.87,2.72,4.8,5.06H55.64c.12-.14.24-.29.38-.44,2.2-2.39,6.74-4.23,10.15-4.12"/>
    <path class="cls-23" d="M169.52,118.57c.75.03,1.29.26,1.59.62,3.71-2.16,7.93-3.49,11.38-3.35,1.76.07,3.12.52,4.03,1.25,0,0,0,0,0,0,3.99-3.26,9.04-5.57,12.65-5.57,2.06,0,3.31.75,3.73,2,4.07-2.19,8.23-3.54,11.55-3.54,4.12,0,6.02,2.07,5.58,5.25,1.95-.92,3.88-1.47,5.46-1.47,2.2,0,3.27,1.05,3.16,2.69.19,0,.39,0,.57.02,3.37.27,4.74,2.39,3.22,4.81h-68.82c1.44-1.6,3.99-2.79,5.88-2.71"/>
    <path class="cls-23" d="M78.12,149.55c.52.02.89.18,1.1.43,2.56-1.5,5.48-2.41,7.87-2.31,1.22.05,2.15.36,2.79.86,0,0,0,0,0,0,2.76-2.25,6.25-3.85,8.75-3.85,1.42,0,2.29.52,2.58,1.38,2.81-1.52,5.69-2.45,7.99-2.45,2.85,0,4.17,1.43,3.86,3.63,1.35-.64,2.68-1.02,3.78-1.02,1.52,0,2.26.72,2.18,1.86.13,0,.27,0,.4.02,2.33.19,3.28,1.65,2.23,3.33h-47.58c1-1.1,2.76-1.93,4.06-1.88"/>
  </g>
  <rect class="cls-30" x="79.46" y="390.89" width="15.44" height=".25"/>
  <g>
    <rect class="cls-3" x="111.62" y="400.61" width="35.31" height=".2"/>
    <rect class="cls-3" x="136.97" y="404.07" width="44.31" height=".2"/>
    <path class="cls-21" d="M159.24,257.34l2.54,4.09-7.3.93s.15-1.6.69-4c.23-1,1.21-1.64,2.22-1.42l1.84.4Z"/>
    <polygon class="cls-21" points="161.18 267.98 155.5 266.24 154.49 262.36 161.78 261.43 161.18 267.98"/>
    <path class="cls-21" d="M180.54,211.56c.87-.27,1.92-.64,2.88-.96.99-.34,1.96-.7,2.93-1.08,1.94-.77,3.86-1.56,5.71-2.45,3.69-1.74,7.25-3.8,9.81-6.26.65-.6,1.19-1.24,1.64-1.87l.17-.24s.21-.42-.12.35c-.19.51-.21,1.04-.17,1.36,0,.08.02.16.04.24l.04.17c.01.05.03.11.05.16l.04.1c.11.24.14.23.12.18-.04-.06-.1-.17-.19-.3-.4-.54-1.1-1.23-1.83-1.88-.74-.65-1.53-1.33-2.35-1.98-3.29-2.61-6.87-5.18-10.37-7.76l2.13-3.98c4.23,1.64,8.27,3.51,12.27,5.84,1,.59,2,1.19,2.99,1.9,1,.71,1.99,1.43,3.08,2.53.54.6,1.13,1.14,1.76,2.6l.11.29.1.36c.03.13.06.23.09.37.03.15.05.3.06.45.07.59.01,1.41-.26,2.17-.43,1.02-.42.84-.52,1.07l-.27.46c-.74,1.21-1.58,2.32-2.47,3.28-3.61,3.86-7.75,6.37-11.92,8.53-2.1,1.05-4.22,2.01-6.39,2.84-1.08.42-2.17.82-3.26,1.2-1.11.39-2.16.71-3.4,1.06l-2.48-8.76Z"/>
    <polygon class="cls-21" points="183.86 183.85 179.51 186.69 185.74 188.12 187.34 183.73 183.86 183.85"/>
    <path class="cls-21" d="M192.67,186.04l-5.34-2.31-1.6,4.39s4.24,4.45,6.94,1.48v-3.56Z"/>
    <path class="cls-21" d="M160.89,219.37c-2.01,3.64-4.04,7.41-5.99,11.13-1.93,3.73-3.84,7.49-5.43,11.24-.41.94-.78,1.86-1.12,2.79l-.12.31s0-.07,0-.09c0-.05-.02-.07-.03-.07-.02.02-.04.18.02.42.1.49.43,1.22.87,1.94.45.73.98,1.51,1.58,2.26,2.41,3.03,5.49,6.03,8.51,8.84l-2.52,3.74c-4.03-2.11-7.73-4.5-11.21-7.75-.86-.82-1.72-1.7-2.52-2.72-.8-1.03-1.58-2.17-2.2-3.71-.31-.77-.55-1.68-.62-2.73-.03-.53-.02-1.09.08-1.67.04-.29.11-.58.19-.87l.14-.46c.33-1.12.68-2.22,1.06-3.28,1.51-4.29,3.32-8.3,5.22-12.27,1.94-3.96,3.96-7.78,6.22-11.61l7.88,4.56Z"/>
    <path class="cls-21" d="M166.62,193.18c-.53,5.52.25,10.87-.98,15.67,0,0,1.37,4.46,9.54,4.46,8.98,0,4.12-4.46,4.12-4.46-4.94-1.17-4.96-4.81-4.24-8.22l-8.43-7.46Z"/>
    <path class="cls-29" d="M164.52,210.39c-.7-1.41-1.47-3.03-.02-3.53,1.59-.56,10.39-1.12,13.48-.08,3.08,1.04,2.33,3.91,2.33,3.91l-15.79-.3Z"/>
    <path class="cls-4" d="M147.01,411.39c-.59-.13-1.21-.39-1.63-.59-.06-.03-.09-.09-.09-.15,0-.06.04-.12.1-.14.26-.1,2.61-.93,3.24-.41.1.08.21.23.17.49-.05.34-.21.59-.49.74-.34.18-.82.17-1.31.06M145.87,410.69c1.04.45,1.89.59,2.3.37.18-.1.29-.26.32-.51.02-.12-.02-.17-.06-.2-.33-.27-1.62.03-2.57.34"/>
    <path class="cls-4" d="M145.42,410.82s-.05-.02-.08-.04c-.04-.04-.06-.1-.04-.15.02-.08.57-1.9,1.45-2.35.23-.12.46-.14.69-.06.35.12.4.37.4.5-.02.74-1.6,1.88-2.34,2.1-.02,0-.05,0-.08,0M147.27,408.49c-.13-.03-.25,0-.38.06-.56.29-1,1.32-1.19,1.85.77-.36,1.81-1.25,1.82-1.69,0-.04,0-.13-.19-.2-.02,0-.05-.01-.07-.02"/>
    <path class="cls-4" d="M189.14,415.68c-.61,0-1.26-.13-1.72-.24-.06-.01-.11-.06-.12-.13-.01-.06.02-.12.07-.16.24-.15,2.36-1.45,3.08-1.08.11.06.25.18.27.44.02.35-.09.62-.32.82-.3.25-.76.34-1.26.34M187.88,415.22c1.11.22,1.97.18,2.33-.12.16-.13.23-.32.21-.56,0-.12-.06-.16-.1-.18-.38-.19-1.58.37-2.44.86"/>
    <path class="cls-4" d="M187.46,415.44s-.06,0-.09-.02c-.05-.03-.07-.09-.07-.14,0-.08.16-1.97.93-2.6.2-.16.42-.23.66-.2.37.05.47.27.49.41.14.73-1.17,2.17-1.85,2.54-.02.01-.05.02-.07.02M188.79,412.78c-.13,0-.25.04-.36.14-.49.4-.7,1.5-.78,2.06.68-.51,1.51-1.6,1.43-2.03,0-.04-.02-.13-.23-.16-.02,0-.05,0-.07,0"/>
    <polygon class="cls-21" points="180.4 415.21 186.4 415.21 186.47 401.3 180.46 401.3 180.4 415.21"/>
    <polygon class="cls-21" points="138.32 409.68 144.06 410.8 148.83 397.16 143.1 396.04 138.32 409.68"/>
    <path class="cls-29" d="M144.84,409.99l-6.6-1.41c-.24-.05-.48.07-.57.3l-2.07,5.02c-.21.52.12,1.13.68,1.24,2.31.45,3.45.55,6.36,1.17,1.79.38,5.43,1.35,7.9,1.88,2.41.51,3.21-1.86,2.24-2.3-4.35-1.96-5.82-3.7-7.04-5.32-.22-.29-.54-.49-.89-.57"/>
    <path class="cls-29" d="M186.34,414.51h-6.56c-.25,0-.45.17-.5.41l-.98,5.34c-.1.55.34,1.08.91,1.07,2.37-.04,5.78-.18,8.75-.18,3.48,0,3.65.19,7.72.19,2.47,0,3.05-2.49,2.01-2.72-4.74-1.03-5.74-1.14-9.9-3.64-.45-.27-.95-.47-1.47-.47"/>
    <path class="cls-29" d="M155.75,210.06c-5.52,1.51-12.06,16.79-12.06,16.79l12.69,7.17s2.97-5.41,5.89-12.11c3.06-7.02,2.7-14.36-6.52-11.85"/>
    <path class="cls-29" d="M191.64,237.04c-.04,6.7-.45,15.04-1.45,25.39h-32.13c-.39-4.66,1.53-26.44-3.04-48.45-.43-2.09.96-4.13,3.07-4.44,1.94-.28,4.38-.58,6.78-.69,4.1-.2,10.04-.33,13.65,0,2.02.18,4,.51,5.61.83,2.61.51,4.73,2.43,5.45,4.99.72,2.57,1.46,6.6,1.83,12.78.16,2.76.25,5.93.23,9.59"/>
    <path class="cls-29" d="M177.2,221.65c5.01,2.76,16.51-.4,16.51-.4l-.6-15.58s-5.1.42-12.12,3.28c-7.83,3.19-9.43,9.58-3.79,12.7"/>
    <path class="cls-4" d="M183.77,207.59s-2.33.82-3.18,1.07c-3.08,3.39-5,10.74-5,10.74l3.92,5.18c-1.49-7.68,4.27-16.99,4.27-16.99"/>
    <g class="cls-26">
      <g class="cls-9">
        <path d="M183.77,207.59s-2.33.82-3.18,1.07c-3.08,3.39-5,10.74-5,10.74l3.92,5.18c-1.49-7.68,4.27-16.99,4.27-16.99"/>
      </g>
    </g>
    <path class="cls-4" d="M191.65,246.15c-3.06,2.36-9.16-3.13-9.16-3.13l.18,2.79c5.59,4.67,8.89,2.35,8.89,2.35,0,0,.19-.87.08-2"/>
    <g class="cls-26">
      <g class="cls-10">
        <path d="M191.65,246.15c-3.06,2.36-9.16-3.13-9.16-3.13l.18,2.79c5.59,4.67,8.89,2.35,8.89,2.35,0,0,.19-.87.08-2"/>
      </g>
    </g>
    <path class="cls-4" d="M163.09,208.66c-1.77.17-2.72.44-2.72.44,0,0-2.24,4.89-.91,11.05l3.53-1.58s-1.12-5.34.1-9.91"/>
    <g class="cls-26">
      <g class="cls-13">
        <path d="M163.09,208.66c-1.77.17-2.72.44-2.72.44,0,0-2.24,4.89-.91,11.05l3.53-1.58s-1.12-5.34.1-9.91"/>
      </g>
    </g>
    <path class="cls-4" d="M158.94,219.42c1.91-3,16.67-2.66,19.85-.2,3.19,2.46,7.04,29.29,2.32,32.29-4.72,3-26.48,4.43-26.64-1.64-.15-6.06,4.8-16.61,4.21-20.1-.59-3.49-2.35-6.27.25-10.36"/>
    <g class="cls-7">
      <g class="cls-19">
        <path class="cls-29" d="M159.15,228.79s5.38,2.1,16.75-.45c-2.21,1.16-13.91,3.8-16.75.45"/>
      </g>
    </g>
    <g class="cls-7">
      <g class="cls-28">
        <path class="cls-29" d="M165.64,228c.07.5-.21.91-.62.91s-.81-.41-.88-.91c-.07-.5.21-.91.62-.91s.81.41.88.91"/>
      </g>
    </g>
    <g class="cls-7">
      <g class="cls-20">
        <path class="cls-29" d="M178.18,251.94s-.04,0-.06,0c-.11-.03-.17-.15-.14-.26,1.73-5.68,1.52-13.52-.64-23.29-.9-4.05.13-7.98.67-8.79.06-.09.19-.12.28-.06.09.06.12.19.06.28-.56.84-1.43,4.72-.61,8.47,2.17,9.84,2.39,17.75.63,23.5-.03.09-.11.14-.2.14"/>
      </g>
    </g>
    <g class="cls-26">
      <g class="cls-5">
        <polygon points="186.46 401.3 186.43 408.47 180.43 408.47 180.46 401.3 186.46 401.3"/>
        <polygon points="143.09 396.05 148.83 397.16 146.37 404.19 140.63 403.08 143.09 396.05"/>
      </g>
    </g>
    <path class="cls-4" d="M178.8,262.44s-5.04,45.9-8.12,63.09c-3.37,18.83-20.83,77.94-20.83,77.94l-10.76-2.29s12.01-55.29,13.63-73.94c1.76-20.23,5.35-64.8,5.35-64.8h20.73Z"/>
    <path class="cls-29" d="M152.26,399.83s-1.83,3.93-1.83,3.93l-12.11-2.58.86-3.67,13.07,2.32Z"/>
    <g class="cls-26">
      <g class="cls-24">
        <path d="M175.12,278.79c-7.82,1.55-5.85,30.94-4.32,46.05,1.86-10.69,4.39-31.25,6.1-45.84-.53-.26-1.12-.34-1.78-.21"/>
      </g>
    </g>
    <path class="cls-4" d="M190.19,262.44s2.56,44.9,2.61,63.22c.06,19.05-4.19,81.43-4.19,81.43h-10.17s-2.74-61.26-3.91-79.97c-1.28-20.4-5.45-64.67-5.45-64.67h21.12Z"/>
    <path class="cls-29" d="M190.42,403.03s-.41,4.22-.41,4.22h-12.38l-.48-3.77,13.27-.45Z"/>
    <path class="cls-29" d="M180.25,187.46c.07.48.38.84.69.81.31-.03.52-.45.45-.93-.07-.48-.38-.84-.69-.81-.31.03-.52.45-.45.93"/>
    <path class="cls-22" d="M180.59,188.31s1.49,2.66,2.88,3.87c-.74.88-2.24.67-2.24.67l-.64-4.54Z"/>
    <path class="cls-29" d="M180.45,184.33c.09-.03.15-.1.18-.19.04-.15-.05-.31-.2-.35-.05-.01-1.34-.34-2.49.7-.12.11-.13.29-.02.4.11.12.29.12.4.02.92-.84,1.95-.57,1.96-.57.06.02.12.01.17,0"/>
    <path class="cls-21" d="M164.04,188.09c1.2,5.86,1.6,9.34,5.02,12.06,5.14,4.09,12.06.64,12.64-5.39.52-5.43-1.53-14.09-7.65-15.85-6.04-1.73-11.21,3.32-10.01,9.18"/>
    <path class="cls-29" d="M176.67,188.96c-.99,3.09-6.55,9-8.51,9.45-1.96.45-7.35-4.2-7.84-6.63-1.96-.23-4.12-4.14-1.12-5.68-2.2-1.12-1.62-6.96,2.86-6.54-2.74-2.63.55-7.08,4.27-5.9.89-2.27,5.93-3.72,8.83-.23,2.27-1.27,6.23,1.29,5.94,5.14-.2,2.63-2.61,4.78-4.37,5.16.94,1.16-.06,5.24-.06,5.24"/>
    <path class="cls-21" d="M173.67,188.15c.33,1.54,1.26,2.92,2.27,3.77,1.51,1.29,2.72.24,2.69-1.53-.03-1.6-.86-4.19-2.56-4.8-1.68-.6-2.77.8-2.4,2.56"/>
  </g>
  <rect class="cls-14" width="500" height="500"/>
</svg>