<?xml version="1.0" encoding="UTF-8"?>
<svg id="Layer_1" data-name="Layer 1" xmlns="http://www.w3.org/2000/svg" xmlns:xlink="http://www.w3.org/1999/xlink" viewBox="0 0 500 500">
  <defs>
    <style>
      .cls-1 {
        clip-path: url(#clippath-51);
      }

      .cls-2 {
        clip-path: url(#clippath-34);
      }

      .cls-3 {
        clip-path: url(#clippath-38);
      }

      .cls-4 {
        clip-path: url(#clippath-21);
      }

      .cls-5 {
        clip-path: url(#clippath-6);
      }

      .cls-6 {
        clip-path: url(#clippath-7);
      }

      .cls-7 {
        clip-path: url(#clippath-17);
      }

      .cls-8 {
        clip-path: url(#clippath-31);
      }

      .cls-9, .cls-10, .cls-11 {
        isolation: isolate;
      }

      .cls-9, .cls-12 {
        opacity: .3;
      }

      .cls-13 {
        fill: #ececeb;
      }

      .cls-14 {
        fill: #4075ba;
      }

      .cls-15 {
        clip-path: url(#clippath-15);
      }

      .cls-16 {
        clip-path: url(#clippath-33);
      }

      .cls-17 {
        clip-path: url(#clippath-61);
      }

      .cls-18 {
        clip-path: url(#clippath-18);
      }

      .cls-19 {
        clip-path: url(#clippath-47);
      }

      .cls-20 {
        clip-path: url(#clippath-4);
      }

      .cls-21 {
        clip-path: url(#clippath-22);
      }

      .cls-22 {
        clip-path: url(#clippath-23);
      }

      .cls-23, .cls-10 {
        opacity: .4;
      }

      .cls-24 {
        fill: #f5f6f6;
      }

      .cls-25 {
        clip-path: url(#clippath-54);
      }

      .cls-26 {
        fill: #fbb573;
      }

      .cls-27 {
        clip-path: url(#clippath-9);
      }

      .cls-28 {
        clip-path: url(#clippath-10);
      }

      .cls-29 {
        clip-path: url(#clippath-42);
      }

      .cls-30 {
        fill: #ba4d3c;
      }

      .cls-31 {
        clip-path: url(#clippath-59);
      }

      .cls-32 {
        fill: #fff;
      }

      .cls-33 {
        clip-path: url(#clippath-43);
      }

      .cls-34 {
        clip-path: url(#clippath-25);
      }

      .cls-35 {
        clip-path: url(#clippath-27);
      }

      .cls-36 {
        clip-path: url(#clippath-60);
      }

      .cls-37 {
        clip-path: url(#clippath-11);
      }

      .cls-38 {
        clip-path: url(#clippath-57);
      }

      .cls-39, .cls-40, .cls-41, .cls-42, .cls-43, .cls-44, .cls-45, .cls-46 {
        fill: none;
      }

      .cls-47 {
        clip-path: url(#clippath-36);
      }

      .cls-48 {
        clip-path: url(#clippath-35);
      }

      .cls-49 {
        clip-path: url(#clippath-48);
      }

      .cls-50 {
        clip-path: url(#clippath-28);
      }

      .cls-51 {
        opacity: .7;
      }

      .cls-40, .cls-41, .cls-43 {
        stroke-miterlimit: 10;
      }

      .cls-40, .cls-42, .cls-44, .cls-46 {
        stroke-width: .5px;
      }

      .cls-40, .cls-46 {
        stroke: #192e35;
      }

      .cls-52 {
        clip-path: url(#clippath-56);
      }

      .cls-41, .cls-42, .cls-43, .cls-45 {
        stroke: #4075ba;
      }

      .cls-53 {
        clip-path: url(#clippath-45);
      }

      .cls-54 {
        clip-path: url(#clippath-46);
      }

      .cls-55 {
        clip-path: url(#clippath-40);
      }

      .cls-56 {
        clip-path: url(#clippath-5);
      }

      .cls-57 {
        clip-path: url(#clippath-20);
      }

      .cls-58 {
        clip-path: url(#clippath-8);
      }

      .cls-59 {
        clip-path: url(#clippath-52);
      }

      .cls-42, .cls-44, .cls-45, .cls-46 {
        stroke-linecap: round;
        stroke-linejoin: round;
      }

      .cls-60 {
        clip-path: url(#clippath-41);
      }

      .cls-61 {
        opacity: .6;
      }

      .cls-43 {
        stroke-width: .25px;
      }

      .cls-62 {
        fill: #e7e7e6;
      }

      .cls-63 {
        opacity: .1;
      }

      .cls-64 {
        clip-path: url(#clippath-3);
      }

      .cls-65 {
        clip-path: url(#clippath-26);
      }

      .cls-66 {
        clip-path: url(#clippath-12);
      }

      .cls-67 {
        clip-path: url(#clippath-50);
      }

      .cls-68 {
        clip-path: url(#clippath-14);
      }

      .cls-69 {
        fill: #2b337b;
      }

      .cls-70 {
        clip-path: url(#clippath-30);
      }

      .cls-71 {
        clip-path: url(#clippath-19);
      }

      .cls-72 {
        fill: #ec883e;
      }

      .cls-73 {
        fill: #cd7963;
      }

      .cls-44 {
        stroke: #000;
      }

      .cls-74 {
        clip-path: url(#clippath-32);
      }

      .cls-75 {
        clip-path: url(#clippath-55);
      }

      .cls-76 {
        clip-path: url(#clippath-53);
      }

      .cls-77 {
        clip-path: url(#clippath-39);
      }

      .cls-78 {
        clip-path: url(#clippath-16);
      }

      .cls-79 {
        clip-path: url(#clippath-29);
      }

      .cls-80, .cls-11 {
        opacity: .2;
      }

      .cls-81 {
        clip-path: url(#clippath-49);
      }

      .cls-82 {
        clip-path: url(#clippath-37);
      }

      .cls-83 {
        clip-path: url(#clippath-58);
      }

      .cls-84 {
        clip-path: url(#clippath-13);
      }

      .cls-85 {
        fill: #192e35;
      }

      .cls-86 {
        fill: #81c341;
      }

      .cls-87 {
        clip-path: url(#clippath-63);
      }

      .cls-88 {
        clip-path: url(#clippath-24);
      }

      .cls-89 {
        clip-path: url(#clippath);
      }

      .cls-90 {
        opacity: .5;
      }

      .cls-91 {
        fill: #f1f1f1;
      }

      .cls-92 {
        clip-path: url(#clippath-44);
      }

      .cls-93 {
        clip-path: url(#clippath-62);
      }

      .cls-94 {
        fill: #e1e1e1;
      }
    </style>
    <clipPath id="clippath">
      <rect class="cls-39" width="500" height="500"/>
    </clipPath>
    <clipPath id="clippath-1">
      <rect class="cls-39" width="500" height="500"/>
    </clipPath>
    <clipPath id="clippath-3">
      <rect class="cls-39" width="500" height="500"/>
    </clipPath>
    <clipPath id="clippath-4">
      <rect class="cls-39" x="98.82" y="99.48" width="302.36" height="200.58"/>
    </clipPath>
    <clipPath id="clippath-5">
      <rect class="cls-39" x="390.31" y="104.11" width="6.84" height="6.84"/>
    </clipPath>
    <clipPath id="clippath-6">
      <rect class="cls-39" x="380.59" y="104.11" width="6.84" height="6.84"/>
    </clipPath>
    <clipPath id="clippath-7">
      <rect class="cls-39" x="370.86" y="104.11" width="6.84" height="6.84"/>
    </clipPath>
    <clipPath id="clippath-8">
      <rect class="cls-39" x="135.15" y="156.41" width="229.7" height="135.54"/>
    </clipPath>
    <clipPath id="clippath-9">
      <rect class="cls-39" x="280.61" y="192.25" width="36.85" height="61.88"/>
    </clipPath>
    <clipPath id="clippath-10">
      <rect class="cls-39" x="294.22" y="184.42" width="24.72" height="37.3"/>
    </clipPath>
    <clipPath id="clippath-11">
      <rect class="cls-39" width="500" height="500"/>
    </clipPath>
    <clipPath id="clippath-12">
      <rect class="cls-39" x="26.97" y="74.27" width="112.08" height="66.52"/>
    </clipPath>
    <clipPath id="clippath-13">
      <rect class="cls-39" x="54.3" y="108.17" width="6.07" height="22.32"/>
    </clipPath>
    <clipPath id="clippath-14">
      <rect class="cls-39" x="79.98" y="97.83" width="6.07" height="32.66"/>
    </clipPath>
    <clipPath id="clippath-15">
      <rect class="cls-39" x="106.03" y="107.45" width="6.07" height="23.04"/>
    </clipPath>
    <clipPath id="clippath-16">
      <rect class="cls-39" x="376.24" y="156.16" width="90.17" height="101.36"/>
    </clipPath>
    <clipPath id="clippath-17">
      <rect class="cls-39" x="456.26" y="161.66" width="6.77" height="6.77"/>
    </clipPath>
    <clipPath id="clippath-18">
      <rect class="cls-39" x="446.64" y="161.66" width="6.77" height="6.77"/>
    </clipPath>
    <clipPath id="clippath-19">
      <rect class="cls-39" x="437.02" y="161.66" width="6.77" height="6.77"/>
    </clipPath>
    <clipPath id="clippath-20">
      <rect class="cls-39" x="400.05" y="184.63" width="54.25" height="3.16"/>
    </clipPath>
    <clipPath id="clippath-21">
      <rect class="cls-39" x="400.89" y="191.46" width="38.82" height="3.16"/>
    </clipPath>
    <clipPath id="clippath-22">
      <rect class="cls-39" x="400.05" y="238.46" width="10.67" height="3.16"/>
    </clipPath>
    <clipPath id="clippath-23">
      <rect class="cls-39" x="385.61" y="206.65" width="10.67" height="3.16"/>
    </clipPath>
    <clipPath id="clippath-24">
      <rect class="cls-39" x="400.05" y="213.27" width="38.82" height="3.16"/>
    </clipPath>
    <clipPath id="clippath-25">
      <rect class="cls-39" x="400.05" y="220.14" width="19.41" height="3.16"/>
    </clipPath>
    <clipPath id="clippath-26">
      <rect class="cls-39" x="154.44" y="318.9" width="78.05" height="65.63"/>
    </clipPath>
    <clipPath id="clippath-27">
      <rect class="cls-39" x="223.08" y="322.96" width="5" height="5"/>
    </clipPath>
    <clipPath id="clippath-28">
      <rect class="cls-39" x="215.98" y="322.96" width="5" height="5"/>
    </clipPath>
    <clipPath id="clippath-29">
      <rect class="cls-39" x="208.88" y="322.96" width="5" height="5"/>
    </clipPath>
    <clipPath id="clippath-30">
      <rect class="cls-39" x="192.24" y="349.44" width="19.79" height="26.73"/>
    </clipPath>
    <clipPath id="clippath-31">
      <rect class="cls-39" width="500" height="500"/>
    </clipPath>
    <clipPath id="clippath-32">
      <rect class="cls-39" x="380.83" y="377.72" width="6.46" height="78.94"/>
    </clipPath>
    <clipPath id="clippath-33">
      <rect class="cls-39" width="500" height="500"/>
    </clipPath>
    <clipPath id="clippath-34">
      <rect class="cls-39" x="399.24" y="374.03" width="38.63" height="82.62"/>
    </clipPath>
    <clipPath id="clippath-35">
      <rect class="cls-39" x="349.18" y="374.85" width="50.07" height="81.8"/>
    </clipPath>
    <clipPath id="clippath-36">
      <rect class="cls-39" x="347.63" y="300.48" width="92.51" height="79.26"/>
    </clipPath>
    <clipPath id="clippath-37">
      <rect class="cls-39" x="379.86" y="300.48" width="53.06" height="71.04"/>
    </clipPath>
    <clipPath id="clippath-38">
      <rect class="cls-39" x="367.52" y="455.19" width="26.36" height="15.42"/>
    </clipPath>
    <clipPath id="clippath-39">
      <rect class="cls-39" x="340.16" y="450.77" width="26.37" height="15.42"/>
    </clipPath>
    <clipPath id="clippath-40">
      <rect class="cls-39" x="342.04" y="343.79" width="51.09" height="42.4"/>
    </clipPath>
    <clipPath id="clippath-41">
      <rect class="cls-39" x="374.98" y="370.12" width="7.01" height="5.58"/>
    </clipPath>
    <clipPath id="clippath-42">
      <rect class="cls-39" x="343.39" y="316.9" width="16.54" height="32.21"/>
    </clipPath>
    <clipPath id="clippath-43">
      <rect class="cls-39" x="311.15" y="316.9" width="76.05" height="34.58"/>
    </clipPath>
    <clipPath id="clippath-44">
      <rect class="cls-39" x="384.43" y="258.85" width="9.23" height="13.74"/>
    </clipPath>
    <clipPath id="clippath-45">
      <rect class="cls-39" x="391.88" y="253.21" width="3.85" height="4.12"/>
    </clipPath>
    <clipPath id="clippath-46">
      <rect class="cls-39" x="392.43" y="275.95" width="2.67" height="68.09"/>
    </clipPath>
    <clipPath id="clippath-47">
      <rect class="cls-39" x="407.27" y="288.37" width="19.31" height="24.21"/>
    </clipPath>
    <clipPath id="clippath-48">
      <rect class="cls-39" x="387.71" y="272.99" width="6.73" height="7.84"/>
    </clipPath>
    <clipPath id="clippath-49">
      <rect class="cls-39" x="394.84" y="268.8" width="11.14" height="12.92"/>
    </clipPath>
    <clipPath id="clippath-50">
      <rect class="cls-39" x="375.58" y="290.6" width="4.07" height="24.18"/>
    </clipPath>
    <clipPath id="clippath-51">
      <rect class="cls-39" x="377.81" y="337.21" width="1.44" height="4.97"/>
    </clipPath>
    <clipPath id="clippath-52">
      <rect class="cls-39" x="374.51" y="337.76" width="1.44" height="4.97"/>
    </clipPath>
    <clipPath id="clippath-53">
      <rect class="cls-39" x="371.23" y="337.47" width="1.44" height="4.97"/>
    </clipPath>
    <clipPath id="clippath-54">
      <rect class="cls-39" x="88.89" y="197.52" width="1.88" height="5.01"/>
    </clipPath>
    <clipPath id="clippath-55">
      <rect class="cls-39" x="86.91" y="454.5" width="3.11" height="5.53"/>
    </clipPath>
    <clipPath id="clippath-56">
      <rect class="cls-39" x="68.39" y="361.22" width="22" height="4.35"/>
    </clipPath>
    <clipPath id="clippath-57">
      <rect class="cls-39" x="95.85" y="361.22" width="22.65" height="6.78"/>
    </clipPath>
    <clipPath id="clippath-58">
      <rect class="cls-39" x="78.18" y="319.35" width="14.49" height="32.36"/>
    </clipPath>
    <clipPath id="clippath-59">
      <rect class="cls-39" x="50.79" y="218.01" width="61.67" height="73.27"/>
    </clipPath>
    <clipPath id="clippath-60">
      <rect class="cls-39" x="124.54" y="167.92" width="66.74" height="66.75"/>
    </clipPath>
    <clipPath id="clippath-61">
      <rect class="cls-39" x="125.89" y="179.44" width="62.64" height="17.51"/>
    </clipPath>
    <clipPath id="clippath-62">
      <rect class="cls-39" x="125.82" y="194.96" width="64.77" height="22.23"/>
    </clipPath>
    <clipPath id="clippath-63">
      <rect class="cls-39" x="57.54" y="216.39" width="39.37" height="27.48"/>
    </clipPath>
  </defs>
  <g class="cls-89">
    <path class="cls-91" d="M328.54,279.74c-.83-4.02-2.43-7.76-4.61-11.08l3.97-4.79-8.48-8.48-4.79,3.97c-3.32-2.18-7.06-3.77-11.08-4.61l-.58-6.18h-11.99l-.58,6.18c-4.02.83-7.76,2.43-11.08,4.61l-4.79-3.97-8.48,8.48,3.97,4.79c-2.18,3.32-3.77,7.06-4.61,11.08l-6.18.58v11.99l6.18.58c.83,4.02,2.43,7.76,4.61,11.08l-3.97,4.79,8.48,8.48,4.79-3.97c3.32,2.18,7.06,3.77,11.08,4.61l.58,6.18h11.99l.58-6.18c4.02-.83,7.76-2.43,11.08-4.61l4.79,3.97,8.48-8.48-3.97-4.79c2.18-3.32,3.77-7.06,4.61-11.08l6.18-.58v-11.99l-6.18-.58ZM313.21,286.32c0,8.97-7.27,16.24-16.24,16.24s-16.24-7.27-16.24-16.24,7.27-16.24,16.24-16.24,16.24,7.27,16.24,16.24"/>
    <path class="cls-91" d="M357.08,102.52c-1.1-5.32-3.21-10.26-6.09-14.65l5.24-6.34-11.21-11.21-6.33,5.24c-4.39-2.88-9.33-4.99-14.65-6.09l-.77-8.17h-15.86l-.77,8.17c-5.32,1.1-10.26,3.21-14.65,6.09l-6.34-5.24-11.21,11.21,5.24,6.34c-2.88,4.39-4.99,9.33-6.09,14.65l-8.17.77v15.86l8.17.77c1.1,5.32,3.21,10.26,6.09,14.65l-5.24,6.34,11.21,11.21,6.34-5.24c4.39,2.88,9.33,4.99,14.65,6.09l.77,8.17h15.86l.77-8.17c5.32-1.1,10.26-3.21,14.65-6.09l6.33,5.24,11.21-11.21-5.24-6.33c2.88-4.39,4.99-9.33,6.09-14.65l8.16-.77v-15.86l-8.16-.77ZM336.81,111.22c0,11.86-9.61,21.47-21.47,21.47s-21.47-9.61-21.47-21.47,9.61-21.47,21.47-21.47,21.47,9.61,21.47,21.47"/>
    <path class="cls-91" d="M162.22,81.23c-.61-2.95-1.78-5.69-3.38-8.13l2.91-3.52-6.22-6.23-3.52,2.91c-2.44-1.6-5.18-2.77-8.13-3.38l-.43-4.53h-8.8l-.43,4.53c-2.95.61-5.69,1.78-8.13,3.38l-3.52-2.91-6.22,6.23,2.91,3.52c-1.6,2.44-2.77,5.18-3.38,8.13l-4.53.43v8.8l4.53.43c.61,2.95,1.78,5.69,3.38,8.13l-2.91,3.52,6.22,6.23,3.52-2.91c2.44,1.6,5.18,2.77,8.13,3.38l.43,4.53h8.8l.43-4.53c2.95-.61,5.69-1.78,8.13-3.38l3.52,2.91,6.22-6.23-2.91-3.52c1.6-2.44,2.77-5.18,3.38-8.13l4.53-.43v-8.8l-4.53-.43ZM150.97,86.06c0,6.58-5.34,11.92-11.92,11.92s-11.92-5.33-11.92-11.92,5.33-11.92,11.92-11.92,11.92,5.34,11.92,11.92"/>
    <path class="cls-91" d="M145.76,320.75c-.28-1.35-.82-2.61-1.55-3.72l1.33-1.61-2.85-2.85-1.61,1.33c-1.12-.73-2.37-1.27-3.72-1.55l-.2-2.08h-4.03l-.2,2.08c-1.35.28-2.61.82-3.72,1.55l-1.61-1.33-2.85,2.85,1.33,1.61c-.73,1.12-1.27,2.37-1.55,3.72l-2.08.2v4.03l2.08.2c.28,1.35.82,2.61,1.55,3.72l-1.33,1.61,2.85,2.85,1.61-1.33c1.12.73,2.37,1.27,3.72,1.55l.2,2.08h4.03l.2-2.08c1.35-.28,2.61-.82,3.72-1.55l1.61,1.33,2.85-2.85-1.33-1.61c.73-1.12,1.27-2.37,1.55-3.72l2.08-.2v-4.03l-2.08-.2ZM140.61,322.96c0,3.02-2.44,5.46-5.46,5.46s-5.46-2.44-5.46-5.46,2.44-5.46,5.46-5.46,5.46,2.44,5.46,5.46"/>
    <path class="cls-91" d="M60.94,161.8c-.28-1.35-.82-2.61-1.55-3.72l1.33-1.61-2.85-2.85-1.61,1.33c-1.12-.73-2.37-1.27-3.72-1.55l-.2-2.08h-4.03l-.2,2.08c-1.35.28-2.61.82-3.72,1.55l-1.61-1.33-2.85,2.85,1.33,1.61c-.73,1.12-1.27,2.37-1.55,3.72l-2.08.2v4.03l2.08.2c.28,1.35.82,2.61,1.55,3.72l-1.33,1.61,2.85,2.85,1.61-1.33c1.12.73,2.37,1.27,3.72,1.55l.2,2.08h4.03l.2-2.08c1.35-.28,2.61-.82,3.72-1.55l1.61,1.33,2.85-2.85-1.33-1.61c.73-1.12,1.27-2.37,1.55-3.72l2.08-.2v-4.03l-2.08-.2ZM55.79,164.01c0,3.02-2.44,5.46-5.46,5.46s-5.46-2.44-5.46-5.46,2.44-5.46,5.46-5.46,5.46,2.44,5.46,5.46"/>
    <path class="cls-91" d="M444.96,102.99c-.44-2.11-1.27-4.07-2.41-5.8l2.08-2.51-4.44-4.44-2.51,2.08c-1.74-1.14-3.7-1.98-5.8-2.41l-.3-3.24h-6.29l-.3,3.24c-2.11.44-4.07,1.27-5.8,2.41l-2.51-2.08-4.44,4.44,2.08,2.51c-1.14,1.74-1.98,3.7-2.41,5.8l-3.24.3v6.28l3.24.3c.44,2.11,1.27,4.07,2.41,5.8l-2.08,2.51,4.44,4.44,2.51-2.08c1.74,1.14,3.7,1.98,5.8,2.41l.3,3.24h6.29l.3-3.24c2.11-.44,4.07-1.27,5.8-2.41l2.51,2.08,4.44-4.44-2.08-2.51c1.14-1.74,1.98-3.7,2.41-5.8l3.24-.3v-6.28l-3.24-.3ZM436.93,106.44c0,4.7-3.81,8.51-8.51,8.51s-8.51-3.81-8.51-8.51,3.81-8.51,8.51-8.51,8.51,3.81,8.51,8.51"/>
    <path class="cls-91" d="M396.22,72.06c-.28-1.35-.82-2.61-1.55-3.72l1.33-1.61-2.85-2.85-1.61,1.33c-1.11-.73-2.37-1.27-3.72-1.55l-.2-2.08h-4.03l-.2,2.08c-1.35.28-2.61.82-3.72,1.55l-1.61-1.33-2.85,2.85,1.33,1.61c-.73,1.11-1.27,2.37-1.55,3.72l-2.08.2v4.03l2.08.2c.28,1.35.82,2.61,1.55,3.72l-1.33,1.61,2.85,2.85,1.61-1.33c1.12.73,2.37,1.27,3.72,1.55l.2,2.08h4.03l.2-2.08c1.35-.28,2.61-.82,3.72-1.55l1.61,1.33,2.85-2.85-1.33-1.61c.73-1.12,1.27-2.37,1.55-3.72l2.08-.2v-4.03l-2.08-.2ZM391.06,74.27c0,3.01-2.44,5.46-5.46,5.46s-5.46-2.44-5.46-5.46,2.44-5.46,5.46-5.46,5.46,2.44,5.46,5.46"/>
    <path class="cls-94" d="M443.92,330.2h-180.75c-3.23,0-5.86-2.63-5.86-5.86V61.06c0-3.23,2.63-5.86,5.86-5.86h180.75c3.23,0,5.86,2.63,5.86,5.86v263.27c0,3.23-2.63,5.86-5.86,5.86M263.17,55.45c-3.1,0-5.61,2.52-5.61,5.61v263.27c0,3.1,2.52,5.61,5.61,5.61h180.75c3.1,0,5.61-2.52,5.61-5.61V61.06c0-3.09-2.52-5.61-5.61-5.61h-180.75Z"/>
    <path class="cls-94" d="M235.49,330.2H54.75c-3.23,0-5.86-2.63-5.86-5.86V61.06c0-3.23,2.63-5.86,5.86-5.86h180.75c3.23,0,5.86,2.63,5.86,5.86v263.27c0,3.23-2.63,5.86-5.86,5.86M54.75,55.45c-3.09,0-5.61,2.52-5.61,5.61v263.27c0,3.1,2.52,5.61,5.61,5.61h180.75c3.09,0,5.61-2.52,5.61-5.61V61.06c0-3.09-2.52-5.61-5.61-5.61H54.75Z"/>
    <rect class="cls-94" y="391.27" width="500" height=".25"/>
    <rect class="cls-94" x="51.67" y="405.53" width="16.06" height=".25"/>
    <rect class="cls-94" x="170.35" y="402.82" width="53.53" height=".25"/>
    <rect class="cls-94" x="68.73" y="414.82" width="36.25" height=".25"/>
    <rect class="cls-94" x="378.35" y="402.69" width="43.19" height=".25"/>
    <rect class="cls-94" x="430.45" y="402.69" width="6.33" height=".25"/>
    <rect class="cls-94" x="316.21" y="408.92" width="53.89" height=".25"/>
    <path class="cls-91" d="M283.85,426.93c.84-10.53,6.62-21.19,15.92-28.43,2.32-1.8,7.2-5.37,3.25-7.26-4.52-2.16-13.19,7.92-14.4,9.78,2.57-8.03,10.34-13.84,18.78-17.17,4.17-1.65,8.14-3.21,3.7-5.65-4.44-2.45-14.05,3.49-16.28,6.03,5.27-5.88,11.93-11.76,18.75-15.28,7.53-3.88,4.13-10.36-3.63-5.35-4.81,3.1-12.72,10.87-12.72,10.87,0,0,12.43-19.94,8.68-21.74-4.86-2.33-13.37,24.84-15.73,30.2.63-4.44,1.22-15.18-2.92-15.65-3.78-.42-2.86,26.33-3.73,31.05-.55,2.06-.81,3.11-1.24,5.18-.41-3.56-2.92-12.96-6.67-11.87-3.19.92-1.21,7.95-.39,11.29,2,8.08,4.02,15.9,4.04,24.19l4.6-.19Z"/>
    <path class="cls-62" d="M276.96,431.52c-.86-13.76-6.9-27.68-16.61-37.13-2.42-2.35-7.5-7.02-3.42-9.48,4.71-2.81,13.76,10.34,15.02,12.77-2.67-10.48-10.79-18.07-19.58-22.42-4.35-2.15-8.49-4.18-3.86-7.38,4.63-3.2,14.67,4.56,16.97,7.87-5.5-7.69-12.44-15.38-19.55-19.95-7.85-5.06-4.27-13.52,3.79-6.98,5.07,4.05,13.31,14.16,13.31,14.16,0,0-12.96-26.03-9.04-28.43,5.03-3.08,13.94,32.48,16.39,39.43-.65-5.79-1.26-19.83,3.09-20.44,3.94-.55,2.97,34.38,3.89,40.55.58,2.69.85,4.04,1.29,6.76.44-4.65,3.03-16.92,6.97-15.5,3.32,1.2,1.26,10.38.4,14.74-2.09,10.55-4.21,20.76-4.21,31.58l-4.85-.16Z"/>
    <polygon class="cls-94" points="261.96 424.64 266.4 449.01 292.67 449.01 297.38 424.64 261.96 424.64"/>
    <rect class="cls-94" x="258.78" y="417.61" width="42.25" height="8.13"/>
  </g>
  <g class="cls-64">
    <path class="cls-13" d="M458.88,454.44c0,3.39-93.52,6.13-208.88,6.13s-208.88-2.74-208.88-6.13,93.52-6.13,208.88-6.13,208.88,2.75,208.88,6.13"/>
  </g>
  <path class="cls-14" d="M98.82,105.68v184.66c0,5.39,4.37,9.76,9.76,9.76h288.9c2.04,0,3.7-1.66,3.7-3.7V104.43c0-2.73-2.22-4.95-4.95-4.95H105.02c-3.42,0-6.2,2.78-6.2,6.2"/>
  <g class="cls-51">
    <g class="cls-20">
      <path class="cls-32" d="M98.82,105.68v184.66c0,5.39,4.37,9.76,10.93,9.72h288.9c.87.04,2.52-1.62,2.52-3.66V104.43c0-2.73-2.22-4.95-4.95-4.95H105.02c-3.42,0-6.2,2.78-6.2,6.2"/>
    </g>
  </g>
  <path class="cls-14" d="M401.18,115.58H98.82v-11.24c0-2.68,2.18-4.86,4.86-4.86h293.62c2.14,0,3.88,1.74,3.88,3.88v12.22Z"/>
  <g class="cls-12">
    <g class="cls-56">
      <path class="cls-32" d="M397.15,107.53c0,1.89-1.53,3.42-3.42,3.42s-3.42-1.53-3.42-3.42,1.53-3.42,3.42-3.42,3.42,1.53,3.42,3.42"/>
    </g>
  </g>
  <g class="cls-12">
    <g class="cls-5">
      <path class="cls-32" d="M387.43,107.53c0,1.89-1.53,3.42-3.42,3.42s-3.42-1.53-3.42-3.42,1.53-3.42,3.42-3.42,3.42,1.53,3.42,3.42"/>
    </g>
  </g>
  <g class="cls-12">
    <g class="cls-6">
      <path class="cls-32" d="M377.71,107.53c0,1.89-1.53,3.42-3.42,3.42s-3.42-1.53-3.42-3.42,1.53-3.42,3.42-3.42,3.42,1.53,3.42,3.42"/>
    </g>
  </g>
  <line class="cls-45" x1="152.28" y1="92.3" x2="179.13" y2="92.3"/>
  <line class="cls-45" x1="186.53" y1="92.3" x2="192.12" y2="92.3"/>
  <path class="cls-32" d="M364.48,148.48h-228.96c-5.39,0-9.76-4.37-9.76-9.76s4.37-9.76,9.76-9.76h228.96c5.39,0,9.76,4.37,9.76,9.76s-4.37,9.76-9.76,9.76"/>
  <path class="cls-41" d="M363.61,138.2c0,.9-.28,1.74-.75,2.43-.78,1.13-2.08,1.88-3.56,1.88-2.38,0-4.31-1.93-4.31-4.31s1.93-4.31,4.31-4.31,4.31,1.93,4.31,4.31Z"/>
  <line class="cls-45" x1="365.56" y1="143.55" x2="362.62" y2="141.25"/>
  <g class="cls-23">
    <g class="cls-58">
      <path class="cls-32" d="M354.04,277.16c-.14.71-.59,1.49-1.18,1.98-.43.36-1.78,1.07-1.93.06-.04-.28.26-1.6.38-1.87.33-.79.69-.28,1.23-.17.55.11,1.07-.4,1.51,0"/>
      <path class="cls-32" d="M350.36,194.82c.19.68.32,1.35.47,1.98-.52.78-1.55.49-2.31.91-.36.2-.46.91-.8,1.02-.28.09-.49-.29-.75-.28-.68.02-1.01,1.36-1.84,1.02-.48.34.02,1.64-.57,1.75-.41.08-.64-.57-.9-.96-.3-.48-.74-.74-.75-1.13-.01-.4.68-1.08.89-1.36.27-.35.79-.99,1.13-1.08.63-.17,1.27.07,1.75-.17.41-.21.44-.99.66-1.19.19-.17.4-.12.57-.23.44-.28.91-1.26.66-2.27-.16-.63-1.03-1.32-.47-2.1.83.11,1.94,1.1,2.07,2.1.05.39-.13.78-.1,1.19.02.23.2.49.28.79"/>
      <path class="cls-32" d="M350.55,188.64c-.11.29-.32.23-.52.4-.19.16-.42.68-.66.74-.38.09-.8-.45-1.18-.34-.44.13-.18.53-.33,1.02-.39-.1-1.02-.62-1.04-1.13-.01-.32.34-.52.43-.9.14-.65-.22-.97-.43-1.59-.01-.09.05-.1.05-.17.46-.12,1.36.93,2.4,1.13.67.13,1.23.06,1.27.85"/>
      <path class="cls-32" d="M348.81,246.13c.05.47-.64.42-.71.11.01-.36.62-.48.71-.11"/>
      <path class="cls-32" d="M345.51,183.89c.47.3,1.6.97.8,1.59-.48-.22-.98-.95-.8-1.59"/>
      <path class="cls-32" d="M343.34,243.64c.54-.35,1.13-1.13,2.07-.74-.21.7-.92.69-1.37,1.02-.45.33-.84.9-1.41.96-.04-.1-.11-.18-.19-.23,0-.63.52-.78.9-1.02"/>
      <path class="cls-32" d="M342.07,232.99c.55,0,1.07-.2,1.46.06-.07,1.42-1.9.34-3.11.57-.26.05-.33.29-.61.17.01-.48.45-.96.89-1.02.35-.04.86.23,1.37.23"/>
      <path class="cls-32" d="M342.54,234.74c.05.78-.84.87-1.08,1.48.39.72.54,1.72.99,2.38-.02.43.07,1-.14,1.19-.95.22-1.46-1.83-1.84-2.55-.73.16-.06,2.95-1.04,2.61-.48-.17,0-.97-.1-1.59-.09-.54-.53-.65-.57-1.08-.03-.35.32-.72.42-1.08.15-.51.05-1.5.57-1.53.25-.01.59.64.76.68.56.15,1.23-.69,2.03-.51"/>
      <path class="cls-32" d="M340.8,243.18c-.17.43-1.14.22-1.22-.17.17-.45,1.14-.31,1.22.17"/>
      <path class="cls-32" d="M339.9,244.54c-.06.09-.12.16-.19.23-.36-.14-.74-.24-.85-.68.26-.47,1.02-.08,1.04.45"/>
      <path class="cls-32" d="M338.63,243.13c-.24.41-1.07-.03-1.37.4-.49-.01-.98-.02-1.08-.51.14-.42.59-.13.94-.17.57-.06,1.36-.54,1.51.28"/>
      <path class="cls-32" d="M331.98,264.82c0-.5-.26-.94-.33-1.47-.02-.19.02-.44,0-.68-.03-.35-.17-.64-.14-.85.07-.38.43-.41.52-.74.15-.53-.18-.61-.19-1.25,0-.45.28-.66.47-1.25.09-.27.09-.77.19-.96.12-.24.64-.45.85-.57.72-.43,1.3-1.22,2.03-1.36.18-.04.43.03.57,0,.43-.09.96-.52,1.55-.68.57-.15,1.08-.1,1.51-.4.47-.33,1.14-1.19,1.32-1.7.22-.62.15-1.15.57-1.36.2-.1.4,0,.61-.06.22-.07.69-.34.85-.51.33-.35.38-.93.75-1.3.26-.26.74-.65,1.08-.85.2-.12.58-.25.75-.23.66.07.97,1.18,1.7.96.26-.08.52-.74.76-1.13.34-.58.59-1.36,1.18-1.53.48-.14,1.01.22,1.27-.28.06-.36-.22-.57,0-.79.55.04,1.48.93,2.31.96.45.02,1.28-.59,1.37.23.04.36-.33.65-.42,1.02-.06.26.09.4-.05.68-.38.18-.79.28-.8.79-.01.65.76.95,1.22,1.3.32.24.59.61.76.74.15.1.38.15.47.23.31.24.52.78.94.79.48.01.96-.72,1.22-1.42.31-.82.33-1.81.47-2.66.05-.29.22-.57.28-.85.18-.77.43-1.82.99-2.1.56.72.76,2.11.66,3.29.38.34,1.04.23,1.13,1.02.03.27-.11.62-.09.9.03.48.33.9.38,1.3.09.75-.11,1.38.19,1.93.37.69,1.09.67,1.56,1.42,0,.46.14.65.24,1.02.04.17,0,.46.05.57.15.38.56.42.71.74.07.16.05.45.14.74.13.42.44.73.66,1.13.21.39.56.82.61,1.13.1.56-.25.95-.33,1.41-.1.56,0,1.29-.19,1.87-.22.68-.76,1.35-1.18,2.21-.35.71-.82,1.5-1.32,1.98-.3.29-.65.45-.94.74-.45.44-.82,1.02-1.22,1.53-.43.54-.94.95-1.27,1.41-.48.67-.73,1.76-1.55,1.87-.49.06-.92.01-1.37.23-.7.33-1.16.95-1.51.96-.36.01-.7-.51-1.04-.57-.38-.06-.67.34-1.22.34-.23,0-.34-.16-.66-.28-.67-.26-1.41-.25-1.51-1.13-.05-.48.26-.7.24-1.13-.02-.43-.37-.54-.52-.91.09-.39.11-.88-.24-1.13-.01-.35.06-.6.19-.79-.27.14-.63.23-.94.46-.34.25-.59.82-.99.74-.37-.16-.09-.6-.14-.96-.04-.27-.56-1.45-.8-1.64-.27-.22-1.27-.67-1.6-.74-1.46-.27-2.39.66-3.54.8-.29.03-.62-.06-.89,0-.95.2-2,1.1-2.59,1.7-.97.12-1.96-.24-2.97.12-1,.35-1.57,1.35-3.11,1.07-.31-.32-.85-.47-.85-1.02,0-.43.53-.71.71-1.02.19-.33.5-1.11.52-1.59,0-.38-.21-.83-.19-1.3.02-.37.19-.77.19-1.13"/>
      <path class="cls-32" d="M331.18,241.2c.26-.04.45-.27.71-.28.55-.03,1.09.49,1.74.39.14.18.05.34.05.62.55.35,1.46.29,1.74.96-.41.53-1.03.15-1.56.06-.48-.08-.99-.04-1.51-.11-.66-.09-1.26-.53-1.88-.62-.38-.06-.77.07-1.13,0-.42-.08-2.01-.8-2.03-1.3-.02-.52.71-.67,1.37-.57.85.13,1.41,1.03,2.5.85"/>
      <path class="cls-32" d="M332.45,237.29c-.36-.12-.69-.05-.85-.17-.32-.24-.27-.92-.38-1.3-.1-.39-.49-.6-.71-1.13-.31-.77-.44-2.5.38-2.66.33-.07.67.24.89.17.45-.13.38-.84.75-1.13.21-.16.6-.1.9-.23.31-.14.54-.49.75-.79.2-.28.35-.76.61-.96.29-.23.57-.24.8-.45.62-.57.64-1.36,1.13-2.04.42-.58,1.08.56,1.13,1.02.23.36.69.45.89.85-.28,1-1.06,1.08-.89,2.49.03.23.16.66.28.96.14.33.53.69.52.9-.03.42-.74.4-.9.85-.14.41.01.44-.05,1.08-.2.46-.73.57-.9,1.13-.2.67.03,1.54-.42,2.04-.31-.02-.66.32-1.04.28-.41-.05-.81-.73-1.46-.74-.25,0-.55.19-.8.17-.2-.02-.36-.24-.66-.34"/>
      <path class="cls-32" d="M329.4,236.03c1.2,0,1.2,2.24,0,2.24s-1.2-2.24,0-2.24"/>
      <path class="cls-32" d="M327.65,235.76c.15.02.67.9.66,1.13-.02.4-.51.38-.66.91-.22.81.1,1.74-.28,2.15-.21.16-.6.11-.94.11-.85-.72-1.53-1.58-2.26-2.55-.27-.35-.59-.65-.75-1.02-.25-.54-.33-1.14-.61-1.64-.25-.44-.7-.76-.94-1.25-.2-.4-.22-.92-.42-1.3-.2-.36-.52-.51-.76-.79-.15-.19-.24-.48-.38-.68-.59-.85-1.73-1.3-1.79-2.55.24-.33.49.12.94.23.29.07.64-.03.85.06.43.17.72.98,1.18,1.42.26.25.59.42.85.68.28.28.49.68.71.85.31.23.73.37,1.13.68.55.42,1.52.85,1.65,1.7.03.21-.08.57-.05.73.07.3.38.43.57.68.23.32.28.79.61.85.33.11.35-.45.71-.4"/>
      <path class="cls-32" d="M305.4,223.87c.41.16,1.76,2.14,1.37,3.23-.11.31-.58.71-1.04.62-.93-.18-.76-2.67-.47-3.68.03-.08.07-.14.14-.17"/>
      <path class="cls-32" d="M274.05,252.53c.04-.46.31-1.2.61-1.47.43-.39,1.02-.35,1.46-.62.36-.23.86-.6,1.13-1.02.23-.35.24-.76.42-1.02.13-.18.41-.23.57-.45.14-.2.11-.57.33-.79.65-.34.84,1.1.94,2.09.03.31.16.64.14.79-.07.45-.48.54-.61.85-.03,1.24-.44,2.32-.8,3.34-.31.88-.5,1.85-.75,2.61-.09.28-.29.49-.38.74-.34.96-.46,2.48-1.08,2.89-.22.15-1.08.4-1.32.4-.58-.01-1.08-.53-1.22-1.13-.08-.32,0-.66-.05-1.02-.06-.45-.28-.84-.24-1.36.11-1.15,1.04-1.71,1.09-2.66.03-.71-.3-1.43-.24-2.15"/>
      <path class="cls-32" d="M251.34,171.94c.05.95-1.21.83-1.37,1.64-.07.37.15.86.1,1.19-.1.6-.57.42-1.18.74-.31.16-.61.75-.94.79-.31.04-.5-.22-.71-.17-.31.07-.21.53-.66.62-.36.08-.99-.39-1.04.17-.03.36.57.55.94.51.3-.03.51-.28.8-.28.56,0,.92.5,1.27.51.81.03,1.6-.9,2.45-.79.38.05.61.37.89.34.45-.05.84-.68,1.18-.91-.14-.95.01-2.21.75-2.26.51-.04,1.27,1.05,1.37,0,.04-.46-.4-.86-.71-.85-.27,0-.63.64-.85.11,0-.52.49-.38.75-.51.2-.1.34-.36.57-.45,1.12-.47,2.68.46,3.11-.68-.99-1.02-2.69.37-3.82.28-.48-.04-1.12-.47-1.27-1.02-.05-.18,0-.41-.05-.74-.04-.36-.2-.74-.19-.96.05-1.02,2.17-1.22,2.17-2.49-.4-.47-1.59-.39-1.98.11-.14.18-.13.54-.33.91-.42.77-1.79.87-2.21,1.81-.1.21-.26.79-.19,1.13.11.54,1.1.68,1.13,1.25M240.12,227.33c-1.36-.24-2.75.42-3.68.9-.54.28-1.08.71-1.55.74-.45.03-.89-.29-1.32-.34-.56-.07-1.28,0-1.84.11-.54.12-1.03.58-1.51.62-.91.08-1.78-.99-2.36-1.53-.35-.33-.71-.6-1.04-.91-.35-.33-.81-.53-1.08-.85-.37-.43-.37-1.18-.57-1.76-.23-.67-.93-1.17-1.46-1.81-.4-.48-1.31-1.2-1.41-1.81-.05-.32.11-.68.09-1.02-.02-.5-.34-.78-.33-1.13,0-.5.5-.88.61-1.3.06-.21.03-.52.09-.79.13-.58.45-.92.38-1.76-.03-.33-.27-.64-.28-1.08,0-.3.16-.46.14-.74-.04-.48-.56-.58-.61-1.13-.05-.57.46-1.05.76-1.7.13-.29.21-.74.33-.96.27-.48.7-.72.9-1.19.15-.35.2-.87.33-1.13.17-.34.52-.52.85-.96.27-.36.38-.8.57-.96.24-.21.59-.26.85-.4.87-.48,1.51-1.09,1.93-2.1-.13-.91.07-1.3.38-1.92.29-.58.5-1.14.99-1.47.59-.4,1.14-.44,1.55-1.19.21-.38.51-1.02.52-1.41,0-.56-.48-1.28-.9-1.36-.43-.08-1.08.39-1.32-.17-.08-.18.03-.6,0-.79-.05-.37-.32-.63-.33-.91-.02-.53.44-1.08.57-1.7.18-.84,0-1.48-.05-2.44.66-1.25,2.12-.63,3.58-.51.22.02.47-.06.71-.06.87.02,1.55.34,1.84-.57.11-.34.21-1.61.14-1.93-.08-.38-.7-1.36-.99-1.59-.47-.36-1.15-.2-1.41-.85.22-1.12,1.26-.19,1.88-.45.32-.14.28-.8.57-.91.19-.07.44.23.71.23.23,0,1.05-.51,1.27-.68.3-.24.39-.75.66-.96.18-.14.42-.12.61-.23.4-.21.91-.63,1.18-1.02.39-.56.56-1.25,1.04-1.36.63-.14,2.06.15,2.17-.68.1-.79-.58-1.41-.33-2.27.2-.67.7-.55,1.41-.96.34.29.24,1.13.28,1.64.44,0,1.33-.16,1.41-.62.1-.58-.64-1.18-.8-1.53-.18-.38-.21-1.05-.57-1.13-.72-.17-1.41,1.19-2.31,1.19-.59,0-1.21-.55-1.37-1.08-.09-.3,0-.59-.05-.91-.06-.46-.29-.94-.19-1.58.36-.74,1.19-.86,1.79-1.25.23-.14.41-.45.66-.57.42-.19,1.05,0,1.46-.28.26-.18.19-.49.38-.85.12-.23.41-.36.57-.62.11-.18.12-.46.24-.62.41-.61,1.16-.84,1.46-1.47.13-.28-.23-.39-.14-.79.15-.39.74-.11,1.08-.17.47-.09.9-.77,1.41-.91.53-.14,1.11-.05,1.6-.28.3-.14.57-.46.85-.51.1-.02.38.06.52.06.18,0,.37-.14.61-.17.35-.04.78.1,1.23.11.74.02,1.45-.27,2.07.06.32.17.29.61.71.79.21.09.49-.04.8,0,.46.05.94.44,1.56.51.22.03.44-.03.66,0,.67.1,1.41.53,2.08.79.55.22,1.72.5,1.74,1.13.03.74-1.02.96-1.46.96-.74,0-1.72-.52-2.5-.23.01,1.28,1.16,2.25,2.21,2.1.09-.6-.6-.27-.52-.85.47-.43,1.03.29,1.7.17.26-.08.21-.54.28-.85.56-.41,1.26-1.01,2.12-.57.04-.1.11-.18.19-.23.06-.62-.57-.95-.23-1.53.16-.4,1.04-.26,1.18.06.07.38-.22.34-.19.68.17.45.55.52.75.51.46-.03.55-.53.99-.79.18-.11.43-.12.66-.23.27-.13.49-.38.71-.45.16-.05.39,0,.61-.06.28-.07.57-.34.8-.34.28,0,.49.39.85.45.2.03.42-.13.71-.17.23-.03.47.03.66,0,.45-.08.76-.36,1.13-.34.26.02.71.44.89.23.31-.36-.41-.63-.19-.96.72.07,1.49.05,2.22.17,1.08.18,2.09.83,3.06.85-.09-.79-.84-.56-1.18-.91-.1-.1-.52-.93-.52-1.19,0-.13.53-1.22.66-1.36.42-.47,1.78-.47,2.17.17.27.43.18,1.09.57,1.08.33-.01.51-1,.9-1.02.32-.02.48.63.8.62.39,0,.66-.88,1.18-.91.28-.01.37.17.8.23.29-.23-.1-.53.05-.85.53-.46,1.73-.11,2.4-.4.19-.27-.24-.46-.05-.74.58-.49,1.56-.53,2.55-.73.61-.12,1.18-.63,1.65-.68.49-.05.97.35,1.41.34.27,0,.59-.1.85-.23.26-.12.45-.43.71-.51.41-.12.94.06,1.41,0,.51-.06.95-.3,1.32-.23.34.07.62.5.94.57.99.19,2.02-.18,2.92.11.16.05.33.25.52.34.61.27,1.02.18,1.13,1.08.48.2.76.73,1.32.91.38.12.76-.06,1.18-.06.56,0,1.27.03,1.74.11.27.05.49.29.76.34.19.04.44-.03.66,0,.3.03.56.18.8.17.49-.02.87-.55,1.27-.62.22-.04.51.09.71.11.79.08,1.71-.12,2.36.06.35.1.94.56,1.32.91.28.25.45.66.71.85.25.18.88.5,1.13.45.3-.06.31-.46.61-.62.94-.25,2.6.36,3.35-.06.29-.16.23-.53.47-.74,1.41-.08,2.82.07,4.15.11.47.02.95-.14,1.37-.06.47.1.81.66,1.27.85.31.13.85.06,1.32.17.31.07.57.3.8.34.5.08.99-.07,1.46-.11,1.08-.1,2.47-.17,3.54.34.57.27.8.83,1.41.9.87.12,2.22-.09,3.11,0,.21.02.41.13.57.11.3-.03.48-.33.85-.34.47-.01,1.21.87,1.89.74.29-.24-.23-.57.05-.79.27-.27.63,0,1.04,0,.22,0,.5-.14.71-.11.52.05,1.01.61,1.65.79.51.14,1.21.2,1.84.12.45-.06.84-.24,1.27-.17.21.04.39.22.61.28.2.06.4,0,.57.06.16.05.31.23.47.28.88.3,2.04.45,2.97.79.54.2,1.1.61,1.55.62.22,0,.42-.12.71-.11,1.42.01,3.1.72,2.97,2.32-1.67.44-3.06-1.38-4.81-.85-.28.08-.59.45-.56.79.07.99,2.13.9,2.31,1.87-.34.3-.71.02-.99.06-.42.06-1.14.6-1.41.91-.32.36-.6,1.28-.94,1.36-.42.1-1.06-.5-1.7-.34-.23.06-.45.41-.66.45-.52.12-1.18-.34-1.51.4.17.52.07,1.24.42,1.53.23.19.52.04.8.17.33.15.51.63.8.91.23.22.48.23.61.51.03.42-.14.46-.09.74.07.48.69.58.71.9.02.41-.39.32-.47.74-.03.26.25.33.28.68.02.23-.15.47-.14.74.02.38.27.63.23.96-.03.29-.23.51-.42.62-.9-.7-1.71-1.66-2.69-2.55-.99-.92-2.57-2.04-2.73-3.96,0-.3.52-.53.61-.96.04-.18-.06-.43-.05-.68.03-.67.49-1.3.47-1.7-.02-.43-.69-1.24-1.04-1.36-.27.17,0,.52-.05.79-.05.34-.4.76-.71.79-.89.09-.99-1.38-2.4-.96-.36.11-.88.77-.75,1.59.04.25.6.51.57.85-.04.33-1.28.42-1.56.4-.76-.07-1.15-.76-1.84-.74-.34.01-.63.34-.9.4-1.48.33-3.69-.88-4.19.68-.07.22-.03.51-.1.74-.09.33-.31.58-.38.79-.06.18-.05.52-.14.79-.09.25-.98,1.21-.19,1.47.19.06.28-.1.52-.06.4.07,1.08.85,1.55.85.28,0,.68-.38.89-.4.44-.03.75.31,1.08.51.32.19.8.58,1.04.57.44-.03.23-.4.66-.57.82.29,1.2,1.33,1.98,2.15.28.3.7.55,1.08.96.21.23.87.84.9,1.13.02.27-.18.39-.24.62-.08.35.1.6-.09.85-.75-.33-.92-1.23-1.46-1.98-.2-.28-.4-.62-.71-1.02-.14-.18-.64-.82-.94-.68-.59.27.33,1.35.47,1.59.31.5.73,1.17.76,1.7.02.34-.18.95-.19,1.53,0,.39.08.74.05,1.08-.04.33-.23.71-.33,1.08-.11.42-.14.91-.23,1.19-.18.51-.8,1.11-1.23,1.13-.39.02-.56-.36-.94-.34-.58.03-.69.68-1.04,1.19.03.56.17.75.09,1.13-.13.6-.82.7-.8,1.3.02.55.64.66.94.91.42.34,1.16,1.08,1.56,1.7.26.4.64,1.16.61,1.58-.04.56-1.38,1.34-1.93,1.13-.53-.2-.35-.8-.47-1.36-.1-.43-.38-.61-.52-.96-.08-.18-.04-.47-.14-.68-.29-.58-.78-.26-1.37-.62-.38-.24-.27-.74-.42-1.19-.2-.61-1.06-.9-1.74-.73-.51.12-.66.63-1.13.73-.69-.49.14-1.71-.71-1.81-.65-.08-1.08,1.12-1.46,1.47-.26.24-.72.29-.75.62-.06.62.55.5,1.04.74.44.22.49.82.9.85.34.03.56-.42.89-.45.58-.06,1.05.25,1.41.51-.24.69-1.51,1.19-1.51,2.1,0,.52.51.62.9.96.33.29.76,1.12,1.23,1.7.2.25.52.41.61.57.22.37.18.83.42,1.08.04.31-.12.39-.09.68.12.41.64.33.75.74-.1.98.24,1.9-.42,2.27-.31,1.75-.65,3.12-1.65,4.08-.9.86-2.08,1.11-3.16,1.53-.28.11-.5.46-.75.57-.63.26-1.74.1-1.79,1.02-.03.45.48.73.52,1.19.06.71-.47,1.42-.85,1.47-.27.04-.86-.19-.9-.79-.04-.68.7-.95.76-1.36.1-.72-.52-1.42-1.23-1.36-.62.06-2.04,1.56-2.07,2.38-.03.61,1.01,1.89,1.37,2.27,1.32,1.4,2.73,2.24,2.5,5.66-.33.87-1.18,1.05-1.84,1.53-.5.36-.76,1.49-1.6,1.59-.34-.14-.14-.78-.24-1.07-.13-.41-.8-.61-1.23-1.02-.35-.34-.49-.88-.75-1.19-.33-.39-.82-.47-1.23-.74-.25-.17-.45-.75-.71-.73-.42.02-.27.5-.38,1.3-.11.79-.58,1.39-.43,2.32.07.38.46.69.66,1.08.33.64.37,1.39.71,1.76.22.24.6.3.85.51.5.43,1.38,1.36,1.56,1.87.2.6,0,1.3.14,1.93.16.73.95,1.24.47,1.98-.45-.1-.85-.45-1.23-.74-.65-.48-.95-.9-1.37-1.7-.12-.23-.31-.46-.38-.68-.16-.51-.13-1.08-.28-1.7-.13-.53-.64-1.37-1.04-1.81-.33-.38-.92-.59-.94-1.13-.03-.76.21-1.65.19-2.55,0-.19-.11-.39-.14-.62-.05-.43.04-.97-.05-1.36-.08-.36-.3-.69-.42-1.02-.13-.33-.25-.65-.38-1.08-.19-.65-.41-1.92-.85-1.98-.47-.07-.94,1.06-1.55,1.08-.32,0-.74-.3-.8-.68-.06-.35.15-.7.14-1.08-.02-.76-.47-1.05-.8-1.59-.14-.22-.17-.52-.28-.68-.21-.31-.62-.48-.89-.79-.26-.3-.54-.73-.66-1.02-.18-.44-.24-1.02-.52-1.08-.27-.06-.57.4-.85.51-.29.11-.99.26-1.27.28-.95.08-1.71-.22-1.6,1.13-.15.61-.68.62-1.04.9-.45.37-.78,1.11-1.27,1.7-.24.29-.59.47-.8.74-.18.22-.24.58-.42.79-.5.57-1.26.62-1.6,1.42-.02.94.37,1.65.28,2.55-.04.41-.29.77-.33,1.19-.03.36.12.75.05,1.13-.04.21-.23.31-.38.57-.13.23-.18.53-.28.68-.16.24-.42.41-.57.62-.24.34-.29.58-.52.62-1.03.18-1.29-2.18-1.74-3.17-.21-.45-.64-.87-.85-1.42-.24-.64-.32-1.43-.66-2.15-.29-.62-.7-1.23-.9-1.87-.17-.54-.31-1.21-.47-1.81-.17-.63-.35-1.43-.38-1.92-.04-.74.12-1.19-.38-1.47-.45.13-.66.68-1.18.68s-1.85-1.05-1.46-1.98c-.33-.56-1.16-.87-1.79-1.53-.36-.38-.69-1.28-1.32-1.36-.17-.02-.4.1-.57.11-.4.04-1.11-.04-1.56,0-.57.05-1.26.21-1.98.11-.46-.06-1.03-.17-1.51-.23-.6-.08-1.4-.25-1.74-.62-.21-.23-.29-.97-.66-1.08-.44-.12-.68.28-1.08.4-.86.24-1.58-.21-2.17-.68-.41-.33-.79-.5-1.08-.74-.72-.58-.85-2.31-1.93-2.32-.38,0-.98.28-1.04.79-.04.36.36,1.03.52,1.3.53.9,1.5,1.23,1.79,2.43.2.09.59-.21.8.06.18.52,0,1.48.42,1.7,1.96.39,2.52-.9,3.39-1.81.51.4.34.75.52,1.19.18.45.46.81.8.96.24.11.54,0,.9.17.22.1,1.15,1.16,1.18,1.53.02.33-.61,1.47-.8,1.75-.19.28-.48.43-.57.68-.07.2-.05.61-.09.74-.09.23-.51.52-.76.79-.26.29-.56.51-.8.74-.3.28-.48.65-.8.79-.63.28-1.22.16-1.74.57-.34.26-.34.87-.75,1.19-.43.34-1.17.34-1.79.68-.4.22-.64.64-.99.79-.14.06-.32,0-.47.06-.31.1-.6.36-.9.45-.23.07-.48.04-.71.12-.73.25-1.39,1.14-2.12.62-.34-.95-.4-2.16-.8-3-.2-.43-.61-.57-.75-1.02-.02-.36.35-.26.38-.57-.12-.61-.6-.9-.89-1.42-.14-.25-.21-.61-.38-.9-.56-.98-1.67-1.49-1.89-2.72-.06-.33,0-.6-.05-.85-.09-.42-.33-.86-.57-1.19-.18-.25-.55-.42-.75-.79-.14-.24-.17-.59-.28-.85-.47-1.05-1.15-1.98-1.89-2.72-.38.07-.8.1-.99.4.19.74.49,1.36.8,1.98.29.57.7,1.17.9,1.81.07.24.06.54.14.79.3.9,1.23,1.17,1.41,2.21.12.69-.03,1.17.14,1.87.16.67.98,1.06,1.32,1.7.28.52.28,1.26.47,1.76.28.73,1.07,1.04,1.65,1.53.52.44.89,1.11,1.32,1.58.25.28.6.33.66.62.08.38-.13.51-.19.85.36.45.71,1.29,1.32,1.36.25.03.56-.27.94-.34.19-.03.41.04.57,0,.25-.05.47-.32.76-.4.48-.12,1.04-.07,1.65-.17.58-.09.97-.68,1.41-.51.49.64.14,1.36,0,1.98-.05.22-.05.44-.09.62-.26,1.01-.92,1.76-1.23,2.66-.09.28-.08.62-.19.91-.35.91-1.08,1.8-1.65,2.55-.32.42-.6.8-.94,1.13-.34.33-.75.52-1.13.85-.76.66-1.54,1.61-2.07,2.49-.21.34-.3.73-.52,1.02-.31.41-.78.61-1.04,1.02-.2.32-.33.9-.57,1.47-.26.65-.8,1.09-.71,1.98.04.34.29.56.38.91.15.6.03,1.11-.05,1.75.27.78.46,1.64.94,2.15.06,1.15-.08,2.26,0,3.23.05.62.25,1.07.05,1.64-.18.5-.86,1.38-1.27,1.7-.44.35-1.13.43-1.6.85-.33.29-.61.79-.94,1.13-.56.56-1.32,1.08-1.37,1.64-.03.32.21.82.28,1.13.18.84.36,2.04.05,2.95-.34.98-2.07.78-2.26,1.81-.06.31.12.57.09.91-.02.29-.33,1.33-.47,1.64-.21.47-.68.68-.99,1.08-.39.5-.58,1.23-.99,1.75-.56.72-1.31,1.47-2.03,2.1-.63.54-1.75,1.11-2.73,1.19-.57.05-1.19-.16-1.79-.06-.22.04-.46.28-.76.34-.17.03-.34-.04-.52,0-.3.06-.57.34-.85.34-.61,0-1.4-.88-1.41-1.75,0-.34.24-.65.24-.96,0-.36-.37-.82-.66-1.47-.27-.63-.38-1.35-.66-1.87-.29-.55-.68-.81-.89-1.25-.43-.87-.47-1.9-.61-2.95-.05-.34-.24-.71-.28-1.13-.05-.52.05-1.1-.05-1.53-.08-.33-.38-.67-.57-1.08-.33-.73-.57-1.69-.85-2.26-.27-.54-.8-1.09-.85-1.7-.03-.41.04-1.18.09-1.59.05-.4.3-.71.38-1.13.05-.28,0-.6.05-.91.24-1.3,1.43-1.77,1.27-3.34-.07-.67-.46-1-.52-1.76-.03-.35.15-.67.14-1.02,0-.48-.35-1.19-.52-1.64-.48-1.25-.77-2.39-1.46-3.34-.38-.52-.87-.88-1.18-1.36-.25-.39-.56-1.12-.57-1.41,0-.32.21-.53.28-.85.1-.42.11-1.21.24-1.87.06-.3.33-1.04.28-1.53-.05-.47-.63-1.38-1.13-1.53-.66-.2-1.34.25-2.17.17-.72-.55-.66-1.97-1.7-2.15M266.18,247.6c.22-.42.49-1.59,0-1.87h-.09c-.21.47-.43,1.61.09,1.87M265.52,235.76c.16-.39.53-.81.47-1.3-.14-1.09-1.83-.55-2.02.23-.13.52.08.94-.1,1.47.19.42.65.5,1.23.45.32-.17.28-.49.42-.85M262.65,241.6c.19-.42-.3-.69-.38-1.13-.09-.52.11-1.14-.28-1.42h-.14c-.34.93.14,2.46.8,2.55M294.79,185.36c-.18-.43-.69.13-.47.51.32.02.43-.2.47-.51M283.81,187.68c.76-.18,0-1.64-.57-1.47-.75.23.05,1.59.57,1.47M280.32,194.99c.24-1.96-1.04-2.11-1.27-3.51.11.02.05-.16.14-.17.31-.18.78.29.94-.17,0-.67-.7-1.17-1.41-.85-.2-.17-.23-.55-.28-.91-.53-.38-1.86-1.22-1.84-1.98.02-.63.69-.98,1.46-.96.33-.29.12-1.2-.19-1.41-1.22-.32-1.87-.11-2.64.57-.37.32-.78.54-.99.74-.19.18-.45.66-.42.91.03.35.45.56.61,1.02.08.24.07.54.14.74.21.55.73.9,1.13,1.36.28.32,1.07,1.03,1.08,1.41.01.32-.24.4-.33.74-.09.34-.19,1.12-.14,1.42.1.62.64.64,1.13.91.49.26.96.72,1.46.73.54.02,1.11-.19,1.41-.57M269.25,190.91c1.28-.28.69-1.57.05-2.04-.49-.35-1.08-.66-1.65-1.08-.33-.24-1.59-.7-1.6-1.19-.01-.53.94-.71.57-1.64-.65-.19-2.18.11-2.07.96.06.49.55.22.66.74-.46.2-1.02.71-1.51.62-.58-.11-.73-.96-1.04-1.47-.45.02-.74-.52-1.27-.45-.55.07-.85,1.04-1.13,1.53-.15.26-.39.39-.47.62-.05.14,0,.36-.05.57-.16.63-.61.86-.57,1.42.04.49.49.71.52,1.13-.03.43-.61.21-.57.74.84.84.89-.39,1.32-.57.35-.14,1.02.11,1.46,0,.35-.09.63-.5,1.04-.68.25-.11.55-.21.9-.23,1.5-.07,2.47,1.1,3.77,1.13.43.01,1.2-.02,1.65-.11M266.23,197.59c.03-.61-.19-1.07-.24-1.92-.87-.63-1.52.58-2.4.45-.54-.08-.93-.84-1.51-.74-.32.06-.47.55-.8.62-.67.15-.98-.65-1.7-.34-1.01-.92-1.46-2.43-1.7-4.13-.55-.87-1.39-.16-1.79.4-.25,0-.56-.17-.61.17-.19,1.05,1.23,1.16,1.22,1.87,0,.46-.55.42-.8.73-.26.34-.09.64-.42.85-.93.14-1.24-.48-1.23-1.47-.4-.73-.91-1.27-1.27-1.87-.13-.22-.34-.57-.38-.91-.03-.26.1-.6.05-.91-.1-.54-.94-.95-1.46-1.25-.56-.32-1.25-.62-1.65-1.02-.28-.28-.41-.77-.66-.96-.21-.16-.47-.13-.66-.28-.26-.22-.21-.58-.56-.68-.18-.08-.45.21-.57.4-.23,1.23.61,1.32.99,1.87.26.38.39.94.66,1.19.28.27.67.22,1.04.4.25.12.42.5.66.68.45.33,1.17.39,1.23,1.02-.28.23-.91-.33-1.13.23-.06.37.24.56.24.9-.01.56-.53,1.17-.99,1.08-.05-.33.25-.6.24-.96-.02-.72-1.23-1.82-1.84-2.15-.29-.16-.64-.16-.9-.34-.46-.31-1.27-1.08-1.56-1.53-.34-.54-.62-1.53-1.37-1.47-.3.02-.55.36-.8.51-.23.14-.48.27-.71.45-.27.22-.5.44-.75.45-.59.03-1.09-.53-1.6-.4-.17.05-.31.23-.52.45,0,.33.08.54.05.9-.15.32-.61.3-.94.51-.49.31-.92.94-1.32,1.42-.26.3-.49.55-.52.79-.02.19.13.54.1.79-.04.27-.47.84-.76,1.08-.17.14-.39.16-.57.28-.37.26-.54.61-.85.68-.82.19-2.32-.2-2.31.85,0,.7.79.7,1.27.68.67-.03,1.23.17,1.6.06.26-.08.53-.42.8-.57.17-.09.34-.09.47-.17.28-.17.44-.45.66-.57.43-.24,1.23-.42,1.7-.45.63-.05,1.3.08,2.12,0,.29-.03.58-.25.9-.28.51-.05,1.19.24,1.6.23.29-.01.61-.35.94-.34.38,0,.78.33.85.62.04.17-.08.43-.05.68.05.41.35.58.33.85-.02.35-.76.83-.66,1.24.06.27.59.55.85.74.27.2.72.47,1.04.51.27.04.5-.09.76-.06.41.05,1.06.35,1.32.57.44.37.38.98.9,1.19.22.09.61.04.9.11.69.18,1.2.86,1.7.79.79-.11.43-1,.52-1.64.2-1.45,2.55-1.38,3.02-.4.34.11.65.02,1.04.17.23.09.39.39.61.45.16.05.4-.03.61,0,.9.12,1.72.93,2.5.79.49-.09.85-.64,1.32-.68.9-.07,1.48.81,2.45.4.72-.3.56-1.19.8-2.1.17-.63.5-1.06.52-1.53M317.04,178.28c.19-.72-.1-1.45-.47-1.93-.54.11-.15.79-.19,1.19-.05.56-.55.95-.52,1.53-.18.25-.49.36-.52.79.3.25.43-.2.66-.45.36-.41.91-.65,1.04-1.13M304.69,158.63c-.52,0-.71.25-1.04.45-.18.11-.54.18-.42.51.45-.07,1.35-.31,1.46-.96M284.8,165.6c1.11.31,1.63-1.19.89-2.04-.17-.2-.75-.28-.99-.74-.29-.55-.25-1.29-.94-1.13,0,.07,0,.16-.05.17-.07,1.24,1.44,1.55,1.41,2.55-.01.52-.47.58-.33,1.19"/>
      <path class="cls-32" d="M269.29,163.44c-.14-.61.83-.51.66.06-.15.17-.56.16-.66-.06"/>
      <path class="cls-32" d="M263.5,197.31c.02-.47.91-.64,1.08-.23-.06.45-.9.77-1.08.23"/>
      <path class="cls-32" d="M247.33,194.25c.49-.48,1.58-.15,2.26-.17-.13.43-.15.99-.42,1.25-.77-.17-1.49-.4-1.84-1.08"/>
      <path class="cls-32" d="M243.89,191.25c.65-.81,1.33-.38,1.08,1.19-.15.47-.83,1.1-1.13.4.1-.55.06-.95.05-1.59"/>
      <path class="cls-32" d="M244.83,189.44c.05.48-.11.69-.33.85-.62-.13-.15-1.47.33-.85"/>
      <path class="cls-32" d="M235.69,177.94c.05-.32-.16-.72-.43-.91-.15-.1-.39-.06-.57-.17-.46-.3-.63-.93-.89-1.08.03-.62-.14-1.07,0-1.47.09-.24.7-.93,1.04-1.08.41-.17.84-.02,1.08-.4.11-.02.18,0,.24.06,0,.36-.25.42-.28.74.06.52.81.19.9.68-.07.53-.47.63-.47,1.02,0,.34.57.97.85,1.42.21.33.57.57.76.91.16.29.2.64.33.79.25.28.81.33.85.74.05.54-.56.75-.47,1.36-.65.61-1.73.3-2.78.45-.48.07-1,.64-1.51.17-.12-.38.42-.43.47-.79-.04-.33-.39-.29-.47-.57.14-.44.57-.53.52-1.19.26-.35.77-.21.85-.68"/>
      <path class="cls-32" d="M232.15,176.58c.63-.46,1.73-.11,1.79.45.05.43-.33.49-.47.96-.12.43.02.95-.14,1.25-.14.26-.54.24-.8.34-.59.21-1.74,1.05-2.21.11.07-.5.47-.6.61-1.02,0-.33-.28-.5-.24-.85.06-.43.32-.28.71-.45.28-.13.4-.53.76-.79"/>
      <path class="cls-32" d="M199.96,164.29c.1.5-1.24,1.16-1.37.51-.1-.52,1.03-1.17,1.37-.51"/>
      <path class="cls-32" d="M198.4,291.94h-.71c.13-.09.58-.09.71,0"/>
      <path class="cls-32" d="M196.28,160.27c.06-.08.22-.08.28,0-.05.13-.08.28-.28.23v-.23Z"/>
      <path class="cls-32" d="M192.09,169.28c0,.31-.94.83-1.04.23-.02-.11,0-.32.19-.45.25-.19.84-.08.85.23"/>
      <path class="cls-32" d="M172.48,221.89c-.03.08-.07.14-.09.23-.5-.02-.05-.79.09-.23"/>
      <path class="cls-32" d="M153.34,182.3c.33-.23.65.35.42.62-.36.08-.46-.42-.42-.62"/>
      <path class="cls-32" d="M204.72,184.4c-.22-.07-.52-.05-.8-.11-.24-.05-.53-.14-.75-.17-.58-.08-1.21.12-1.56-.28.56-.9,1.31-1.78,2.03-2.55.21-.23.68-.39.57-.85-.4-.42-.89.03-1.27.28-.4.27-.87.66-1.32.74-.78.14-1.81-.27-2.45.23-.09.43.72.26.61.91-.31.06-.61.09-.85-.17-.22-.24-.09-.59-.24-.74-.24-.24-1.15-.31-1.55-.23-.5.1-.93.45-.99.96.6.33,1.58-.35,1.79.51-.33.7-1.09,1.09-.99,2.04.04.37.4.85.66.91.26.05.41-.26.66-.23.27.03.21.4.52.34.45-.23.71-1,1.22-.96.62.91-.56,1.35-1.22,1.64-.76.33-1.74.5-2.31.79-.3.15-1.44,1.48-1.6.45-.12-.74.56-.52.71-1.13-.73-.17-1.41.38-2.07.68-.95.43-2.55.7-2.78,1.98-.05.26.09.73-.05.91-.11.14-.79.16-1.08.28-.46.19-.85.59-1.13.68-.21.07-.53.05-.66.11-.38.18-.51.78-.94,1.19-.18.17-.57.29-.71.45-.24.29-.28,1.02-.71,1.13-.27.03-.5-.25-.76-.06-.03.72.21,1.7-.05,2.43-.56.55-1.17.93-1.89,1.42-.4.27-.75.34-1.23.62-.34.2-.65.69-1.04.96-.9.64-1.99,1.39-1.98,3,0,.35.15.73.19,1.13.02.24-.02.47,0,.74.06.59.41,1.35,0,1.76-.63-.31-1.44-.42-1.89-.96-.12-.56.25-1.02.19-1.53-.04-.41-.52-1.14-.8-1.19-.29-.05-.55.31-.85.28-.35-.03-.68-.62-1.13-.68-.66-.09-1.15.18-1.89.06-.71.46-.92,1.27-1.79,1.19-.31-.03-.59-.31-.94-.4-.38-.1-.97-.26-1.37-.23-.8.06-1.38.76-2.07,1.19-.61.38-1.47.85-1.65,1.64-.1.43-.02,1.02-.14,1.42-.08.26-.27.49-.38.73-.53,1.16-.97,2.69-.56,4.36.06.25.58,1.64.8,1.93.24.31.96.78,1.37.79.35,0,.75-.21,1.08-.28.39-.08.87-.09,1.23-.23,1.02-.39.82-2.05,1.84-2.61.45-.24.96-.29,1.74-.34.25.25.36.69.33,1.08-.03.29-.25.55-.38.96-.11.36-.13.79-.24,1.08-.14.38-.45.66-.57,1.02-.07.23-.03.52-.09.73-.11.37-.52.64-.33,1.02,1.01.48,2.23-.14,3.11.06.37.08,1.14.61,1.13,1.3,0,.52-.33.85-.38,1.42-.06.71-.3,1.58-.33,2.15-.04.94,1.15,2.56,1.98,2.55.9-.01,1.42-1.07,2.5-.51.36.19.74.88,1.13.85.33-.03.82-.71,1.04-1.19.26-.58.28-1.07.75-1.36.51-.32.91-.16,1.56-.45.29-.13.54-.35.8-.57.23-.19.47-.68.76-.34.38.45-.46.71-.14,1.19.65.42.99-.77,1.46-.79.15,0,.67.35.94.57.37.29.49.7.9.79.26.06.67-.12,1.04-.06.48.08.77.58,1.13.57.44-.01.66-.6,1.04-.68.83-.18,1.14.11,1.51.74.41.09.43-.57.8-.34-.21.49.07.72.24,1.13.11.26.09.45.19.57.22.26.66.26.99.51.35.26.54.75.94,1.3.41.56,1.1,1.15,1.65,1.19.52.04.94-.18,1.37-.11.98.14,1.58.73,2.26,1.36.38.35.73.6.85,1.02.09.29.04.69.14,1.02.21.7,1.06,1.04.75,2.26.14.36.46.49.8.74.27.2.51.62.8.68.19.04.4-.07.57-.06.54.05.9.3,1.37.51.29.13.66.19.85.34.24.19.27.85.57,1.02.19.11.62-.04.94,0,.51.07,1.19.44,1.65.46.28,0,.51-.14.75-.11,1.15.11,1.81,1.77,2.92,2.27.35.16.89.05,1.13.17.42.22.77,1.75.8,2.43.1,2.06-1.22,2.72-1.98,4.08-.16.28-.25.74-.47,1.13-.45.8-.96.97-.9,2.44.02.4.19.8.19,1.25,0,.55-.04,1.26-.14,1.75-.08.38-.34.68-.38,1.02-.04.34.08.61.05.91-.04.33-.31.79-.52,1.24-.44.97-.53,2.1-1.41,2.49-.52.23-1.22.1-1.79.34-.23.1-.52.35-.8.51-.82.46-1.99,1.08-2.21,2.1-.2.91.28,1.63.14,2.66-.15.31-.34.62-.57.96-.2.32-.31.7-.52,1.02-.28.43-.72.61-.9,1.19-.06.2-.02.43-.09.74-.03.11-.2.29-.28.51-.08.2-.07.46-.14.62-.21.52-.86,1.71-1.32,1.87-.98.33-2.01-.5-2.69-.34.1.57.44.51.66.91.13.23.2.54.38.79.21.29.4.4.43.74.05.7-.4,1.4-.71,1.64-.28.22-.87.35-1.37.45-.35.07-1.25.07-1.41.34-.24.39.13,1.36-.05,1.75-.35.83-1.3-.02-1.79.23-.04.43.09.88.38,1.07.3.21.75-.06.94.34-.1.56-.6.64-.71,1.19.01.54.15.68.09,1.02-.12.73-1.06.7-1.04,1.47.04,1.16,1.85.68,1.89,1.81.02.68-.52.69-.71,1.36-.1.36.06.44,0,.74-.08.4-.47.52-.47.96,0,.54.66,1.14.99,1.59.32.44.74,1.07,1.18,1.36.66.44,1.65.34,1.93,1.13-.09.48-.47.6-.85.74h-.09c-.13-.09-.58-.09-.71,0h-.66c-.63-.35-1.4-.57-2.17-.9-.28-.12-.59-.4-.9-.57-.23-.12-.48-.17-.66-.29-.41-.26-.86-1.09-1.27-1.42-.25-.2-.64-.31-.8-.51-.15-.19-.24-.61-.38-.85-.15-.26-.43-.45-.61-.74-.39-.62-.89-1.47-.9-1.93,0-.45.36-.76.24-1.19-.11-.4-.84-.31-.94-.79-.06-.29.21-.78.19-1.19-.01-.24-.38-.56-.24-.91.17-.4.49.03.75-.17-.2-.82.02-2.13-.66-2.38-.35.35.35,1.14-.24,1.36-.57-.3-.44-1.21-.57-1.87-.08-.44-.26-.83-.28-1.3,0-.25.08-.54.05-.79-.1-.76-.81-1.39-.85-2.15-.02-.37.19-.68.24-1.08.03-.27-.03-.57,0-.85.04-.36.21-.69.24-1.02.06-.62,0-1.69-.09-2.21-.12-.65-.55-1.21-.61-1.92-.02-.26.07-.69.05-1.02-.02-.31-.16-.61-.19-.96-.02-.32.07-.63.09-1.02.05-.71-.12-1.5-.09-2.21,0-.21.1-.36.09-.57,0-.58-.17-1.17-.19-1.76-.04-1.07.1-1.84-.05-2.83-.11-.75-.25-1.9-.47-2.38-.25-.53-1.24-1.42-1.74-1.76-.33-.22-.72-.3-1.08-.51-.77-.45-2.26-1.41-2.59-2.32-.1-.26-.09-.61-.19-.91-.21-.58-.64-1.08-.94-1.64-.58-1.07-1.05-2.41-1.65-3.51-.3-.56-.56-1.2-.9-1.64-.19-.26-.82-.51-.9-.91-.11-.52-.43-1.24-.38-1.64.07-.54.94-.98.94-1.47,0-.42-.47-.66-.57-1.02-.24-.87.14-1.37.42-2.1.09-.24.18-.62.28-.79.17-.31.52-.4.75-.74.13-.19.21-.58.38-.85.36-.57.94-.79,1.08-1.3.12-.42.19-2.52.05-3.23-.08-.41-.4-.75-.52-1.13-.21-.68-.26-1.43-.85-1.42-.36,0-.62.49-.85.79-.05.4-.03.84-.38.96-.54.19-.74-.68-1.37-.91-.25-.09-.65-.09-.8-.17-.46-.25-.6-1.05-1.08-1.36-.4-.26-.75-.17-.99-.57-.1-.27-.02-.77-.05-1.13-.52-.36-.96-1.72-1.56-2.04-.4-.21-1.01-.19-1.51-.4-.23-.1-.42-.22-.66-.28-.3-.08-.61-.09-.85-.23-.93-.56-1.44-2.36-2.59-2.32-.49.02-.97.57-1.41.57-.44,0-1.19-.43-1.74-.74-.58-.32-1.22-.5-1.7-.79-.38-.24-.65-.67-.99-.85-.26-.14-.64-.16-.85-.28-.3-.17-.62-.54-.99-.85-.36-.3-.74-.75-.75-1.13-.02-.44.34-.82.38-1.25.12-1.35-.71-2.32-1.23-3.12-.39-.59-.84-1.09-1.23-1.64.02-.36.02-.43,0-.79-.29-.34-.54-.85-.85-1.36-.28-.46-.82-.95-.9-1.47-.09-.64.2-1.2,0-1.81-.33-1.03-1.52-.56-1.37.79.04.37.48.88.61,1.25.14.38.11.85.24,1.3.12.44.49.81.61,1.3.2.77.19,1.61.38,2.1.16.43.76.84.42,1.36-.45.11-.62-.43-.9-.74-.15-.17-.71-.5-.8-.9-.07-.33.18-.78.09-1.19-.16-.8-1.5-.82-1.51-1.64,0-.52.56-.58.57-1.08,0-.55-.62-1.01-.76-1.47-.12-.43-.14-1.1-.19-1.7-.04-.56.01-1.21-.1-1.64-.1-.39-.58-.92-.89-1.13-.41-.28-.74-.16-.94-.57-.18-.35-.29-1.09-.33-1.47-.07-.68-.01-1.43-.05-2.15-.03-.73-.09-1.43,0-2.21.23-.55.66-.82.9-1.36.17-.38.19-.84.38-1.25.35-.74,1.1-1.42,1.6-2.15.54-.79,1.05-1.54,1.37-2.44.11-.32.42-1.02.38-1.42-.06-.55-.92-.99-.85-1.64.04-.4.52-.4.66-.79.07-.2.14-.77.14-1.02,0-.55-.23-1.11-.14-1.7.08-.5.69-.7.38-1.24-.31-.54-.88.29-1.23-.06-.32-.32.07-.71.09-1.3.01-.24-.11-.51-.09-.68.03-.25.44-.68.33-.85-.26-.39-.54-1.37-1.08-1.7-.69-.42-1.44-.14-2.4-.34-.59-.12-.87-.79-1.41-.74-.34.03-.53.49-.99.74-.46.24-1.05.16-1.51.28-.45.12-.67.5-1.13.45-.39-.04-.39-.46-.85-.51-.18-.02-.52.13-.8.17-.73.09-2.04.14-2.78-.06-.68-.18-1.09-.43-1.84-.85-.56-.31-1.6-.7-1.56-1.19.03-.32.99-.65,1.37-.79.61-.23.99-.59,1.46-.62.18-.01.42.14.66.12.24-.02.54-.29.85-.34.66-.11,1.59.04,1.51-.74-.5-.48-2.54.35-2.59-.68-.03-.62.77-.81,1.37-.96.54-.14,1.36-.37,1.84-.34.54.03,1.25.76,1.55-.06.15-.58-.18-1.06-.28-1.53.4-.66,1.14-.58,1.7-.68.64-.11,1.16-.25,1.79-.57.55-.28,1.14-.46,1.79-.57.64-.1,1.26-.39,1.84-.45.47-.05.91,0,1.37-.11.4-.09.83-.36,1.27-.34.3.02.55.28.85.34.28.06.6-.02.9.06.23.06.43.24.66.28.36.06.74-.06,1.08,0,.32.05.59.29.9.34.73.11,1.56-.05,2.26.11.27.06.51.22.8.28.28.06.58,0,.85.06.38.09.69.52,1.08.57.73.09,1.55-.38,2.31-.45.55-.05,1.12.03,1.7-.11.53-.13,1.04-.37,1.51-.4.26-.01.47.09.71.06.24-.04.54-.39.8-.34.35.07.29.6.66.74.41-.26.82.02,1.27,0,.44-.02.83-.26,1.32-.17.86.16,2.06,1.17,2.73.62.17-.14.13-.38.28-.74.21-.49.62-1.06.52-1.76-.94.02-1.85.57-2.92.62-1.09-.82.29-1.33,1.08-1.7.65-.31,1.17-1,1.98-1.13.66-.11,1.38.17,2.17.28.46.06.91-.04,1.18.06.46.17.7.72,1.09.85.16.06.44.05.66.11.42.12.8.39,1.23,0,.33.07.37.5.71.57.31-.2.56-.72,1.04-.85.21-.06.43.04.66,0,.39-.08.9-.7,1.13-.12-.1.41-.61.47-.9.79-.25.29-.64.95-.61,1.25.06.54.73.33.75,1.02-.1.4-.48.22-.8.4-.29.16-.4.5-.71.57-.86.19-1.57-.26-2.31-.23-.03.39.37.61.57.74.67.43,1.22.37,2.17.34.49-.01,1.04.17,1.46-.17.26-.22.25-.7.47-.96.27-.32.88-.64,1.27-.57.21.04.51.35.52.57,0,.52-.61.35-.61.91.4.29,1.45-.31,1.51-.79.04-.35-.34-.55-.33-.91.02-.59.69-.58.61-1.19-.32-.31-.66.07-.99,0-.46-.09-.88-.76-1.08-1.19.21-.3.63-.1.94-.06.35-.58.99-.8,1.88-.91.32-.04.74-.19.9.17.08.54-.66.86-.52,1.47.63.19.84-.84,1.37-1.25.23-.18.56-.3.9-.45.29-.13.61-.46.85-.45.26,0,.31.27.57.4.23.12.54-.08.61.28-.55,1.14-2.58.48-3.11,1.64.12.78-.32,1.52.05,2.04.26.37.85.12.99.51.18.52-.57.52-.38,1.13.5.36,1.09-.34,1.55-.62.5-.3,1.12-.66,1.18-1.36-.25-.58-1.18-.13-1.32-.74-.08-.33.28-1.07.38-1.19.49-.66,2.21-1.6,3.44-1.47.24.03.47.2.71.23.81.1,1.77-.42,2.4,0,.51-.36,1.13.05,1.84-.06.55.39.4,1.22,1.23,1.59.23.1.51.03.8.11.22.06.46.37.71.51.36.19.63.15.71.45.07.3-.26.49-.24.79.2.2.03.51.14.79.2.52.72.49,1.22.74.36.18,1.12.72,1.08,1.13-.02.28-.71.77-.94.91-.16.09-.96.56-1.23.51-.45-.08-.62-1.16-1.23-1.13-.26.01-.51.2-.52.62-.01.74.69.77.71,1.42.02.77-.35.82-.9,1.3-.39-.19-.72-.46-1.23-.51-.3.43.49.58.24,1.13-.76.19-1.33-.26-2.03-.51-.22-.08-.53-.05-.71-.17-.27-.19-.35-.74-.57-1.02-.25-.33-.76-.79-1.18-.79-.58,0-1.43.87-1.89.06.32-1.3,1.83-.33,2.83-.79.37-.17.5-.64.8-.85.61-.42,1.6-.48,1.51-1.3-.05-.42-.53-.41-.8-.62-.37-.29-.65-1.31-1.18-1.36-.27-.03-.47.25-.75.28-.61.07-1.29-.3-1.84,0-.26.18-.08.46-.28.79-.16.27-.55.35-.71.62-.18.32-.14.71-.38.96-.39.41-1.21.48-1.7.68-.22.09-.5.4-.71.4-.39,0-.56-.63-.99-.4-.04.61.53.85.9,1.13.39.3.8.6.94,1.13-.38.98-1-.05-1.6-.06-.67,0-1.65,1.53-2.21.28.14-.66.75-.76.9-1.42-.67.14-1.25.81-2.03,1.02-.33.09-.65.07-.94.17-.56.2-.96.7-1.55.96-.23.1-.51.07-.75.17-.57.23-1.25.64-1.84,1.02-.6.39-1.28.8-1.65,1.19-.2.21-.73.95-.71,1.19.02.34.55.45.57.79-.01.21-.31.66-.09.96.19.28.58.05.99.11.72.11,1.19.82,1.74,1.19.42.28,1.04.61,1.51.68.65.1,1.37-.23,1.46.4.09.6-.61.81-.66,1.19.35.55-.24.82-.24,1.3,0,.39.4.98.75,1.02.48.05,1.17-.56,1.37-1.13.24-.68.13-1.6.57-2.1,2.2.07,4.05-1.2,3.91-3.91-.01-.27-.14-.61-.09-.91.07-.44.7-.81.61-1.36.62-.23.59-1.41,1.23-1.59.53-.14,1.14.45,1.84.4.23-.02.52-.27.76-.23.46.08.74.76,1.08,1.08.31.28.63.19.71.57-.09.64-.46.65-.43,1.25.04.52.48.91.71.96.34.08.84-.14,1.18-.34.63-.36,1.17-1.44,1.7-1.3.42.11.74,1.7.8,2.27.07.61-.07,1.08-.05,1.64.06.95,1.06.86,1.55,1.36.15.15.21.54.33.74.24.38.53.38.57.79.09.98-.74,1.06-.66,2.15-.17.42-.6.4-.57.96.06.89,1.12.21,1.42.91.16.38-.03.65-.14,1.19.37.52.36,1.36-.28,1.36-.39,0-.5-.51-.9-.62M153.77,182.93c.22-.27-.09-.86-.43-.62-.03.21.06.71.43.62M186.67,188.08c-.2-.23-.84-.16-1.27-.11-.31.04-.67.12-.71.4.49.27,1.83.46,1.98-.28M184.22,187.12c.37-.35.21-1.07-.19-1.19-.15-.05-.36.14-.61.11-.27-.02-.53-.32-.75-.34-.38-.04-.76.18-.9.4-.01.34.21.39.19.74-.46.39-.21,1.71.24,1.76.48.05.73-1.45,1.37-1.59.23-.05.35.16.66.11M183.56,189.38c-.67-.29-1.29.2-1.84.28-.33.05-.92-.08-.85.51.06.48.68.31,1.04.17.75-.28,1.22-.53,1.65-.96M181.48,185.08c.94-.48-.19-1.96-.61-2.1-.76-.24-1.85.67-2.73.96-.5.16-.97.18-1.08.68.45.89,1.33-.19,1.98-.06.33.07.52.61.85.68.22.05,1.51-.12,1.6-.17M180.82,185.98c-.2-.28-1.25.03-1.56.28-.21.17-.35.6-.57.91-.22.32-.47.57-.66.85-.17.25-1.12,1.91-.38,2.1.32.08.97-.72,1.04-1.02.21-1.04.6-1.78,1.27-2.27.39-.28.79-.25.85-.85M174.93,179.64c.53-.02.88-1.89,0-1.64-.59.17-.73,1.68,0,1.64M172.39,222.12c.02-.09.07-.14.09-.23-.14-.56-.6.21-.09.23M152.45,174.71c.01-.11-.05-.13-.05-.23-.14,0-.31-.03-.28.17.07.16.25.19.33.06M201.99,165.82c.23.03.36-.05.33-.34-.21-.18-.51.05-.33.34M196.57,160.27c-.06-.08-.22-.08-.28,0v.23c.2.05.24-.09.28-.23M178.65,164.63c.16-.12.4-.29.28-.57-.52-.29-1.4-.07-2.17-.17-.44-.74-1.16-.85-1.23.34.88.86,2.21-.4,3.11.4M170.22,170.47c.27-.11.64-.05.71-.4-.22-.21-.45-.5-.71-.51-.34-.01-.51.35-.85.57-.4.25-.95.31-.99.74.73.17,1.39-.21,1.84-.4M169.98,166.39c.3-.06.61.1.8-.23-.22-1.25-1.66-.48-2.5-.4-.18.36-.41.64-.47,1.13.65.2,1.43-.36,2.17-.51M184.12,224.27c.37-.07.26-1.1-.19-.85-.34.19-.16.92.19.85"/>
      <path class="cls-32" d="M152.4,174.49c0,.1.06.12.05.23-.08.13-.26.1-.33-.06-.03-.2.14-.17.28-.17"/>
      <path class="cls-32" d="M150.99,177.83c-.1.37-.37.53-.66.68-.09-.08-.17-.18-.24-.28.02-.54.66-.93.9-.4"/>
    </g>
  </g>
  <path class="cls-69" d="M158.98,257.64c-5.46-1.43-9.89-3.34-13.29-5.72l6.65-14.93c3.2,2.11,6.92,3.82,11.15,5.11,4.23,1.3,8.38,1.94,12.47,1.94,7.77,0,11.66-1.94,11.66-5.83,0-2.05-1.11-3.56-3.32-4.55-2.22-.99-5.78-2.03-10.69-3.12-5.38-1.16-9.88-2.4-13.5-3.73-3.61-1.33-6.72-3.46-9.31-6.39-2.59-2.93-3.88-6.88-3.88-11.86,0-4.36,1.19-8.3,3.58-11.81,2.39-3.51,5.95-6.29,10.69-8.33,4.74-2.04,10.55-3.07,17.43-3.07,4.7,0,9.34.53,13.9,1.58,4.57,1.06,8.59,2.61,12.07,4.65l-6.24,15.03c-6.82-3.68-13.43-5.52-19.84-5.52-4.02,0-6.95.6-8.79,1.79-1.84,1.19-2.76,2.74-2.76,4.65s1.09,3.34,3.27,4.3c2.18.95,5.69,1.94,10.53,2.96,5.45,1.16,9.97,2.4,13.55,3.73,3.58,1.33,6.68,3.44,9.31,6.34,2.62,2.9,3.94,6.83,3.94,11.81,0,4.29-1.19,8.18-3.58,11.65-2.39,3.48-5.97,6.26-10.74,8.33-4.77,2.08-10.57,3.12-17.38,3.12-5.79,0-11.42-.72-16.87-2.15"/>
  <polygon class="cls-69" points="274.31 242.71 274.31 258.36 216.85 258.36 216.85 186.78 272.98 186.78 272.98 202.43 236.89 202.43 236.89 214.49 268.69 214.49 268.69 229.63 236.89 229.63 236.89 242.71 274.31 242.71"/>
  <path class="cls-69" d="M349.53,202.61c-3.19-5.66-7.58-10.09-13.17-13.29-5.59-3.2-11.89-4.81-18.9-4.81s-13.31,1.6-18.9,4.81c-5.59,3.2-9.98,7.64-13.17,13.29-3.19,5.66-4.78,12.03-4.78,19.12s1.59,13.46,4.78,19.12c3.19,5.66,7.58,10.09,13.17,13.29,5.59,3.2,11.89,4.81,18.9,4.81s13.31-1.6,18.9-4.81c5.59-3.2,9.98-7.63,13.17-13.29,3.19-5.66,4.78-12.03,4.78-19.12s-1.6-13.46-4.78-19.12"/>
  <g class="cls-12">
    <g class="cls-27">
      <path d="M294.22,192.25c-3.57,2.81-6.52,6.26-8.83,10.35-1,1.77-1.82,3.62-2.51,5.54l-1.21,4.09c-.7,3.01-1.07,6.17-1.07,9.49,0,7.09,1.59,13.46,4.78,19.12,3.19,5.66,7.58,10.09,13.17,13.29l18.9-32.41-23.24-29.47Z"/>
    </g>
  </g>
  <g class="cls-80">
    <g class="cls-28">
      <path class="cls-32" d="M294.22,192.25l23.24,29.47,1.48-37.22s-13.17-1.48-24.72,7.74"/>
    </g>
  </g>
  <rect class="cls-39" width="500" height="500"/>
  <line class="cls-41" x1="174.32" y1="300.06" x2="174.32" y2="320.39"/>
  <polyline class="cls-41" points="73.62 135.96 73.62 158.66 99.22 158.66"/>
  <polyline class="cls-41" points="399.68 138.96 423.43 138.96 423.43 155.59"/>
  <g class="cls-37">
    <path class="cls-14" d="M134.96,140.79H31.06c-2.26,0-4.1-1.83-4.1-4.09v-58.33c0-2.26,1.83-4.1,4.1-4.1h103.89c2.26,0,4.09,1.83,4.09,4.1v58.33c0,2.26-1.83,4.09-4.09,4.09"/>
    <g class="cls-90">
      <g class="cls-66">
        <path class="cls-32" d="M134.96,140.79H31.06c-2.26,0-4.1-1.83-4.1-4.09v-58.33c0-2.26,1.83-4.1,4.1-4.1h103.89c2.26,0,4.09,1.83,4.09,4.1v58.33c0,2.26-1.83,4.09-4.09,4.09"/>
      </g>
    </g>
    <path class="cls-40" d="M43.82,111.22c.49-.44,13.6-13.39,13.6-13.39l12.94,6.37,12.65-14.88,12.94,18.64,12.62-8.23"/>
    <rect class="cls-14" x="41.81" y="117.05" width="6.07" height="13.44"/>
    <rect class="cls-14" x="54.29" y="108.17" width="6.07" height="22.32"/>
    <rect class="cls-14" x="67.02" y="110.41" width="6.07" height="20.08"/>
    <rect class="cls-14" x="79.98" y="97.83" width="6.07" height="32.66"/>
    <rect class="cls-14" x="93.07" y="115.15" width="6.07" height="15.34"/>
    <path class="cls-14" d="M48.1,109.69c0,1.8-1.46,3.26-3.26,3.26s-3.26-1.46-3.26-3.26,1.46-3.26,3.26-3.26,3.26,1.46,3.26,3.26"/>
    <path class="cls-14" d="M60.59,97.83c0,1.8-1.46,3.26-3.26,3.26s-3.26-1.46-3.26-3.26,1.46-3.26,3.26-3.26,3.26,1.46,3.26,3.26"/>
    <path class="cls-14" d="M73.62,103.18c0,1.8-1.46,3.26-3.26,3.26s-3.26-1.46-3.26-3.26,1.46-3.26,3.26-3.26,3.26,1.46,3.26,3.26"/>
    <path class="cls-14" d="M86.27,89.31c0,1.8-1.46,3.26-3.26,3.26s-3.26-1.46-3.26-3.26,1.46-3.26,3.26-3.26,3.26,1.46,3.26,3.26"/>
    <path class="cls-14" d="M99.21,107.96c0,1.8-1.46,3.26-3.26,3.26s-3.26-1.46-3.26-3.26,1.46-3.26,3.26-3.26,3.26,1.46,3.26,3.26"/>
    <rect class="cls-14" x="106.03" y="107.45" width="6.07" height="23.04"/>
    <g class="cls-12">
      <g class="cls-84">
        <rect x="54.29" y="108.17" width="6.07" height="22.32"/>
      </g>
    </g>
    <g class="cls-12">
      <g class="cls-68">
        <rect x="79.98" y="97.83" width="6.07" height="32.66"/>
      </g>
    </g>
    <g class="cls-12">
      <g class="cls-15">
        <rect x="106.03" y="107.45" width="6.07" height="23.04"/>
      </g>
    </g>
    <rect class="cls-14" x="119.45" y="115.15" width="6.07" height="15.34"/>
    <line class="cls-40" x1="108.57" y1="99.72" x2="122.49" y2="107.45"/>
    <path class="cls-14" d="M112.55,99.72c0,1.8-1.46,3.26-3.26,3.26s-3.26-1.46-3.26-3.26,1.46-3.26,3.26-3.26,3.26,1.46,3.26,3.26"/>
    <path class="cls-14" d="M125.75,107.45c0,1.8-1.46,3.26-3.26,3.26s-3.26-1.46-3.26-3.26,1.46-3.26,3.26-3.26,3.26,1.46,3.26,3.26"/>
    <path class="cls-14" d="M461.48,257.51h-80.3c-2.73,0-4.94-2.21-4.94-4.94v-91.49c0-2.73,2.21-4.94,4.94-4.94h80.3c2.73,0,4.94,2.21,4.94,4.94v91.49c0,2.73-2.21,4.94-4.94,4.94"/>
    <g class="cls-90">
      <g class="cls-78">
        <path class="cls-32" d="M461.48,257.51h-80.3c-2.73,0-4.94-2.21-4.94-4.94v-91.49c0-2.73,2.21-4.94,4.94-4.94h80.3c2.73,0,4.94,2.21,4.94,4.94v91.49c0,2.73-2.21,4.94-4.94,4.94"/>
      </g>
    </g>
    <path class="cls-14" d="M466.42,171.66h-90.17v-10.88c0-2.55,2.07-4.63,4.63-4.63h81c2.51,0,4.55,2.04,4.55,4.55v10.96Z"/>
    <g class="cls-90">
      <g class="cls-7">
        <path class="cls-32" d="M463.03,165.04c0,1.87-1.52,3.39-3.39,3.39s-3.39-1.51-3.39-3.39,1.52-3.38,3.39-3.38,3.39,1.51,3.39,3.38"/>
      </g>
    </g>
    <g class="cls-90">
      <g class="cls-18">
        <path class="cls-32" d="M453.41,165.04c0,1.87-1.52,3.39-3.39,3.39s-3.39-1.51-3.39-3.39,1.52-3.38,3.39-3.38,3.39,1.51,3.39,3.38"/>
      </g>
    </g>
    <g class="cls-90">
      <g class="cls-71">
        <path class="cls-32" d="M443.79,165.04c0,1.87-1.52,3.39-3.39,3.39s-3.39-1.51-3.39-3.39,1.52-3.38,3.39-3.38,3.39,1.51,3.39,3.38"/>
      </g>
    </g>
    <g class="cls-61">
      <g class="cls-57">
        <rect class="cls-32" x="400.05" y="184.63" width="54.25" height="3.16"/>
      </g>
    </g>
    <g class="cls-61">
      <g class="cls-4">
        <rect class="cls-85" x="400.89" y="191.46" width="38.82" height="3.16"/>
      </g>
    </g>
    <rect class="cls-14" x="385.61" y="184.63" width="10.67" height="3.16"/>
    <rect class="cls-14" x="400.05" y="199.05" width="54.25" height="3.16"/>
    <rect class="cls-14" x="385.61" y="199.05" width="10.67" height="3.16"/>
    <rect class="cls-14" x="400.05" y="229.1" width="54.25" height="3.16"/>
    <g class="cls-61">
      <g class="cls-21">
        <rect class="cls-32" x="400.05" y="238.46" width="10.67" height="3.16"/>
      </g>
    </g>
    <rect class="cls-14" x="400.05" y="206.65" width="54.25" height="3.16"/>
    <g class="cls-61">
      <g class="cls-22">
        <rect class="cls-85" x="385.61" y="206.65" width="10.67" height="3.16"/>
      </g>
    </g>
    <g class="cls-61">
      <g class="cls-88">
        <rect class="cls-32" x="400.05" y="213.27" width="38.82" height="3.16"/>
      </g>
    </g>
    <g class="cls-61">
      <g class="cls-34">
        <rect class="cls-85" x="400.05" y="220.14" width="19.41" height="3.16"/>
      </g>
    </g>
    <path class="cls-14" d="M227.55,384.53h-68.18c-2.73,0-4.94-2.21-4.94-4.94v-55.76c0-2.73,2.21-4.93,4.94-4.93h68.18c2.73,0,4.94,2.21,4.94,4.94v55.76c0,2.73-2.21,4.94-4.94,4.94"/>
    <g class="cls-90">
      <g class="cls-65">
        <path class="cls-32" d="M227.55,384.53h-68.18c-2.73,0-4.94-2.21-4.94-4.94v-55.76c0-2.73,2.21-4.93,4.94-4.93h68.18c2.73,0,4.94,2.21,4.94,4.94v55.76c0,2.73-2.21,4.94-4.94,4.94"/>
      </g>
    </g>
    <path class="cls-14" d="M232.49,330.34h-78.05v-6.82c0-2.55,2.07-4.63,4.63-4.63h68.88c2.51,0,4.55,2.04,4.55,4.55v6.9Z"/>
    <g class="cls-90">
      <g class="cls-35">
        <path class="cls-32" d="M228.08,325.46c0,1.38-1.12,2.5-2.5,2.5s-2.5-1.12-2.5-2.5,1.12-2.5,2.5-2.5,2.5,1.12,2.5,2.5"/>
      </g>
    </g>
    <g class="cls-90">
      <g class="cls-50">
        <path class="cls-32" d="M220.98,325.46c0,1.38-1.12,2.5-2.5,2.5s-2.5-1.12-2.5-2.5,1.12-2.5,2.5-2.5,2.5,1.12,2.5,2.5"/>
      </g>
    </g>
    <g class="cls-90">
      <g class="cls-79">
        <path class="cls-32" d="M213.88,325.46c0,1.38-1.12,2.5-2.5,2.5s-2.5-1.12-2.5-2.5,1.12-2.5,2.5-2.5,2.5,1.12,2.5,2.5"/>
      </g>
    </g>
    <path class="cls-24" d="M192.24,357.26l6.77-18.6c2.52.92,4.83,2.34,6.79,4.18,1.96,1.84,3.52,4.06,4.59,6.51l-18.14,7.9Z"/>
    <path class="cls-14" d="M192.24,357.26l5.77,18.93c-1.87.57-3.81.86-5.77.86-10.86,0-19.79-8.93-19.79-19.79s8.93-19.79,19.79-19.79c2.28,0,4.54.39,6.68,1.16l-6.68,18.63Z"/>
    <path class="cls-14" d="M192.24,357.26l18.18-7.82c1.06,2.47,1.61,5.13,1.61,7.82,0,8.66-5.68,16.35-13.95,18.91l-5.84-18.91Z"/>
    <g class="cls-12">
      <g class="cls-70">
        <path d="M192.24,357.26l18.18-7.82c1.06,2.47,1.61,5.13,1.61,7.82,0,8.66-5.68,16.35-13.95,18.91l-5.84-18.91Z"/>
      </g>
    </g>
  </g>
  <polygon class="cls-85" points="382.95 377.72 380.83 456.66 383.82 456.66 387.3 377.72 382.95 377.72"/>
  <g class="cls-8">
    <g class="cls-11">
      <g class="cls-74">
        <polygon class="cls-32" points="382.95 377.72 380.83 456.66 383.82 456.66 387.3 377.72 382.95 377.72"/>
      </g>
    </g>
  </g>
  <polygon class="cls-85" points="399.24 379.52 425.95 379.52 434.41 456.66 437.87 456.66 430.08 374.03 399.24 374.85 399.24 379.52"/>
  <g class="cls-16">
    <g class="cls-11">
      <g class="cls-2">
        <polygon class="cls-32" points="399.24 379.52 425.95 379.52 434.41 456.66 437.87 456.66 430.08 374.03 399.24 374.85 399.24 379.52"/>
      </g>
    </g>
  </g>
  <polygon class="cls-85" points="397.3 374.85 359.44 374.85 357.5 374.85 349.18 456.66 351.06 456.66 351.43 453.69 351.12 456.66 353.01 456.66 362.57 379.7 393.69 379.7 393.94 456.66 395.89 456.66 396.04 456.66 397.99 456.66 399.24 374.85 397.3 374.85"/>
  <g class="cls-11">
    <g class="cls-48">
      <polygon class="cls-32" points="397.3 374.85 359.44 374.85 357.5 374.85 349.18 456.66 351.06 456.66 351.43 453.69 351.12 456.66 353.01 456.66 362.57 379.7 393.69 379.7 393.94 456.66 395.89 456.66 396.04 456.66 397.99 456.66 399.24 374.85 397.3 374.85"/>
    </g>
  </g>
  <path class="cls-85" d="M383.57,366.44l8.38-58.49c.45-4.27,3.63-7.48,7.4-7.48h39.01c.98,0,1.77.9,1.77,2.02v61.7c0,8.58-6.1,15.54-13.62,15.54h-78.03c-.47,0-.85-.44-.85-.97,0-3.85,2.73-6.96,6.1-6.96h24.53c2.7,0,4.97-2.3,5.3-5.36"/>
  <g class="cls-90">
    <g class="cls-47">
      <path class="cls-32" d="M440.13,302.5v61.69c0,8.59-6.1,15.55-13.62,15.55h-78.02c-.47,0-.87-.45-.87-.98,0-1.93.69-3.67,1.79-4.92,1.1-1.27,2.64-2.05,4.32-2.05h24.54c.55,0,1.08-.09,1.59-.28,1.96-.69,3.45-2.64,3.71-5.08l8.38-58.47c.44-4.28,3.63-7.49,7.4-7.49h39.01c.66,0,1.24.41,1.53,1.02.14.29.24.62.24,1"/>
    </g>
  </g>
  <g class="cls-12">
    <g class="cls-82">
      <path class="cls-32" d="M432.92,300.48v55.5c0,8.58-6.1,15.54-13.62,15.54h-39.45c1.96-.69,3.45-2.65,3.71-5.08l8.38-58.47c.44-4.28,3.63-7.49,7.4-7.49h33.57Z"/>
    </g>
  </g>
  <polygon class="cls-14" points="385.83 427.91 389.42 448.63 380.91 452.06 373.83 430.33 385.83 427.91"/>
  <path class="cls-85" d="M386.78,446.93c-.57,1.56-1.95,2.31-3.44,2.02l-.99-1.4c-.85-1.2-2.04-1.64-3.35-.75-.64.43-1.19,1.67-1.13,3.19.11,2.74-.98,4.51-.98,4.51,0,0-4.66,6.26-6.54,8.08-1.13,1.09-2.6,2.61-2.83,4.52-.07.55-.07,1.15.01,1.83.06.56.6,1.61.61,1.64l15.78-8.02s1.13-1.76,1.83-2.08c1.24-.57,2.32.21,2.32.21l5.76-2.87s-.34-.94-.84-2.31h0c-.22-.62-.48-1.32-.75-2.07-1.15-3.19-2.49-7.27-2.83-8.17-.58-1.58-2.66,1.67-2.66,1.67"/>
  <path class="cls-14" d="M374.32,457.73c.04-.1.14-.16.25-.15.5.04.98.22,1.4.52.22.16-.02.54-.24.38-.38-.27-.8-.43-1.23-.47-.15-.01-.24-.15-.18-.28,0,0,0,0,0,0"/>
  <path class="cls-14" d="M375.21,456.45c.04-.1.14-.16.25-.15.5.05.98.22,1.4.52.22.16-.02.55-.24.38-.38-.27-.8-.43-1.23-.47-.15-.01-.24-.15-.18-.28,0,0,0,0,0,0"/>
  <path class="cls-14" d="M376.15,455.2c.04-.1.14-.16.25-.15.5.04.98.22,1.4.52.22.16-.02.54-.24.38-.38-.27-.8-.43-1.23-.47-.15-.01-.24-.15-.18-.28,0,0,0,0,0,0"/>
  <g class="cls-11">
    <g class="cls-3">
      <path class="cls-32" d="M367.51,468.09c0,.28.02.58.05.89.06.56.6,1.61.62,1.64l15.78-8.02s1.13-1.76,1.83-2.08c1.24-.57,2.32.21,2.32.21l5.76-2.87s-.34-.94-.84-2.31h0c-.04-.11-.08-.23-.12-.35l-25.4,12.9Z"/>
    </g>
  </g>
  <path class="cls-43" d="M376.39,455.31c-.23-.57-.46-1.15-.79-1.67-.33-.52-.76-1-1.3-1.28-.25-.13-.57-.22-.82-.08-.26.15-.33.5-.3.8.07.58.42,1.09.89,1.44.46.35,1.75.67,2.32.79"/>
  <path class="cls-43" d="M376.46,455.28c-.04-.61-.08-1.23-.02-1.85.07-.61.25-1.23.62-1.72.17-.23.42-.45.7-.42.3.02.51.31.61.59.19.55.09,1.17-.17,1.68-.26.51-1.29,1.36-1.75,1.72"/>
  <polygon class="cls-14" points="358.48 423.48 362.07 444.2 353.55 447.63 346.48 425.9 358.48 423.48"/>
  <path class="cls-85" d="M359.42,442.5c-.57,1.56-1.95,2.31-3.44,2.02l-.99-1.4c-.85-1.2-2.04-1.64-3.35-.75-.64.43-1.19,1.67-1.13,3.19.11,2.74-.98,4.51-.98,4.51,0,0-4.66,6.26-6.54,8.08-1.13,1.09-2.6,2.61-2.83,4.52-.07.55-.07,1.15.01,1.83.06.56.6,1.61.61,1.64l15.78-8.02s1.13-1.76,1.83-2.08c1.24-.57,2.32.21,2.32.21l5.76-2.87s-.34-.94-.84-2.31h0c-.22-.62-.48-1.32-.75-2.07-1.15-3.19-2.49-7.27-2.83-8.17-.58-1.58-2.66,1.67-2.66,1.67"/>
  <path class="cls-14" d="M346.97,453.3c.04-.1.14-.16.25-.15.5.04.98.22,1.4.52.22.16-.02.54-.24.38-.38-.27-.8-.43-1.23-.47-.15-.01-.24-.15-.18-.28,0,0,0,0,0,0"/>
  <path class="cls-14" d="M347.85,452.03c.04-.1.14-.16.25-.15.5.05.98.22,1.4.52.22.16-.02.54-.24.38-.38-.27-.8-.43-1.23-.47-.15-.01-.24-.15-.18-.28,0,0,0,0,0,0"/>
  <path class="cls-14" d="M348.8,450.78c.04-.1.14-.16.25-.15.5.04.98.22,1.4.52.22.16-.02.54-.24.38-.38-.27-.8-.43-1.23-.47-.15-.01-.24-.15-.18-.28,0,0,0,0,0,0"/>
  <g class="cls-11">
    <g class="cls-77">
      <path class="cls-32" d="M340.16,463.66c0,.28.02.58.05.89.06.56.6,1.61.62,1.64l15.78-8.02s1.13-1.76,1.83-2.08c1.24-.57,2.32.21,2.32.21l5.76-2.87s-.34-.94-.84-2.31h0c-.04-.11-.08-.23-.12-.35l-25.41,12.9Z"/>
    </g>
  </g>
  <path class="cls-43" d="M349.04,450.88c-.23-.57-.46-1.15-.79-1.67-.33-.52-.76-1-1.3-1.28-.25-.13-.57-.22-.82-.08-.26.15-.33.5-.3.8.07.58.42,1.09.89,1.44.46.35,1.75.67,2.32.79"/>
  <path class="cls-43" d="M349.1,450.85c-.04-.61-.08-1.23-.02-1.85.07-.61.25-1.23.62-1.72.17-.23.42-.45.7-.42.3.02.51.31.61.59.19.55.09,1.17-.17,1.68-.26.51-1.29,1.36-1.75,1.72"/>
  <path class="cls-85" d="M427.11,334.64s-20.53,20.07-31.19,30.04c-10.67,9.97-44.24,8.49-44.24,8.49l12.67,64.65-17.4,2.1s-16.41-47.98-22.78-73.63c-.92-3.72.8-9.33,2.48-11.7,7.03-9.9,59.24-11.58,59.24-11.58l1.15-6.97,40.08-1.41Z"/>
  <g class="cls-11">
    <g class="cls-55">
      <path d="M354.23,386.19s-9.19-16.19-11.15-22.67c-1.96-6.48-1.36-8.9,3.47-10.85,4.82-1.96,38.98-6.05,38.98-6.05l.55-2.82,7.05,7.69s-40.39,2.7-39.94,9.33c.45,6.63,1.05,25.38,1.05,25.38"/>
    </g>
  </g>
  <path class="cls-85" d="M427.11,334.64s4.22,24.94-4.39,31.32c-8.22,6.1-42.98,9.73-42.98,9.73l10.67,65.01-17.04,2.99s-16.57-49.56-22.95-75.21c-.92-3.72-.13-8.51,1.55-10.88,7.03-9.9,58.78-12.91,58.78-12.91l16.35-10.05Z"/>
  <g class="cls-11">
    <g class="cls-60">
      <path d="M379.75,375.69s-2.72-3.95-4.77-5.58c0,0,5.89,1.96,7.01,5.45l-2.24.13Z"/>
    </g>
  </g>
  <path class="cls-26" d="M345.3,335.21l3.74,5.55s23.48-7.94,26.25-10.6c2.77-2.66,6.21-26.58,6.21-26.58v-16.95l.28-12.28s-9.73,2.36-10.51,10.19c-.23,2.32-4.4,36.74-4.4,36.74l-21.57,13.93Z"/>
  <path class="cls-85" d="M352.99,349.12h34.21c0,1.32-1.47,2.37-3.26,2.37h-27.67s-.03,0-.05,0c0,0,0,0,0,0h-28.02c-1.78-.01-3.21-1.07-3.2-2.37h27.97Z"/>
  <path class="cls-85" d="M327.7,351.35h31.26c.54,0,.97-.36.97-.79,0-.08-.02-.16-.05-.24l-13.9-31.88c-.35-.91-1.4-1.53-2.59-1.54h-31.28c-.53,0-.96.34-.96.77,0,.09.02.18.06.26l13.9,31.88c.36.91,1.4,1.53,2.59,1.54"/>
  <path class="cls-14" d="M312.11,316.9h31.28c1.19,0,2.23.63,2.59,1.54l13.38,30.68h27.85c0,1.32-1.47,2.37-3.26,2.37h-55.73c-.56,0-1.08-.12-1.54-.31-.73-.24-1.31-.73-1.56-1.36l-13.9-31.88c-.04-.08-.06-.17-.06-.26,0-.43.43-.77.96-.77"/>
  <path class="cls-32" d="M330.89,333.87c.68,1.53,2.04,2.58,3.06,2.37,1.02-.21,1.29-1.61.64-3.14-.66-1.54-2.04-2.56-3.06-2.35-1.02.21-1.33,1.55-.64,3.12"/>
  <g class="cls-12">
    <g class="cls-29">
      <path d="M345.97,318.44l13.38,30.68h-1.45l-14.52-32.21c1.19,0,2.24.63,2.59,1.54"/>
    </g>
  </g>
  <g class="cls-90">
    <g class="cls-33">
      <path class="cls-32" d="M312.11,316.9h31.28c1.19,0,2.23.63,2.59,1.54l13.38,30.68h27.85c0,1.32-1.47,2.37-3.26,2.37h-55.73c-.56,0-1.08-.12-1.54-.31-.73-.24-1.31-.73-1.56-1.36l-13.9-31.88c-.04-.08-.06-.17-.06-.26,0-.43.43-.77.96-.77"/>
    </g>
  </g>
  <path class="cls-86" d="M383.33,343.11s-5.44-6.54-3.69-7.81l.63-60.5,1.51-.46,12.29-2.81,12.7-2.74,6.67,1.38,11.74,12.94s1.65,31.57,1.74,33.01c.11,1.76.95,24.63.95,24.63-20.11,4.41-44.88,3.91-44.55,2.35"/>
  <path class="cls-26" d="M389.9,272.59l5.12,7.67,9.41-11.61s-2.51-1.94-4.62-3.75c-1.68-1.44-6.22-7.18-6.22-7.18l-1.24,1.1-7.91,6.83s5.65,3.22,5.51,4.43c.22,1.04.46,2.11-.12,2.52"/>
  <g class="cls-11">
    <g class="cls-92">
      <path d="M389.94,270.07c.22,1.17.34,1.41-.04,2.52,5.92-1.24,3.09-13.74,3.09-13.74h-.65l-7.91,6.83s5.68,3.25,5.51,4.39"/>
    </g>
  </g>
  <path class="cls-85" d="M369.16,246.63c-.81,3.38.23,10.12,4.69,7.59s-3.3-13.4-4.69-7.59"/>
  <path class="cls-26" d="M393.19,249.46c1.1,8.45,1.89,13.2-1.52,18.26-5.13,7.62-15.93,5.83-19.55-2.15-3.25-7.18-4.5-19.8,3.07-24.62,7.46-4.76,16.9.06,18,8.51"/>
  <path class="cls-85" d="M392.69,238.1c-2.03-4.38-8.48-5.77-11.25-2.8-.41.44,3.47.99,3.02.92l1.56,6.74c.47-.21,1.56.19,2.36,1.63,0,0,.48,9.08,4.82,12.09,8.23-5.91,6.05-17.84-.52-18.58"/>
  <path class="cls-26" d="M397.83,255.79c-.25,2.28-1.54,4.22-3.04,5.36-2.25,1.72-4.45-.05-4.72-2.73-.24-2.41.64-6.21,3.33-6.88,2.65-.66,4.72,1.63,4.44,4.24"/>
  <path class="cls-85" d="M381.7,254.18c.16.86-.16,1.63-.72,1.73-.56.1-1.15-.51-1.31-1.36-.16-.85.16-1.63.72-1.73.56-.1,1.15.51,1.31,1.36"/>
  <path class="cls-85" d="M373.34,255.96c.16.86-.16,1.63-.72,1.73-.56.1-1.15-.51-1.31-1.36-.16-.85.16-1.63.72-1.73.56-.1,1.15.51,1.31,1.36"/>
  <path class="cls-72" d="M375.98,254.96s-1.89,4.77-2.42,6.67c1.4.85,3.35-.04,3.35-.04l-.93-6.62Z"/>
  <path class="cls-85" d="M382.67,249.24c-.12.08-.27.1-.41.04-1.65-.77-2.94,0-2.96,0-.19.12-.44.06-.56-.13-.12-.19-.06-.44.13-.56.07-.04,1.68-1.01,3.74-.05.2.1.29.34.2.54-.03.07-.08.12-.13.16"/>
  <path class="cls-85" d="M369.54,254.08c-.08,0-.15-.04-.22-.09-.17-.15-.2-.4-.06-.57,1.43-1.74,3.29-1.52,3.37-1.52.22.03.39.23.36.45-.02.22-.22.38-.45.36-.08-.01-1.51-.16-2.66,1.23-.09.11-.23.16-.36.14"/>
  <path class="cls-46" d="M392.37,238.38c1.02-1.23,2.34-2.18,3.48-2.53"/>
  <path class="cls-46" d="M392.5,238.25c.51-1.58.42-3.35-.26-4.87"/>
  <g class="cls-80">
    <g class="cls-53">
      <path class="cls-44" d="M395.48,253.85c-.43-.43-1.16-.48-1.71-.23-.56.26-.96.77-1.22,1.32-.32.66-.45,1.41-.4,2.15"/>
    </g>
  </g>
  <path class="cls-85" d="M379,263.58h0c1.95-.5,3.54-1.9,4.26-3.78.04-.11-.02-.23-.13-.27,0,0,0,0-.01,0-.1-.04-.22.02-.25.12,0,0,0,0,0,.01-.69,1.73-2.16,3.02-3.96,3.5-.1.04-.15.16-.11.26,0,0,0,0,0,0,.04.1.16.15.26.11,0,0,0,0,0,0l-.06.04Z"/>
  <path class="cls-86" d="M387.71,272.99c.16-.24,2.42-1.85,2.42-1.85l4.51,3.56,6.48-8.97,5.66,3.07-11.96,15.05-7.1-10.86Z"/>
  <g class="cls-63">
    <g class="cls-54">
      <path class="cls-44" d="M394.6,276.2c-.94,11.46-1.58,22.9-1.48,33.92.1,11.03-1.85,23.24,1.72,33.67"/>
    </g>
  </g>
  <g class="cls-11">
    <g class="cls-19">
      <polygon points="412.96 312.03 407.27 312.58 409.22 288.37 410.62 309.06 426.58 309.72 412.96 312.03"/>
    </g>
  </g>
  <g class="cls-11">
    <g class="cls-49">
      <path d="M387.71,272.99c.12.18,2.75,5.39,3.86,7.59.18.37.72.33.86-.05l2.01-5.44-2.48,4.23-4.25-6.33Z"/>
    </g>
  </g>
  <g class="cls-11">
    <g class="cls-81">
      <path d="M394.84,274.78c.17.17,4.61,4.94,4.61,4.94l6.53-10.92-5.58,12.45c-.26.57-1.05.63-1.39.1l-4.17-6.56Z"/>
    </g>
  </g>
  <path class="cls-26" d="M413,299.1s-.04,17.47-.07,17.65c-.04.19-30.45,12.89-30.45,12.89,0,.45,4.52,5.73,4.52,5.73,0,0,33.17-4.36,36.92-10.01,3.2-4.83,3.7-26.49,3.7-26.49l-14.62.23Z"/>
  <path class="cls-86" d="M413.44,270.18c12.11,1.02,15.09,10.04,14.86,23.78-.21,13.23.11,16.16.11,16.16l-18.17-.4s-.3-23.6-.3-25.88,3.49-13.67,3.49-13.67"/>
  <path class="cls-86" d="M382.11,315.4l-16.65-4.19s4.56-23.69,5.34-27.66c.88-4.5,6.33-7.91,10.98-9.2l3.92,15.22-3.59,25.82Z"/>
  <g class="cls-11">
    <g class="cls-67">
      <path d="M379.64,314.78c-.18-.04-2.69-24.17-2.69-24.17l-1.38,23.15,4.06,1.02Z"/>
    </g>
  </g>
  <path class="cls-26" d="M366.51,346.43c.15-1.55,3.08-8.38,4.58-10.64,1.5-2.27,11.38-6.15,11.38-6.15l5.8,4.19s0,2.42-2.06,4.18c-1.18,1.01-5.17,2.03-5.17,2.03,0,0,.33,1.23.34,2.62,0,1.53-.3,3.42-1.56,3.36-1.26-.06-1.72-4.11-1.78-4.7.06.59.41,4.74-1.28,4.89-1.62.14-1.89-4.19-1.89-4.19,0,0-.08,2.02-.14,3.05s-1.08,1.93-2.04.78c-1.11-1.33-1.2-3.62-1.2-3.62,0,0-.88,1.34-2.19,4.26-.94,2.1-2.92,1.26-2.79-.06"/>
  <g class="cls-63">
    <g class="cls-1">
      <path class="cls-44" d="M378.1,341.93c-.04-.78-.08-1.56.03-2.33s.37-1.54.87-2.14"/>
    </g>
  </g>
  <g class="cls-63">
    <g class="cls-59">
      <path class="cls-44" d="M374.8,342.48c-.04-.78-.08-1.56.03-2.33s.37-1.54.87-2.14"/>
    </g>
  </g>
  <g class="cls-63">
    <g class="cls-76">
      <path class="cls-44" d="M371.52,342.19c-.04-.78-.08-1.56.03-2.33s.37-1.54.87-2.14"/>
    </g>
  </g>
  <path class="cls-85" d="M390.87,235.09c-.77-.97-1.99-1.46-3.21-1.67-1.64-.27-3.35-.16-4.95.34-1.83.57-3.51,1.63-5.4,1.92-.23.04-.5.05-.67-.11-.12-.11-.16-.28-.21-.44-.33-1.03-1.36-1.79-2.44-1.79-1.08,0-2.12.75-2.45,1.78-1.04-1.62-3.51-1.81-5.15-.8-1.64,1.01-2.58,2.14-3.13,3.99-.19.64-.27,2.05-.03,3.11.48,2.11,1.63,3.4,3.48,4.53,2.49,1.51,5.43,2.55,8.3,2.03,3.82-.7,6.72-3.99,10.5-4.91,1.43-.35,3.12-.26,4.11.82l3.08-5.8c0-.98-.95-1.9-1.83-3.01"/>
  <rect class="cls-39" width="500" height="500"/>
  <path class="cls-73" d="M74.57,203.04c.97,4.84,3.17,14.52-.17,17.76,0,0,1.35,4.84,10.29,4.84,9.82,0,4.67-4.84,4.67-4.84-5.37-1.28-5.27-5.26-4.35-8.99l-10.43-8.77Z"/>
  <path class="cls-85" d="M94.82,194.17c-.12,0-.23-.05-.32-.13-.17-.17-.17-.44,0-.61,1-.97,2.41-1.41,3.78-1.17.23.05.37.28.32.51,0,0,0,0,0,.01-.05.23-.28.38-.51.33h0c-1.09-.2-2.21.16-2.99.94-.07.08-.17.12-.27.12"/>
  <path class="cls-30" d="M96.16,199.77c.26,1.8.77,3.56,1.51,5.22-.87.36-1.85.31-2.69-.13l1.17-5.09Z"/>
  <path class="cls-85" d="M95.78,198.38c-.16.72.09,1.4.56,1.51.47.11.99-.38,1.1-1.1.11-.71-.08-1.39-.55-1.51-.47-.12-.93.37-1.11,1.1"/>
  <path class="cls-85" d="M96.74,197.26l1.84-.09s-1.19,1.15-1.84.09"/>
  <path class="cls-73" d="M72.14,190.16c-1.5,9-2.32,12.77,1.1,18.39,5.15,8.43,16.51,8.38,20.66,0,3.74-7.51,5.56-20.96-2.29-26.54-5.53-4-13.25-2.76-17.25,2.77-1.15,1.6-1.91,3.44-2.21,5.39"/>
  <path class="cls-85" d="M83.2,177.74c7.51-3.08,15.35-1.02,16.11,6.79.76,7.81-8.03,15.24-8.03,15.24l-8.07-22.03Z"/>
  <path class="cls-73" d="M86.82,198.01c-.21,1.76.29,3.52,1.37,4.92,1.46,1.83,3.54.87,4.28-1.22.67-1.88.7-5.1-1.31-6.18-1.46-.75-3.26-.18-4.02,1.29-.19.37-.3.78-.32,1.19"/>
  <g class="cls-12">
    <g class="cls-25">
      <path class="cls-44" d="M90.35,197.77c-.37-.05-.73.17-.94.48-.2.31-.27.69-.28,1.06-.02,1.13.5,2.25,1.38,2.97"/>
    </g>
  </g>
  <path class="cls-73" d="M64.79,241.77c-.46-.01-3.61,20.05-3.39,20.64.78,2.17,23.94-2.68,23.94-2.68l1.46,6.19s-10.11,4.91-20.99,6.69c-11.23,1.83-15.42-3.14-15.48-10.75-.05-6.98,2.84-23.94,2.84-23.94l11.63,3.85Z"/>
  <path class="cls-85" d="M139.18,230.89c-2.75,4.08-5.86,7.88-9.02,11.64-1.62,1.85-24.23,26.79-25.9,28.59l-2.49,2.72c-.88,1.08-2.28,1.69-3.8,1.65-1.67,0-3.15-1.21-3.37-2.75-.25-1.4.21-2.78,1.24-3.73l2.56-2.66c1.69-1.79,24.51-26.56,26.25-28.3,3.56-3.43,6.36-7.57,10.33-10.67.88-.71,3.09.18,3.92,1.04.69.71.8,1.73.27,2.48"/>
  <path class="cls-73" d="M103.61,276.96l-35.52,4.99c-5.25,6.88-5.85,17.6-5.49,29,.96,17.83,5.12,44.26,5.53,50.27.02,0,.39,0,.41,0-.03,4.6-2.9,20.1-2.9,27.01-.01,23.53,2.76,60.44,2.76,60.44l2.14,6.35,7.22-5.47s12.43-82.59,12.59-87.49c.02-.54.04-1.1.06-1.66l.49-8.56c.53-7.83,1.23-16.54,1.45-25.34l.82-14.27c10.36-3.73,15.13-16.37,16.88-19.04-3.01-9.97-3.83-11.93-6.44-16.24"/>
  <path class="cls-73" d="M108.98,288.95s5.3,18.25,9.79,61.89c.86,8.33-1.94,20.92-3.32,28.7l-13.79,70.5-9.41,1.34c-2.2-33.87,1.31-76.05,4.42-89.52l-20.48-63.5,32.8-9.41Z"/>
  <path class="cls-85" d="M78.91,448.34h-3.05c-.69,0-1.33.35-1.74.91-1.76,2.4-3.08,1.49-5-.76-1.22-.14-1.54,1.26-1.64,1.63l-2.28,8.3c-.2.69.2,1.42.9,1.61.12.04.25.05.38.05h24.18c3.85,0,4.64-3.88,3.06-4.24-7.12-1.57-12.17-3.67-14.37-5.74-.41-.36.01-.63-.43-1.76"/>
  <path class="cls-14" d="M85.54,450.7c.32-.23.51-.6.52-1,.03-.21-.07-.42-.25-.54-.96-.68-4.77,1.11-5.2,1.31-.05.02-.08.06-.1.1-.03.09.01.19.1.22.94.22,1.9.35,2.86.37.72.07,1.45-.09,2.07-.47M85.57,449.46c.08.05.12.14.1.23-.02.29-.15.55-.38.73-.87.65-2.96.37-4.09.16,1.58-.7,3.84-1.49,4.37-1.12"/>
  <path class="cls-14" d="M80.73,450.84c1.15-.48,3.55-2.36,3.42-3.36-.02-.21-.17-.46-.69-.53-2.09-.24-2.99,3.52-2.99,3.68-.02.07,0,.14.05.18.04.01.08.01.12,0l.09.03ZM83.39,447.27c.39.04.39.18.39.23.11.61-1.64,2.17-2.88,2.83.26-.88,1.03-3.07,2.35-3.07h.14Z"/>
  <path class="cls-42" d="M81.03,450.7c-1.05.14-2.03.77-2.59,1.67"/>
  <path class="cls-42" d="M82.93,452.13c-1.05.14-2.03.77-2.59,1.67"/>
  <path class="cls-42" d="M85.29,453.33c-1.05.14-2.03.77-2.59,1.67"/>
  <g class="cls-12">
    <g class="cls-75">
      <polygon points="90.02 454.93 89.83 460.03 86.91 460.03 88.52 454.5 90.02 454.93"/>
    </g>
  </g>
  <path class="cls-85" d="M102.13,448.53h-3.05c-.69,0-1.33.35-1.74.91-1.76,2.4-3.08,1.49-5-.76-1.22-.14-1.54,1.26-1.65,1.63l-2.28,8.3c-.2.69.2,1.42.9,1.61.12.03.25.05.38.05h24.18c3.85,0,4.64-3.88,3.06-4.24-7.13-1.57-12.17-3.67-14.37-5.74-.41-.36.01-.63-.43-1.76"/>
  <path class="cls-14" d="M108.76,450.89c.32-.23.51-.6.52-1,.03-.21-.07-.42-.25-.54-.96-.68-4.77,1.11-5.2,1.31-.05.02-.08.06-.1.1-.03.09.01.19.1.22.94.22,1.9.35,2.86.37.72.07,1.45-.09,2.07-.47M108.79,449.64c.08.05.12.14.1.23-.02.29-.15.55-.38.73-.87.65-2.96.37-4.09.16,1.58-.7,3.84-1.49,4.37-1.12"/>
  <path class="cls-14" d="M103.95,451.03c1.15-.48,3.55-2.36,3.42-3.36-.02-.21-.17-.46-.69-.53-2.09-.24-2.99,3.52-2.99,3.68-.02.07,0,.14.05.18.04.01.08.01.12,0l.09.03ZM106.61,447.45c.39.04.39.18.39.23.11.61-1.64,2.17-2.88,2.83.26-.88,1.03-3.07,2.35-3.07h.14Z"/>
  <path class="cls-42" d="M104.25,450.89c-1.05.14-2.03.77-2.59,1.67"/>
  <path class="cls-42" d="M106.15,452.31c-1.05.14-2.03.77-2.59,1.67"/>
  <path class="cls-42" d="M108.51,453.51c-1.05.14-2.03.77-2.59,1.67"/>
  <g class="cls-11">
    <g class="cls-52">
      <polygon points="68.39 363.7 68.55 361.22 90.39 361.22 89.98 365.57 68.39 363.7"/>
    </g>
  </g>
  <g class="cls-11">
    <g class="cls-38">
      <polygon points="96.46 361.22 96.67 361.85 95.85 365.99 117.54 368 118.5 361.22 96.46 361.22"/>
    </g>
  </g>
  <path class="cls-86" d="M66.72,278.86s-8.15,19.65-6.69,33.29c1.46,13.67,4.4,49.06,4.4,49.06h56.84s-1.34-20.59-2.99-30.99c-1.64-10.4-5.63-36.06-11.07-46.22-5.44-10.16-40.49-5.14-40.49-5.14"/>
  <g class="cls-11">
    <g class="cls-83">
      <path d="M90.69,343.04c-3.71-16.33-10.08-20.82-12.51-23.69l14.49,32.36-1.98-8.67Z"/>
    </g>
  </g>
  <path class="cls-14" d="M106.34,227.64c4.4,8.36,6.12,15.67,6.12,15.67l-17.6,3.32s-3.88-18.19-1.98-22.7c1.76-4.19,3.02-2.19,9.37.14,1.76.65,3.22,1.92,4.1,3.58"/>
  <path class="cls-14" d="M60.5,245.16l-5.35-18.23c3.38-5.05,20.11-8.92,20.11-8.92l11.02.6s4.24.95,7.86,2.13c4.84,1.58,7.46,2.85,8.61,5.54,0,0,.5,9.93-.71,22.2-.33,3.37.42,17.2,1.36,22.99l5.39,14.14c-31.28,13.04-45.43-.46-45.43-.46.91-2.77,3.05-10.02,3.46-12.72-.3-3.45-.46-4.89-1.92-10.94-.28-1.17-3.93-15.2-4.42-16.33"/>
  <path class="cls-14" d="M56.54,225.46c-3.92,2.14-5.75,16.04-5.75,16.04l13.67,5.92s5.29-11.91,3.03-17.18c-1.92-4.45-5.97-7.5-10.95-4.78"/>
  <g class="cls-10">
    <g class="cls-31">
      <path d="M106.34,227.64c4.4,8.36,6.12,15.67,6.12,15.67l-17.6,3.32s-3.88-18.19-1.98-22.7c1.76-4.19,3.02-2.19,9.37.14,1.76.65,3.22,1.92,4.1,3.58"/>
      <path d="M60.5,245.16l-5.35-18.23c3.38-5.05,20.11-8.92,20.11-8.92l11.02.6s4.24.95,7.86,2.13c4.84,1.58,7.46,2.85,8.61,5.54,0,0,.5,9.93-.71,22.2-.33,3.37.42,17.2,1.36,22.99l5.39,14.14c-31.28,13.04-45.43-.46-45.43-.46.91-2.77,3.05-10.02,3.46-12.72-.3-3.45-.46-4.89-1.92-10.94-.28-1.17-3.93-15.2-4.42-16.33"/>
      <path d="M56.54,225.46c-3.92,2.14-5.75,16.04-5.75,16.04l13.67,5.92s5.29-11.91,3.03-17.18c-1.92-4.45-5.97-7.5-10.95-4.78"/>
    </g>
  </g>
  <path class="cls-73" d="M110.93,243.6l4.99,12.51,8.63-11.36,6.75,2.82s-5.29,8.88-9.46,17.87c-4.45,9.57-10.45,7.9-14.07,1.21-3.32-6.13-8.86-20.77-8.86-20.77l12.04-2.27Z"/>
  <path class="cls-73" d="M136.03,238.8c-.05,1.18-3.82,7.12-3.82,7.12l-4.5,8.09-4.67-6.95,2.08-2.99c-.66-.99-1.5-4.59-1.01-5.74.53-1.24,1.76-2.14,1.76-2.14h.59s.03,2.42,1.6,2.52c1.47.09,4.24-.36,4.99-.64,1.04-.38,2.98-2.59,2.98-2.59,0,0,.61.45.51,1.35-.1.9-.66,1.52-.66,1.52l.15.45Z"/>
  <g class="cls-9">
    <g class="cls-36">
      <path class="cls-32" d="M184.27,221.69c-8.75,11.35-23.78,15.83-37.31,11.13-3.41-1.18-6.6-2.92-9.45-5.14-14.58-11.27-17.27-32.22-6-46.8,11.27-14.58,32.22-17.27,46.8-6,14.58,11.27,17.27,32.22,6,46.8h-.04Z"/>
    </g>
  </g>
  <g class="cls-10">
    <g class="cls-17">
      <path class="cls-32" d="M188.54,188.92l-62.64,8.04c.06-.5.11-.98.18-1.47.48-3.16,1.42-6.22,2.8-9.1l54.1-6.94c2.39,2.82,4.27,6.02,5.57,9.48"/>
    </g>
  </g>
  <g class="cls-10">
    <g class="cls-93">
      <path class="cls-32" d="M189.26,209.65l-58.89,7.54c-2.57-4.25-4.13-9.03-4.55-13.98l64.3-8.25c.84,4.9.55,9.93-.86,14.69"/>
    </g>
  </g>
  <path class="cls-85" d="M181.02,170.79c-16.36-12.59-39.83-9.54-52.42,6.81-12.59,16.36-9.54,39.83,6.81,52.42,16.32,12.57,39.74,9.56,52.35-6.73,12.64-16.32,9.66-39.8-6.66-52.44-.03-.02-.06-.05-.09-.07M138.22,226.26c-14.23-10.99-16.85-31.43-5.87-45.66,10.99-14.23,31.43-16.85,45.66-5.86,14.2,10.97,16.85,31.36,5.92,45.59-10.97,14.24-31.41,16.9-45.65,5.93-.02-.01-.03-.02-.05-.04v.04Z"/>
  <g class="cls-12">
    <g class="cls-87">
      <path d="M57.54,229.81c.06.19,2.18,12.6,6.48,13.73,2.05.54,18.51.24,18.51.24l1.46-2.29,2.48,2.29h10.45l-5.97-10.4.61-16.99-34.01,13.42Z"/>
    </g>
  </g>
  <path class="cls-85" d="M89.67,199.53c3.69-7.03,1.6-19.74-6.56-22.12-7.34-2.14-18.97.05-18.53,13.19.44,13.13-2.63,11.76-5.94,20.19-3.48,8.86-2.46,20.51,3.43,30.05h16.25l2.97-4.27,3.51,4.27h14.11c-6.96-9.66-2.8-13.43-1.96-22.2.84-8.77-10.44-13.07-7.27-19.11"/>
  <path class="cls-14" d="M72.96,179.83c-.43-1-1.32-1.91-2.41-1.98-.56-.04-1.11.15-1.64.33l-.1.69c-.43,1.09-1.3,1.92-1.96,2.89-.66.97-1.09,2.26-.54,3.28.42.77,1.3,1.18,2.17,1.27,1.58.17,3.21-.63,4.09-1.95.88-1.32,1.01-3.09.38-4.55"/>
  <path class="cls-85" d="M71.06,184.74c.54-1.17.9-3.85.65-4.85-.37-1.48-1.4-2.71-2.59-3.66-.6-.48-1.26-.91-1.99-1.16-1.2-.41-2.51-.29-3.75-.02-1.4.31-2.8.85-3.82,1.87-1.38,1.37-1.87,3.57-1.2,5.4.67,1.83,2.46,3.2,4.4,3.36-1.22.35-2.37.91-3.41,1.64-.09.06-.19.14-.2.25-.01.1.06.2.14.27.64.66,1.61.9,2.53.85.92-.05,1.79-.37,2.66-.68-.27.89-.53,1.78-.8,2.66-.08.27-.17.57-.09.84.18.62,1.01.75,1.64.64,1.95-.35,3.54-1.83,4.49-3.56.66-1.2,1.04-2.51,1.33-3.85"/>
  <rect class="cls-39" width="500" height="500"/>
</svg>