<?xml version="1.0" encoding="UTF-8"?>
<svg id="Layer_1" data-name="Layer 1" xmlns="http://www.w3.org/2000/svg" viewBox="0 0 120 120">
  <defs>
    <style>
      .cls-1 {
        fill: #f1f4f3;
      }

      .cls-2 {
        fill: #82c21c;
      }
    </style>
  </defs>
  <path class="cls-2" d="M72.48,44.1c0-6.89-5.59-12.48-12.49-12.48s-12.49,5.59-12.49,12.48c0,4.68,2.58,8.75,6.39,10.89l.26-8.28c0-3.39,2.75-6.14,6.14-6.14h.35c2.67,0,4.84,2.17,4.84,4.84v9.89c4.13-2.03,6.99-6.28,6.99-11.2h0Z"/>
  <path class="cls-1" d="M65.49,45.41c0-2.67-2.17-4.84-4.84-4.84h-.35c-3.39,0-6.14,2.75-6.14,6.14l-.26,8.28-.58,18.25c-.13.56-.21,13.25-.21,13.25-1.07-1.09-2.27-2.34-3.34-3.54-2.5-2.79-7.11-4.68-10.16-5.02-1.61-.18-2.84.04-3.66.65-.26.2-.52.42-.76.66-1.58,1.55-2.77,4.07-1.67,5.91.48.8,1.29,1.34,2.17,1.9,1.15.75,3.09,1.56,4.55,3.42,2.44,3.13,8.1,10.12,11.58,13.85.72.45,2.25,1.98,2.98,2.37,2.2,1.4,3.99,2.72,4.61,3.44.49.56,3.36,2.03,3.36,2.03,2.32,1.47,6.55,2.85,11.44,2.85s9.3.29,12.58-2.59h.18l.09-.22c3.33-3.05,5.4-7.28,5.4-11.95v-22.34c0-1.1-.24-4.77-3.33-5.87-1.48-.53-2.89-.33-4.08.19h-.28s-.09.02-.09.02c-.54-2.02-1.88-3.32-3.86-3.66-2.39-.41-4.05.3-5.05,1.02-.99-2.13-2.98-3.24-5.67-3.02-2.02.17-3.52,1.16-4.61,2.47v-23.64h0Z"/>
  <path class="cls-2" d="M87.86,64.83l2.48,2.76c.48.54,1.34.5,1.76-.08,4.78-6.63,7.41-14.61,7.41-23,0-21.79-17.72-39.51-39.51-39.51-1.5,0-3.01.08-4.51.25-18.18,2.03-32.8,16.7-34.76,34.89-1.07,9.9,1.55,19.56,7.17,27.37.42.58,1.28.61,1.76.08l2.47-2.75c.35-.39.38-.97.08-1.4-3.97-5.8-6.05-12.72-5.84-19.92.5-17.47,14.57-31.79,32.02-32.61,19.29-.95,35.24,14.52,35.24,33.6,0,6.83-2.08,13.39-5.86,18.92-.29.43-.27,1.01.09,1.4h0Z"/>
  <path class="cls-1" d="M76.75,52.47l2.62,2.92c.54.6,1.51.46,1.87-.25,1.66-3.27,2.53-6.87,2.53-10.63,0-11.19-7.95-20.98-18.9-23.27-3.2-.68-6.55-.68-9.76,0-10.95,2.29-18.89,12.08-18.89,23.27,0,3.76.87,7.35,2.53,10.63.37.72,1.33.85,1.87.25l2.62-2.92c.29-.33.36-.79.2-1.2-.88-2.14-1.35-4.44-1.35-6.76,0-7.48,4.73-14.25,11.77-16.82,3.93-1.44,8.33-1.44,12.26,0,7.04,2.58,11.77,9.34,11.77,16.82,0,2.33-.46,4.62-1.34,6.76-.17.41-.1.87.19,1.2h0Z"/>
</svg>