<?xml version="1.0" encoding="UTF-8"?>
<svg id="Layer_1" data-name="Layer 1" xmlns="http://www.w3.org/2000/svg" viewBox="0 0 120 120">
  <defs>
    <style>
      .cls-1 {
        fill: #f1f4f3;
      }
    </style>
  </defs>
  <path class="cls-1" d="M21.29,53.71c.67,3.57,1.34,8.78,1.97,12.89,1.64,7.98,1.85,19.15,6.84,16.12.59-.67,1.43-.08,1.22.88-7.43,5.37-10.67-3.32-12.18-12.89-2.56-.21-4.91-.08-7.05.42l-4.16,10.75c-.34,1.22-2.94,1.26-2.94-.13.59-1.55,1.81-5.08,3.28-9.19-.46.25-.88.5-1.26.8-.88.63-2.48.8-1.68-.67.88-1.18,2.27-2.06,3.86-2.65,2.39-6.59,5.25-13.9,7.26-16.88,1.01-1.3,4.45-2.52,4.83.55ZM12.89,69.12c2.31-.34,4.53-.34,6-.21-.63-4.87-.92-9.78-1.05-12.93-1.22,3.36-3.11,8.36-4.95,13.14Z"/>
  <path class="cls-1" d="M35.57,69.79c-6.21-2.69-7.18,19.99-1.22,4.45.21-.5.55-1.51.76-2.14.71-.8,1.39-.55,2.23.04.97.97-1.39,5.33.38,5.75,1.72-.04,3.19-2.81,3.99-4.37.67-.76,1.6-.8,1.6.63-1.47,2.77-3.11,6.34-6.84,5.33-.63-.17-1.18-.55-1.6-1.05l-.46.63c-2.35,2.81-6.51,2.27-7.1-1.55-.88-5.5,4.91-11.97,10.41-8.9,1.68,1.18-1.01,1.68-2.14,1.18Z"/>
  <path class="cls-1" d="M40.98,74.79c.59-1.09,1.85-4.11,2.27-4.95-.63-.92-1.76-2.23-.76-2.9,1.26-.84,3.61-.59,3.44,1.34-.04.34-.13.76-.29,1.13,1.09-.08,2.06-.63,3.11-.76.76-.04,1.81.04,1.81,1.01-1.05,3.11-3.86,8.4-2.6,9.49,1.18.8,2.77-2.39,3.36-3.7.42-.8,1.81-.42,1.64.42-.8,1.81-1.55,4.03-3.44,4.95-5.21,2.52-5.33-4.24-3.36-8.65l.63-1.13c-.67.13-1.34.17-2.02.13-.5.8-2.44,4.83-2.94,5.25-.97.71-1.55.04-.84-1.64Z"/>
  <path class="cls-1" d="M59.45,69.79c-6.21-2.69-7.18,19.99-1.22,4.45.21-.5.55-1.51.76-2.14.71-.8,1.39-.55,2.23.04.97.97-1.39,5.33.38,5.75,1.72-.04,3.19-2.81,3.99-4.37.67-.76,1.6-.8,1.6.63-1.47,2.77-3.11,6.34-6.84,5.33-.63-.17-1.18-.55-1.6-1.05l-.46.63c-2.35,2.81-6.51,2.27-7.1-1.55-.88-5.5,4.91-11.97,10.41-8.9,1.68,1.18-1.01,1.68-2.14,1.18Z"/>
  <path class="cls-1" d="M72.85,70.97c-2.52,1.97-4.41,5.67-5.84,9.66-.8.29-2.14.42-2.43-.63.04-3.7.46-7.26,1.34-10.92.34-1.22,2.9-1.26,2.9.17-.34,1.34-.71,3.27-1.09,6.05.84-1.81,2.31-4.45,4.28-6.3.71-.63,1.55-1.01,2.56-.88,2.35.29.92,3.86.5,7.1.84-1.81,2.27-4.37,4.24-6.21.71-.63,1.55-1.01,2.56-.88,3.44.42.71,5.79.17,8.61-.71,3.32,2.52,3.36,5-2.48.34-.55,1.64-.08,1.34.8-1.72,3.61-4.03,6.68-6.72,5.92-.84-.25-1.39-.55-1.85-1.39-1.22-2.31-.29-5.04.13-7.39.13-.59.17-.92.21-1.22-2.52,1.97-3.78,4.2-5.21,8.19-.8.29-2.14.42-2.44-.63-.25-1.43-.42-3.11.34-7.56Z"/>
  <path class="cls-1" d="M91.32,68.11c.04-.38.25-.71.63-.92,2.31-1.22,4.74,1.89,5.04,3.78.04.25.08.55.08.8.97.17,1.97.17,2.9-1.51.63-1.18,2.1-.38,1.68.55-1.43,2.23-3.02,3.15-4.62,2.69-.34,3.27-2.35,6.47-5.92,6.76-4.37.38-5.88-4.53-3.36-23.35.34-1.22,3.32-1.6,3.32-.17-.17,3.95-2.98,19.27-1.39,21.25,2.18,2.48,4.7-2.94,4.49-5.21-2.44-.76-2.98-2.86-2.86-4.66Z"/>
  <path class="cls-1" d="M100.22,57.78c.34-1.22,3.32-1.6,3.32-.17-.21,4.58-1.47,12.18-1.76,17.3.84-1.76,2.27-4.2,4.11-5.92.71-.63,1.55-1.01,2.56-.88,3.44.42.71,5.79.17,8.61-.71,3.32,2.52,3.36,5-2.48.34-.55,1.64-.08,1.34.8-1.72,3.61-4.03,6.68-6.72,5.92-.84-.25-1.39-.55-1.85-1.39-1.22-2.31-.29-5.04.13-7.39.13-.59.17-.92.21-1.22-2.52,1.97-4.41,5.67-5.84,9.66-.8.29-2.14.42-2.43-.63l1.76-22.21Z"/>
  <path class="cls-1" d="M38.9,42.46c1.71-3.96-1.46-7.01-5.17-4.71-5.42,3.55-7.97,16.39-5.09,22.44,2.96,6.26,11.01,1.88,13.6-2.5,1.13-1.92,1.92-.42,1.08,1.33-3,6.26-14.01,9.84-18.23,2.54-4.25-7.47-.92-21.65,6.47-25.61,4.96-2.75,13.35-.92,11.3,6.72-.38,1.33-4.84,2.67-3.96-.21Z"/>
  <path class="cls-1" d="M47.66,39.17c-.33,7.3-3.34,22.48-.75,22.61,2.21,0,4.25-3.17,4.8-4.21.63-1.17,1.71-.29,1.29.92-1.59,3.09-4,5.17-6.88,5.09-2.34-.08-3.04-3-3.17-4.8-.42-5.42.96-12.97,1.42-19.44.33-1.21,3.3-1.59,3.3-.17Z"/>
  <path class="cls-1" d="M53.29,50.55c.33-1.21,2.88-1.25,2.88.17-.25.96-.46,3.13-1.29,8.26-.42,3.34,2.5,3.34,4.96-2.46.33-.54,1.63-.08,1.33.79-1.84,4.55-6.01,8.3-8.51,4.5-1.21-1.84-.58-5.17.63-11.26ZM57.63,44.67c-.13,1.08-1.17,1.5-2.34,1.63-1.25.13-2.67-.96-2.04-2.29.79-.88,1.71-1.08,2.79-1.08,1.25.25,1.67,1,1.59,1.75Z"/>
  <path class="cls-1" d="M66.97,52.68c-.42-3.67-4.25-1.67-4.38,3.38-.13,5.46,3.21,6.84,7.76,1.13.71-.79,2.42-.83,1.63.63-2.67,3.5-6.47,6.42-9.8,4.25-3-2.13-3.04-6.26-1.33-9.22,2.04-3.59,7.97-5.71,8.34-.92-.08,1.59-2.09,1.79-2.21.75Z"/>
  <path class="cls-1" d="M76.65,57.02c2.92-.17,3.8-3.67,1.92-3.71-2.04-.21-4.38,5.63-5.8,9.59-.79.29-2.13.42-2.42-.63l1.75-22.06c.33-1.21,3.3-1.58,3.3-.17-.21,4.55-1.46,12.1-1.75,17.18.83-1.75,2.25-4.17,4.09-5.88.71-.63,1.54-1,2.54-.88,2.88.33,2.17,6.09-.79,6.8.75.33,1.04,1.33.96,1.75-.71,3.3,2.5,3.34,4.96-2.46.33-.54,1.63-.08,1.33.79-1.71,3.59-4,6.63-6.67,5.88-.83-.25-1.38-.54-1.84-1.38-.63-1.21.17-3.5-1.46-3.63-1.04-.08-.92-1.13-.13-1.21Z"/>
</svg>